%TF.GenerationSoftware,Altium Limited,Altium Designer,20.1.14 (287)*%
G04 Layer_Physical_Order=2*
G04 Layer_Color=255*
%FSLAX45Y45*%
%MOMM*%
%TF.SameCoordinates,7B5A7627-AB34-47FD-98C4-24A8EE2920DC*%
%TF.FilePolarity,Positive*%
%TF.FileFunction,Copper,L2,Bot,Signal*%
%TF.Part,Single*%
G01*
G75*
%TA.AperFunction,Conductor*%
%ADD23C,0.30000*%
%ADD24C,0.15000*%
%ADD25C,1.00000*%
%ADD26C,0.20000*%
%ADD27C,0.40000*%
%TA.AperFunction,ComponentPad*%
%ADD29C,1.60000*%
%ADD30C,2.10000*%
%TA.AperFunction,WasherPad*%
%ADD31C,3.20000*%
%TA.AperFunction,ViaPad*%
%ADD32C,0.60000*%
%ADD33C,0.80000*%
%ADD34C,1.60000*%
G36*
X6834521Y8249383D02*
X6867251Y8242873D01*
X6898083Y8230102D01*
X6925829Y8211562D01*
X6949427Y8187964D01*
X6967967Y8160217D01*
X6980738Y8129385D01*
X6987249Y8096655D01*
Y8079970D01*
Y5729969D01*
X6987248Y429970D01*
X6987248Y413283D01*
X6980738Y380553D01*
X6967967Y349722D01*
X6949427Y321974D01*
X6925829Y298377D01*
X6898082Y279837D01*
X6867250Y267066D01*
X6834520Y260556D01*
X6817835Y260556D01*
X4867836Y260557D01*
X4867835Y260557D01*
X4856130Y258228D01*
X4846206Y251598D01*
X4655165Y60556D01*
X1380504Y60556D01*
X1189463Y251597D01*
X1189463Y251598D01*
X1179539Y258228D01*
X1167834Y260557D01*
X1167833Y260557D01*
X201149D01*
X168419Y267067D01*
X137588Y279837D01*
X109841Y298377D01*
X86243Y321975D01*
X67703Y349722D01*
X54932Y380553D01*
X48421Y413284D01*
Y429969D01*
X48422Y5729969D01*
Y8079969D01*
X48421Y8096655D01*
X54932Y8129386D01*
X67703Y8160217D01*
X86243Y8187965D01*
X109840Y8211561D01*
X137588Y8230102D01*
X168419Y8242873D01*
X201149Y8249383D01*
X2141514D01*
X2148749Y8238056D01*
X2148700Y8236683D01*
X2128680Y8221321D01*
X2112651Y8200431D01*
X2102574Y8176105D01*
X2099138Y8150000D01*
X2102574Y8123895D01*
X2112651Y8099569D01*
X2128680Y8078679D01*
X2149569Y8062650D01*
X2173895Y8052574D01*
X2200000Y8049137D01*
X2226105Y8052574D01*
X2250432Y8062650D01*
X2271321Y8078679D01*
X2287350Y8099569D01*
X2297426Y8123895D01*
X2300863Y8150000D01*
X2297426Y8176105D01*
X2287350Y8200431D01*
X2271321Y8221321D01*
X2251300Y8236683D01*
X2251252Y8238056D01*
X2258486Y8249383D01*
X2395514D01*
X2402749Y8238056D01*
X2402700Y8236683D01*
X2382680Y8221321D01*
X2366651Y8200431D01*
X2356574Y8176105D01*
X2353138Y8150000D01*
X2356574Y8123895D01*
X2366651Y8099569D01*
X2382680Y8078679D01*
X2403569Y8062650D01*
X2427895Y8052574D01*
X2454000Y8049137D01*
X2480105Y8052574D01*
X2504432Y8062650D01*
X2525321Y8078679D01*
X2541350Y8099569D01*
X2551426Y8123895D01*
X2554863Y8150000D01*
X2551426Y8176105D01*
X2541350Y8200431D01*
X2525321Y8221321D01*
X2505300Y8236683D01*
X2505252Y8238056D01*
X2512486Y8249383D01*
X2649514D01*
X2656749Y8238056D01*
X2656700Y8236683D01*
X2636680Y8221321D01*
X2620651Y8200431D01*
X2610574Y8176105D01*
X2607138Y8150000D01*
X2610574Y8123895D01*
X2620651Y8099569D01*
X2636680Y8078679D01*
X2657569Y8062650D01*
X2681895Y8052574D01*
X2708000Y8049137D01*
X2734105Y8052574D01*
X2758432Y8062650D01*
X2779321Y8078679D01*
X2795350Y8099569D01*
X2805426Y8123895D01*
X2808863Y8150000D01*
X2805426Y8176105D01*
X2795350Y8200431D01*
X2779321Y8221321D01*
X2759300Y8236683D01*
X2759252Y8238056D01*
X2766486Y8249383D01*
X2903514D01*
X2910749Y8238056D01*
X2910700Y8236683D01*
X2890680Y8221321D01*
X2874651Y8200431D01*
X2864574Y8176105D01*
X2861138Y8150000D01*
X2864574Y8123895D01*
X2874651Y8099569D01*
X2890680Y8078679D01*
X2911569Y8062650D01*
X2935895Y8052574D01*
X2962000Y8049137D01*
X2988105Y8052574D01*
X3012432Y8062650D01*
X3033321Y8078679D01*
X3049350Y8099569D01*
X3059426Y8123895D01*
X3062863Y8150000D01*
X3059426Y8176105D01*
X3049350Y8200431D01*
X3033321Y8221321D01*
X3013300Y8236683D01*
X3013252Y8238056D01*
X3020486Y8249383D01*
X3157514D01*
X3164749Y8238056D01*
X3164700Y8236683D01*
X3144680Y8221321D01*
X3128651Y8200431D01*
X3118574Y8176105D01*
X3115138Y8150000D01*
X3118574Y8123895D01*
X3128651Y8099569D01*
X3144680Y8078679D01*
X3165569Y8062650D01*
X3189895Y8052574D01*
X3216000Y8049137D01*
X3242105Y8052574D01*
X3266432Y8062650D01*
X3287321Y8078679D01*
X3303350Y8099569D01*
X3313426Y8123895D01*
X3316863Y8150000D01*
X3313426Y8176105D01*
X3303350Y8200431D01*
X3287321Y8221321D01*
X3267300Y8236683D01*
X3267252Y8238056D01*
X3274486Y8249383D01*
X3411514D01*
X3418749Y8238056D01*
X3418700Y8236683D01*
X3398680Y8221321D01*
X3382651Y8200431D01*
X3372574Y8176105D01*
X3369138Y8150000D01*
X3372574Y8123895D01*
X3382651Y8099569D01*
X3398680Y8078679D01*
X3419569Y8062650D01*
X3443895Y8052574D01*
X3470000Y8049137D01*
X3496105Y8052574D01*
X3520432Y8062650D01*
X3541321Y8078679D01*
X3557350Y8099569D01*
X3567426Y8123895D01*
X3570863Y8150000D01*
X3567426Y8176105D01*
X3557350Y8200431D01*
X3541321Y8221321D01*
X3521300Y8236683D01*
X3521252Y8238056D01*
X3528486Y8249383D01*
X3665514D01*
X3672749Y8238056D01*
X3672700Y8236683D01*
X3652680Y8221321D01*
X3636651Y8200431D01*
X3626574Y8176105D01*
X3623138Y8150000D01*
X3626574Y8123895D01*
X3636651Y8099569D01*
X3652680Y8078679D01*
X3673569Y8062650D01*
X3697895Y8052574D01*
X3724000Y8049137D01*
X3750105Y8052574D01*
X3774432Y8062650D01*
X3795321Y8078679D01*
X3811350Y8099569D01*
X3821426Y8123895D01*
X3824863Y8150000D01*
X3821426Y8176105D01*
X3811350Y8200431D01*
X3795321Y8221321D01*
X3775300Y8236683D01*
X3775252Y8238056D01*
X3782486Y8249383D01*
X3914176D01*
X3918487Y8236683D01*
X3903113Y8224887D01*
X3886283Y8202953D01*
X3875703Y8177410D01*
X3873740Y8162503D01*
X3977999D01*
X4082260D01*
X4080297Y8177410D01*
X4069717Y8202953D01*
X4052887Y8224887D01*
X4037513Y8236683D01*
X4041825Y8249383D01*
X4736176D01*
X4740487Y8236683D01*
X4725113Y8224887D01*
X4708283Y8202953D01*
X4697703Y8177410D01*
X4695740Y8162500D01*
X4799998D01*
X4904260D01*
X4902297Y8177410D01*
X4891717Y8202953D01*
X4874887Y8224887D01*
X4859513Y8236683D01*
X4863824Y8249383D01*
X4995514D01*
X5002748Y8238056D01*
X5002700Y8236683D01*
X4982679Y8221321D01*
X4966650Y8200431D01*
X4956574Y8176105D01*
X4953137Y8150000D01*
X4956574Y8123895D01*
X4966650Y8099569D01*
X4982679Y8078679D01*
X5003569Y8062650D01*
X5027895Y8052574D01*
X5054000Y8049137D01*
X5080105Y8052574D01*
X5104431Y8062650D01*
X5125321Y8078679D01*
X5141350Y8099569D01*
X5151426Y8123895D01*
X5154863Y8150000D01*
X5151426Y8176105D01*
X5141350Y8200431D01*
X5125321Y8221321D01*
X5105300Y8236683D01*
X5105252Y8238056D01*
X5112486Y8249383D01*
X5249514D01*
X5256748Y8238056D01*
X5256700Y8236683D01*
X5236679Y8221321D01*
X5220650Y8200431D01*
X5210574Y8176105D01*
X5207137Y8150000D01*
X5210574Y8123895D01*
X5220650Y8099569D01*
X5236679Y8078679D01*
X5257569Y8062650D01*
X5281895Y8052574D01*
X5308000Y8049137D01*
X5334105Y8052574D01*
X5358431Y8062650D01*
X5379321Y8078679D01*
X5395350Y8099569D01*
X5405426Y8123895D01*
X5408863Y8150000D01*
X5405426Y8176105D01*
X5395350Y8200431D01*
X5379321Y8221321D01*
X5359300Y8236683D01*
X5359252Y8238056D01*
X5366486Y8249383D01*
X5503514D01*
X5510748Y8238056D01*
X5510700Y8236683D01*
X5490679Y8221321D01*
X5474650Y8200431D01*
X5464574Y8176105D01*
X5461137Y8150000D01*
X5464574Y8123895D01*
X5474650Y8099569D01*
X5490679Y8078679D01*
X5511569Y8062650D01*
X5535895Y8052574D01*
X5562000Y8049137D01*
X5588105Y8052574D01*
X5612431Y8062650D01*
X5633321Y8078679D01*
X5649350Y8099569D01*
X5659426Y8123895D01*
X5662863Y8150000D01*
X5659426Y8176105D01*
X5649350Y8200431D01*
X5633321Y8221321D01*
X5613300Y8236683D01*
X5613252Y8238056D01*
X5620486Y8249383D01*
X5757514D01*
X5764748Y8238056D01*
X5764700Y8236683D01*
X5744679Y8221321D01*
X5728650Y8200431D01*
X5718574Y8176105D01*
X5715137Y8150000D01*
X5718574Y8123895D01*
X5728650Y8099569D01*
X5744679Y8078679D01*
X5765569Y8062650D01*
X5789895Y8052574D01*
X5816000Y8049137D01*
X5842105Y8052574D01*
X5866431Y8062650D01*
X5887321Y8078679D01*
X5903350Y8099569D01*
X5913426Y8123895D01*
X5916863Y8150000D01*
X5913426Y8176105D01*
X5903350Y8200431D01*
X5887321Y8221321D01*
X5867300Y8236683D01*
X5867252Y8238056D01*
X5874486Y8249383D01*
X6011514D01*
X6018748Y8238056D01*
X6018700Y8236683D01*
X5998679Y8221321D01*
X5982650Y8200431D01*
X5972574Y8176105D01*
X5969137Y8150000D01*
X5972574Y8123895D01*
X5982650Y8099569D01*
X5998679Y8078679D01*
X6019569Y8062650D01*
X6043895Y8052574D01*
X6070000Y8049137D01*
X6096105Y8052574D01*
X6120431Y8062650D01*
X6141321Y8078679D01*
X6157350Y8099569D01*
X6167426Y8123895D01*
X6170863Y8150000D01*
X6167426Y8176105D01*
X6157350Y8200431D01*
X6141321Y8221321D01*
X6121300Y8236683D01*
X6121252Y8238056D01*
X6128486Y8249383D01*
X6265514D01*
X6272748Y8238056D01*
X6272700Y8236683D01*
X6252679Y8221321D01*
X6236650Y8200431D01*
X6226574Y8176105D01*
X6223137Y8150000D01*
X6226574Y8123895D01*
X6236650Y8099569D01*
X6252679Y8078679D01*
X6273569Y8062650D01*
X6297895Y8052574D01*
X6324000Y8049137D01*
X6350105Y8052574D01*
X6374431Y8062650D01*
X6395321Y8078679D01*
X6411350Y8099569D01*
X6421426Y8123895D01*
X6424863Y8150000D01*
X6421426Y8176105D01*
X6411350Y8200431D01*
X6395321Y8221321D01*
X6375300Y8236683D01*
X6375252Y8238056D01*
X6382486Y8249383D01*
X6519514D01*
X6526748Y8238056D01*
X6526700Y8236683D01*
X6506679Y8221321D01*
X6490650Y8200431D01*
X6480574Y8176105D01*
X6477137Y8150000D01*
X6480574Y8123895D01*
X6490650Y8099569D01*
X6506679Y8078679D01*
X6527569Y8062650D01*
X6551895Y8052574D01*
X6578000Y8049137D01*
X6604105Y8052574D01*
X6628431Y8062650D01*
X6649321Y8078679D01*
X6665350Y8099569D01*
X6675426Y8123895D01*
X6678863Y8150000D01*
X6675426Y8176105D01*
X6665350Y8200431D01*
X6649321Y8221321D01*
X6629300Y8236683D01*
X6629252Y8238056D01*
X6636486Y8249383D01*
X6817834D01*
X6834521Y8249383D01*
D02*
G37*
%LPC*%
G36*
X4787498Y8137500D02*
X4695740D01*
X4697703Y8122590D01*
X4708283Y8097047D01*
X4725113Y8075113D01*
X4747047Y8058283D01*
X4772590Y8047703D01*
X4787498Y8045740D01*
Y8137500D01*
D02*
G37*
G36*
X3965500Y8137503D02*
X3873740D01*
X3875703Y8122590D01*
X3886283Y8097047D01*
X3903113Y8075113D01*
X3925047Y8058283D01*
X3950590Y8047703D01*
X3965500Y8045740D01*
Y8137503D01*
D02*
G37*
G36*
X4082261D02*
X3990499D01*
Y8045740D01*
X4005411Y8047703D01*
X4030953Y8058283D01*
X4052887Y8075113D01*
X4069717Y8097047D01*
X4080297Y8122590D01*
X4082261Y8137503D01*
D02*
G37*
G36*
X4904260Y8137500D02*
X4812498D01*
Y8045740D01*
X4827410Y8047703D01*
X4852953Y8058283D01*
X4874887Y8075113D01*
X4891717Y8097047D01*
X4902297Y8122590D01*
X4904260Y8137500D01*
D02*
G37*
G36*
X6712500Y8012760D02*
Y7921004D01*
X6804260D01*
X6802297Y7935910D01*
X6791717Y7961453D01*
X6774887Y7983387D01*
X6752953Y8000217D01*
X6727410Y8010797D01*
X6712500Y8012760D01*
D02*
G37*
G36*
X362500D02*
Y7921004D01*
X454260D01*
X452297Y7935910D01*
X441717Y7961453D01*
X424887Y7983387D01*
X402953Y8000217D01*
X377410Y8010797D01*
X362500Y8012760D01*
D02*
G37*
G36*
X6687501Y8012760D02*
X6672590Y8010797D01*
X6647047Y8000217D01*
X6625113Y7983387D01*
X6608283Y7961453D01*
X6597703Y7935910D01*
X6595740Y7921004D01*
X6687501D01*
Y8012760D01*
D02*
G37*
G36*
X337501D02*
X322590Y8010797D01*
X297047Y8000217D01*
X275113Y7983387D01*
X258283Y7961453D01*
X247703Y7935910D01*
X245740Y7921004D01*
X337501D01*
Y8012760D01*
D02*
G37*
G36*
X6804261Y7896004D02*
X6712500D01*
Y7804240D01*
X6727410Y7806203D01*
X6752953Y7816783D01*
X6774887Y7833613D01*
X6791717Y7855547D01*
X6802297Y7881090D01*
X6804261Y7896004D01*
D02*
G37*
G36*
X454261D02*
X362500D01*
Y7804240D01*
X377410Y7806203D01*
X402953Y7816783D01*
X424887Y7833613D01*
X441717Y7855547D01*
X452297Y7881090D01*
X454261Y7896004D01*
D02*
G37*
G36*
X6687501D02*
X6595739D01*
X6597703Y7881090D01*
X6608283Y7855547D01*
X6625113Y7833613D01*
X6647047Y7816783D01*
X6672590Y7806203D01*
X6687501Y7804240D01*
Y7896004D01*
D02*
G37*
G36*
X337501D02*
X245739D01*
X247703Y7881090D01*
X258283Y7855547D01*
X275113Y7833613D01*
X297047Y7816783D01*
X322590Y7806203D01*
X337501Y7804240D01*
Y7896004D01*
D02*
G37*
G36*
X6712500Y7758760D02*
Y7667004D01*
X6804260D01*
X6802297Y7681910D01*
X6791717Y7707453D01*
X6774887Y7729387D01*
X6752953Y7746217D01*
X6727410Y7756797D01*
X6712500Y7758760D01*
D02*
G37*
G36*
X362500D02*
Y7667004D01*
X454260D01*
X452297Y7681910D01*
X441717Y7707453D01*
X424887Y7729387D01*
X402953Y7746217D01*
X377410Y7756797D01*
X362500Y7758760D01*
D02*
G37*
G36*
X6687501Y7758760D02*
X6672590Y7756797D01*
X6647047Y7746217D01*
X6625113Y7729387D01*
X6608283Y7707453D01*
X6597703Y7681910D01*
X6595740Y7667004D01*
X6687501D01*
Y7758760D01*
D02*
G37*
G36*
X337501D02*
X322590Y7756797D01*
X297047Y7746217D01*
X275113Y7729387D01*
X258283Y7707453D01*
X247703Y7681910D01*
X245740Y7667004D01*
X337501D01*
Y7758760D01*
D02*
G37*
G36*
X6804261Y7642004D02*
X6712500D01*
Y7550240D01*
X6727410Y7552203D01*
X6752953Y7562783D01*
X6774887Y7579613D01*
X6791717Y7601547D01*
X6802297Y7627090D01*
X6804261Y7642004D01*
D02*
G37*
G36*
X454261D02*
X362500D01*
Y7550240D01*
X377410Y7552203D01*
X402953Y7562783D01*
X424887Y7579613D01*
X441717Y7601547D01*
X452297Y7627090D01*
X454261Y7642004D01*
D02*
G37*
G36*
X6687501D02*
X6595739D01*
X6597703Y7627090D01*
X6608283Y7601547D01*
X6625113Y7579613D01*
X6647047Y7562783D01*
X6672590Y7552203D01*
X6687501Y7550240D01*
Y7642004D01*
D02*
G37*
G36*
X337501D02*
X245739D01*
X247703Y7627090D01*
X258283Y7601547D01*
X275113Y7579613D01*
X297047Y7562783D01*
X322590Y7552203D01*
X337501Y7550240D01*
Y7642004D01*
D02*
G37*
G36*
X4229998Y7550388D02*
X3819996Y7550385D01*
X3812193Y7548833D01*
X3805577Y7544413D01*
X3674054Y7412896D01*
X3302496Y7412892D01*
X3302495Y7412892D01*
X3298049Y7412007D01*
X3294693Y7411340D01*
X3294692Y7411339D01*
X3294691D01*
X3292690Y7410001D01*
X3288077Y7406919D01*
X3288076Y7406918D01*
X3258079Y7376914D01*
X3258078Y7376914D01*
X3258077Y7376913D01*
X3253657Y7370298D01*
X3253657Y7370297D01*
X3253657Y7370297D01*
X3253088Y7367433D01*
X3252106Y7362495D01*
X3252109Y7172517D01*
X3252109Y7172516D01*
X3252109Y7172515D01*
Y7172511D01*
X3252695Y7169563D01*
X3253659Y7164712D01*
X3253661Y7164709D01*
X3253661Y7164707D01*
X3255542Y7161893D01*
X3258078Y7158095D01*
X3280587Y7135575D01*
X3280589Y7135574D01*
X3280591Y7135571D01*
X3283980Y7133307D01*
X3287202Y7131153D01*
X3287204Y7131152D01*
X3287207Y7131151D01*
X3291030Y7130390D01*
X3295005Y7129599D01*
X3295008Y7129599D01*
X3295010Y7129599D01*
X3661553Y7129608D01*
X3849606Y6941544D01*
X3849612Y6608448D01*
X3575583Y6334420D01*
X3575582Y6334420D01*
X3571162Y6327804D01*
X3569609Y6320001D01*
X3569608Y5919583D01*
X3558199Y5914906D01*
X3556908Y5915006D01*
X3541321Y5935321D01*
X3520432Y5951350D01*
X3496105Y5961426D01*
X3470000Y5964863D01*
X3443895Y5961426D01*
X3419569Y5951350D01*
X3398680Y5935321D01*
X3382651Y5914431D01*
X3372574Y5890105D01*
X3369138Y5864000D01*
X3372574Y5837895D01*
X3382651Y5813569D01*
X3398680Y5792679D01*
X3419569Y5776650D01*
X3443895Y5766574D01*
X3470000Y5763137D01*
X3496105Y5766574D01*
X3520432Y5776650D01*
X3541321Y5792679D01*
X3556908Y5812993D01*
X3558199Y5813094D01*
X3569608Y5808414D01*
Y5790000D01*
X3571160Y5782196D01*
X3575581Y5775581D01*
X3575581Y5775580D01*
X3625581Y5725581D01*
X3632196Y5721160D01*
X3640000Y5719608D01*
X3800000D01*
X3807803Y5721160D01*
X3814419Y5725581D01*
X3814420Y5725581D01*
X3864419Y5775581D01*
X3868840Y5782196D01*
X3870392Y5790000D01*
Y5816225D01*
X3883092Y5818751D01*
X3886283Y5811047D01*
X3903113Y5789113D01*
X3925047Y5772283D01*
X3950590Y5761703D01*
X3965500Y5759740D01*
Y5864003D01*
Y5968260D01*
X3950590Y5966297D01*
X3925047Y5955717D01*
X3903113Y5938887D01*
X3886283Y5916953D01*
X3883092Y5909249D01*
X3870392Y5911775D01*
Y5999999D01*
X3870392Y6000000D01*
X3868840Y6007804D01*
X3864419Y6014419D01*
X3864418Y6014420D01*
X3840388Y6038450D01*
X3840391Y6251552D01*
X3978447Y6389606D01*
X4269997Y6389604D01*
X4269998Y6389604D01*
X4277802Y6391157D01*
X4284417Y6395577D01*
X4354417Y6465577D01*
X4358838Y6472193D01*
X4360390Y6479996D01*
Y7419997D01*
X4358838Y7427800D01*
X4354417Y7434416D01*
X4354416Y7434416D01*
X4244417Y7544416D01*
X4237802Y7548836D01*
X4229998Y7550388D01*
D02*
G37*
G36*
X2120000Y7261175D02*
X2096589Y7256519D01*
X2076743Y7243258D01*
X2075090Y7240784D01*
X1904911D01*
X1903258Y7243258D01*
X1883411Y7256519D01*
X1860000Y7261175D01*
X1836589Y7256519D01*
X1816743Y7243258D01*
X1803481Y7223411D01*
X1798825Y7200000D01*
X1803481Y7176589D01*
X1816743Y7156743D01*
X1836589Y7143481D01*
X1860000Y7138825D01*
X1883411Y7143481D01*
X1903258Y7156743D01*
X1904911Y7159217D01*
X2075090D01*
X2076743Y7156743D01*
X2096589Y7143481D01*
X2120000Y7138825D01*
X2143411Y7143481D01*
X2163258Y7156743D01*
X2176519Y7176589D01*
X2181175Y7200000D01*
X2176519Y7223411D01*
X2163258Y7243258D01*
X2143411Y7256519D01*
X2120000Y7261175D01*
D02*
G37*
G36*
X3990499Y5968260D02*
Y5876503D01*
X4082260D01*
X4080297Y5891410D01*
X4069717Y5916953D01*
X4052887Y5938887D01*
X4030953Y5955717D01*
X4005411Y5966297D01*
X3990499Y5968260D01*
D02*
G37*
G36*
X4812498D02*
Y5876500D01*
X4904260D01*
X4902297Y5891410D01*
X4891717Y5916953D01*
X4874887Y5938887D01*
X4852953Y5955717D01*
X4827410Y5966297D01*
X4812498Y5968260D01*
D02*
G37*
G36*
X4787498Y5968260D02*
X4772590Y5966297D01*
X4747047Y5955717D01*
X4725113Y5938887D01*
X4708283Y5916953D01*
X4697703Y5891410D01*
X4695740Y5876500D01*
X4787498D01*
Y5968260D01*
D02*
G37*
G36*
X6578000Y5964863D02*
X6551895Y5961426D01*
X6527569Y5951350D01*
X6506679Y5935321D01*
X6490650Y5914431D01*
X6480574Y5890105D01*
X6477137Y5864000D01*
X6480574Y5837895D01*
X6490650Y5813569D01*
X6506679Y5792679D01*
X6527569Y5776650D01*
X6551895Y5766574D01*
X6578000Y5763137D01*
X6604105Y5766574D01*
X6628431Y5776650D01*
X6649321Y5792679D01*
X6665350Y5813569D01*
X6675426Y5837895D01*
X6678863Y5864000D01*
X6675426Y5890105D01*
X6665350Y5914431D01*
X6649321Y5935321D01*
X6628431Y5951350D01*
X6604105Y5961426D01*
X6578000Y5964863D01*
D02*
G37*
G36*
X6324000D02*
X6297895Y5961426D01*
X6273569Y5951350D01*
X6252679Y5935321D01*
X6236650Y5914431D01*
X6226574Y5890105D01*
X6223137Y5864000D01*
X6226574Y5837895D01*
X6236650Y5813569D01*
X6252679Y5792679D01*
X6273569Y5776650D01*
X6297895Y5766574D01*
X6324000Y5763137D01*
X6350105Y5766574D01*
X6374431Y5776650D01*
X6395321Y5792679D01*
X6411350Y5813569D01*
X6421426Y5837895D01*
X6424863Y5864000D01*
X6421426Y5890105D01*
X6411350Y5914431D01*
X6395321Y5935321D01*
X6374431Y5951350D01*
X6350105Y5961426D01*
X6324000Y5964863D01*
D02*
G37*
G36*
X6070000D02*
X6043895Y5961426D01*
X6019569Y5951350D01*
X5998679Y5935321D01*
X5982650Y5914431D01*
X5972574Y5890105D01*
X5969137Y5864000D01*
X5972574Y5837895D01*
X5982650Y5813569D01*
X5998679Y5792679D01*
X6019569Y5776650D01*
X6043895Y5766574D01*
X6070000Y5763137D01*
X6096105Y5766574D01*
X6120431Y5776650D01*
X6141321Y5792679D01*
X6157350Y5813569D01*
X6167426Y5837895D01*
X6170863Y5864000D01*
X6167426Y5890105D01*
X6157350Y5914431D01*
X6141321Y5935321D01*
X6120431Y5951350D01*
X6096105Y5961426D01*
X6070000Y5964863D01*
D02*
G37*
G36*
X5816000D02*
X5789895Y5961426D01*
X5765569Y5951350D01*
X5744679Y5935321D01*
X5728650Y5914431D01*
X5718574Y5890105D01*
X5715137Y5864000D01*
X5718574Y5837895D01*
X5728650Y5813569D01*
X5744679Y5792679D01*
X5765569Y5776650D01*
X5789895Y5766574D01*
X5816000Y5763137D01*
X5842105Y5766574D01*
X5866431Y5776650D01*
X5887321Y5792679D01*
X5903350Y5813569D01*
X5913426Y5837895D01*
X5916863Y5864000D01*
X5913426Y5890105D01*
X5903350Y5914431D01*
X5887321Y5935321D01*
X5866431Y5951350D01*
X5842105Y5961426D01*
X5816000Y5964863D01*
D02*
G37*
G36*
X5562000D02*
X5535895Y5961426D01*
X5511569Y5951350D01*
X5490679Y5935321D01*
X5474650Y5914431D01*
X5464574Y5890105D01*
X5461137Y5864000D01*
X5464574Y5837895D01*
X5474650Y5813569D01*
X5490679Y5792679D01*
X5511569Y5776650D01*
X5535895Y5766574D01*
X5562000Y5763137D01*
X5588105Y5766574D01*
X5612431Y5776650D01*
X5633321Y5792679D01*
X5649350Y5813569D01*
X5659426Y5837895D01*
X5662863Y5864000D01*
X5659426Y5890105D01*
X5649350Y5914431D01*
X5633321Y5935321D01*
X5612431Y5951350D01*
X5588105Y5961426D01*
X5562000Y5964863D01*
D02*
G37*
G36*
X5308000D02*
X5281895Y5961426D01*
X5257569Y5951350D01*
X5236679Y5935321D01*
X5220650Y5914431D01*
X5210574Y5890105D01*
X5207137Y5864000D01*
X5210574Y5837895D01*
X5220650Y5813569D01*
X5236679Y5792679D01*
X5257569Y5776650D01*
X5281895Y5766574D01*
X5308000Y5763137D01*
X5334105Y5766574D01*
X5358431Y5776650D01*
X5379321Y5792679D01*
X5395350Y5813569D01*
X5405426Y5837895D01*
X5408863Y5864000D01*
X5405426Y5890105D01*
X5395350Y5914431D01*
X5379321Y5935321D01*
X5358431Y5951350D01*
X5334105Y5961426D01*
X5308000Y5964863D01*
D02*
G37*
G36*
X5054000D02*
X5027895Y5961426D01*
X5003569Y5951350D01*
X4982679Y5935321D01*
X4966650Y5914431D01*
X4956574Y5890105D01*
X4953137Y5864000D01*
X4956574Y5837895D01*
X4966650Y5813569D01*
X4982679Y5792679D01*
X5003569Y5776650D01*
X5027895Y5766574D01*
X5054000Y5763137D01*
X5080105Y5766574D01*
X5104431Y5776650D01*
X5125321Y5792679D01*
X5141350Y5813569D01*
X5151426Y5837895D01*
X5154863Y5864000D01*
X5151426Y5890105D01*
X5141350Y5914431D01*
X5125321Y5935321D01*
X5104431Y5951350D01*
X5080105Y5961426D01*
X5054000Y5964863D01*
D02*
G37*
G36*
X3216000D02*
X3189895Y5961426D01*
X3165569Y5951350D01*
X3144680Y5935321D01*
X3128651Y5914431D01*
X3118574Y5890105D01*
X3115138Y5864000D01*
X3118574Y5837895D01*
X3128651Y5813569D01*
X3144680Y5792679D01*
X3165569Y5776650D01*
X3189895Y5766574D01*
X3216000Y5763137D01*
X3242105Y5766574D01*
X3266432Y5776650D01*
X3287321Y5792679D01*
X3303350Y5813569D01*
X3313426Y5837895D01*
X3316863Y5864000D01*
X3313426Y5890105D01*
X3303350Y5914431D01*
X3287321Y5935321D01*
X3266432Y5951350D01*
X3242105Y5961426D01*
X3216000Y5964863D01*
D02*
G37*
G36*
X2962000D02*
X2935895Y5961426D01*
X2911569Y5951350D01*
X2890680Y5935321D01*
X2874651Y5914431D01*
X2864574Y5890105D01*
X2861138Y5864000D01*
X2864574Y5837895D01*
X2874651Y5813569D01*
X2890680Y5792679D01*
X2911569Y5776650D01*
X2935895Y5766574D01*
X2962000Y5763137D01*
X2988105Y5766574D01*
X3012432Y5776650D01*
X3033321Y5792679D01*
X3049350Y5813569D01*
X3059426Y5837895D01*
X3062863Y5864000D01*
X3059426Y5890105D01*
X3049350Y5914431D01*
X3033321Y5935321D01*
X3012432Y5951350D01*
X2988105Y5961426D01*
X2962000Y5964863D01*
D02*
G37*
G36*
X2708000D02*
X2681895Y5961426D01*
X2657569Y5951350D01*
X2636680Y5935321D01*
X2620651Y5914431D01*
X2610574Y5890105D01*
X2607138Y5864000D01*
X2610574Y5837895D01*
X2620651Y5813569D01*
X2636680Y5792679D01*
X2657569Y5776650D01*
X2681895Y5766574D01*
X2708000Y5763137D01*
X2734105Y5766574D01*
X2758432Y5776650D01*
X2779321Y5792679D01*
X2795350Y5813569D01*
X2805426Y5837895D01*
X2808863Y5864000D01*
X2805426Y5890105D01*
X2795350Y5914431D01*
X2779321Y5935321D01*
X2758432Y5951350D01*
X2734105Y5961426D01*
X2708000Y5964863D01*
D02*
G37*
G36*
X2454000D02*
X2427895Y5961426D01*
X2403569Y5951350D01*
X2382680Y5935321D01*
X2366651Y5914431D01*
X2356574Y5890105D01*
X2353138Y5864000D01*
X2356574Y5837895D01*
X2366651Y5813569D01*
X2382680Y5792679D01*
X2403569Y5776650D01*
X2427895Y5766574D01*
X2454000Y5763137D01*
X2480105Y5766574D01*
X2504432Y5776650D01*
X2525321Y5792679D01*
X2541350Y5813569D01*
X2551426Y5837895D01*
X2554863Y5864000D01*
X2551426Y5890105D01*
X2541350Y5914431D01*
X2525321Y5935321D01*
X2504432Y5951350D01*
X2480105Y5961426D01*
X2454000Y5964863D01*
D02*
G37*
G36*
X2200000D02*
X2173895Y5961426D01*
X2149569Y5951350D01*
X2128680Y5935321D01*
X2112651Y5914431D01*
X2102574Y5890105D01*
X2099138Y5864000D01*
X2102574Y5837895D01*
X2112651Y5813569D01*
X2128680Y5792679D01*
X2149569Y5776650D01*
X2173895Y5766574D01*
X2200000Y5763137D01*
X2226105Y5766574D01*
X2250432Y5776650D01*
X2271321Y5792679D01*
X2287350Y5813569D01*
X2297426Y5837895D01*
X2300863Y5864000D01*
X2297426Y5890105D01*
X2287350Y5914431D01*
X2271321Y5935321D01*
X2250432Y5951350D01*
X2226105Y5961426D01*
X2200000Y5964863D01*
D02*
G37*
G36*
X4787498Y5851500D02*
X4695740D01*
X4697703Y5836590D01*
X4708283Y5811047D01*
X4725113Y5789113D01*
X4747047Y5772283D01*
X4772590Y5761703D01*
X4787498Y5759740D01*
Y5851500D01*
D02*
G37*
G36*
X4082261Y5851503D02*
X3990499D01*
Y5759740D01*
X4005411Y5761703D01*
X4030953Y5772283D01*
X4052887Y5789113D01*
X4069717Y5811047D01*
X4080297Y5836590D01*
X4082261Y5851503D01*
D02*
G37*
G36*
X4904260Y5851500D02*
X4812498D01*
Y5759740D01*
X4827410Y5761703D01*
X4852953Y5772283D01*
X4874887Y5789113D01*
X4891717Y5811047D01*
X4902297Y5836590D01*
X4904260Y5851500D01*
D02*
G37*
G36*
X3990496Y5504261D02*
Y5412500D01*
X4082260D01*
X4080297Y5427410D01*
X4069717Y5452953D01*
X4052887Y5474887D01*
X4030953Y5491717D01*
X4005411Y5502297D01*
X3990496Y5504261D01*
D02*
G37*
G36*
X3965497Y5504260D02*
X3950590Y5502297D01*
X3925047Y5491717D01*
X3903113Y5474887D01*
X3886283Y5452953D01*
X3875703Y5427410D01*
X3873740Y5412500D01*
X3965497D01*
Y5504260D01*
D02*
G37*
G36*
X1104835Y5667841D02*
X1069549Y5664365D01*
X1035619Y5654073D01*
X1004349Y5637359D01*
X976940Y5614865D01*
X954446Y5587456D01*
X937732Y5556186D01*
X927440Y5522256D01*
X923964Y5486970D01*
X927440Y5451684D01*
X937732Y5417754D01*
X954446Y5386484D01*
X976940Y5359075D01*
X1004349Y5336581D01*
X1035619Y5319867D01*
X1069549Y5309575D01*
X1104835Y5306099D01*
X1140121Y5309575D01*
X1174051Y5319867D01*
X1205321Y5336581D01*
X1232730Y5359075D01*
X1255224Y5386484D01*
X1271938Y5417754D01*
X1282230Y5451684D01*
X1285706Y5486970D01*
X1282230Y5522256D01*
X1271938Y5556186D01*
X1255224Y5587456D01*
X1232730Y5614865D01*
X1205321Y5637359D01*
X1174051Y5654073D01*
X1140121Y5664365D01*
X1104835Y5667841D01*
D02*
G37*
G36*
X3724000Y5500863D02*
X3697895Y5497426D01*
X3673569Y5487349D01*
X3652680Y5471321D01*
X3636651Y5450431D01*
X3626574Y5426105D01*
X3623138Y5400000D01*
X3626574Y5373895D01*
X3636651Y5349569D01*
X3652680Y5328679D01*
X3673569Y5312650D01*
X3697895Y5302574D01*
X3724000Y5299137D01*
X3750105Y5302574D01*
X3774432Y5312650D01*
X3795321Y5328679D01*
X3811350Y5349569D01*
X3821426Y5373895D01*
X3824863Y5400000D01*
X3821426Y5426105D01*
X3811350Y5450431D01*
X3795321Y5471321D01*
X3774432Y5487349D01*
X3750105Y5497426D01*
X3724000Y5500863D01*
D02*
G37*
G36*
X3470000D02*
X3443895Y5497426D01*
X3419569Y5487349D01*
X3398680Y5471321D01*
X3382651Y5450431D01*
X3372574Y5426105D01*
X3369138Y5400000D01*
X3372574Y5373895D01*
X3382651Y5349569D01*
X3398680Y5328679D01*
X3419569Y5312650D01*
X3443895Y5302574D01*
X3470000Y5299137D01*
X3496105Y5302574D01*
X3520432Y5312650D01*
X3541321Y5328679D01*
X3557350Y5349569D01*
X3567426Y5373895D01*
X3570863Y5400000D01*
X3567426Y5426105D01*
X3557350Y5450431D01*
X3541321Y5471321D01*
X3520432Y5487349D01*
X3496105Y5497426D01*
X3470000Y5500863D01*
D02*
G37*
G36*
X3216000D02*
X3189895Y5497426D01*
X3165569Y5487349D01*
X3144680Y5471321D01*
X3128651Y5450431D01*
X3118574Y5426105D01*
X3115138Y5400000D01*
X3118574Y5373895D01*
X3128651Y5349569D01*
X3144680Y5328679D01*
X3165569Y5312650D01*
X3189895Y5302574D01*
X3216000Y5299137D01*
X3242105Y5302574D01*
X3266432Y5312650D01*
X3287321Y5328679D01*
X3303350Y5349569D01*
X3313426Y5373895D01*
X3316863Y5400000D01*
X3313426Y5426105D01*
X3303350Y5450431D01*
X3287321Y5471321D01*
X3266432Y5487349D01*
X3242105Y5497426D01*
X3216000Y5500863D01*
D02*
G37*
G36*
X2962000D02*
X2935895Y5497426D01*
X2911569Y5487349D01*
X2890680Y5471321D01*
X2874651Y5450431D01*
X2864574Y5426105D01*
X2861138Y5400000D01*
X2864574Y5373895D01*
X2874651Y5349569D01*
X2890680Y5328679D01*
X2911569Y5312650D01*
X2935895Y5302574D01*
X2962000Y5299137D01*
X2988105Y5302574D01*
X3012432Y5312650D01*
X3033321Y5328679D01*
X3049350Y5349569D01*
X3059426Y5373895D01*
X3062863Y5400000D01*
X3059426Y5426105D01*
X3049350Y5450431D01*
X3033321Y5471321D01*
X3012432Y5487349D01*
X2988105Y5497426D01*
X2962000Y5500863D01*
D02*
G37*
G36*
X2708000D02*
X2681895Y5497426D01*
X2657569Y5487349D01*
X2636680Y5471321D01*
X2620651Y5450431D01*
X2610574Y5426105D01*
X2607138Y5400000D01*
X2610574Y5373895D01*
X2620651Y5349569D01*
X2636680Y5328679D01*
X2657569Y5312650D01*
X2681895Y5302574D01*
X2708000Y5299137D01*
X2734105Y5302574D01*
X2758432Y5312650D01*
X2779321Y5328679D01*
X2795350Y5349569D01*
X2805426Y5373895D01*
X2808863Y5400000D01*
X2805426Y5426105D01*
X2795350Y5450431D01*
X2779321Y5471321D01*
X2758432Y5487349D01*
X2734105Y5497426D01*
X2708000Y5500863D01*
D02*
G37*
G36*
X2454000D02*
X2427895Y5497426D01*
X2403569Y5487349D01*
X2382680Y5471321D01*
X2366651Y5450431D01*
X2356574Y5426105D01*
X2353138Y5400000D01*
X2356574Y5373895D01*
X2366651Y5349569D01*
X2382680Y5328679D01*
X2403569Y5312650D01*
X2427895Y5302574D01*
X2454000Y5299137D01*
X2480105Y5302574D01*
X2504432Y5312650D01*
X2525321Y5328679D01*
X2541350Y5349569D01*
X2551426Y5373895D01*
X2554863Y5400000D01*
X2551426Y5426105D01*
X2541350Y5450431D01*
X2525321Y5471321D01*
X2504432Y5487349D01*
X2480105Y5497426D01*
X2454000Y5500863D01*
D02*
G37*
G36*
X2200000D02*
X2173895Y5497426D01*
X2149569Y5487349D01*
X2128680Y5471321D01*
X2112651Y5450431D01*
X2102574Y5426105D01*
X2099138Y5400000D01*
X2102574Y5373895D01*
X2112651Y5349569D01*
X2128680Y5328679D01*
X2149569Y5312650D01*
X2173895Y5302574D01*
X2200000Y5299137D01*
X2226105Y5302574D01*
X2250432Y5312650D01*
X2271321Y5328679D01*
X2287350Y5349569D01*
X2297426Y5373895D01*
X2300863Y5400000D01*
X2297426Y5426105D01*
X2287350Y5450431D01*
X2271321Y5471321D01*
X2250432Y5487349D01*
X2226105Y5497426D01*
X2200000Y5500863D01*
D02*
G37*
G36*
X3965497Y5387500D02*
X3873740D01*
X3875703Y5372589D01*
X3886283Y5347047D01*
X3903113Y5325113D01*
X3925047Y5308283D01*
X3950590Y5297703D01*
X3965497Y5295740D01*
Y5387500D01*
D02*
G37*
G36*
X4082260D02*
X3990496D01*
Y5295739D01*
X4005411Y5297703D01*
X4030953Y5308283D01*
X4052887Y5325113D01*
X4069717Y5347047D01*
X4080297Y5372589D01*
X4082260Y5387500D01*
D02*
G37*
G36*
X4612500Y5377260D02*
Y5285497D01*
X4704261D01*
X4702297Y5300410D01*
X4691717Y5325953D01*
X4674887Y5347887D01*
X4652953Y5364717D01*
X4627411Y5375297D01*
X4612500Y5377260D01*
D02*
G37*
G36*
X4587500Y5377260D02*
X4572590Y5375297D01*
X4547047Y5364717D01*
X4525113Y5347887D01*
X4508283Y5325953D01*
X4497703Y5300410D01*
X4495740Y5285497D01*
X4587500D01*
Y5377260D01*
D02*
G37*
G36*
X6700000Y5469363D02*
X6673895Y5465926D01*
X6649569Y5455850D01*
X6628679Y5439821D01*
X6612650Y5418931D01*
X6602574Y5394605D01*
X6599137Y5368500D01*
X6602574Y5342395D01*
X6612650Y5318069D01*
X6628679Y5297179D01*
X6649569Y5281150D01*
X6673895Y5271074D01*
X6700000Y5267637D01*
X6726105Y5271074D01*
X6750432Y5281150D01*
X6771321Y5297179D01*
X6787350Y5318069D01*
X6797426Y5342395D01*
X6800863Y5368500D01*
X6797426Y5394605D01*
X6787350Y5418931D01*
X6771321Y5439821D01*
X6750432Y5455850D01*
X6726105Y5465926D01*
X6700000Y5469363D01*
D02*
G37*
G36*
X6446000D02*
X6419895Y5465926D01*
X6395569Y5455850D01*
X6374679Y5439821D01*
X6358650Y5418931D01*
X6348574Y5394605D01*
X6345137Y5368500D01*
X6348574Y5342395D01*
X6358650Y5318069D01*
X6374679Y5297179D01*
X6395569Y5281150D01*
X6419895Y5271074D01*
X6446000Y5267637D01*
X6472105Y5271074D01*
X6496432Y5281150D01*
X6517321Y5297179D01*
X6533350Y5318069D01*
X6543426Y5342395D01*
X6546863Y5368500D01*
X6543426Y5394605D01*
X6533350Y5418931D01*
X6517321Y5439821D01*
X6496432Y5455850D01*
X6472105Y5465926D01*
X6446000Y5469363D01*
D02*
G37*
G36*
X604000D02*
X577895Y5465926D01*
X553569Y5455850D01*
X532679Y5439821D01*
X516650Y5418931D01*
X506574Y5394605D01*
X503137Y5368500D01*
X506574Y5342395D01*
X516650Y5318069D01*
X532679Y5297179D01*
X553569Y5281150D01*
X577895Y5271074D01*
X604000Y5267637D01*
X630105Y5271074D01*
X654432Y5281150D01*
X675321Y5297179D01*
X691350Y5318069D01*
X701426Y5342395D01*
X704863Y5368500D01*
X701426Y5394605D01*
X691350Y5418931D01*
X675321Y5439821D01*
X654432Y5455850D01*
X630105Y5465926D01*
X604000Y5469363D01*
D02*
G37*
G36*
X350000D02*
X323895Y5465926D01*
X299569Y5455850D01*
X278679Y5439821D01*
X262650Y5418931D01*
X252574Y5394605D01*
X249137Y5368500D01*
X252574Y5342395D01*
X262650Y5318069D01*
X278679Y5297179D01*
X299569Y5281150D01*
X323895Y5271074D01*
X350000Y5267637D01*
X376105Y5271074D01*
X400432Y5281150D01*
X421321Y5297179D01*
X437350Y5318069D01*
X447426Y5342395D01*
X450863Y5368500D01*
X447426Y5394605D01*
X437350Y5418931D01*
X421321Y5439821D01*
X400432Y5455850D01*
X376105Y5465926D01*
X350000Y5469363D01*
D02*
G37*
G36*
X5930835Y5540841D02*
X5895549Y5537365D01*
X5861619Y5527073D01*
X5830349Y5510358D01*
X5802940Y5487865D01*
X5780446Y5460456D01*
X5763732Y5429186D01*
X5753440Y5395256D01*
X5749964Y5359970D01*
X5753440Y5324684D01*
X5763732Y5290753D01*
X5780446Y5259483D01*
X5802940Y5232075D01*
X5830349Y5209581D01*
X5861619Y5192867D01*
X5895549Y5182574D01*
X5930835Y5179099D01*
X5966121Y5182574D01*
X6000051Y5192867D01*
X6031321Y5209581D01*
X6058730Y5232075D01*
X6081224Y5259483D01*
X6097938Y5290753D01*
X6108230Y5324684D01*
X6111706Y5359970D01*
X6108230Y5395256D01*
X6097938Y5429186D01*
X6081224Y5460456D01*
X6058730Y5487865D01*
X6031321Y5510358D01*
X6000051Y5527073D01*
X5966121Y5537365D01*
X5930835Y5540841D01*
D02*
G37*
G36*
X4587500Y5260497D02*
X4495740D01*
X4497703Y5245589D01*
X4508283Y5220047D01*
X4525113Y5198113D01*
X4547047Y5181283D01*
X4572590Y5170703D01*
X4587500Y5168740D01*
Y5260497D01*
D02*
G37*
G36*
X4704260D02*
X4612500D01*
Y5168739D01*
X4627411Y5170703D01*
X4652953Y5181283D01*
X4674887Y5198113D01*
X4691717Y5220047D01*
X4702297Y5245589D01*
X4704260Y5260497D01*
D02*
G37*
G36*
X6700000Y5215363D02*
X6673895Y5211926D01*
X6649569Y5201850D01*
X6628679Y5185821D01*
X6612650Y5164931D01*
X6602574Y5140605D01*
X6599137Y5114500D01*
X6602574Y5088395D01*
X6612650Y5064069D01*
X6628679Y5043179D01*
X6649569Y5027150D01*
X6673895Y5017074D01*
X6700000Y5013637D01*
X6726105Y5017074D01*
X6750432Y5027150D01*
X6771321Y5043179D01*
X6787350Y5064069D01*
X6797426Y5088395D01*
X6800863Y5114500D01*
X6797426Y5140605D01*
X6787350Y5164931D01*
X6771321Y5185821D01*
X6750432Y5201850D01*
X6726105Y5211926D01*
X6700000Y5215363D01*
D02*
G37*
G36*
X6446000D02*
X6419895Y5211926D01*
X6395569Y5201850D01*
X6374679Y5185821D01*
X6358650Y5164931D01*
X6348574Y5140605D01*
X6345137Y5114500D01*
X6348574Y5088395D01*
X6358650Y5064069D01*
X6374679Y5043179D01*
X6395569Y5027150D01*
X6419895Y5017074D01*
X6446000Y5013637D01*
X6472105Y5017074D01*
X6496432Y5027150D01*
X6517321Y5043179D01*
X6533350Y5064069D01*
X6543426Y5088395D01*
X6546863Y5114500D01*
X6543426Y5140605D01*
X6533350Y5164931D01*
X6517321Y5185821D01*
X6496432Y5201850D01*
X6472105Y5211926D01*
X6446000Y5215363D01*
D02*
G37*
G36*
X350000D02*
X323895Y5211926D01*
X299569Y5201850D01*
X278679Y5185821D01*
X262650Y5164931D01*
X252574Y5140605D01*
X249137Y5114500D01*
X252574Y5088395D01*
X262650Y5064069D01*
X278679Y5043179D01*
X299569Y5027150D01*
X323895Y5017074D01*
X350000Y5013637D01*
X376105Y5017074D01*
X400432Y5027150D01*
X421321Y5043179D01*
X437350Y5064069D01*
X447426Y5088395D01*
X450863Y5114500D01*
X447426Y5140605D01*
X437350Y5164931D01*
X421321Y5185821D01*
X400432Y5201850D01*
X376105Y5211926D01*
X350000Y5215363D01*
D02*
G37*
G36*
X604000D02*
X577895Y5211926D01*
X553569Y5201850D01*
X532679Y5185821D01*
X516650Y5164931D01*
X506574Y5140605D01*
X503137Y5114500D01*
X506574Y5088395D01*
X516650Y5064069D01*
X532679Y5043179D01*
X553569Y5027150D01*
X577895Y5017074D01*
X604000Y5013637D01*
X630105Y5017074D01*
X654432Y5027150D01*
X675321Y5043179D01*
X691350Y5064069D01*
X700625Y5086462D01*
X1363886D01*
X1382395Y5067952D01*
X1378825Y5050000D01*
X1383481Y5026589D01*
X1396742Y5006743D01*
X1416589Y4993481D01*
X1440000Y4988825D01*
X1463411Y4993481D01*
X1483257Y5006743D01*
X1496519Y5026589D01*
X1501175Y5050000D01*
X1496519Y5073411D01*
X1483257Y5093258D01*
X1463411Y5106519D01*
X1440000Y5111175D01*
X1422048Y5107605D01*
X1395326Y5134326D01*
X1386230Y5140404D01*
X1375500Y5142539D01*
X700625D01*
X691350Y5164931D01*
X675321Y5185821D01*
X654432Y5201850D01*
X630105Y5211926D01*
X604000Y5215363D01*
D02*
G37*
G36*
X4600000Y5119863D02*
X4573895Y5116426D01*
X4549569Y5106349D01*
X4528680Y5090321D01*
X4512651Y5069431D01*
X4502574Y5045105D01*
X4499138Y5019000D01*
X4502574Y4992895D01*
X4512651Y4968568D01*
X4528680Y4947679D01*
X4549569Y4931650D01*
X4573895Y4921574D01*
X4600000Y4918137D01*
X4626105Y4921574D01*
X4650432Y4931650D01*
X4671321Y4947679D01*
X4687350Y4968568D01*
X4697426Y4992895D01*
X4700863Y5019000D01*
X4697426Y5045105D01*
X4687350Y5069431D01*
X4671321Y5090321D01*
X4650432Y5106349D01*
X4626105Y5116426D01*
X4600000Y5119863D01*
D02*
G37*
G36*
X4612500Y4869260D02*
Y4777497D01*
X4704261D01*
X4702297Y4792410D01*
X4691717Y4817953D01*
X4674887Y4839887D01*
X4652953Y4856717D01*
X4627411Y4867297D01*
X4612500Y4869260D01*
D02*
G37*
G36*
X4587500Y4869260D02*
X4572590Y4867297D01*
X4547047Y4856717D01*
X4525113Y4839887D01*
X4508283Y4817953D01*
X4497703Y4792410D01*
X4495740Y4777497D01*
X4587500D01*
Y4869260D01*
D02*
G37*
G36*
X6700000Y4961363D02*
X6673895Y4957926D01*
X6649569Y4947850D01*
X6628679Y4931821D01*
X6612650Y4910931D01*
X6602574Y4886605D01*
X6599137Y4860500D01*
X6602574Y4834395D01*
X6612650Y4810069D01*
X6628679Y4789179D01*
X6649569Y4773150D01*
X6673895Y4763074D01*
X6700000Y4759637D01*
X6726105Y4763074D01*
X6750432Y4773150D01*
X6771321Y4789179D01*
X6787350Y4810069D01*
X6797426Y4834395D01*
X6800863Y4860500D01*
X6797426Y4886605D01*
X6787350Y4910931D01*
X6771321Y4931821D01*
X6750432Y4947850D01*
X6726105Y4957926D01*
X6700000Y4961363D01*
D02*
G37*
G36*
X6446000D02*
X6419895Y4957926D01*
X6395569Y4947850D01*
X6374679Y4931821D01*
X6358650Y4910931D01*
X6348574Y4886605D01*
X6345137Y4860500D01*
X6348574Y4834395D01*
X6358650Y4810069D01*
X6374679Y4789179D01*
X6395569Y4773150D01*
X6419895Y4763074D01*
X6446000Y4759637D01*
X6472105Y4763074D01*
X6496432Y4773150D01*
X6517321Y4789179D01*
X6533350Y4810069D01*
X6543426Y4834395D01*
X6546863Y4860500D01*
X6543426Y4886605D01*
X6533350Y4910931D01*
X6517321Y4931821D01*
X6496432Y4947850D01*
X6472105Y4957926D01*
X6446000Y4961363D01*
D02*
G37*
G36*
X604000D02*
X577895Y4957926D01*
X553569Y4947850D01*
X532679Y4931821D01*
X516650Y4910931D01*
X506574Y4886605D01*
X503137Y4860500D01*
X506574Y4834395D01*
X516650Y4810069D01*
X532679Y4789179D01*
X553569Y4773150D01*
X577895Y4763074D01*
X604000Y4759637D01*
X630105Y4763074D01*
X654432Y4773150D01*
X675321Y4789179D01*
X691350Y4810069D01*
X701426Y4834395D01*
X704863Y4860500D01*
X701426Y4886605D01*
X691350Y4910931D01*
X675321Y4931821D01*
X654432Y4947850D01*
X630105Y4957926D01*
X604000Y4961363D01*
D02*
G37*
G36*
X350000D02*
X323895Y4957926D01*
X299569Y4947850D01*
X278679Y4931821D01*
X262650Y4910931D01*
X252574Y4886605D01*
X249137Y4860500D01*
X252574Y4834395D01*
X262650Y4810069D01*
X278679Y4789179D01*
X299569Y4773150D01*
X323895Y4763074D01*
X350000Y4759637D01*
X376105Y4763074D01*
X400432Y4773150D01*
X421321Y4789179D01*
X437350Y4810069D01*
X447426Y4834395D01*
X450863Y4860500D01*
X447426Y4886605D01*
X437350Y4910931D01*
X421321Y4931821D01*
X400432Y4947850D01*
X376105Y4957926D01*
X350000Y4961363D01*
D02*
G37*
G36*
X4587500Y4752497D02*
X4495740D01*
X4497703Y4737589D01*
X4508283Y4712047D01*
X4525113Y4690113D01*
X4547047Y4673283D01*
X4572590Y4662703D01*
X4587500Y4660740D01*
Y4752497D01*
D02*
G37*
G36*
X4704260D02*
X4612500D01*
Y4660739D01*
X4627411Y4662703D01*
X4652953Y4673283D01*
X4674887Y4690113D01*
X4691717Y4712047D01*
X4702297Y4737589D01*
X4704260Y4752497D01*
D02*
G37*
G36*
X4259991Y4901166D02*
X4236581Y4896509D01*
X4216734Y4883248D01*
X4203473Y4863401D01*
X4198816Y4839990D01*
X4203473Y4816579D01*
X4211554Y4804484D01*
Y4769231D01*
X4149471Y4707148D01*
X4146307Y4706519D01*
X4126461Y4693257D01*
X4113199Y4673411D01*
X4108543Y4650000D01*
X4113199Y4626589D01*
X4126461Y4606742D01*
X4146307Y4593481D01*
X4169718Y4588824D01*
X4193129Y4593481D01*
X4212976Y4606742D01*
X4226237Y4626589D01*
X4230893Y4650000D01*
X4227042Y4669365D01*
X4281176Y4723499D01*
X4281176Y4723500D01*
X4290017Y4736731D01*
X4293121Y4752338D01*
Y4789966D01*
X4303249Y4796733D01*
X4316510Y4816579D01*
X4321167Y4839990D01*
X4316510Y4863401D01*
X4303249Y4883248D01*
X4283402Y4896509D01*
X4259991Y4901166D01*
D02*
G37*
G36*
X6700000Y4707363D02*
X6673895Y4703926D01*
X6649569Y4693850D01*
X6628679Y4677821D01*
X6612650Y4656931D01*
X6602574Y4632605D01*
X6599137Y4606500D01*
X6602574Y4580395D01*
X6612650Y4556069D01*
X6628679Y4535179D01*
X6649569Y4519150D01*
X6673895Y4509074D01*
X6700000Y4505637D01*
X6726105Y4509074D01*
X6750432Y4519150D01*
X6771321Y4535179D01*
X6787350Y4556069D01*
X6797426Y4580395D01*
X6800863Y4606500D01*
X6797426Y4632605D01*
X6787350Y4656931D01*
X6771321Y4677821D01*
X6750432Y4693850D01*
X6726105Y4703926D01*
X6700000Y4707363D01*
D02*
G37*
G36*
X6446000D02*
X6419895Y4703926D01*
X6395569Y4693850D01*
X6374679Y4677821D01*
X6358650Y4656931D01*
X6348574Y4632605D01*
X6345137Y4606500D01*
X6348574Y4580395D01*
X6358650Y4556069D01*
X6374679Y4535179D01*
X6395569Y4519150D01*
X6419895Y4509074D01*
X6446000Y4505637D01*
X6472105Y4509074D01*
X6496432Y4519150D01*
X6517321Y4535179D01*
X6533350Y4556069D01*
X6543426Y4580395D01*
X6546863Y4606500D01*
X6543426Y4632605D01*
X6533350Y4656931D01*
X6517321Y4677821D01*
X6496432Y4693850D01*
X6472105Y4703926D01*
X6446000Y4707363D01*
D02*
G37*
G36*
X604000D02*
X577895Y4703926D01*
X553569Y4693850D01*
X532679Y4677821D01*
X516650Y4656931D01*
X506574Y4632605D01*
X503137Y4606500D01*
X506574Y4580395D01*
X516650Y4556069D01*
X532679Y4535179D01*
X553569Y4519150D01*
X577895Y4509074D01*
X604000Y4505637D01*
X630105Y4509074D01*
X654432Y4519150D01*
X675321Y4535179D01*
X691350Y4556069D01*
X701426Y4580395D01*
X704863Y4606500D01*
X701426Y4632605D01*
X691350Y4656931D01*
X675321Y4677821D01*
X654432Y4693850D01*
X630105Y4703926D01*
X604000Y4707363D01*
D02*
G37*
G36*
X350000D02*
X323895Y4703926D01*
X299569Y4693850D01*
X278679Y4677821D01*
X262650Y4656931D01*
X252574Y4632605D01*
X249137Y4606500D01*
X252574Y4580395D01*
X262650Y4556069D01*
X278679Y4535179D01*
X299569Y4519150D01*
X323895Y4509074D01*
X350000Y4505637D01*
X376105Y4509074D01*
X400432Y4519150D01*
X421321Y4535179D01*
X437350Y4556069D01*
X447426Y4580395D01*
X450863Y4606500D01*
X447426Y4632605D01*
X437350Y4656931D01*
X421321Y4677821D01*
X400432Y4693850D01*
X376105Y4703926D01*
X350000Y4707363D01*
D02*
G37*
G36*
X4600000Y4611863D02*
X4573895Y4608426D01*
X4549569Y4598349D01*
X4528680Y4582321D01*
X4512651Y4561431D01*
X4502574Y4537105D01*
X4499138Y4511000D01*
X4502574Y4484895D01*
X4512651Y4460568D01*
X4528680Y4439679D01*
X4549569Y4423650D01*
X4573895Y4413574D01*
X4600000Y4410137D01*
X4626105Y4413574D01*
X4650432Y4423650D01*
X4671321Y4439679D01*
X4687350Y4460568D01*
X4697426Y4484895D01*
X4700863Y4511000D01*
X4697426Y4537105D01*
X4687350Y4561431D01*
X4671321Y4582321D01*
X4650432Y4598349D01*
X4626105Y4608426D01*
X4600000Y4611863D01*
D02*
G37*
G36*
X6199565Y4637714D02*
X6166934Y4633418D01*
X6136526Y4620822D01*
X6110414Y4600786D01*
X6090378Y4574674D01*
X6077782Y4544267D01*
X6073486Y4511635D01*
X6077782Y4479003D01*
X6090378Y4448595D01*
X6110414Y4422484D01*
X6136526Y4402447D01*
X6166934Y4389852D01*
X6199565Y4385556D01*
X6232197Y4389852D01*
X6262605Y4402447D01*
X6288716Y4422484D01*
X6308753Y4448595D01*
X6321348Y4479003D01*
X6325644Y4511635D01*
X6321348Y4544267D01*
X6308753Y4574674D01*
X6288716Y4600786D01*
X6262605Y4620822D01*
X6232197Y4633418D01*
X6199565Y4637714D01*
D02*
G37*
G36*
X616500Y4456760D02*
Y4365004D01*
X708260D01*
X706297Y4379910D01*
X695717Y4405453D01*
X678887Y4427387D01*
X656953Y4444217D01*
X631410Y4454797D01*
X616500Y4456760D01*
D02*
G37*
G36*
X591501Y4456760D02*
X576590Y4454797D01*
X551047Y4444217D01*
X529113Y4427387D01*
X512283Y4405453D01*
X501703Y4379910D01*
X499740Y4365004D01*
X591501D01*
Y4456760D01*
D02*
G37*
G36*
X6700000Y4453363D02*
X6673895Y4449926D01*
X6649569Y4439850D01*
X6628679Y4423821D01*
X6612650Y4402931D01*
X6602574Y4378605D01*
X6599137Y4352500D01*
X6602574Y4326395D01*
X6612650Y4302069D01*
X6628679Y4281179D01*
X6649569Y4265150D01*
X6673895Y4255074D01*
X6700000Y4251637D01*
X6726105Y4255074D01*
X6750432Y4265150D01*
X6771321Y4281179D01*
X6787350Y4302069D01*
X6797426Y4326395D01*
X6800863Y4352500D01*
X6797426Y4378605D01*
X6787350Y4402931D01*
X6771321Y4423821D01*
X6750432Y4439850D01*
X6726105Y4449926D01*
X6700000Y4453363D01*
D02*
G37*
G36*
X6446000D02*
X6419895Y4449926D01*
X6395569Y4439850D01*
X6374679Y4423821D01*
X6358650Y4402931D01*
X6348574Y4378605D01*
X6345137Y4352500D01*
X6348574Y4326395D01*
X6358650Y4302069D01*
X6374679Y4281179D01*
X6395569Y4265150D01*
X6419895Y4255074D01*
X6446000Y4251637D01*
X6472105Y4255074D01*
X6496432Y4265150D01*
X6517321Y4281179D01*
X6533350Y4302069D01*
X6543426Y4326395D01*
X6546863Y4352500D01*
X6543426Y4378605D01*
X6533350Y4402931D01*
X6517321Y4423821D01*
X6496432Y4439850D01*
X6472105Y4449926D01*
X6446000Y4453363D01*
D02*
G37*
G36*
X350000D02*
X323895Y4449926D01*
X299569Y4439850D01*
X278679Y4423821D01*
X262650Y4402931D01*
X252574Y4378605D01*
X249137Y4352500D01*
X252574Y4326395D01*
X262650Y4302069D01*
X278679Y4281179D01*
X299569Y4265150D01*
X323895Y4255074D01*
X350000Y4251637D01*
X376105Y4255074D01*
X400432Y4265150D01*
X421321Y4281179D01*
X437350Y4302069D01*
X447426Y4326395D01*
X450863Y4352500D01*
X447426Y4378605D01*
X437350Y4402931D01*
X421321Y4423821D01*
X400432Y4439850D01*
X376105Y4449926D01*
X350000Y4453363D01*
D02*
G37*
G36*
X708261Y4340004D02*
X616500D01*
Y4248240D01*
X631410Y4250203D01*
X656953Y4260783D01*
X678887Y4277613D01*
X695717Y4299547D01*
X706297Y4325090D01*
X708261Y4340004D01*
D02*
G37*
G36*
X591501D02*
X499739D01*
X501703Y4325090D01*
X512283Y4299547D01*
X529113Y4277613D01*
X551047Y4260783D01*
X576590Y4250203D01*
X591501Y4248240D01*
Y4340004D01*
D02*
G37*
G36*
X5910000Y4291175D02*
X5886589Y4286519D01*
X5866743Y4273257D01*
X5865090Y4270783D01*
X5620000D01*
X5604393Y4267679D01*
X5591162Y4258838D01*
X5341162Y4008839D01*
X5333902Y3997973D01*
X5326589Y3996519D01*
X5306742Y3983257D01*
X5293481Y3963411D01*
X5288825Y3940000D01*
X5293481Y3916589D01*
X5306742Y3896743D01*
X5326589Y3883481D01*
X5350000Y3878825D01*
X5373411Y3883481D01*
X5393257Y3896743D01*
X5406519Y3916589D01*
X5411175Y3940000D01*
X5407914Y3956396D01*
X5408868Y3961191D01*
X5636893Y4189216D01*
X5865090D01*
X5866743Y4186742D01*
X5886589Y4173481D01*
X5910000Y4168825D01*
X5933411Y4173481D01*
X5953258Y4186742D01*
X5966519Y4206589D01*
X5971176Y4230000D01*
X5966519Y4253411D01*
X5953258Y4273257D01*
X5933411Y4286519D01*
X5910000Y4291175D01*
D02*
G37*
G36*
X4600000Y4357863D02*
X4573895Y4354426D01*
X4549569Y4344349D01*
X4528680Y4328321D01*
X4512651Y4307431D01*
X4502574Y4283105D01*
X4499138Y4257000D01*
X4502574Y4230895D01*
X4512651Y4206568D01*
X4528680Y4185679D01*
X4549569Y4169650D01*
X4573895Y4159574D01*
X4600000Y4156137D01*
X4626105Y4159574D01*
X4650432Y4169650D01*
X4671321Y4185679D01*
X4687350Y4206568D01*
X4697426Y4230895D01*
X4700863Y4257000D01*
X4697426Y4283105D01*
X4687350Y4307431D01*
X4671321Y4328321D01*
X4650432Y4344349D01*
X4626105Y4354426D01*
X4600000Y4357863D01*
D02*
G37*
G36*
X616500Y4202760D02*
Y4111004D01*
X708260D01*
X706297Y4125910D01*
X695717Y4151453D01*
X678887Y4173387D01*
X656953Y4190217D01*
X631410Y4200797D01*
X616500Y4202760D01*
D02*
G37*
G36*
X6458500D02*
Y4111004D01*
X6550260D01*
X6548297Y4125910D01*
X6537717Y4151453D01*
X6520887Y4173387D01*
X6498953Y4190217D01*
X6473410Y4200797D01*
X6458500Y4202760D01*
D02*
G37*
G36*
X591501Y4202760D02*
X576590Y4200797D01*
X551047Y4190217D01*
X529113Y4173387D01*
X512283Y4151453D01*
X501703Y4125910D01*
X499740Y4111004D01*
X591501D01*
Y4202760D01*
D02*
G37*
G36*
X6433501D02*
X6418590Y4200797D01*
X6393047Y4190217D01*
X6371113Y4173387D01*
X6354283Y4151453D01*
X6343703Y4125910D01*
X6341740Y4111004D01*
X6433501D01*
Y4202760D01*
D02*
G37*
G36*
X5767132Y4146175D02*
X5743721Y4141519D01*
X5723875Y4128257D01*
X5710613Y4108411D01*
X5705957Y4085000D01*
X5706749Y4081015D01*
X5581582Y3955848D01*
X5574952Y3945925D01*
X5572623Y3934219D01*
X5572623Y3934218D01*
Y3918337D01*
X5562453Y3911541D01*
X5549192Y3891695D01*
X5544536Y3868284D01*
X5549192Y3844873D01*
X5562453Y3825026D01*
X5582300Y3811765D01*
X5605711Y3807108D01*
X5629122Y3811765D01*
X5648968Y3825026D01*
X5662230Y3844873D01*
X5666886Y3868284D01*
X5662230Y3891695D01*
X5648968Y3911541D01*
X5642198Y3916065D01*
X5640953Y3928704D01*
X5741928Y4029679D01*
X5743721Y4028481D01*
X5767132Y4023824D01*
X5790543Y4028481D01*
X5810389Y4041742D01*
X5823651Y4061589D01*
X5828307Y4085000D01*
X5823651Y4108411D01*
X5810389Y4128257D01*
X5790543Y4141519D01*
X5767132Y4146175D01*
D02*
G37*
G36*
X6700000Y4199363D02*
X6673895Y4195926D01*
X6649569Y4185850D01*
X6628679Y4169821D01*
X6612650Y4148931D01*
X6602574Y4124605D01*
X6599137Y4098500D01*
X6602574Y4072395D01*
X6612650Y4048069D01*
X6628679Y4027179D01*
X6649569Y4011150D01*
X6673895Y4001074D01*
X6700000Y3997637D01*
X6726105Y4001074D01*
X6750432Y4011150D01*
X6771321Y4027179D01*
X6787350Y4048069D01*
X6797426Y4072395D01*
X6800863Y4098500D01*
X6797426Y4124605D01*
X6787350Y4148931D01*
X6771321Y4169821D01*
X6750432Y4185850D01*
X6726105Y4195926D01*
X6700000Y4199363D01*
D02*
G37*
G36*
X350000D02*
X323895Y4195926D01*
X299569Y4185850D01*
X278679Y4169821D01*
X262650Y4148931D01*
X252574Y4124605D01*
X249137Y4098500D01*
X252574Y4072395D01*
X262650Y4048069D01*
X278679Y4027179D01*
X299569Y4011150D01*
X323895Y4001074D01*
X350000Y3997637D01*
X376105Y4001074D01*
X400432Y4011150D01*
X421321Y4027179D01*
X437350Y4048069D01*
X447426Y4072395D01*
X450863Y4098500D01*
X447426Y4124605D01*
X437350Y4148931D01*
X421321Y4169821D01*
X400432Y4185850D01*
X376105Y4195926D01*
X350000Y4199363D01*
D02*
G37*
G36*
X6550261Y4086004D02*
X6458500D01*
Y3994240D01*
X6473410Y3996203D01*
X6498953Y4006783D01*
X6520887Y4023613D01*
X6537717Y4045547D01*
X6548297Y4071090D01*
X6550261Y4086004D01*
D02*
G37*
G36*
X708261D02*
X616500D01*
Y3994240D01*
X631410Y3996203D01*
X656953Y4006783D01*
X678887Y4023613D01*
X695717Y4045547D01*
X706297Y4071090D01*
X708261Y4086004D01*
D02*
G37*
G36*
X6433501D02*
X6341739D01*
X6343703Y4071090D01*
X6354283Y4045547D01*
X6371113Y4023613D01*
X6393047Y4006783D01*
X6418590Y3996203D01*
X6433501Y3994240D01*
Y4086004D01*
D02*
G37*
G36*
X591501D02*
X499739D01*
X501703Y4071090D01*
X512283Y4045547D01*
X529113Y4023613D01*
X551047Y4006783D01*
X576590Y3996203D01*
X591501Y3994240D01*
Y4086004D01*
D02*
G37*
G36*
X4600000Y4103863D02*
X4573895Y4100426D01*
X4549569Y4090349D01*
X4528680Y4074321D01*
X4512651Y4053431D01*
X4502574Y4029105D01*
X4499138Y4003000D01*
X4502574Y3976895D01*
X4512651Y3952568D01*
X4528680Y3931679D01*
X4549569Y3915650D01*
X4573895Y3905574D01*
X4600000Y3902137D01*
X4626105Y3905574D01*
X4650432Y3915650D01*
X4671321Y3931679D01*
X4687350Y3952568D01*
X4697426Y3976895D01*
X4700863Y4003000D01*
X4697426Y4029105D01*
X4687350Y4053431D01*
X4671321Y4074321D01*
X4650432Y4090349D01*
X4626105Y4100426D01*
X4600000Y4103863D01*
D02*
G37*
G36*
X1650000Y4071175D02*
X1626589Y4066519D01*
X1606743Y4053258D01*
X1593481Y4033411D01*
X1588825Y4010000D01*
X1593481Y3986589D01*
X1606743Y3966743D01*
X1626589Y3953481D01*
X1650000Y3948825D01*
X1672497Y3953299D01*
X1755993Y3869803D01*
X1752307Y3857649D01*
X1746586Y3856511D01*
X1743310Y3854323D01*
X1736459Y3855686D01*
X1478317D01*
X1473257Y3863257D01*
X1453411Y3876519D01*
X1430000Y3881175D01*
X1406589Y3876519D01*
X1386742Y3863257D01*
X1373481Y3843411D01*
X1368825Y3820000D01*
X1373481Y3796589D01*
X1386742Y3776743D01*
X1406589Y3763481D01*
X1430000Y3758825D01*
X1453411Y3763481D01*
X1473257Y3776743D01*
X1478317Y3784314D01*
X1711939D01*
X1713478Y3776581D01*
X1726739Y3756735D01*
X1746586Y3743474D01*
X1769996Y3738817D01*
X1793407Y3743474D01*
X1813254Y3756735D01*
X1826515Y3776581D01*
X1827653Y3782303D01*
X1839807Y3785989D01*
X1857048Y3768748D01*
X1853481Y3763411D01*
X1848825Y3740000D01*
X1853481Y3716589D01*
X1866743Y3696742D01*
X1886589Y3683481D01*
X1910000Y3678824D01*
X1933411Y3683481D01*
X1953257Y3696742D01*
X1966519Y3716589D01*
X1971175Y3740000D01*
X1966519Y3763411D01*
X1953257Y3783257D01*
X1933411Y3796519D01*
X1910000Y3801175D01*
X1904933Y3800167D01*
X1708508Y3996592D01*
X1711175Y4010000D01*
X1706519Y4033411D01*
X1693257Y4053258D01*
X1673411Y4066519D01*
X1650000Y4071175D01*
D02*
G37*
G36*
X6700000Y3945363D02*
X6673895Y3941926D01*
X6649569Y3931850D01*
X6628679Y3915821D01*
X6612650Y3894931D01*
X6602574Y3870605D01*
X6599137Y3844500D01*
X6602574Y3818395D01*
X6612650Y3794069D01*
X6628679Y3773179D01*
X6649569Y3757150D01*
X6673895Y3747074D01*
X6700000Y3743637D01*
X6726105Y3747074D01*
X6750432Y3757150D01*
X6771321Y3773179D01*
X6787350Y3794069D01*
X6797426Y3818395D01*
X6800863Y3844500D01*
X6797426Y3870605D01*
X6787350Y3894931D01*
X6771321Y3915821D01*
X6750432Y3931850D01*
X6726105Y3941926D01*
X6700000Y3945363D01*
D02*
G37*
G36*
X6446000D02*
X6419895Y3941926D01*
X6395569Y3931850D01*
X6374679Y3915821D01*
X6358650Y3894931D01*
X6348574Y3870605D01*
X6345137Y3844500D01*
X6348574Y3818395D01*
X6358650Y3794069D01*
X6374679Y3773179D01*
X6395569Y3757150D01*
X6419895Y3747074D01*
X6446000Y3743637D01*
X6472105Y3747074D01*
X6496432Y3757150D01*
X6517321Y3773179D01*
X6533350Y3794069D01*
X6543426Y3818395D01*
X6546863Y3844500D01*
X6543426Y3870605D01*
X6533350Y3894931D01*
X6517321Y3915821D01*
X6496432Y3931850D01*
X6472105Y3941926D01*
X6446000Y3945363D01*
D02*
G37*
G36*
X604000D02*
X577895Y3941926D01*
X553569Y3931850D01*
X532679Y3915821D01*
X516650Y3894931D01*
X506574Y3870605D01*
X503137Y3844500D01*
X506574Y3818395D01*
X516650Y3794069D01*
X532679Y3773179D01*
X553569Y3757150D01*
X577895Y3747074D01*
X604000Y3743637D01*
X630105Y3747074D01*
X654432Y3757150D01*
X675321Y3773179D01*
X691350Y3794069D01*
X701426Y3818395D01*
X704863Y3844500D01*
X701426Y3870605D01*
X691350Y3894931D01*
X675321Y3915821D01*
X654432Y3931850D01*
X630105Y3941926D01*
X604000Y3945363D01*
D02*
G37*
G36*
X350000D02*
X323895Y3941926D01*
X299569Y3931850D01*
X278679Y3915821D01*
X262650Y3894931D01*
X252574Y3870605D01*
X249137Y3844500D01*
X252574Y3818395D01*
X262650Y3794069D01*
X278679Y3773179D01*
X299569Y3757150D01*
X323895Y3747074D01*
X350000Y3743637D01*
X376105Y3747074D01*
X400432Y3757150D01*
X421321Y3773179D01*
X437350Y3794069D01*
X447426Y3818395D01*
X450863Y3844500D01*
X447426Y3870605D01*
X437350Y3894931D01*
X421321Y3915821D01*
X400432Y3931850D01*
X376105Y3941926D01*
X350000Y3945363D01*
D02*
G37*
G36*
X2840003Y4780392D02*
X2832199Y4778840D01*
X2825583Y4774419D01*
X2825583Y4774419D01*
X2795584Y4744421D01*
X2795583Y4744420D01*
X2791163Y4737805D01*
X2789611Y4730001D01*
X2789609Y4348446D01*
X2660575Y4219414D01*
X2660574Y4219414D01*
X2656154Y4212799D01*
X2654602Y4204995D01*
X2654611Y3795002D01*
X2656163Y3787199D01*
X2656163Y3787198D01*
X2660583Y3780583D01*
X2660584Y3780582D01*
X2750580Y3690581D01*
X2750580Y3690581D01*
X2757196Y3686160D01*
X2764999Y3684608D01*
X3734997Y3684607D01*
X3734998Y3684607D01*
X3742802Y3686160D01*
X3749417Y3690580D01*
X3749418Y3690581D01*
X3804418Y3745580D01*
X3804419Y3745580D01*
X3808839Y3752196D01*
X3810391Y3759999D01*
X3810392Y4110002D01*
X3809690Y4113532D01*
X3808840Y4117805D01*
X3808839Y4117806D01*
X3804419Y4124421D01*
X3804418Y4124421D01*
X3754416Y4174418D01*
X3754416Y4174418D01*
X3747800Y4178839D01*
X3747799Y4178839D01*
X3739997Y4180391D01*
X3258451Y4180392D01*
X3070391Y4368447D01*
X3070394Y4730000D01*
X3068842Y4737804D01*
X3064422Y4744420D01*
X3034422Y4774419D01*
X3034421Y4774419D01*
X3027805Y4778840D01*
X3020002Y4780392D01*
X2840004D01*
X2840003Y4780392D01*
D02*
G37*
G36*
X4600000Y3849863D02*
X4573895Y3846426D01*
X4549569Y3836349D01*
X4528680Y3820321D01*
X4512651Y3799431D01*
X4502574Y3775105D01*
X4499138Y3749000D01*
X4502574Y3722895D01*
X4512651Y3698568D01*
X4528680Y3677679D01*
X4549569Y3661650D01*
X4573895Y3651574D01*
X4600000Y3648137D01*
X4626105Y3651574D01*
X4650432Y3661650D01*
X4671321Y3677679D01*
X4687350Y3698568D01*
X4697426Y3722895D01*
X4700863Y3749000D01*
X4697426Y3775105D01*
X4687350Y3799431D01*
X4671321Y3820321D01*
X4650432Y3836349D01*
X4626105Y3846426D01*
X4600000Y3849863D01*
D02*
G37*
G36*
X6700000Y3691363D02*
X6673895Y3687926D01*
X6649569Y3677850D01*
X6628679Y3661821D01*
X6612650Y3640931D01*
X6602574Y3616605D01*
X6599137Y3590500D01*
X6602574Y3564395D01*
X6612650Y3540069D01*
X6628679Y3519179D01*
X6649569Y3503150D01*
X6673895Y3493074D01*
X6700000Y3489637D01*
X6726105Y3493074D01*
X6750432Y3503150D01*
X6771321Y3519179D01*
X6787350Y3540069D01*
X6797426Y3564395D01*
X6800863Y3590500D01*
X6797426Y3616605D01*
X6787350Y3640931D01*
X6771321Y3661821D01*
X6750432Y3677850D01*
X6726105Y3687926D01*
X6700000Y3691363D01*
D02*
G37*
G36*
X6446000D02*
X6419895Y3687926D01*
X6395569Y3677850D01*
X6374679Y3661821D01*
X6358650Y3640931D01*
X6348574Y3616605D01*
X6345137Y3590500D01*
X6348574Y3564395D01*
X6358650Y3540069D01*
X6374679Y3519179D01*
X6395569Y3503150D01*
X6419895Y3493074D01*
X6446000Y3489637D01*
X6472105Y3493074D01*
X6496432Y3503150D01*
X6517321Y3519179D01*
X6533350Y3540069D01*
X6543426Y3564395D01*
X6546863Y3590500D01*
X6543426Y3616605D01*
X6533350Y3640931D01*
X6517321Y3661821D01*
X6496432Y3677850D01*
X6472105Y3687926D01*
X6446000Y3691363D01*
D02*
G37*
G36*
X604000D02*
X577895Y3687926D01*
X553569Y3677850D01*
X532679Y3661821D01*
X516650Y3640931D01*
X506574Y3616605D01*
X503137Y3590500D01*
X506574Y3564395D01*
X516650Y3540069D01*
X532679Y3519179D01*
X553569Y3503150D01*
X577895Y3493074D01*
X604000Y3489637D01*
X630105Y3493074D01*
X654432Y3503150D01*
X675321Y3519179D01*
X691350Y3540069D01*
X701426Y3564395D01*
X704863Y3590500D01*
X701426Y3616605D01*
X691350Y3640931D01*
X675321Y3661821D01*
X654432Y3677850D01*
X630105Y3687926D01*
X604000Y3691363D01*
D02*
G37*
G36*
X350000D02*
X323895Y3687926D01*
X299569Y3677850D01*
X278679Y3661821D01*
X262650Y3640931D01*
X252574Y3616605D01*
X249137Y3590500D01*
X252574Y3564395D01*
X262650Y3540069D01*
X278679Y3519179D01*
X299569Y3503150D01*
X323895Y3493074D01*
X350000Y3489637D01*
X376105Y3493074D01*
X400432Y3503150D01*
X421321Y3519179D01*
X437350Y3540069D01*
X447426Y3564395D01*
X450863Y3590500D01*
X447426Y3616605D01*
X437350Y3640931D01*
X421321Y3661821D01*
X400432Y3677850D01*
X376105Y3687926D01*
X350000Y3691363D01*
D02*
G37*
G36*
X4090000Y3981175D02*
X4066589Y3976519D01*
X4046742Y3963258D01*
X4033481Y3943411D01*
X4028825Y3920000D01*
X4033481Y3896589D01*
X4046742Y3876743D01*
X4066589Y3863481D01*
X4090000Y3858825D01*
X4092918Y3859405D01*
X4419405Y3532919D01*
X4418825Y3530000D01*
X4423481Y3506589D01*
X4436742Y3486743D01*
X4456589Y3473481D01*
X4480000Y3468825D01*
X4503411Y3473481D01*
X4523257Y3486743D01*
X4536519Y3506589D01*
X4541175Y3530000D01*
X4536519Y3553411D01*
X4523257Y3573258D01*
X4503411Y3586519D01*
X4480000Y3591175D01*
X4477081Y3590595D01*
X4150595Y3917082D01*
X4151175Y3920000D01*
X4146519Y3943411D01*
X4133257Y3963258D01*
X4113411Y3976519D01*
X4090000Y3981175D01*
D02*
G37*
G36*
X4562496Y3345261D02*
Y3253500D01*
X4654260D01*
X4652297Y3268410D01*
X4641717Y3293953D01*
X4624887Y3315887D01*
X4602953Y3332717D01*
X4577410Y3343297D01*
X4562496Y3345261D01*
D02*
G37*
G36*
X4537496Y3345260D02*
X4522590Y3343297D01*
X4497047Y3332717D01*
X4475113Y3315887D01*
X4458283Y3293953D01*
X4447703Y3268410D01*
X4445740Y3253500D01*
X4537496D01*
Y3345260D01*
D02*
G37*
G36*
X6700000Y3437363D02*
X6673895Y3433926D01*
X6649569Y3423850D01*
X6628679Y3407821D01*
X6612650Y3386931D01*
X6602574Y3362605D01*
X6599137Y3336500D01*
X6602574Y3310395D01*
X6612650Y3286069D01*
X6628679Y3265179D01*
X6649569Y3249150D01*
X6673895Y3239074D01*
X6700000Y3235637D01*
X6726105Y3239074D01*
X6750432Y3249150D01*
X6771321Y3265179D01*
X6787350Y3286069D01*
X6797426Y3310395D01*
X6800863Y3336500D01*
X6797426Y3362605D01*
X6787350Y3386931D01*
X6771321Y3407821D01*
X6750432Y3423850D01*
X6726105Y3433926D01*
X6700000Y3437363D01*
D02*
G37*
G36*
X6446000D02*
X6419895Y3433926D01*
X6395569Y3423850D01*
X6374679Y3407821D01*
X6358650Y3386931D01*
X6348574Y3362605D01*
X6345137Y3336500D01*
X6348574Y3310395D01*
X6358650Y3286069D01*
X6374679Y3265179D01*
X6395569Y3249150D01*
X6419895Y3239074D01*
X6446000Y3235637D01*
X6472105Y3239074D01*
X6496432Y3249150D01*
X6517321Y3265179D01*
X6533350Y3286069D01*
X6543426Y3310395D01*
X6546863Y3336500D01*
X6543426Y3362605D01*
X6533350Y3386931D01*
X6517321Y3407821D01*
X6496432Y3423850D01*
X6472105Y3433926D01*
X6446000Y3437363D01*
D02*
G37*
G36*
X604000D02*
X577895Y3433926D01*
X553569Y3423850D01*
X532679Y3407821D01*
X516650Y3386931D01*
X506574Y3362605D01*
X503137Y3336500D01*
X506574Y3310395D01*
X516650Y3286069D01*
X532679Y3265179D01*
X553569Y3249150D01*
X577895Y3239074D01*
X604000Y3235637D01*
X630105Y3239074D01*
X654432Y3249150D01*
X675321Y3265179D01*
X691350Y3286069D01*
X701426Y3310395D01*
X704863Y3336500D01*
X701426Y3362605D01*
X691350Y3386931D01*
X675321Y3407821D01*
X654432Y3423850D01*
X630105Y3433926D01*
X604000Y3437363D01*
D02*
G37*
G36*
X350000D02*
X323895Y3433926D01*
X299569Y3423850D01*
X278679Y3407821D01*
X262650Y3386931D01*
X252574Y3362605D01*
X249137Y3336500D01*
X252574Y3310395D01*
X262650Y3286069D01*
X278679Y3265179D01*
X299569Y3249150D01*
X323895Y3239074D01*
X350000Y3235637D01*
X376105Y3239074D01*
X400432Y3249150D01*
X421321Y3265179D01*
X437350Y3286069D01*
X447426Y3310395D01*
X450863Y3336500D01*
X447426Y3362605D01*
X437350Y3386931D01*
X421321Y3407821D01*
X400432Y3423850D01*
X376105Y3433926D01*
X350000Y3437363D01*
D02*
G37*
G36*
X4537496Y3228500D02*
X4445740D01*
X4447703Y3213589D01*
X4458283Y3188047D01*
X4475113Y3166113D01*
X4497047Y3149283D01*
X4522590Y3138703D01*
X4537496Y3136740D01*
Y3228500D01*
D02*
G37*
G36*
X4654260D02*
X4562496D01*
Y3136739D01*
X4577410Y3138703D01*
X4602953Y3149283D01*
X4624887Y3166113D01*
X4641717Y3188047D01*
X4652297Y3213589D01*
X4654260Y3228500D01*
D02*
G37*
G36*
X3990496Y3218261D02*
Y3126500D01*
X4082260D01*
X4080297Y3141410D01*
X4069717Y3166953D01*
X4052887Y3188887D01*
X4030953Y3205717D01*
X4005411Y3216297D01*
X3990496Y3218261D01*
D02*
G37*
G36*
X3965497Y3218260D02*
X3950590Y3216297D01*
X3925047Y3205717D01*
X3903113Y3188887D01*
X3886283Y3166953D01*
X3875703Y3141410D01*
X3873740Y3126500D01*
X3965497D01*
Y3218260D01*
D02*
G37*
G36*
X3724000Y3214863D02*
X3697895Y3211426D01*
X3673569Y3201349D01*
X3652680Y3185321D01*
X3636651Y3164431D01*
X3626574Y3140105D01*
X3623138Y3114000D01*
X3626574Y3087895D01*
X3636651Y3063569D01*
X3652680Y3042679D01*
X3673569Y3026650D01*
X3697895Y3016574D01*
X3724000Y3013137D01*
X3750105Y3016574D01*
X3774432Y3026650D01*
X3795321Y3042679D01*
X3811350Y3063569D01*
X3821426Y3087895D01*
X3824863Y3114000D01*
X3821426Y3140105D01*
X3811350Y3164431D01*
X3795321Y3185321D01*
X3774432Y3201349D01*
X3750105Y3211426D01*
X3724000Y3214863D01*
D02*
G37*
G36*
X3470000D02*
X3443895Y3211426D01*
X3419569Y3201349D01*
X3398680Y3185321D01*
X3382651Y3164431D01*
X3372574Y3140105D01*
X3369138Y3114000D01*
X3372574Y3087895D01*
X3382651Y3063569D01*
X3398680Y3042679D01*
X3419569Y3026650D01*
X3443895Y3016574D01*
X3470000Y3013137D01*
X3496105Y3016574D01*
X3520432Y3026650D01*
X3541321Y3042679D01*
X3557350Y3063569D01*
X3567426Y3087895D01*
X3570863Y3114000D01*
X3567426Y3140105D01*
X3557350Y3164431D01*
X3541321Y3185321D01*
X3520432Y3201349D01*
X3496105Y3211426D01*
X3470000Y3214863D01*
D02*
G37*
G36*
X3216000D02*
X3189895Y3211426D01*
X3165569Y3201349D01*
X3144680Y3185321D01*
X3128651Y3164431D01*
X3118574Y3140105D01*
X3115138Y3114000D01*
X3118574Y3087895D01*
X3128651Y3063569D01*
X3144680Y3042679D01*
X3165569Y3026650D01*
X3189895Y3016574D01*
X3216000Y3013137D01*
X3242105Y3016574D01*
X3266432Y3026650D01*
X3287321Y3042679D01*
X3303350Y3063569D01*
X3313426Y3087895D01*
X3316863Y3114000D01*
X3313426Y3140105D01*
X3303350Y3164431D01*
X3287321Y3185321D01*
X3266432Y3201349D01*
X3242105Y3211426D01*
X3216000Y3214863D01*
D02*
G37*
G36*
X2962000D02*
X2935895Y3211426D01*
X2911569Y3201349D01*
X2890680Y3185321D01*
X2874651Y3164431D01*
X2864574Y3140105D01*
X2861138Y3114000D01*
X2864574Y3087895D01*
X2874651Y3063569D01*
X2890680Y3042679D01*
X2911569Y3026650D01*
X2935895Y3016574D01*
X2962000Y3013137D01*
X2988105Y3016574D01*
X3012432Y3026650D01*
X3033321Y3042679D01*
X3049350Y3063569D01*
X3059426Y3087895D01*
X3062863Y3114000D01*
X3059426Y3140105D01*
X3049350Y3164431D01*
X3033321Y3185321D01*
X3012432Y3201349D01*
X2988105Y3211426D01*
X2962000Y3214863D01*
D02*
G37*
G36*
X2708000D02*
X2681895Y3211426D01*
X2657569Y3201349D01*
X2636680Y3185321D01*
X2620651Y3164431D01*
X2610574Y3140105D01*
X2607138Y3114000D01*
X2610574Y3087895D01*
X2620651Y3063569D01*
X2636680Y3042679D01*
X2657569Y3026650D01*
X2681895Y3016574D01*
X2708000Y3013137D01*
X2734105Y3016574D01*
X2758432Y3026650D01*
X2779321Y3042679D01*
X2795350Y3063569D01*
X2805426Y3087895D01*
X2808863Y3114000D01*
X2805426Y3140105D01*
X2795350Y3164431D01*
X2779321Y3185321D01*
X2758432Y3201349D01*
X2734105Y3211426D01*
X2708000Y3214863D01*
D02*
G37*
G36*
X2454000D02*
X2427895Y3211426D01*
X2403569Y3201349D01*
X2382680Y3185321D01*
X2366651Y3164431D01*
X2356574Y3140105D01*
X2353138Y3114000D01*
X2356574Y3087895D01*
X2366651Y3063569D01*
X2382680Y3042679D01*
X2403569Y3026650D01*
X2427895Y3016574D01*
X2454000Y3013137D01*
X2480105Y3016574D01*
X2504432Y3026650D01*
X2525321Y3042679D01*
X2541350Y3063569D01*
X2551426Y3087895D01*
X2554863Y3114000D01*
X2551426Y3140105D01*
X2541350Y3164431D01*
X2525321Y3185321D01*
X2504432Y3201349D01*
X2480105Y3211426D01*
X2454000Y3214863D01*
D02*
G37*
G36*
X2200000D02*
X2173895Y3211426D01*
X2149569Y3201349D01*
X2128680Y3185321D01*
X2112651Y3164431D01*
X2102574Y3140105D01*
X2099138Y3114000D01*
X2102574Y3087895D01*
X2112651Y3063569D01*
X2128680Y3042679D01*
X2149569Y3026650D01*
X2173895Y3016574D01*
X2200000Y3013137D01*
X2226105Y3016574D01*
X2250432Y3026650D01*
X2271321Y3042679D01*
X2287350Y3063569D01*
X2297426Y3087895D01*
X2300863Y3114000D01*
X2297426Y3140105D01*
X2287350Y3164431D01*
X2271321Y3185321D01*
X2250432Y3201349D01*
X2226105Y3211426D01*
X2200000Y3214863D01*
D02*
G37*
G36*
X3965497Y3101500D02*
X3873740D01*
X3875703Y3086589D01*
X3886283Y3061047D01*
X3903113Y3039113D01*
X3925047Y3022283D01*
X3950590Y3011703D01*
X3965497Y3009740D01*
Y3101500D01*
D02*
G37*
G36*
X4082260D02*
X3990496D01*
Y3009739D01*
X4005411Y3011703D01*
X4030953Y3022283D01*
X4052887Y3039113D01*
X4069717Y3061047D01*
X4080297Y3086589D01*
X4082260Y3101500D01*
D02*
G37*
G36*
X6700000Y3183363D02*
X6673895Y3179926D01*
X6649569Y3169850D01*
X6628679Y3153821D01*
X6612650Y3132931D01*
X6602574Y3108605D01*
X6599137Y3082500D01*
X6602574Y3056395D01*
X6612650Y3032069D01*
X6628679Y3011179D01*
X6649569Y2995150D01*
X6673895Y2985074D01*
X6700000Y2981637D01*
X6726105Y2985074D01*
X6750432Y2995150D01*
X6771321Y3011179D01*
X6787350Y3032069D01*
X6797426Y3056395D01*
X6800863Y3082500D01*
X6797426Y3108605D01*
X6787350Y3132931D01*
X6771321Y3153821D01*
X6750432Y3169850D01*
X6726105Y3179926D01*
X6700000Y3183363D01*
D02*
G37*
G36*
X6446000D02*
X6419895Y3179926D01*
X6395569Y3169850D01*
X6374679Y3153821D01*
X6358650Y3132931D01*
X6348574Y3108605D01*
X6345137Y3082500D01*
X6348574Y3056395D01*
X6358650Y3032069D01*
X6374679Y3011179D01*
X6395569Y2995150D01*
X6419895Y2985074D01*
X6446000Y2981637D01*
X6472105Y2985074D01*
X6496432Y2995150D01*
X6517321Y3011179D01*
X6533350Y3032069D01*
X6543426Y3056395D01*
X6546863Y3082500D01*
X6543426Y3108605D01*
X6533350Y3132931D01*
X6517321Y3153821D01*
X6496432Y3169850D01*
X6472105Y3179926D01*
X6446000Y3183363D01*
D02*
G37*
G36*
X604000D02*
X577895Y3179926D01*
X553569Y3169850D01*
X532679Y3153821D01*
X516650Y3132931D01*
X506574Y3108605D01*
X503137Y3082500D01*
X506574Y3056395D01*
X516650Y3032069D01*
X532679Y3011179D01*
X553569Y2995150D01*
X577895Y2985074D01*
X604000Y2981637D01*
X630105Y2985074D01*
X654432Y2995150D01*
X675321Y3011179D01*
X691350Y3032069D01*
X701426Y3056395D01*
X704863Y3082500D01*
X701426Y3108605D01*
X691350Y3132931D01*
X675321Y3153821D01*
X654432Y3169850D01*
X630105Y3179926D01*
X604000Y3183363D01*
D02*
G37*
G36*
X350000D02*
X323895Y3179926D01*
X299569Y3169850D01*
X278679Y3153821D01*
X262650Y3132931D01*
X252574Y3108605D01*
X249137Y3082500D01*
X252574Y3056395D01*
X262650Y3032069D01*
X278679Y3011179D01*
X299569Y2995150D01*
X323895Y2985074D01*
X350000Y2981637D01*
X376105Y2985074D01*
X400432Y2995150D01*
X421321Y3011179D01*
X437350Y3032069D01*
X447426Y3056395D01*
X450863Y3082500D01*
X447426Y3108605D01*
X437350Y3132931D01*
X421321Y3153821D01*
X400432Y3169850D01*
X376105Y3179926D01*
X350000Y3183363D01*
D02*
G37*
G36*
X5820000Y3051175D02*
X5796589Y3046519D01*
X5776742Y3033257D01*
X5763481Y3013411D01*
X5758824Y2990000D01*
X5759309Y2987566D01*
X5534843Y2763101D01*
X5533258Y2763258D01*
X5513411Y2776519D01*
X5490000Y2781175D01*
X5466590Y2776519D01*
X5446743Y2763257D01*
X5433482Y2743411D01*
X5428825Y2720000D01*
X5433482Y2696589D01*
X5446743Y2676742D01*
X5466590Y2663481D01*
X5490000Y2658825D01*
X5513411Y2663481D01*
X5533258Y2676742D01*
X5542754Y2690955D01*
X5546705Y2691741D01*
X5556628Y2698371D01*
X5793681Y2935424D01*
X5796589Y2933481D01*
X5820000Y2928824D01*
X5843411Y2933481D01*
X5863257Y2946742D01*
X5876519Y2966589D01*
X5881175Y2990000D01*
X5876519Y3013411D01*
X5863257Y3033257D01*
X5843411Y3046519D01*
X5820000Y3051175D01*
D02*
G37*
G36*
X4550000Y3087863D02*
X4523895Y3084426D01*
X4499569Y3074349D01*
X4478679Y3058321D01*
X4462650Y3037431D01*
X4452574Y3013105D01*
X4449137Y2987000D01*
X4452574Y2960895D01*
X4462650Y2936569D01*
X4478679Y2915679D01*
X4499569Y2899650D01*
X4523895Y2889574D01*
X4550000Y2886137D01*
X4576105Y2889574D01*
X4600431Y2899650D01*
X4621321Y2915679D01*
X4637350Y2936569D01*
X4647426Y2960895D01*
X4650863Y2987000D01*
X4647426Y3013105D01*
X4637350Y3037431D01*
X4621321Y3058321D01*
X4600431Y3074349D01*
X4576105Y3084426D01*
X4550000Y3087863D01*
D02*
G37*
G36*
X616500Y2932760D02*
Y2841004D01*
X708260D01*
X706297Y2855910D01*
X695717Y2881453D01*
X678887Y2903387D01*
X656953Y2920217D01*
X631410Y2930797D01*
X616500Y2932760D01*
D02*
G37*
G36*
X6712500D02*
Y2841004D01*
X6804260D01*
X6802297Y2855910D01*
X6791717Y2881453D01*
X6774887Y2903387D01*
X6752953Y2920217D01*
X6727410Y2930797D01*
X6712500Y2932760D01*
D02*
G37*
G36*
X362500D02*
Y2841004D01*
X454260D01*
X452297Y2855910D01*
X441717Y2881453D01*
X424887Y2903387D01*
X402953Y2920217D01*
X377410Y2930797D01*
X362500Y2932760D01*
D02*
G37*
G36*
X591501Y2932760D02*
X576590Y2930797D01*
X551047Y2920217D01*
X529113Y2903387D01*
X512283Y2881453D01*
X501703Y2855910D01*
X499740Y2841004D01*
X591501D01*
Y2932760D01*
D02*
G37*
G36*
X6687501D02*
X6672590Y2930797D01*
X6647047Y2920217D01*
X6625113Y2903387D01*
X6608283Y2881453D01*
X6597703Y2855910D01*
X6595740Y2841004D01*
X6687501D01*
Y2932760D01*
D02*
G37*
G36*
X337501D02*
X322590Y2930797D01*
X297047Y2920217D01*
X275113Y2903387D01*
X258283Y2881453D01*
X247703Y2855910D01*
X245740Y2841004D01*
X337501D01*
Y2932760D01*
D02*
G37*
G36*
X4170000Y3071175D02*
X4146589Y3066519D01*
X4126743Y3053258D01*
X4113481Y3033411D01*
X4108825Y3010000D01*
X4113481Y2986589D01*
X4126743Y2966743D01*
X4146589Y2953481D01*
X4170000Y2948825D01*
X4193411Y2953481D01*
X4213258Y2966743D01*
X4214911Y2969217D01*
X4243107D01*
X4301161Y2911162D01*
X4301162Y2911162D01*
X4389208Y2823116D01*
Y2799423D01*
X4378007Y2793436D01*
X4373402Y2796513D01*
X4349991Y2801170D01*
X4326580Y2796513D01*
X4306734Y2783252D01*
X4293472Y2763405D01*
X4288816Y2739995D01*
X4293472Y2716584D01*
X4306734Y2696737D01*
X4314404Y2691612D01*
Y2245060D01*
X4296734Y2233253D01*
X4291343Y2225185D01*
X4278643D01*
X4273249Y2233257D01*
X4259479Y2242458D01*
Y2829006D01*
X4271049Y2836737D01*
X4284311Y2856583D01*
X4288967Y2879994D01*
X4284311Y2903405D01*
X4271049Y2923252D01*
X4251203Y2936513D01*
X4227792Y2941170D01*
X4204381Y2936513D01*
X4184534Y2923252D01*
X4180242Y2916828D01*
X4167542D01*
X4163249Y2923252D01*
X4143403Y2936513D01*
X4119992Y2941170D01*
X4096581Y2936513D01*
X4076734Y2923252D01*
X4063473Y2903405D01*
X4058816Y2879994D01*
X4063473Y2856583D01*
X4076734Y2836737D01*
X4089404Y2828271D01*
Y2688612D01*
X4076704Y2686086D01*
X4069717Y2702953D01*
X4052887Y2724887D01*
X4030953Y2741717D01*
X4005411Y2752297D01*
X3990497Y2754261D01*
Y2650001D01*
Y2545739D01*
X4005411Y2547703D01*
X4030953Y2558283D01*
X4052887Y2575113D01*
X4069717Y2597047D01*
X4076704Y2613915D01*
X4089404Y2611388D01*
Y2241719D01*
X4076734Y2233253D01*
X4063473Y2213407D01*
X4058816Y2189996D01*
X4063473Y2166585D01*
X4076734Y2146738D01*
X4096581Y2133477D01*
X4119992Y2128820D01*
X4143403Y2133477D01*
X4163249Y2146738D01*
X4168643Y2154810D01*
X4181343D01*
X4186734Y2146742D01*
X4206581Y2133481D01*
X4229992Y2128825D01*
X4253402Y2133481D01*
X4273249Y2146742D01*
X4278640Y2154810D01*
X4291340D01*
X4296734Y2146738D01*
X4316580Y2133477D01*
X4339991Y2128820D01*
X4363402Y2133477D01*
X4383249Y2146738D01*
X4396510Y2166585D01*
X4401167Y2189996D01*
X4396510Y2213407D01*
X4383249Y2233253D01*
X4375579Y2238378D01*
Y2673450D01*
X4376508Y2674007D01*
X4389208Y2666813D01*
Y2599010D01*
X4389208Y2599009D01*
X4392312Y2583401D01*
X4401153Y2570170D01*
X4456570Y2514753D01*
X4452574Y2505105D01*
X4449137Y2479000D01*
X4452574Y2452895D01*
X4462650Y2428569D01*
X4478679Y2407679D01*
X4499569Y2391650D01*
X4523895Y2381574D01*
X4550000Y2378137D01*
X4576105Y2381574D01*
X4600431Y2391650D01*
X4621321Y2407679D01*
X4637350Y2428569D01*
X4647426Y2452895D01*
X4650863Y2479000D01*
X4647426Y2505105D01*
X4637350Y2529431D01*
X4621321Y2550321D01*
X4600431Y2566349D01*
X4576105Y2576426D01*
X4550000Y2579863D01*
X4523895Y2576426D01*
X4514247Y2572429D01*
X4470775Y2615902D01*
Y2651904D01*
X4483475Y2657999D01*
X4499569Y2645650D01*
X4523895Y2635574D01*
X4550000Y2632137D01*
X4576105Y2635574D01*
X4600431Y2645650D01*
X4621321Y2661679D01*
X4637350Y2682569D01*
X4647426Y2706895D01*
X4650863Y2733000D01*
X4647426Y2759105D01*
X4637350Y2783431D01*
X4621321Y2804321D01*
X4600431Y2820349D01*
X4576105Y2830426D01*
X4550000Y2833863D01*
X4523895Y2830426D01*
X4499569Y2820349D01*
X4483475Y2808000D01*
X4470775Y2814096D01*
Y2840009D01*
X4467671Y2855616D01*
X4458830Y2868847D01*
X4458829Y2868847D01*
X4358839Y2968838D01*
X4358838Y2968839D01*
X4288839Y3038838D01*
X4275607Y3047679D01*
X4260000Y3050784D01*
X4259999Y3050784D01*
X4214911D01*
X4213258Y3053258D01*
X4193411Y3066519D01*
X4170000Y3071175D01*
D02*
G37*
G36*
X6446000Y2929363D02*
X6419895Y2925926D01*
X6395569Y2915850D01*
X6374679Y2899821D01*
X6358650Y2878931D01*
X6348574Y2854605D01*
X6345137Y2828500D01*
X6348574Y2802395D01*
X6358650Y2778069D01*
X6374679Y2757179D01*
X6395569Y2741150D01*
X6419895Y2731074D01*
X6446000Y2727637D01*
X6472105Y2731074D01*
X6496432Y2741150D01*
X6517321Y2757179D01*
X6533350Y2778069D01*
X6543426Y2802395D01*
X6546863Y2828500D01*
X6543426Y2854605D01*
X6533350Y2878931D01*
X6517321Y2899821D01*
X6496432Y2915850D01*
X6472105Y2925926D01*
X6446000Y2929363D01*
D02*
G37*
G36*
X6804261Y2816004D02*
X6712500D01*
Y2724240D01*
X6727410Y2726203D01*
X6752953Y2736783D01*
X6774887Y2753613D01*
X6791717Y2775547D01*
X6802297Y2801090D01*
X6804261Y2816004D01*
D02*
G37*
G36*
X708261D02*
X616500D01*
Y2724240D01*
X631410Y2726203D01*
X656953Y2736783D01*
X678887Y2753613D01*
X695717Y2775547D01*
X706297Y2801090D01*
X708261Y2816004D01*
D02*
G37*
G36*
X454261D02*
X362500D01*
Y2724240D01*
X377410Y2726203D01*
X402953Y2736783D01*
X424887Y2753613D01*
X441717Y2775547D01*
X452297Y2801090D01*
X454261Y2816004D01*
D02*
G37*
G36*
X6687501D02*
X6595739D01*
X6597703Y2801090D01*
X6608283Y2775547D01*
X6625113Y2753613D01*
X6647047Y2736783D01*
X6672590Y2726203D01*
X6687501Y2724240D01*
Y2816004D01*
D02*
G37*
G36*
X591501D02*
X499739D01*
X501703Y2801090D01*
X512283Y2775547D01*
X529113Y2753613D01*
X551047Y2736783D01*
X576590Y2726203D01*
X591501Y2724240D01*
Y2816004D01*
D02*
G37*
G36*
X337501D02*
X245739D01*
X247703Y2801090D01*
X258283Y2775547D01*
X275113Y2753613D01*
X297047Y2736783D01*
X322590Y2726203D01*
X337501Y2724240D01*
Y2816004D01*
D02*
G37*
G36*
X3965497Y2754260D02*
X3950590Y2752297D01*
X3925047Y2741717D01*
X3903113Y2724887D01*
X3886283Y2702953D01*
X3875703Y2677410D01*
X3873740Y2662501D01*
X3965497D01*
Y2754260D01*
D02*
G37*
G36*
X616500Y2678760D02*
Y2587004D01*
X708260D01*
X706297Y2601910D01*
X695717Y2627453D01*
X678887Y2649387D01*
X656953Y2666217D01*
X631410Y2676797D01*
X616500Y2678760D01*
D02*
G37*
G36*
X591501Y2678760D02*
X576590Y2676797D01*
X551047Y2666217D01*
X529113Y2649387D01*
X512283Y2627453D01*
X501703Y2601910D01*
X499740Y2587004D01*
X591501D01*
Y2678760D01*
D02*
G37*
G36*
X3724000Y2750863D02*
X3697895Y2747426D01*
X3673569Y2737350D01*
X3652680Y2721321D01*
X3636651Y2700431D01*
X3626574Y2676105D01*
X3623138Y2650000D01*
X3626574Y2623895D01*
X3636651Y2599569D01*
X3652680Y2578679D01*
X3673569Y2562650D01*
X3697895Y2552574D01*
X3724000Y2549137D01*
X3750105Y2552574D01*
X3774431Y2562650D01*
X3795321Y2578679D01*
X3811350Y2599569D01*
X3821426Y2623895D01*
X3824863Y2650000D01*
X3821426Y2676105D01*
X3811350Y2700431D01*
X3795321Y2721321D01*
X3774431Y2737350D01*
X3750105Y2747426D01*
X3724000Y2750863D01*
D02*
G37*
G36*
X3470000D02*
X3443895Y2747426D01*
X3419569Y2737350D01*
X3398680Y2721321D01*
X3382651Y2700431D01*
X3372574Y2676105D01*
X3369138Y2650000D01*
X3372574Y2623895D01*
X3382651Y2599569D01*
X3398680Y2578679D01*
X3419569Y2562650D01*
X3443895Y2552574D01*
X3470000Y2549137D01*
X3496105Y2552574D01*
X3520431Y2562650D01*
X3541321Y2578679D01*
X3557350Y2599569D01*
X3567426Y2623895D01*
X3570863Y2650000D01*
X3567426Y2676105D01*
X3557350Y2700431D01*
X3541321Y2721321D01*
X3520431Y2737350D01*
X3496105Y2747426D01*
X3470000Y2750863D01*
D02*
G37*
G36*
X3216000D02*
X3189895Y2747426D01*
X3165569Y2737350D01*
X3144680Y2721321D01*
X3128651Y2700431D01*
X3118574Y2676105D01*
X3115138Y2650000D01*
X3118574Y2623895D01*
X3128651Y2599569D01*
X3144680Y2578679D01*
X3165569Y2562650D01*
X3189895Y2552574D01*
X3216000Y2549137D01*
X3242105Y2552574D01*
X3266431Y2562650D01*
X3287321Y2578679D01*
X3303350Y2599569D01*
X3313426Y2623895D01*
X3316863Y2650000D01*
X3313426Y2676105D01*
X3303350Y2700431D01*
X3287321Y2721321D01*
X3266431Y2737350D01*
X3242105Y2747426D01*
X3216000Y2750863D01*
D02*
G37*
G36*
X2962000D02*
X2935895Y2747426D01*
X2911569Y2737350D01*
X2890680Y2721321D01*
X2874651Y2700431D01*
X2864574Y2676105D01*
X2861138Y2650000D01*
X2864574Y2623895D01*
X2874651Y2599569D01*
X2890680Y2578679D01*
X2911569Y2562650D01*
X2935895Y2552574D01*
X2962000Y2549137D01*
X2988105Y2552574D01*
X3012431Y2562650D01*
X3033321Y2578679D01*
X3049350Y2599569D01*
X3059426Y2623895D01*
X3062863Y2650000D01*
X3059426Y2676105D01*
X3049350Y2700431D01*
X3033321Y2721321D01*
X3012431Y2737350D01*
X2988105Y2747426D01*
X2962000Y2750863D01*
D02*
G37*
G36*
X2708000D02*
X2681895Y2747426D01*
X2657569Y2737350D01*
X2636680Y2721321D01*
X2620651Y2700431D01*
X2610574Y2676105D01*
X2607138Y2650000D01*
X2610574Y2623895D01*
X2620651Y2599569D01*
X2636680Y2578679D01*
X2657569Y2562650D01*
X2681895Y2552574D01*
X2708000Y2549137D01*
X2734105Y2552574D01*
X2758431Y2562650D01*
X2779321Y2578679D01*
X2795350Y2599569D01*
X2805426Y2623895D01*
X2808863Y2650000D01*
X2805426Y2676105D01*
X2795350Y2700431D01*
X2779321Y2721321D01*
X2758431Y2737350D01*
X2734105Y2747426D01*
X2708000Y2750863D01*
D02*
G37*
G36*
X2454000D02*
X2427895Y2747426D01*
X2403569Y2737350D01*
X2382680Y2721321D01*
X2366651Y2700431D01*
X2356574Y2676105D01*
X2353138Y2650000D01*
X2356574Y2623895D01*
X2366651Y2599569D01*
X2382680Y2578679D01*
X2403569Y2562650D01*
X2427895Y2552574D01*
X2454000Y2549137D01*
X2480105Y2552574D01*
X2504431Y2562650D01*
X2525321Y2578679D01*
X2541350Y2599569D01*
X2551426Y2623895D01*
X2554863Y2650000D01*
X2551426Y2676105D01*
X2541350Y2700431D01*
X2525321Y2721321D01*
X2504431Y2737350D01*
X2480105Y2747426D01*
X2454000Y2750863D01*
D02*
G37*
G36*
X2200000D02*
X2173895Y2747426D01*
X2149569Y2737350D01*
X2128680Y2721321D01*
X2112651Y2700431D01*
X2102574Y2676105D01*
X2099138Y2650000D01*
X2102574Y2623895D01*
X2112651Y2599569D01*
X2128680Y2578679D01*
X2149569Y2562650D01*
X2173895Y2552574D01*
X2200000Y2549137D01*
X2226105Y2552574D01*
X2250431Y2562650D01*
X2271321Y2578679D01*
X2287350Y2599569D01*
X2297426Y2623895D01*
X2300863Y2650000D01*
X2297426Y2676105D01*
X2287350Y2700431D01*
X2271321Y2721321D01*
X2250431Y2737350D01*
X2226105Y2747426D01*
X2200000Y2750863D01*
D02*
G37*
G36*
X3965497Y2637501D02*
X3873740D01*
X3875703Y2622590D01*
X3886283Y2597047D01*
X3903113Y2575113D01*
X3925047Y2558283D01*
X3950590Y2547703D01*
X3965497Y2545740D01*
Y2637501D01*
D02*
G37*
G36*
X6700000Y2675363D02*
X6673895Y2671926D01*
X6649569Y2661850D01*
X6628679Y2645821D01*
X6612650Y2624931D01*
X6602574Y2600605D01*
X6599137Y2574500D01*
X6602574Y2548395D01*
X6612650Y2524069D01*
X6628679Y2503179D01*
X6649569Y2487150D01*
X6673895Y2477074D01*
X6700000Y2473637D01*
X6726105Y2477074D01*
X6750432Y2487150D01*
X6771321Y2503179D01*
X6787350Y2524069D01*
X6797426Y2548395D01*
X6800863Y2574500D01*
X6797426Y2600605D01*
X6787350Y2624931D01*
X6771321Y2645821D01*
X6750432Y2661850D01*
X6726105Y2671926D01*
X6700000Y2675363D01*
D02*
G37*
G36*
X6446000D02*
X6419895Y2671926D01*
X6395569Y2661850D01*
X6374679Y2645821D01*
X6358650Y2624931D01*
X6348574Y2600605D01*
X6345137Y2574500D01*
X6348574Y2548395D01*
X6358650Y2524069D01*
X6374679Y2503179D01*
X6395569Y2487150D01*
X6419895Y2477074D01*
X6446000Y2473637D01*
X6472105Y2477074D01*
X6496432Y2487150D01*
X6517321Y2503179D01*
X6533350Y2524069D01*
X6543426Y2548395D01*
X6546863Y2574500D01*
X6543426Y2600605D01*
X6533350Y2624931D01*
X6517321Y2645821D01*
X6496432Y2661850D01*
X6472105Y2671926D01*
X6446000Y2675363D01*
D02*
G37*
G36*
X350000D02*
X323895Y2671926D01*
X299569Y2661850D01*
X278679Y2645821D01*
X262650Y2624931D01*
X252574Y2600605D01*
X249137Y2574500D01*
X252574Y2548395D01*
X262650Y2524069D01*
X278679Y2503179D01*
X299569Y2487150D01*
X323895Y2477074D01*
X350000Y2473637D01*
X376105Y2477074D01*
X400432Y2487150D01*
X421321Y2503179D01*
X437350Y2524069D01*
X447426Y2548395D01*
X450863Y2574500D01*
X447426Y2600605D01*
X437350Y2624931D01*
X421321Y2645821D01*
X400432Y2661850D01*
X376105Y2671926D01*
X350000Y2675363D01*
D02*
G37*
G36*
X708261Y2562004D02*
X616500D01*
Y2470240D01*
X631410Y2472203D01*
X656953Y2482783D01*
X678887Y2499613D01*
X695717Y2521547D01*
X706297Y2547090D01*
X708261Y2562004D01*
D02*
G37*
G36*
X591501D02*
X499739D01*
X501703Y2547090D01*
X512283Y2521547D01*
X529113Y2499613D01*
X551047Y2482783D01*
X576590Y2472203D01*
X591501Y2470240D01*
Y2562004D01*
D02*
G37*
G36*
X5500000Y2546175D02*
X5476589Y2541519D01*
X5456742Y2528257D01*
X5443481Y2508411D01*
X5438825Y2485000D01*
X5443481Y2461589D01*
X5456742Y2441742D01*
X5476589Y2428481D01*
X5500000Y2423824D01*
X5523411Y2428481D01*
X5543219Y2441716D01*
X5733419D01*
X5736743Y2436743D01*
X5756589Y2423481D01*
X5780000Y2418825D01*
X5803411Y2423481D01*
X5823258Y2436743D01*
X5836519Y2456589D01*
X5841176Y2480000D01*
X5836519Y2503411D01*
X5823258Y2523258D01*
X5803411Y2536519D01*
X5780000Y2541176D01*
X5756589Y2536519D01*
X5736782Y2523283D01*
X5546581D01*
X5543257Y2528257D01*
X5523411Y2541519D01*
X5500000Y2546175D01*
D02*
G37*
G36*
X4562496Y2329261D02*
Y2237500D01*
X4654260D01*
X4652297Y2252410D01*
X4641717Y2277953D01*
X4624887Y2299887D01*
X4602953Y2316717D01*
X4577410Y2327297D01*
X4562496Y2329261D01*
D02*
G37*
G36*
X4537496Y2329260D02*
X4522590Y2327297D01*
X4497047Y2316717D01*
X4475113Y2299887D01*
X4458283Y2277953D01*
X4447703Y2252410D01*
X4445740Y2237500D01*
X4537496D01*
Y2329260D01*
D02*
G37*
G36*
X6700000Y2421363D02*
X6673895Y2417926D01*
X6649569Y2407850D01*
X6628679Y2391821D01*
X6612650Y2370931D01*
X6602574Y2346605D01*
X6599137Y2320500D01*
X6602574Y2294395D01*
X6612650Y2270069D01*
X6628679Y2249179D01*
X6649569Y2233150D01*
X6673895Y2223074D01*
X6700000Y2219637D01*
X6726105Y2223074D01*
X6750432Y2233150D01*
X6771321Y2249179D01*
X6787350Y2270069D01*
X6797426Y2294395D01*
X6800863Y2320500D01*
X6797426Y2346605D01*
X6787350Y2370931D01*
X6771321Y2391821D01*
X6750432Y2407850D01*
X6726105Y2417926D01*
X6700000Y2421363D01*
D02*
G37*
G36*
X6446000D02*
X6419895Y2417926D01*
X6395569Y2407850D01*
X6374679Y2391821D01*
X6358650Y2370931D01*
X6348574Y2346605D01*
X6345137Y2320500D01*
X6348574Y2294395D01*
X6358650Y2270069D01*
X6374679Y2249179D01*
X6395569Y2233150D01*
X6419895Y2223074D01*
X6446000Y2219637D01*
X6472105Y2223074D01*
X6496432Y2233150D01*
X6517321Y2249179D01*
X6533350Y2270069D01*
X6543426Y2294395D01*
X6546863Y2320500D01*
X6543426Y2346605D01*
X6533350Y2370931D01*
X6517321Y2391821D01*
X6496432Y2407850D01*
X6472105Y2417926D01*
X6446000Y2421363D01*
D02*
G37*
G36*
X604000D02*
X577895Y2417926D01*
X553569Y2407850D01*
X532679Y2391821D01*
X516650Y2370931D01*
X506574Y2346605D01*
X503137Y2320500D01*
X506574Y2294395D01*
X516650Y2270069D01*
X532679Y2249179D01*
X553569Y2233150D01*
X577895Y2223074D01*
X604000Y2219637D01*
X630105Y2223074D01*
X654432Y2233150D01*
X675321Y2249179D01*
X691350Y2270069D01*
X701426Y2294395D01*
X704863Y2320500D01*
X701426Y2346605D01*
X691350Y2370931D01*
X675321Y2391821D01*
X654432Y2407850D01*
X630105Y2417926D01*
X604000Y2421363D01*
D02*
G37*
G36*
X350000D02*
X323895Y2417926D01*
X299569Y2407850D01*
X278679Y2391821D01*
X262650Y2370931D01*
X252574Y2346605D01*
X249137Y2320500D01*
X252574Y2294395D01*
X262650Y2270069D01*
X278679Y2249179D01*
X299569Y2233150D01*
X323895Y2223074D01*
X350000Y2219637D01*
X376105Y2223074D01*
X400432Y2233150D01*
X421321Y2249179D01*
X437350Y2270069D01*
X447426Y2294395D01*
X450863Y2320500D01*
X447426Y2346605D01*
X437350Y2370931D01*
X421321Y2391821D01*
X400432Y2407850D01*
X376105Y2417926D01*
X350000Y2421363D01*
D02*
G37*
G36*
X4537496Y2212500D02*
X4445740D01*
X4447703Y2197589D01*
X4458283Y2172047D01*
X4475113Y2150113D01*
X4497047Y2133283D01*
X4522590Y2122703D01*
X4537496Y2120740D01*
Y2212500D01*
D02*
G37*
G36*
X4654260D02*
X4562496D01*
Y2120739D01*
X4577410Y2122703D01*
X4602953Y2133283D01*
X4624887Y2150113D01*
X4641717Y2172047D01*
X4652297Y2197589D01*
X4654260Y2212500D01*
D02*
G37*
G36*
X4562496Y2075261D02*
Y1983500D01*
X4654260D01*
X4652297Y1998410D01*
X4641717Y2023953D01*
X4624887Y2045887D01*
X4602953Y2062717D01*
X4577410Y2073297D01*
X4562496Y2075261D01*
D02*
G37*
G36*
X4537496Y2075260D02*
X4522590Y2073297D01*
X4497047Y2062717D01*
X4475113Y2045887D01*
X4458283Y2023953D01*
X4447703Y1998410D01*
X4445740Y1983500D01*
X4537496D01*
Y2075260D01*
D02*
G37*
G36*
X6446000Y2167363D02*
X6419895Y2163926D01*
X6395569Y2153850D01*
X6374679Y2137821D01*
X6358650Y2116931D01*
X6348574Y2092605D01*
X6345137Y2066500D01*
X6348574Y2040395D01*
X6358650Y2016069D01*
X6374679Y1995179D01*
X6395569Y1979150D01*
X6419895Y1969074D01*
X6446000Y1965637D01*
X6472105Y1969074D01*
X6496432Y1979150D01*
X6517321Y1995179D01*
X6533350Y2016069D01*
X6543426Y2040395D01*
X6546863Y2066500D01*
X6543426Y2092605D01*
X6533350Y2116931D01*
X6517321Y2137821D01*
X6496432Y2153850D01*
X6472105Y2163926D01*
X6446000Y2167363D01*
D02*
G37*
G36*
X604000D02*
X577895Y2163926D01*
X553569Y2153850D01*
X532679Y2137821D01*
X516650Y2116931D01*
X506574Y2092605D01*
X503137Y2066500D01*
X506574Y2040395D01*
X516650Y2016069D01*
X532679Y1995179D01*
X553569Y1979150D01*
X577895Y1969074D01*
X604000Y1965637D01*
X630105Y1969074D01*
X654432Y1979150D01*
X675321Y1995179D01*
X691350Y2016069D01*
X701426Y2040395D01*
X704863Y2066500D01*
X701426Y2092605D01*
X691350Y2116931D01*
X675321Y2137821D01*
X654432Y2153850D01*
X630105Y2163926D01*
X604000Y2167363D01*
D02*
G37*
G36*
X4537496Y1958500D02*
X4445740D01*
X4447703Y1943589D01*
X4458283Y1918047D01*
X4475113Y1896113D01*
X4497047Y1879283D01*
X4522590Y1868703D01*
X4537496Y1866740D01*
Y1958500D01*
D02*
G37*
G36*
X4654260D02*
X4562496D01*
Y1866739D01*
X4577410Y1868703D01*
X4602953Y1879283D01*
X4624887Y1896113D01*
X4641717Y1918047D01*
X4652297Y1943589D01*
X4654260Y1958500D01*
D02*
G37*
G36*
X5560000Y1961175D02*
X5536589Y1956519D01*
X5516742Y1943257D01*
X5503481Y1923411D01*
X5498824Y1900000D01*
X5503481Y1876589D01*
X5516742Y1856743D01*
X5536589Y1843481D01*
X5560000Y1838825D01*
X5583411Y1843481D01*
X5603257Y1856743D01*
X5611721Y1869409D01*
X5738265D01*
X5746731Y1856739D01*
X5766577Y1843477D01*
X5789988Y1838821D01*
X5813399Y1843477D01*
X5833246Y1856739D01*
X5846507Y1876585D01*
X5851164Y1899996D01*
X5846507Y1923407D01*
X5833246Y1943254D01*
X5813399Y1956515D01*
X5789988Y1961172D01*
X5766577Y1956515D01*
X5746731Y1943254D01*
X5738265Y1930584D01*
X5611726D01*
X5603257Y1943257D01*
X5583411Y1956519D01*
X5560000Y1961175D01*
D02*
G37*
G36*
X6446000Y1913363D02*
X6419895Y1909926D01*
X6395569Y1899850D01*
X6374679Y1883821D01*
X6358650Y1862931D01*
X6348574Y1838605D01*
X6345137Y1812500D01*
X6348574Y1786395D01*
X6358650Y1762069D01*
X6374679Y1741179D01*
X6395569Y1725150D01*
X6419895Y1715074D01*
X6446000Y1711637D01*
X6472105Y1715074D01*
X6496432Y1725150D01*
X6517321Y1741179D01*
X6533350Y1762069D01*
X6543426Y1786395D01*
X6546863Y1812500D01*
X6543426Y1838605D01*
X6533350Y1862931D01*
X6517321Y1883821D01*
X6496432Y1899850D01*
X6472105Y1909926D01*
X6446000Y1913363D01*
D02*
G37*
G36*
X604000D02*
X577895Y1909926D01*
X553569Y1899850D01*
X532679Y1883821D01*
X516650Y1862931D01*
X506574Y1838605D01*
X503137Y1812500D01*
X506574Y1786395D01*
X516650Y1762069D01*
X532679Y1741179D01*
X553569Y1725150D01*
X577895Y1715074D01*
X604000Y1711637D01*
X630105Y1715074D01*
X654432Y1725150D01*
X675321Y1741179D01*
X691350Y1762069D01*
X701426Y1786395D01*
X704863Y1812500D01*
X701426Y1838605D01*
X691350Y1862931D01*
X675321Y1883821D01*
X654432Y1899850D01*
X630105Y1909926D01*
X604000Y1913363D01*
D02*
G37*
G36*
X350000Y2167363D02*
X323895Y2163926D01*
X299569Y2153850D01*
X278679Y2137821D01*
X262650Y2116931D01*
X252574Y2092605D01*
X249137Y2066500D01*
X252574Y2040395D01*
X262650Y2016069D01*
X278679Y1995179D01*
X279396Y1994629D01*
Y1884371D01*
X278679Y1883821D01*
X262650Y1862931D01*
X252574Y1838605D01*
X249137Y1812500D01*
X252574Y1786395D01*
X262650Y1762069D01*
X278679Y1741179D01*
X299569Y1725150D01*
X323895Y1715074D01*
X350000Y1711637D01*
X376105Y1715074D01*
X400432Y1725150D01*
X421321Y1741179D01*
X437350Y1762069D01*
X447426Y1786395D01*
X450863Y1812500D01*
X447426Y1838605D01*
X437350Y1862931D01*
X421321Y1883821D01*
X420604Y1884371D01*
Y1994629D01*
X421321Y1995179D01*
X437350Y2016069D01*
X447426Y2040395D01*
X450863Y2066500D01*
X447426Y2092605D01*
X437350Y2116931D01*
X421321Y2137821D01*
X400432Y2153850D01*
X376105Y2163926D01*
X350000Y2167363D01*
D02*
G37*
G36*
X6700000D02*
X6673895Y2163926D01*
X6649569Y2153850D01*
X6628679Y2137821D01*
X6612650Y2116931D01*
X6602574Y2092605D01*
X6599137Y2066500D01*
X6602574Y2040395D01*
X6612650Y2016069D01*
X6628679Y1995179D01*
X6649569Y1979150D01*
X6673895Y1969074D01*
X6700000Y1965637D01*
X6726105Y1969074D01*
X6745949Y1977294D01*
X6899412Y1823830D01*
Y1680439D01*
X6887679Y1675579D01*
X6791403Y1771855D01*
X6797426Y1786395D01*
X6800863Y1812500D01*
X6797426Y1838605D01*
X6787350Y1862931D01*
X6771321Y1883821D01*
X6750432Y1899850D01*
X6726105Y1909926D01*
X6700000Y1913363D01*
X6673895Y1909926D01*
X6649569Y1899850D01*
X6628679Y1883821D01*
X6612650Y1862931D01*
X6602574Y1838605D01*
X6599137Y1812500D01*
X6602574Y1786395D01*
X6612650Y1762069D01*
X6628679Y1741179D01*
X6649569Y1725150D01*
X6673895Y1715074D01*
X6700000Y1711637D01*
X6726105Y1715074D01*
X6750432Y1725150D01*
X6751088Y1725654D01*
X6859412Y1617330D01*
Y489238D01*
X6760762Y390588D01*
X6415069D01*
X6343164Y462493D01*
X6346136Y477438D01*
X6341480Y500849D01*
X6328218Y520695D01*
X6308372Y533957D01*
X6284961Y538613D01*
X6261550Y533957D01*
X6253420Y528524D01*
X6251493Y528756D01*
X6240178Y534950D01*
X6236506Y553410D01*
X6223245Y573256D01*
X6203399Y586518D01*
X6179988Y591174D01*
X6156577Y586518D01*
X6136730Y573256D01*
X6123469Y553410D01*
X6118812Y529999D01*
X6123469Y506588D01*
X6136730Y486741D01*
X6156577Y473480D01*
X6160880Y471936D01*
X6163209Y460230D01*
X6169839Y450307D01*
X6321775Y298371D01*
X6331698Y291741D01*
X6343404Y289412D01*
X6343405Y289412D01*
X6789999D01*
X6790000Y289412D01*
X6801705Y291741D01*
X6811629Y298371D01*
X6951628Y438371D01*
X6951629Y438371D01*
X6958259Y448295D01*
X6960588Y460000D01*
X6960588Y460001D01*
Y1836500D01*
X6958259Y1848206D01*
X6951629Y1858129D01*
X6951628Y1858129D01*
X6789206Y2020551D01*
X6797426Y2040395D01*
X6800863Y2066500D01*
X6797426Y2092605D01*
X6787350Y2116931D01*
X6771321Y2137821D01*
X6750432Y2153850D01*
X6726105Y2163926D01*
X6700000Y2167363D01*
D02*
G37*
G36*
X362500Y1662760D02*
Y1571004D01*
X454260D01*
X452297Y1585910D01*
X441717Y1611453D01*
X424887Y1633387D01*
X402953Y1650217D01*
X377410Y1660797D01*
X362500Y1662760D01*
D02*
G37*
G36*
X337501Y1662760D02*
X322590Y1660797D01*
X297047Y1650217D01*
X275113Y1633387D01*
X258283Y1611453D01*
X247703Y1585910D01*
X245740Y1571004D01*
X337501D01*
Y1662760D01*
D02*
G37*
G36*
X6700000Y1659363D02*
X6673895Y1655926D01*
X6649569Y1645850D01*
X6628679Y1629821D01*
X6612650Y1608931D01*
X6602574Y1584605D01*
X6599137Y1558500D01*
X6602574Y1532395D01*
X6612650Y1508069D01*
X6628679Y1487179D01*
X6649569Y1471150D01*
X6673895Y1461074D01*
X6700000Y1457637D01*
X6726105Y1461074D01*
X6750432Y1471150D01*
X6771321Y1487179D01*
X6787350Y1508069D01*
X6797426Y1532395D01*
X6800863Y1558500D01*
X6797426Y1584605D01*
X6787350Y1608931D01*
X6771321Y1629821D01*
X6750432Y1645850D01*
X6726105Y1655926D01*
X6700000Y1659363D01*
D02*
G37*
G36*
X6446000D02*
X6419895Y1655926D01*
X6395569Y1645850D01*
X6374679Y1629821D01*
X6358650Y1608931D01*
X6348574Y1584605D01*
X6345137Y1558500D01*
X6348574Y1532395D01*
X6358650Y1508069D01*
X6374679Y1487179D01*
X6395569Y1471150D01*
X6419895Y1461074D01*
X6446000Y1457637D01*
X6472105Y1461074D01*
X6496432Y1471150D01*
X6517321Y1487179D01*
X6533350Y1508069D01*
X6543426Y1532395D01*
X6546863Y1558500D01*
X6543426Y1584605D01*
X6533350Y1608931D01*
X6517321Y1629821D01*
X6496432Y1645850D01*
X6472105Y1655926D01*
X6446000Y1659363D01*
D02*
G37*
G36*
X604000D02*
X577895Y1655926D01*
X553569Y1645850D01*
X532679Y1629821D01*
X516650Y1608931D01*
X506574Y1584605D01*
X503137Y1558500D01*
X506574Y1532395D01*
X516650Y1508069D01*
X532679Y1487179D01*
X553569Y1471150D01*
X577895Y1461074D01*
X604000Y1457637D01*
X630105Y1461074D01*
X654432Y1471150D01*
X675321Y1487179D01*
X691350Y1508069D01*
X701426Y1532395D01*
X704863Y1558500D01*
X701426Y1584605D01*
X691350Y1608931D01*
X675321Y1629821D01*
X654432Y1645850D01*
X630105Y1655926D01*
X604000Y1659363D01*
D02*
G37*
G36*
X454261Y1546004D02*
X362500D01*
Y1454240D01*
X377410Y1456203D01*
X402953Y1466783D01*
X424887Y1483613D01*
X441717Y1505547D01*
X452297Y1531090D01*
X454261Y1546004D01*
D02*
G37*
G36*
X337501D02*
X245739D01*
X247703Y1531090D01*
X258283Y1505547D01*
X275113Y1483613D01*
X297047Y1466783D01*
X322590Y1456203D01*
X337501Y1454240D01*
Y1546004D01*
D02*
G37*
G36*
X6700000Y1405363D02*
X6673895Y1401926D01*
X6649569Y1391850D01*
X6628679Y1375821D01*
X6612650Y1354931D01*
X6602574Y1330605D01*
X6599137Y1304500D01*
X6602574Y1278395D01*
X6612650Y1254069D01*
X6628679Y1233179D01*
X6649569Y1217150D01*
X6673895Y1207074D01*
X6700000Y1203637D01*
X6726105Y1207074D01*
X6750432Y1217150D01*
X6771321Y1233179D01*
X6787350Y1254069D01*
X6797426Y1278395D01*
X6800863Y1304500D01*
X6797426Y1330605D01*
X6787350Y1354931D01*
X6771321Y1375821D01*
X6750432Y1391850D01*
X6726105Y1401926D01*
X6700000Y1405363D01*
D02*
G37*
G36*
X6446000D02*
X6419895Y1401926D01*
X6395569Y1391850D01*
X6374679Y1375821D01*
X6358650Y1354931D01*
X6348574Y1330605D01*
X6345137Y1304500D01*
X6348574Y1278395D01*
X6358650Y1254069D01*
X6374679Y1233179D01*
X6395569Y1217150D01*
X6419895Y1207074D01*
X6446000Y1203637D01*
X6472105Y1207074D01*
X6496432Y1217150D01*
X6517321Y1233179D01*
X6533350Y1254069D01*
X6543426Y1278395D01*
X6546863Y1304500D01*
X6543426Y1330605D01*
X6533350Y1354931D01*
X6517321Y1375821D01*
X6496432Y1391850D01*
X6472105Y1401926D01*
X6446000Y1405363D01*
D02*
G37*
G36*
X604000D02*
X577895Y1401926D01*
X553569Y1391850D01*
X532679Y1375821D01*
X516650Y1354931D01*
X506574Y1330605D01*
X503137Y1304500D01*
X506574Y1278395D01*
X516650Y1254069D01*
X532679Y1233179D01*
X553569Y1217150D01*
X577895Y1207074D01*
X604000Y1203637D01*
X630105Y1207074D01*
X654432Y1217150D01*
X675321Y1233179D01*
X691350Y1254069D01*
X701426Y1278395D01*
X704863Y1304500D01*
X701426Y1330605D01*
X691350Y1354931D01*
X675321Y1375821D01*
X654432Y1391850D01*
X630105Y1401926D01*
X604000Y1405363D01*
D02*
G37*
G36*
X350000D02*
X323895Y1401926D01*
X299569Y1391850D01*
X278679Y1375821D01*
X262650Y1354931D01*
X252574Y1330605D01*
X249137Y1304500D01*
X252574Y1278395D01*
X262650Y1254069D01*
X278679Y1233179D01*
X299569Y1217150D01*
X323895Y1207074D01*
X350000Y1203637D01*
X376105Y1207074D01*
X400432Y1217150D01*
X421321Y1233179D01*
X437350Y1254069D01*
X447426Y1278395D01*
X450863Y1304500D01*
X447426Y1330605D01*
X437350Y1354931D01*
X421321Y1375821D01*
X400432Y1391850D01*
X376105Y1401926D01*
X350000Y1405363D01*
D02*
G37*
G36*
X6205000Y3751175D02*
X6181589Y3746519D01*
X6161743Y3733257D01*
X6148481Y3713411D01*
X6143825Y3690000D01*
X6148481Y3666589D01*
X6161743Y3646743D01*
X6179412Y3634936D01*
Y3365064D01*
X6161742Y3353257D01*
X6148481Y3333411D01*
X6143824Y3310000D01*
X6148481Y3286589D01*
X6161742Y3266743D01*
X6174412Y3258277D01*
Y2586723D01*
X6161743Y2578257D01*
X6148481Y2558411D01*
X6143825Y2535000D01*
X6148481Y2511589D01*
X6161743Y2491743D01*
X6169412Y2486618D01*
Y1810718D01*
X6156743Y1802252D01*
X6143481Y1782406D01*
X6138825Y1758995D01*
X6143481Y1735584D01*
X6156743Y1715737D01*
X6169412Y1707271D01*
Y1081723D01*
X6156743Y1073257D01*
X6143481Y1053411D01*
X6138825Y1030000D01*
X6143481Y1006589D01*
X6156743Y986742D01*
X6176589Y973481D01*
X6200000Y968824D01*
X6223411Y973481D01*
X6243258Y986742D01*
X6256519Y1006589D01*
X6261175Y1030000D01*
X6256519Y1053411D01*
X6243258Y1073257D01*
X6230588Y1081723D01*
Y1707271D01*
X6243258Y1715737D01*
X6256519Y1735584D01*
X6261175Y1758995D01*
X6256519Y1782406D01*
X6243258Y1802252D01*
X6230588Y1810718D01*
Y2479936D01*
X6248258Y2491743D01*
X6261519Y2511589D01*
X6266175Y2535000D01*
X6261519Y2558411D01*
X6248258Y2578257D01*
X6235587Y2586724D01*
Y3258277D01*
X6248257Y3266743D01*
X6261519Y3286589D01*
X6266175Y3310000D01*
X6261519Y3333411D01*
X6248257Y3353257D01*
X6240588Y3358382D01*
Y3641618D01*
X6248258Y3646743D01*
X6261519Y3666589D01*
X6266175Y3690000D01*
X6261519Y3713411D01*
X6248258Y3733257D01*
X6228411Y3746519D01*
X6205000Y3751175D01*
D02*
G37*
G36*
X6700000Y1151363D02*
X6673895Y1147926D01*
X6649569Y1137850D01*
X6628679Y1121821D01*
X6612650Y1100931D01*
X6602574Y1076605D01*
X6599137Y1050500D01*
X6602574Y1024395D01*
X6612650Y1000069D01*
X6628679Y979179D01*
X6649569Y963150D01*
X6673895Y953074D01*
X6700000Y949637D01*
X6726105Y953074D01*
X6750432Y963150D01*
X6771321Y979179D01*
X6787350Y1000069D01*
X6797426Y1024395D01*
X6800863Y1050500D01*
X6797426Y1076605D01*
X6787350Y1100931D01*
X6771321Y1121821D01*
X6750432Y1137850D01*
X6726105Y1147926D01*
X6700000Y1151363D01*
D02*
G37*
G36*
X6446000D02*
X6419895Y1147926D01*
X6395569Y1137850D01*
X6374679Y1121821D01*
X6358650Y1100931D01*
X6348574Y1076605D01*
X6345137Y1050500D01*
X6348574Y1024395D01*
X6358650Y1000069D01*
X6374679Y979179D01*
X6395569Y963150D01*
X6419895Y953074D01*
X6446000Y949637D01*
X6472105Y953074D01*
X6496432Y963150D01*
X6517321Y979179D01*
X6533350Y1000069D01*
X6543426Y1024395D01*
X6546863Y1050500D01*
X6543426Y1076605D01*
X6533350Y1100931D01*
X6517321Y1121821D01*
X6496432Y1137850D01*
X6472105Y1147926D01*
X6446000Y1151363D01*
D02*
G37*
G36*
X604000D02*
X577895Y1147926D01*
X553569Y1137850D01*
X532679Y1121821D01*
X516650Y1100931D01*
X506574Y1076605D01*
X503137Y1050500D01*
X506574Y1024395D01*
X516650Y1000069D01*
X532679Y979179D01*
X553569Y963150D01*
X577895Y953074D01*
X604000Y949637D01*
X630105Y953074D01*
X654432Y963150D01*
X675321Y979179D01*
X691350Y1000069D01*
X701426Y1024395D01*
X704863Y1050500D01*
X701426Y1076605D01*
X691350Y1100931D01*
X675321Y1121821D01*
X654432Y1137850D01*
X630105Y1147926D01*
X604000Y1151363D01*
D02*
G37*
G36*
X350000D02*
X323895Y1147926D01*
X299569Y1137850D01*
X278679Y1121821D01*
X262650Y1100931D01*
X252574Y1076605D01*
X249137Y1050500D01*
X252574Y1024395D01*
X262650Y1000069D01*
X278679Y979179D01*
X299569Y963150D01*
X323895Y953074D01*
X350000Y949637D01*
X376105Y953074D01*
X400432Y963150D01*
X421321Y979179D01*
X437350Y1000069D01*
X447426Y1024395D01*
X450863Y1050500D01*
X447426Y1076605D01*
X437350Y1100931D01*
X421321Y1121821D01*
X400432Y1137850D01*
X376105Y1147926D01*
X350000Y1151363D01*
D02*
G37*
G36*
X1290000Y951175D02*
X1266589Y946519D01*
X1246742Y933257D01*
X1241683Y925686D01*
X1160000D01*
X1146344Y922969D01*
X1134766Y915234D01*
X948932Y729399D01*
X940000Y731175D01*
X916589Y726519D01*
X896742Y713257D01*
X883481Y693411D01*
X878825Y670000D01*
X883481Y646589D01*
X896742Y626742D01*
X916589Y613481D01*
X940000Y608825D01*
X963411Y613481D01*
X983257Y626742D01*
X996519Y646589D01*
X1001175Y670000D01*
X999399Y678932D01*
X1174781Y854314D01*
X1241683D01*
X1246742Y846743D01*
X1266589Y833481D01*
X1290000Y828825D01*
X1313411Y833481D01*
X1333257Y846743D01*
X1346519Y866589D01*
X1351175Y890000D01*
X1346519Y913411D01*
X1333257Y933257D01*
X1313411Y946519D01*
X1290000Y951175D01*
D02*
G37*
G36*
X6712500Y900760D02*
Y809004D01*
X6804260D01*
X6802297Y823910D01*
X6791717Y849453D01*
X6774887Y871387D01*
X6752953Y888217D01*
X6727410Y898797D01*
X6712500Y900760D01*
D02*
G37*
G36*
X6687501Y900760D02*
X6672590Y898797D01*
X6647047Y888217D01*
X6625113Y871387D01*
X6608283Y849453D01*
X6597703Y823910D01*
X6595740Y809004D01*
X6687501D01*
Y900760D01*
D02*
G37*
G36*
X1980004Y1970393D02*
X1820000Y1970392D01*
X1812196Y1968840D01*
X1805580Y1964419D01*
X1805580Y1964418D01*
X1765581Y1924420D01*
X1761160Y1917804D01*
X1759608Y1910000D01*
X1759603Y1558444D01*
X1615584Y1414421D01*
X1615584Y1414421D01*
X1611163Y1407805D01*
X1609611Y1400002D01*
X1609608Y990000D01*
X1611160Y982196D01*
X1615581Y975580D01*
X1615581Y975580D01*
X1725580Y865581D01*
X1732196Y861160D01*
X1740000Y859608D01*
X2679999D01*
X2680000Y859608D01*
X2687804Y861160D01*
X2694419Y865581D01*
X2694420Y865581D01*
X2729186Y900347D01*
X2860520Y769013D01*
X2872097Y761277D01*
X2885754Y758561D01*
X3011683D01*
X3016743Y750989D01*
X3036589Y737728D01*
X3060000Y733071D01*
X3083411Y737728D01*
X3103257Y750989D01*
X3116519Y770835D01*
X3121175Y794246D01*
X3116519Y817657D01*
X3103257Y837504D01*
X3083411Y850765D01*
X3060000Y855422D01*
X3036589Y850765D01*
X3016743Y837504D01*
X3011683Y829932D01*
X2900535D01*
X2770392Y960075D01*
Y1299999D01*
X2770392Y1300000D01*
X2768840Y1307803D01*
X2764419Y1314419D01*
X2764419Y1314420D01*
X2714416Y1364419D01*
X2707801Y1368839D01*
X2699998Y1370391D01*
X2218453Y1370392D01*
X2030388Y1558445D01*
X2030393Y1920000D01*
X2028841Y1927803D01*
X2024421Y1934419D01*
X2024420Y1934420D01*
X1994423Y1964420D01*
X1994422Y1964421D01*
X1991378Y1966455D01*
X1987808Y1968841D01*
X1987765Y1968849D01*
X1980004Y1970393D01*
D02*
G37*
G36*
X6446000Y897363D02*
X6419895Y893926D01*
X6395569Y883850D01*
X6374679Y867821D01*
X6358650Y846931D01*
X6348574Y822605D01*
X6345137Y796500D01*
X6348574Y770395D01*
X6358650Y746069D01*
X6374679Y725179D01*
X6395569Y709150D01*
X6419895Y699074D01*
X6446000Y695637D01*
X6472105Y699074D01*
X6496432Y709150D01*
X6517321Y725179D01*
X6533350Y746069D01*
X6543426Y770395D01*
X6546863Y796500D01*
X6543426Y822605D01*
X6533350Y846931D01*
X6517321Y867821D01*
X6496432Y883850D01*
X6472105Y893926D01*
X6446000Y897363D01*
D02*
G37*
G36*
X604000D02*
X577895Y893926D01*
X553569Y883850D01*
X532679Y867821D01*
X516650Y846931D01*
X506574Y822605D01*
X503137Y796500D01*
X506574Y770395D01*
X516650Y746069D01*
X532679Y725179D01*
X553569Y709150D01*
X577895Y699074D01*
X604000Y695637D01*
X630105Y699074D01*
X654432Y709150D01*
X675321Y725179D01*
X691350Y746069D01*
X701426Y770395D01*
X704863Y796500D01*
X701426Y822605D01*
X691350Y846931D01*
X675321Y867821D01*
X654432Y883850D01*
X630105Y893926D01*
X604000Y897363D01*
D02*
G37*
G36*
X350000D02*
X323895Y893926D01*
X299569Y883850D01*
X278679Y867821D01*
X262650Y846931D01*
X252574Y822605D01*
X249137Y796500D01*
X252574Y770395D01*
X262650Y746069D01*
X278679Y725179D01*
X299569Y709150D01*
X323895Y699074D01*
X350000Y695637D01*
X376105Y699074D01*
X400432Y709150D01*
X421321Y725179D01*
X437350Y746069D01*
X447426Y770395D01*
X450863Y796500D01*
X447426Y822605D01*
X437350Y846931D01*
X421321Y867821D01*
X400432Y883850D01*
X376105Y893926D01*
X350000Y897363D01*
D02*
G37*
G36*
X6804261Y784004D02*
X6712500D01*
Y692240D01*
X6727410Y694203D01*
X6752953Y704783D01*
X6774887Y721613D01*
X6791717Y743547D01*
X6802297Y769090D01*
X6804261Y784004D01*
D02*
G37*
G36*
X6687501D02*
X6595739D01*
X6597703Y769090D01*
X6608283Y743547D01*
X6625113Y721613D01*
X6647047Y704783D01*
X6672590Y694203D01*
X6687501Y692240D01*
Y784004D01*
D02*
G37*
G36*
X6712500Y646760D02*
Y555004D01*
X6804260D01*
X6802297Y569910D01*
X6791717Y595453D01*
X6774887Y617387D01*
X6752953Y634217D01*
X6727410Y644797D01*
X6712500Y646760D01*
D02*
G37*
G36*
X6687501Y646760D02*
X6672590Y644797D01*
X6647047Y634217D01*
X6625113Y617387D01*
X6608283Y595453D01*
X6597703Y569910D01*
X6595740Y555004D01*
X6687501D01*
Y646760D01*
D02*
G37*
G36*
X6446000Y643363D02*
X6419895Y639926D01*
X6395569Y629850D01*
X6374679Y613821D01*
X6358650Y592931D01*
X6348574Y568605D01*
X6345137Y542500D01*
X6348574Y516395D01*
X6358650Y492069D01*
X6374679Y471179D01*
X6395569Y455150D01*
X6419895Y445074D01*
X6446000Y441637D01*
X6472105Y445074D01*
X6496432Y455150D01*
X6517321Y471179D01*
X6533350Y492069D01*
X6543426Y516395D01*
X6546863Y542500D01*
X6543426Y568605D01*
X6533350Y592931D01*
X6517321Y613821D01*
X6496432Y629850D01*
X6472105Y639926D01*
X6446000Y643363D01*
D02*
G37*
G36*
X604000D02*
X577895Y639926D01*
X553569Y629850D01*
X532679Y613821D01*
X516650Y592931D01*
X506574Y568605D01*
X503137Y542500D01*
X506574Y516395D01*
X516650Y492069D01*
X532679Y471179D01*
X553569Y455150D01*
X577895Y445074D01*
X604000Y441637D01*
X630105Y445074D01*
X654432Y455150D01*
X675321Y471179D01*
X691350Y492069D01*
X701426Y516395D01*
X704863Y542500D01*
X701426Y568605D01*
X691350Y592931D01*
X675321Y613821D01*
X654432Y629850D01*
X630105Y639926D01*
X604000Y643363D01*
D02*
G37*
G36*
X350000D02*
X323895Y639926D01*
X299569Y629850D01*
X278679Y613821D01*
X262650Y592931D01*
X252574Y568605D01*
X249137Y542500D01*
X252574Y516395D01*
X262650Y492069D01*
X278679Y471179D01*
X299569Y455150D01*
X323895Y445074D01*
X350000Y441637D01*
X376105Y445074D01*
X400432Y455150D01*
X421321Y471179D01*
X437350Y492069D01*
X447426Y516395D01*
X450863Y542500D01*
X447426Y568605D01*
X437350Y592931D01*
X421321Y613821D01*
X400432Y629850D01*
X376105Y639926D01*
X350000Y643363D01*
D02*
G37*
G36*
X6804261Y530004D02*
X6712500D01*
Y438240D01*
X6727410Y440203D01*
X6752953Y450783D01*
X6774887Y467613D01*
X6791717Y489547D01*
X6802297Y515090D01*
X6804261Y530004D01*
D02*
G37*
G36*
X6687501D02*
X6595739D01*
X6597703Y515090D01*
X6608283Y489547D01*
X6625113Y467613D01*
X6647047Y450783D01*
X6672590Y440203D01*
X6687501Y438240D01*
Y530004D01*
D02*
G37*
G36*
X3990497Y468261D02*
Y376501D01*
X4082260D01*
X4080297Y391410D01*
X4069717Y416953D01*
X4052887Y438887D01*
X4030953Y455717D01*
X4005411Y466297D01*
X3990497Y468261D01*
D02*
G37*
G36*
X3965497Y468260D02*
X3950590Y466297D01*
X3925047Y455717D01*
X3903113Y438887D01*
X3886283Y416953D01*
X3875703Y391410D01*
X3873740Y376501D01*
X3965497D01*
Y468260D01*
D02*
G37*
G36*
X3724000Y464863D02*
X3697895Y461426D01*
X3673569Y451350D01*
X3652680Y435321D01*
X3636651Y414431D01*
X3626574Y390105D01*
X3623138Y364000D01*
X3626574Y337895D01*
X3636651Y313569D01*
X3652680Y292679D01*
X3673569Y276650D01*
X3697895Y266574D01*
X3724000Y263137D01*
X3750105Y266574D01*
X3774431Y276650D01*
X3795321Y292679D01*
X3811350Y313569D01*
X3821426Y337895D01*
X3824863Y364000D01*
X3821426Y390105D01*
X3811350Y414431D01*
X3795321Y435321D01*
X3774431Y451350D01*
X3750105Y461426D01*
X3724000Y464863D01*
D02*
G37*
G36*
X3470000D02*
X3443895Y461426D01*
X3419569Y451350D01*
X3398680Y435321D01*
X3382651Y414431D01*
X3372574Y390105D01*
X3369138Y364000D01*
X3372574Y337895D01*
X3382651Y313569D01*
X3398680Y292679D01*
X3419569Y276650D01*
X3443895Y266574D01*
X3470000Y263137D01*
X3496105Y266574D01*
X3520431Y276650D01*
X3541321Y292679D01*
X3557350Y313569D01*
X3567426Y337895D01*
X3570863Y364000D01*
X3567426Y390105D01*
X3557350Y414431D01*
X3541321Y435321D01*
X3520431Y451350D01*
X3496105Y461426D01*
X3470000Y464863D01*
D02*
G37*
G36*
X3216000D02*
X3189895Y461426D01*
X3165569Y451350D01*
X3144680Y435321D01*
X3128651Y414431D01*
X3118574Y390105D01*
X3115138Y364000D01*
X3118574Y337895D01*
X3128651Y313569D01*
X3144680Y292679D01*
X3165569Y276650D01*
X3189895Y266574D01*
X3216000Y263137D01*
X3242105Y266574D01*
X3266431Y276650D01*
X3287321Y292679D01*
X3303350Y313569D01*
X3313426Y337895D01*
X3316863Y364000D01*
X3313426Y390105D01*
X3303350Y414431D01*
X3287321Y435321D01*
X3266431Y451350D01*
X3242105Y461426D01*
X3216000Y464863D01*
D02*
G37*
G36*
X2962000D02*
X2935895Y461426D01*
X2911569Y451350D01*
X2890680Y435321D01*
X2874651Y414431D01*
X2864574Y390105D01*
X2861138Y364000D01*
X2864574Y337895D01*
X2874651Y313569D01*
X2890680Y292679D01*
X2911569Y276650D01*
X2935895Y266574D01*
X2962000Y263137D01*
X2988105Y266574D01*
X3012431Y276650D01*
X3033321Y292679D01*
X3049350Y313569D01*
X3059426Y337895D01*
X3062863Y364000D01*
X3059426Y390105D01*
X3049350Y414431D01*
X3033321Y435321D01*
X3012431Y451350D01*
X2988105Y461426D01*
X2962000Y464863D01*
D02*
G37*
G36*
X2708000D02*
X2681895Y461426D01*
X2657569Y451350D01*
X2636680Y435321D01*
X2620651Y414431D01*
X2610574Y390105D01*
X2607138Y364000D01*
X2610574Y337895D01*
X2620651Y313569D01*
X2636680Y292679D01*
X2657569Y276650D01*
X2681895Y266574D01*
X2708000Y263137D01*
X2734105Y266574D01*
X2758431Y276650D01*
X2779321Y292679D01*
X2795350Y313569D01*
X2805426Y337895D01*
X2808863Y364000D01*
X2805426Y390105D01*
X2795350Y414431D01*
X2779321Y435321D01*
X2758431Y451350D01*
X2734105Y461426D01*
X2708000Y464863D01*
D02*
G37*
G36*
X2454000D02*
X2427895Y461426D01*
X2403569Y451350D01*
X2382680Y435321D01*
X2366651Y414431D01*
X2356574Y390105D01*
X2353138Y364000D01*
X2356574Y337895D01*
X2366651Y313569D01*
X2382680Y292679D01*
X2403569Y276650D01*
X2427895Y266574D01*
X2454000Y263137D01*
X2480105Y266574D01*
X2504431Y276650D01*
X2525321Y292679D01*
X2541350Y313569D01*
X2551426Y337895D01*
X2554863Y364000D01*
X2551426Y390105D01*
X2541350Y414431D01*
X2525321Y435321D01*
X2504431Y451350D01*
X2480105Y461426D01*
X2454000Y464863D01*
D02*
G37*
G36*
X2200000D02*
X2173895Y461426D01*
X2149569Y451350D01*
X2128680Y435321D01*
X2112651Y414431D01*
X2102574Y390105D01*
X2099138Y364000D01*
X2102574Y337895D01*
X2112651Y313569D01*
X2128680Y292679D01*
X2149569Y276650D01*
X2173895Y266574D01*
X2200000Y263137D01*
X2226105Y266574D01*
X2250431Y276650D01*
X2271321Y292679D01*
X2287350Y313569D01*
X2297426Y337895D01*
X2300863Y364000D01*
X2297426Y390105D01*
X2287350Y414431D01*
X2271321Y435321D01*
X2250431Y451350D01*
X2226105Y461426D01*
X2200000Y464863D01*
D02*
G37*
G36*
X3965497Y351501D02*
X3873740D01*
X3875703Y336590D01*
X3886283Y311047D01*
X3903113Y289113D01*
X3925047Y272283D01*
X3950590Y261703D01*
X3965497Y259740D01*
Y351501D01*
D02*
G37*
G36*
X4082261D02*
X3990497D01*
Y259739D01*
X4005411Y261703D01*
X4030953Y272283D01*
X4052887Y289113D01*
X4069717Y311047D01*
X4080297Y336590D01*
X4082261Y351501D01*
D02*
G37*
G36*
X4407135Y461006D02*
X4371849Y457530D01*
X4337919Y447238D01*
X4306648Y430523D01*
X4279240Y408030D01*
X4256746Y380621D01*
X4240032Y349351D01*
X4229740Y315421D01*
X4226264Y280135D01*
X4229740Y244849D01*
X4240032Y210919D01*
X4256746Y179648D01*
X4279240Y152240D01*
X4306648Y129746D01*
X4337919Y113032D01*
X4371849Y102739D01*
X4407135Y99264D01*
X4442421Y102739D01*
X4476351Y113032D01*
X4507621Y129746D01*
X4535030Y152240D01*
X4557524Y179648D01*
X4574238Y210919D01*
X4584530Y244849D01*
X4588006Y280135D01*
X4584530Y315421D01*
X4574238Y349351D01*
X4557524Y380621D01*
X4535030Y408030D01*
X4507621Y430523D01*
X4476351Y447238D01*
X4442421Y457530D01*
X4407135Y461006D01*
D02*
G37*
%LPD*%
G36*
X4339998Y7419997D02*
Y6479996D01*
X4269998Y6409996D01*
X3970001Y6409998D01*
X3819999Y6259998D01*
X3819996Y6030003D01*
X3850000Y6000000D01*
Y5790000D01*
X3800000Y5740000D01*
X3640000D01*
X3590000Y5790000D01*
X3590001Y6320001D01*
X3870004Y6600001D01*
X3869998Y6949990D01*
X3670000Y7150000D01*
X3295010Y7149991D01*
X3272501Y7172511D01*
X3272497Y7362495D01*
X3302497Y7392500D01*
X3682500Y7392504D01*
X3819996Y7529994D01*
X4229998Y7529996D01*
X4339998Y7419997D01*
D02*
G37*
%LPC*%
G36*
X3736499Y5968260D02*
Y5876503D01*
X3828260D01*
X3826297Y5891410D01*
X3815717Y5916953D01*
X3798887Y5938887D01*
X3776953Y5955717D01*
X3751411Y5966297D01*
X3736499Y5968260D01*
D02*
G37*
G36*
X3711500Y5968260D02*
X3696590Y5966297D01*
X3671047Y5955717D01*
X3649113Y5938887D01*
X3632283Y5916953D01*
X3621703Y5891410D01*
X3619740Y5876503D01*
X3711500D01*
Y5968260D01*
D02*
G37*
G36*
Y5851503D02*
X3619740D01*
X3621703Y5836590D01*
X3632283Y5811047D01*
X3649113Y5789113D01*
X3671047Y5772283D01*
X3696590Y5761703D01*
X3711500Y5759740D01*
Y5851503D01*
D02*
G37*
G36*
X3828261D02*
X3736499D01*
Y5759740D01*
X3751411Y5761703D01*
X3776953Y5772283D01*
X3798887Y5789113D01*
X3815717Y5811047D01*
X3826297Y5836590D01*
X3828261Y5851503D01*
D02*
G37*
%LPD*%
G36*
X3050002Y4730000D02*
X3049999Y4360000D01*
X3250004Y4160000D01*
X3739997Y4159999D01*
X3790000Y4110001D01*
X3789999Y3760000D01*
X3734998Y3704999D01*
X2765000Y3705000D01*
X2675003Y3795003D01*
X2674994Y4204995D01*
X2810001Y4339999D01*
X2810003Y4730001D01*
X2840002Y4760000D01*
X3020002D01*
X3050002Y4730000D01*
D02*
G37*
G36*
X2010001Y1920000D02*
X2009996Y1549998D01*
X2210006Y1350000D01*
X2699998Y1349999D01*
X2750000Y1300000D01*
Y950000D01*
X2680000Y880000D01*
X1740000D01*
X1630000Y990000D01*
X1630003Y1400002D01*
X1779995Y1549997D01*
X1780000Y1910000D01*
X1820000Y1950000D01*
X1980003Y1950001D01*
X2010001Y1920000D01*
D02*
G37*
D23*
X1756466Y3799992D02*
X1769996D01*
X1736459Y3820000D02*
X1756466Y3799992D01*
X1430000Y3820000D02*
X1736459D01*
X2885754Y794246D02*
X3060000D01*
X2700000Y980000D02*
X2885754Y794246D01*
X940000Y670000D02*
X1160000Y890000D01*
X1290000D01*
D24*
X1375500Y5114500D02*
X1440000Y5050000D01*
X615500Y5114500D02*
X1375500D01*
X610000Y5120000D02*
X615500Y5114500D01*
X1910000Y3740000D02*
Y3755448D01*
X1655448Y4010000D02*
X1910000Y3755448D01*
X1650000Y4010000D02*
X1655448D01*
D25*
X350000Y1812500D02*
Y2066500D01*
D26*
X4344991Y2734995D02*
X4349991Y2739995D01*
X4344991Y2194996D02*
Y2734995D01*
X4339991Y2189996D02*
X4344991Y2194996D01*
X4227792Y2879994D02*
X4228892Y2878894D01*
Y2191100D02*
Y2878894D01*
Y2191100D02*
X4229992Y2190000D01*
X6179988Y529999D02*
X6191468Y518519D01*
Y471936D02*
Y518519D01*
Y471936D02*
X6343404Y320000D01*
X6790000D01*
X6890000Y476569D02*
Y1630000D01*
X6700000Y1812500D02*
X6707500D01*
X6890000Y1630000D01*
X6773432Y360000D02*
X6890000Y476569D01*
X6402399Y360000D02*
X6773432D01*
X6790000Y320000D02*
X6930000Y460000D01*
Y1836500D01*
X6284961Y477438D02*
X6402399Y360000D01*
X6700000Y2066500D02*
X6930000Y1836500D01*
X5603211Y3870784D02*
Y3934219D01*
Y3870784D02*
X5605711Y3868284D01*
X5603211Y3934219D02*
X5748992Y4080000D01*
X5490000Y2720000D02*
X5535000D01*
X5595506Y1899996D02*
X5789988D01*
X6200000Y1030000D02*
Y2530000D01*
X6205000Y2535000D01*
X6205000Y3310000D02*
X6210000Y3315000D01*
X6205000Y3690000D02*
X6210000Y3685000D01*
Y3315000D02*
Y3685000D01*
X6205000Y2535000D02*
Y3310000D01*
Y2535000D02*
X6205000Y2535000D01*
X5805000Y2990000D02*
X5820000D01*
X5535000Y2720000D02*
X5805000Y2990000D01*
X5595502Y1900000D02*
X5595506Y1899996D01*
X5560000Y1900000D02*
X5595502D01*
X4119992Y2189996D02*
Y2879994D01*
X5762132Y4080000D02*
X5767132Y4085000D01*
X5748992Y4080000D02*
X5762132D01*
D27*
X4330000Y2940000D02*
Y2940000D01*
Y2940000D02*
X4429991Y2840009D01*
Y2599009D02*
Y2840009D01*
X4260000Y3010000D02*
X4330000Y2940000D01*
X4170000Y3010000D02*
X4260000D01*
X4429991Y2599009D02*
X4550000Y2479000D01*
X5370000Y3980000D02*
X5620000Y4230000D01*
X5910000D01*
X4090000Y3920000D02*
X4480000Y3530000D01*
X5350000Y3940000D02*
Y3950824D01*
X5370000Y3970824D01*
Y3980000D01*
X1860000Y7200000D02*
X2120000D01*
X5500000Y2485000D02*
X5502500Y2482500D01*
X5777500D01*
X5780000Y2480000D01*
X4169718Y4650000D02*
Y4669718D01*
X4252338Y4752338D01*
Y4832337D02*
X4259991Y4839990D01*
X4252338Y4752338D02*
Y4832337D01*
D29*
X4550000Y2733000D02*
D03*
X350000Y7654500D02*
D03*
Y7908500D02*
D03*
X6700000Y7654500D02*
D03*
Y7908500D02*
D03*
X6446000Y542500D02*
D03*
X6700000Y5114500D02*
D03*
Y4860500D02*
D03*
Y4606500D02*
D03*
Y4352500D02*
D03*
Y4098500D02*
D03*
Y3844500D02*
D03*
Y3590500D02*
D03*
Y3336500D02*
D03*
Y3082500D02*
D03*
Y2828500D02*
D03*
Y2574500D02*
D03*
Y2320500D02*
D03*
Y2066500D02*
D03*
Y1812500D02*
D03*
Y1558500D02*
D03*
Y1304500D02*
D03*
Y1050500D02*
D03*
Y796500D02*
D03*
Y542500D02*
D03*
X6446000Y5114500D02*
D03*
Y4860500D02*
D03*
Y4606500D02*
D03*
Y4352500D02*
D03*
Y4098500D02*
D03*
Y3844500D02*
D03*
Y3590500D02*
D03*
Y3336500D02*
D03*
Y3082500D02*
D03*
Y2828500D02*
D03*
Y2574500D02*
D03*
Y2320500D02*
D03*
Y2066500D02*
D03*
Y1812500D02*
D03*
Y1558500D02*
D03*
Y1304500D02*
D03*
Y1050500D02*
D03*
Y796500D02*
D03*
X604000Y5114500D02*
D03*
Y4860500D02*
D03*
Y4606500D02*
D03*
Y4352500D02*
D03*
Y4098500D02*
D03*
Y3844500D02*
D03*
Y3590500D02*
D03*
Y3336500D02*
D03*
Y3082500D02*
D03*
Y2828500D02*
D03*
Y2574500D02*
D03*
Y2320500D02*
D03*
Y2066500D02*
D03*
Y1812500D02*
D03*
Y1558500D02*
D03*
Y1304500D02*
D03*
Y1050500D02*
D03*
Y796500D02*
D03*
Y542500D02*
D03*
X350000Y5114500D02*
D03*
Y4860500D02*
D03*
Y4606500D02*
D03*
Y4352500D02*
D03*
Y4098500D02*
D03*
Y3844500D02*
D03*
Y3590500D02*
D03*
Y3336500D02*
D03*
Y3082500D02*
D03*
Y2828500D02*
D03*
Y2574500D02*
D03*
Y2320500D02*
D03*
Y2066500D02*
D03*
Y1812500D02*
D03*
Y1558500D02*
D03*
Y1304500D02*
D03*
Y1050500D02*
D03*
Y796500D02*
D03*
Y542500D02*
D03*
X6578000Y5864000D02*
D03*
X6324000D02*
D03*
X6070000D02*
D03*
X5816000D02*
D03*
X5562000D02*
D03*
X5308000D02*
D03*
X5054000D02*
D03*
X4800000D02*
D03*
Y8150000D02*
D03*
X5054000D02*
D03*
X5308000D02*
D03*
X5562000D02*
D03*
X5816000D02*
D03*
X6070000D02*
D03*
X6578000D02*
D03*
X6324000D02*
D03*
X2200000Y2650000D02*
D03*
X2454000D02*
D03*
X2708000D02*
D03*
X2962000D02*
D03*
X3216000D02*
D03*
X3470000D02*
D03*
X3724000D02*
D03*
X3978000D02*
D03*
Y364000D02*
D03*
X3724000D02*
D03*
X3470000D02*
D03*
X3216000D02*
D03*
X2962000D02*
D03*
X2708000D02*
D03*
X2200000D02*
D03*
X2454000D02*
D03*
X2200000Y5400000D02*
D03*
X2454000D02*
D03*
X2708000D02*
D03*
X2962000D02*
D03*
X3216000D02*
D03*
X3470000D02*
D03*
X3724000D02*
D03*
X3978000D02*
D03*
Y3114000D02*
D03*
X3724000D02*
D03*
X3470000D02*
D03*
X3216000D02*
D03*
X2962000D02*
D03*
X2708000D02*
D03*
X2200000D02*
D03*
X2454000D02*
D03*
Y5864000D02*
D03*
X2200000D02*
D03*
X2708000D02*
D03*
X2962000D02*
D03*
X3216000D02*
D03*
X3470000D02*
D03*
X3724000D02*
D03*
X3978000D02*
D03*
Y8150000D02*
D03*
X3724000D02*
D03*
X3470000D02*
D03*
X3216000D02*
D03*
X2962000D02*
D03*
X2708000D02*
D03*
X2454000D02*
D03*
X2200000D02*
D03*
X4550000Y3241000D02*
D03*
Y2479000D02*
D03*
Y2225000D02*
D03*
Y1971000D02*
D03*
Y2987000D02*
D03*
X4600000Y3749000D02*
D03*
Y4003000D02*
D03*
Y4257000D02*
D03*
Y4511000D02*
D03*
Y4765000D02*
D03*
Y5019000D02*
D03*
Y5273000D02*
D03*
D30*
X6199565Y4511635D02*
D03*
D31*
X4407135Y280135D02*
D03*
X5930835Y5359970D02*
D03*
X1104835Y5486970D02*
D03*
D32*
X927167Y3639181D02*
D03*
X797167Y3749181D02*
D03*
X647167Y8039180D02*
D03*
X947167D02*
D03*
X154485Y4724169D02*
D03*
X157167Y4249181D02*
D03*
Y3739181D02*
D03*
X147167Y3439181D02*
D03*
X797167Y3329181D02*
D03*
X907167Y3529181D02*
D03*
X3852854Y7438011D02*
D03*
X4287261Y7369234D02*
D03*
X4277261Y6669234D02*
D03*
X4307166Y4369181D02*
D03*
X5797165Y309181D02*
D03*
X6297165Y1079181D02*
D03*
X5897165Y899181D02*
D03*
X5377165Y1219181D02*
D03*
X5127165D02*
D03*
X4877165D02*
D03*
X4617165Y1229181D02*
D03*
X5787165Y2019181D02*
D03*
Y2339181D02*
D03*
X5507165Y2359181D02*
D03*
X5037165Y2409181D02*
D03*
X5127165Y3059181D02*
D03*
X5377165Y3069181D02*
D03*
X5537165Y2929181D02*
D03*
X5057165Y3449181D02*
D03*
X4927165Y3649181D02*
D03*
X5546005Y3526082D02*
D03*
X5877165Y3769181D02*
D03*
X5587165Y4379181D02*
D03*
X5417165Y4549181D02*
D03*
X5227165Y4169181D02*
D03*
X5097165Y4299181D02*
D03*
X1470000Y990000D02*
D03*
X1450000Y750000D02*
D03*
X1370000Y630000D02*
D03*
X5030000Y2290000D02*
D03*
X4880000Y2180000D02*
D03*
X5080000Y4810000D02*
D03*
X5070000Y4690000D02*
D03*
X4950000D02*
D03*
Y7990000D02*
D03*
Y7710000D02*
D03*
X3460000Y6450000D02*
D03*
X3200000Y6700000D02*
D03*
X3650000D02*
D03*
X3660000Y7500000D02*
D03*
X3450000Y7650000D02*
D03*
X3260000Y7490000D02*
D03*
X2700000Y1610000D02*
D03*
X2390000D02*
D03*
X2250000D02*
D03*
X2140000Y1600000D02*
D03*
X3550000Y4390000D02*
D03*
X3160000Y4400000D02*
D03*
X3260000Y4420000D02*
D03*
X3300000Y4580000D02*
D03*
Y4710000D02*
D03*
X3170000Y4770000D02*
D03*
X1210000Y4840000D02*
D03*
X850000D02*
D03*
X1030000Y4360000D02*
D03*
X990000Y2790000D02*
D03*
X980000Y1880000D02*
D03*
X1240000Y1170000D02*
D03*
X750000Y660000D02*
D03*
X1130000Y700000D02*
D03*
X5940000Y690000D02*
D03*
X6100000Y580000D02*
D03*
X6110000Y2110000D02*
D03*
X6290000D02*
D03*
X6570000Y2960000D02*
D03*
X6000000Y2920000D02*
D03*
X5870000Y4010000D02*
D03*
X2247260Y1239231D02*
D03*
X2147260Y1039231D02*
D03*
X1947260Y1439231D02*
D03*
X1747259D02*
D03*
X4147261Y7039234D02*
D03*
X3947261D02*
D03*
X3847261Y7239234D02*
D03*
Y6439234D02*
D03*
X3747260Y6239234D02*
D03*
X3647260Y7239234D02*
D03*
X3347260Y3839233D02*
D03*
X3247260Y4039233D02*
D03*
X3147260Y3839233D02*
D03*
X2947260Y4239233D02*
D03*
X2847260Y4439233D02*
D03*
X6647165Y7439180D02*
D03*
X6797165Y7139180D02*
D03*
X6647165Y6839180D02*
D03*
X6797165Y6539180D02*
D03*
X6647165Y6239181D02*
D03*
X6797165Y5939181D02*
D03*
X6647165Y5639181D02*
D03*
X6797165Y4739181D02*
D03*
Y2939182D02*
D03*
Y1139182D02*
D03*
X6497165Y7739180D02*
D03*
X6347165Y7439180D02*
D03*
X6497165Y7139180D02*
D03*
X6347165Y6839180D02*
D03*
X6497165Y6539180D02*
D03*
X6347165Y6239181D02*
D03*
Y5639181D02*
D03*
Y4439181D02*
D03*
Y3239181D02*
D03*
Y1439182D02*
D03*
X6197165Y7739180D02*
D03*
X6047165Y7439180D02*
D03*
X6197165Y7139180D02*
D03*
X6047165Y6839180D02*
D03*
X6197165Y6539180D02*
D03*
X6047165Y6239181D02*
D03*
X6197165Y5939181D02*
D03*
Y5339181D02*
D03*
X6047165Y4439181D02*
D03*
X6197165Y4139181D02*
D03*
X6047165Y3239181D02*
D03*
Y1439182D02*
D03*
X5747165Y7439180D02*
D03*
X5897165Y7139180D02*
D03*
X5747165Y6839180D02*
D03*
X5897165Y6539180D02*
D03*
X5747165Y6239181D02*
D03*
Y4439181D02*
D03*
X5897165Y3539181D02*
D03*
Y2939182D02*
D03*
Y2339182D02*
D03*
Y1739182D02*
D03*
X5597165Y7139180D02*
D03*
X5447165Y6839180D02*
D03*
X5597165Y6539180D02*
D03*
X5447165Y6239181D02*
D03*
Y5639181D02*
D03*
Y5039181D02*
D03*
X5597165Y4739181D02*
D03*
X5447165Y3839181D02*
D03*
Y3239181D02*
D03*
Y2039182D02*
D03*
X5597165Y539182D02*
D03*
X5147165Y7439180D02*
D03*
Y6839180D02*
D03*
X5297165Y6539180D02*
D03*
X5147165Y6239181D02*
D03*
Y5639181D02*
D03*
X5297165Y5339181D02*
D03*
X5147165Y3839181D02*
D03*
X5297165Y3539181D02*
D03*
X5147165Y3239181D02*
D03*
X5297165Y2339182D02*
D03*
X5147165Y2039182D02*
D03*
Y1439182D02*
D03*
X5297165Y539182D02*
D03*
X4847165Y7439180D02*
D03*
X4997165Y7139180D02*
D03*
Y6539180D02*
D03*
X4847165Y6239181D02*
D03*
Y5639181D02*
D03*
X4997165Y4139181D02*
D03*
X4847165Y3839181D02*
D03*
Y3239181D02*
D03*
Y2039182D02*
D03*
Y1439182D02*
D03*
X4997165Y539182D02*
D03*
X4547165Y8039180D02*
D03*
X4697165Y7739180D02*
D03*
X4547165Y7439180D02*
D03*
X4697165Y7139180D02*
D03*
X4547165Y6839180D02*
D03*
X4697165Y4139181D02*
D03*
Y3539181D02*
D03*
Y2339182D02*
D03*
Y539182D02*
D03*
X4247165Y8039180D02*
D03*
X4397165Y7739180D02*
D03*
Y7139180D02*
D03*
Y6539180D02*
D03*
X4247165Y6239181D02*
D03*
X4397165Y5939181D02*
D03*
X4247165Y5639181D02*
D03*
X4397165Y5339181D02*
D03*
X4247165Y5039181D02*
D03*
X4397165Y4139181D02*
D03*
Y1739182D02*
D03*
X4247165Y1439182D02*
D03*
Y839182D02*
D03*
X4397165Y539182D02*
D03*
X4097166Y7739180D02*
D03*
X3947166Y6239181D02*
D03*
X4097166Y5939181D02*
D03*
X3947166Y5639181D02*
D03*
Y5039181D02*
D03*
Y4439181D02*
D03*
X4097166Y4139181D02*
D03*
X3947166Y3839181D02*
D03*
X4097166Y3539181D02*
D03*
Y1739182D02*
D03*
X3947166Y1439182D02*
D03*
X4097166Y1139182D02*
D03*
X3947166Y839182D02*
D03*
X4097166Y539182D02*
D03*
X3647166Y8039180D02*
D03*
X3797166Y7739180D02*
D03*
X3647166Y6839180D02*
D03*
Y5639181D02*
D03*
Y5039181D02*
D03*
Y4439181D02*
D03*
X3797166Y3539181D02*
D03*
Y2939182D02*
D03*
X3647166Y2039182D02*
D03*
X3797166Y1139182D02*
D03*
X3647166Y839182D02*
D03*
Y239182D02*
D03*
X3347166Y8039180D02*
D03*
X3497166Y7739180D02*
D03*
X3347166Y6239181D02*
D03*
Y5639181D02*
D03*
Y4439181D02*
D03*
X3497166Y3539181D02*
D03*
X3347166Y3239181D02*
D03*
X3497166Y2939182D02*
D03*
X3347166Y2039182D02*
D03*
X3497166Y1739182D02*
D03*
Y1139182D02*
D03*
Y539182D02*
D03*
X3347166Y239182D02*
D03*
X3047166Y8039180D02*
D03*
X3197166Y7739180D02*
D03*
X3047166Y7439180D02*
D03*
Y6839180D02*
D03*
X3197166Y6539180D02*
D03*
X3047166Y6239181D02*
D03*
Y5639181D02*
D03*
Y5039181D02*
D03*
X3197166Y3539181D02*
D03*
X3047166Y3239181D02*
D03*
X3197166Y2939182D02*
D03*
X3047166Y2039182D02*
D03*
X3197166Y1739182D02*
D03*
X3047166Y1439182D02*
D03*
X3197166Y539182D02*
D03*
X3047166Y239182D02*
D03*
X2897166Y7739180D02*
D03*
X2747166Y7439180D02*
D03*
Y6839180D02*
D03*
X2897166Y6539180D02*
D03*
X2747166Y6239181D02*
D03*
Y5639181D02*
D03*
Y5039181D02*
D03*
Y4439181D02*
D03*
X2897166Y3539181D02*
D03*
X2747166Y3239181D02*
D03*
X2897166Y2939182D02*
D03*
X2747166Y2039182D02*
D03*
X2897166Y1739182D02*
D03*
X2747166Y1439182D02*
D03*
X2897166Y1139182D02*
D03*
Y539182D02*
D03*
X2447166Y7439180D02*
D03*
X2597166Y6539180D02*
D03*
X2447166Y6239181D02*
D03*
X2597166Y5939181D02*
D03*
X2447166Y5639181D02*
D03*
Y5039181D02*
D03*
X2597166Y4139181D02*
D03*
Y3539181D02*
D03*
Y2939182D02*
D03*
X2447166Y2039182D02*
D03*
Y1439182D02*
D03*
X2597166Y539182D02*
D03*
X2297166Y7739180D02*
D03*
X2147166Y6839180D02*
D03*
X2297166Y6539180D02*
D03*
X2147166Y6239181D02*
D03*
Y5639181D02*
D03*
Y5039181D02*
D03*
X2297166Y4739181D02*
D03*
Y4139181D02*
D03*
Y3539181D02*
D03*
X2147166Y3239181D02*
D03*
X2297166Y2939182D02*
D03*
X2147166Y2039182D02*
D03*
Y239182D02*
D03*
X1847166Y8039180D02*
D03*
X1997166Y7739180D02*
D03*
X1847166Y7439180D02*
D03*
Y4439181D02*
D03*
X1997166Y3539181D02*
D03*
X1847166Y3239181D02*
D03*
X1997166Y2939182D02*
D03*
X1847166Y2639182D02*
D03*
Y2039182D02*
D03*
X1547166Y8039180D02*
D03*
Y6839180D02*
D03*
X1697166Y6539180D02*
D03*
X1547166Y6239181D02*
D03*
X1697166Y5939181D02*
D03*
X1547166Y5639181D02*
D03*
Y4439181D02*
D03*
X1697166Y4139181D02*
D03*
Y3539181D02*
D03*
X1547166Y3239181D02*
D03*
X1697166Y2939182D02*
D03*
X1547166Y2639182D02*
D03*
Y2039182D02*
D03*
Y1439182D02*
D03*
X1247166Y8039180D02*
D03*
Y6839180D02*
D03*
X1397166Y6539180D02*
D03*
X1247166Y6239181D02*
D03*
X1397166Y5939181D02*
D03*
Y5339181D02*
D03*
X1247166Y4439181D02*
D03*
X1397166Y4139181D02*
D03*
X1247166Y3239181D02*
D03*
X1397166Y2939182D02*
D03*
X1247166Y2639182D02*
D03*
Y2039182D02*
D03*
Y1439182D02*
D03*
X1397166Y1139182D02*
D03*
X947167Y6839180D02*
D03*
X1097166Y6539180D02*
D03*
X947167Y6239181D02*
D03*
X1097166Y5939181D02*
D03*
X947167Y5639181D02*
D03*
X1097166Y3539181D02*
D03*
Y2939182D02*
D03*
X947167Y2639182D02*
D03*
Y2039182D02*
D03*
Y1439182D02*
D03*
X647167Y6839180D02*
D03*
X797167Y6539180D02*
D03*
X647167Y6239181D02*
D03*
X797167Y5939181D02*
D03*
X647167Y5639181D02*
D03*
X797167Y5339181D02*
D03*
Y1139182D02*
D03*
X497167Y7739180D02*
D03*
Y5939181D02*
D03*
X347167Y5639181D02*
D03*
D33*
X1440000Y5050000D02*
D03*
X1769996Y3799992D02*
D03*
X1650000Y4010000D02*
D03*
X1910000Y3740000D02*
D03*
X4349991Y2739995D02*
D03*
X4227792Y2879994D02*
D03*
X6284961Y477438D02*
D03*
X6179988Y529999D02*
D03*
X4090000Y3920000D02*
D03*
X5350000Y3940000D02*
D03*
X5910000Y4230000D02*
D03*
X4480000Y3530000D02*
D03*
X1860000Y7200000D02*
D03*
X5780000Y2480000D02*
D03*
X5500000Y2485000D02*
D03*
X4169718Y4650000D02*
D03*
X5605711Y3868284D02*
D03*
X5490000Y2720000D02*
D03*
X5789988Y1899996D02*
D03*
X6200000Y1030000D02*
D03*
Y1758995D02*
D03*
X6205000Y3690000D02*
D03*
Y2535000D02*
D03*
X6205000Y3310000D02*
D03*
X4259991Y4839990D02*
D03*
X1430000Y3820000D02*
D03*
X4170000Y3010000D02*
D03*
X4119992Y2879994D02*
D03*
X5820000Y2990000D02*
D03*
X2120000Y7200000D02*
D03*
X4339991Y2189996D02*
D03*
X1290000Y890000D02*
D03*
X5560000Y1900000D02*
D03*
X2700000Y980000D02*
D03*
X3060000Y794246D02*
D03*
X5767132Y4085000D02*
D03*
X940000Y670000D02*
D03*
X4119992Y2189996D02*
D03*
X4229992Y2190000D02*
D03*
D34*
X6700000Y5368500D02*
D03*
X6446000D02*
D03*
X604000D02*
D03*
X350000D02*
D03*
%TF.MD5,dad30490ab8ccce499acd7a85223b01a*%
M02*
