M48
;Layer_Color=13421619
;FILE_FORMAT=4:4
METRIC
;TYPE=NON_PLATED
T4F00S00C1.0200
T5F00S00C2.1000
T6F00S00C3.2000
%
T04
X00035000Y00054250
X00060400
Y00079650
Y00105050
Y00130450
Y00155850
Y00181250
Y00206650
Y00232050
Y00257450
X00035000
Y00232050
Y00206650
Y00181250
Y00155850
Y00130450
Y00105050
Y00079650
X00220000Y00036400
X00245400
X00270800
Y00265000
X00245400
X00220000
X00296200
X00321600
X00347000
X00372400
X00397800
X00455000Y00273300
Y00247900
Y00222500
Y00197100
X00644600Y00206650
X00670000
Y00232050
Y00257450
X00644600
Y00232050
Y00181250
X00670000
Y00155850
Y00130450
Y00105050
Y00079650
Y00054250
X00644600
Y00079650
Y00105050
Y00130450
Y00155850
X00397800Y00036400
X00372400
X00347000
X00321600
X00296200
Y00311400
X00321600
X00347000
X00372400
X00397800
X00455000Y00324100
Y00298700
X00460000Y00374900
Y00400300
Y00425700
Y00451100
Y00476500
Y00501900
Y00527300
X00397800Y00540000
X00372400
X00347000
X00321600
X00296200
Y00586400
X00321600
X00347000
X00372400
X00397800
X00480000
X00505400
X00530800
X00556200
X00581600
X00607000
X00632400
X00657800
X00670000Y00511450
Y00486050
Y00460650
Y00435250
Y00409850
Y00384450
Y00359050
Y00333650
Y00308250
Y00282850
X00644600
Y00308250
Y00333650
Y00359050
Y00384450
Y00409850
Y00435250
Y00460650
Y00486050
Y00511450
X00270800Y00540000
X00245400
X00220000
Y00586400
X00245400
X00270800
Y00311400
X00245400
X00220000
X00060400Y00308250
Y00333650
Y00359050
Y00384450
Y00409850
Y00435250
Y00460650
Y00486050
Y00511450
X00035000
Y00486050
Y00460650
Y00435250
Y00409850
Y00384450
Y00359050
Y00333650
Y00308250
Y00282850
X00060400
X00035000Y00765450
Y00790850
X00220000Y00815000
X00245400
X00270800
X00296200
X00321600
X00347000
X00372400
X00397800
X00480000
X00505400
X00530800
X00556200
X00581600
X00607000
X00632400
X00657800
X00670000Y00790850
Y00765450
T05
X00619957Y00451163
T06
X00440714Y00028014
X00593083Y00535997
X00110484Y00548697
M30
