M48
;Layer_Color=13421619
;FILE_FORMAT=4:4
METRIC
;TYPE=PLATED
T1F00S00C0.2000
T2F00S00C0.4000
T3F00S00C1.0200
%
T01
X00075000Y00066000
X00113000Y00070000
X00137000Y00063000
X00145000Y00075000
X00147000Y00099000
X00139717Y00113918
X00124000Y00117000
X00124717Y00143918
X00154717
X00174726Y00143923
X00194726
X00214000Y00160000
X00225000Y00161000
X00239000
X00244717Y00143918
X00274717
X00270000Y00161000
X00274717Y00203918
X00244717
X00214717
X00184717
X00154717
X00124717
X00094717
X00098000Y00188000
X00094717Y00143918
X00079717Y00113918
X00214726Y00103923
X00224726Y00123923
X00259717Y00053918
X00214717Y00023918
X00184717Y00263918
X00154717
X00124717
X00094717
X00304717Y00203918
X00334717
X00364717
X00349717Y00173918
X00319717
X00289717
X00304717Y00143918
X00289717Y00113918
X00349717
X00379717
X00409717
X00424716Y00143918
X00394717
X00409717Y00173918
X00439716
X00461716Y00122918
X00487716Y00121918
X00512716
X00514716Y00143918
X00484716
Y00203918
X00488000Y00218000
X00503000Y00229000
X00503717Y00240918
X00529716Y00233918
X00550717Y00235918
X00578717Y00233918
X00589716Y00233918
X00578717Y00201918
X00544716Y00203918
X00514716
X00469716Y00233918
X00611000Y00211000
X00629000
X00634716Y00143918
X00604716
X00589716Y00173918
X00589716Y00089918
X00594000Y00069000
X00610000Y00058000
X00559716Y00053918
X00529716
X00499716
X00469716
X00439716
X00409717
X00424716Y00083918
X00394717
X00364717
X00349717Y00053918
X00319717
X00289717
X00304717Y00023918
X00334717
X00364717
X00579716Y00030918
X00629716Y00107918
X00679716Y00113918
X00537716Y00121918
Y00306918
X00544716Y00323918
X00514716
X00512716Y00305918
X00505717Y00344918
X00492716Y00364918
X00484716Y00383918
X00514716
X00544716
X00554600Y00352608
X00529716Y00353918
X00589716
X00587716Y00376918
X00587000Y00401000
X00619716Y00413918
X00634716Y00443918
X00604716
X00574716
X00558717Y00437918
X00541716Y00454918
X00559716Y00473918
X00544716Y00503918
X00529716Y00533918
X00544716Y00563918
X00514716
X00484716
Y00623918
X00514716
X00544716
X00574716
X00604716
X00634716
X00664716
X00679716Y00653918
X00649716
X00619716
X00589716
X00559716
X00529716
X00499716
X00439716
X00427726Y00666923
X00424716Y00623918
X00394717
X00374726Y00623923
X00384726Y00643923
X00346000Y00645000
X00334717Y00623918
X00304717
X00319717Y00653918
X00320000Y00670000
X00365000
X00289717Y00653918
X00304717Y00563918
X00334717
X00364717
X00394717
X00424716
X00439716Y00593918
X00409717
X00439716Y00533918
X00424716Y00503918
X00394717
X00364717
Y00443918
X00355000Y00439000
X00334717Y00443918
X00326000Y00442000
X00316000Y00440000
X00330000Y00458000
Y00471000
X00317000Y00477000
X00304717Y00503918
X00294726Y00423923
X00324726Y00403923
X00334726Y00383923
X00314726
X00319717Y00353918
X00349717
X00379717
X00409717
X00394717Y00383918
X00409717Y00413918
X00439716
X00469716
X00499716
X00522716Y00416918
X00509716Y00429918
X00507000Y00469000
X00495000
X00508000Y00481000
X00430717Y00436918
X00394717Y00443918
X00469716Y00353918
X00484716Y00323918
X00553717Y00292918
X00589716Y00293918
X00600000Y00292000
X00604716Y00323918
X00634716
X00657000Y00296000
X00679716Y00293918
Y00473918
X00664716Y00563918
X00634716
X00619716Y00593918
X00679716
X00619716Y00533918
X00379717Y00293918
X00349717
X00319717
X00289717
X00304717Y00323918
X00334717
X00289717Y00353918
X00259717
X00229717
X00199717
X00169717
X00184717Y00323918
X00214717
X00229717Y00293918
X00259717
X00274717Y00323918
X00259717Y00413918
X00229717
Y00473918
X00244717Y00503918
X00274717
Y00563918
X00244717
X00214717
Y00623918
X00244717
X00274717
X00259717Y00653918
X00229717
X00169717
X00139717
X00109717
X00079717
X00094717Y00623918
X00124717
X00154717
X00169717Y00593918
X00139717
X00109717
X00079717
X00049717
X00064717Y00623918
Y00563918
X00094717
X00079717Y00533918
X00085000Y00484000
X00121000
X00124717Y00443918
X00103000Y00436000
X00139717Y00413918
X00169717
X00184717Y00443918
X00154717
X00139717Y00533918
X00154717Y00563918
X00214717Y00503918
X00274717Y00443918
X00284726Y00443923
X00259717Y00593918
X00034717Y00563918
X00015448Y00472417
X00015717Y00424918
Y00373918
X00014717Y00343918
X00079717Y00332918
X00090717Y00352918
X00092717Y00363918
X00079717Y00374918
X00109717Y00353918
X00124717Y00323918
X00154717
X00169717Y00293918
X00199717
X00139717
X00109717
X00099000Y00279000
X00094717Y00683918
X00124717
X00154717
X00214717
X00274717
Y00743918
X00244717
X00229717Y00773918
X00199717
X00184717Y00803918
X00154717
X00124717
X00094717
X00064717
X00049717Y00773918
X00064717Y00683918
X00184717Y00743918
X00304717
X00326000Y00749000
X00319717Y00773918
X00349717
X00345000Y00765000
X00366000Y00750000
X00385285Y00743801
X00384726Y00723923
X00364726
X00364717Y00683918
X00394726Y00703923
X00414726
X00439716Y00713918
X00469716
X00499716
X00514716Y00743918
X00484716
X00454716
X00428726Y00736923
X00439716Y00773918
X00469716
X00495000Y00771000
Y00799000
X00454716Y00803918
X00424716
X00409717Y00773918
X00379717
X00364717Y00803918
X00334717
X00304717
X00289717Y00773918
X00304717Y00683918
X00454716
X00514716
X00544716
X00574716
X00604716
X00634716
X00664716
X00679716Y00713918
X00649716
X00619716
X00589716
X00559716
X00574716Y00743918
X00604716
X00634716
X00664716
X00649716Y00773918
X00619716
T02
X00094000Y00067000
X00129000Y00089000
X00270000Y00098000
X00306000Y00079425
X00411999Y00219000
X00422999Y00219000
X00433999Y00219000
X00434999Y00274000
X00549000Y00272000
X00550000Y00248500
X00578000Y00248000
X00620500Y00253500
X00620000Y00175900
X00578999Y00190000
X00556000Y00190000
X00620000Y00103000
X00617999Y00053000
X00628496Y00047744
X00620500Y00331000
X00620500Y00369000
X00560571Y00386828
X00535000Y00394000
X00576713Y00408500
X00591000Y00423000
X00582000Y00299000
X00417000Y00301000
X00411999Y00287999
X00422779
X00448000Y00353000
X00409000Y00392000
X00416972Y00465000
X00425999Y00483999
X00144000Y00505000
X00143000Y00382000
X00177000Y00379999
X00191000Y00374000
X00165000Y00401000
X00186000Y00720000
X00212000
T03
X00644600Y00536850
X00670000
X00060400
X00035000
M30
