%TF.GenerationSoftware,Altium Limited,Altium Designer,20.1.14 (287)*%
G04 Layer_Physical_Order=1*
G04 Layer_Color=16711680*
%FSLAX45Y45*%
%MOMM*%
%TF.SameCoordinates,7B5A7627-AB34-47FD-98C4-24A8EE2920DC*%
%TF.FilePolarity,Positive*%
%TF.FileFunction,Copper,L1,Top,Signal*%
%TF.Part,Single*%
G01*
G75*
%TA.AperFunction,SMDPad,CuDef*%
%ADD10R,1.30000X0.90000*%
G04:AMPARAMS|DCode=11|XSize=0.6mm|YSize=1.4mm|CornerRadius=0.06mm|HoleSize=0mm|Usage=FLASHONLY|Rotation=270.000|XOffset=0mm|YOffset=0mm|HoleType=Round|Shape=RoundedRectangle|*
%AMROUNDEDRECTD11*
21,1,0.60000,1.28000,0,0,270.0*
21,1,0.48000,1.40000,0,0,270.0*
1,1,0.12000,-0.64000,-0.24000*
1,1,0.12000,-0.64000,0.24000*
1,1,0.12000,0.64000,0.24000*
1,1,0.12000,0.64000,-0.24000*
%
%ADD11ROUNDEDRECTD11*%
%ADD12R,0.80000X0.80000*%
%ADD13R,1.25000X1.20000*%
%ADD14R,0.90000X1.30000*%
%ADD15R,0.80000X0.80000*%
%ADD16R,3.40000X2.20000*%
%ADD17R,1.20000X2.20000*%
%ADD18R,2.20000X3.40000*%
%ADD19R,2.20000X1.20000*%
%ADD20R,1.20000X1.25000*%
%ADD21R,2.50000X1.80000*%
%ADD22R,1.80000X2.50000*%
%TA.AperFunction,Conductor*%
%ADD23C,0.30000*%
%ADD24C,0.15000*%
%ADD25C,1.00000*%
%ADD26C,0.20000*%
%ADD27C,0.40000*%
%ADD28C,0.50000*%
%TA.AperFunction,ComponentPad*%
%ADD29C,1.60000*%
%ADD30C,2.10000*%
%TA.AperFunction,WasherPad*%
%ADD31C,3.20000*%
%TA.AperFunction,ViaPad*%
%ADD32C,0.60000*%
%ADD33C,0.80000*%
%ADD34C,1.60000*%
G36*
X6834521Y8249383D02*
X6867251Y8242873D01*
X6898083Y8230102D01*
X6925829Y8211562D01*
X6949427Y8187964D01*
X6967967Y8160217D01*
X6980738Y8129385D01*
X6987249Y8096655D01*
Y8079970D01*
Y5729969D01*
X6987248Y429970D01*
X6987248Y413283D01*
X6980738Y380553D01*
X6967967Y349722D01*
X6949427Y321974D01*
X6925829Y298377D01*
X6898082Y279837D01*
X6867250Y267066D01*
X6834520Y260556D01*
X6817835Y260556D01*
X4867836Y260557D01*
X4867835Y260557D01*
X4856130Y258228D01*
X4846206Y251598D01*
X4655165Y60556D01*
X1380504Y60556D01*
X1189463Y251597D01*
X1189463Y251598D01*
X1179539Y258228D01*
X1167834Y260557D01*
X1167833Y260557D01*
X201149D01*
X168419Y267067D01*
X137588Y279837D01*
X109841Y298377D01*
X86243Y321975D01*
X67703Y349722D01*
X54932Y380553D01*
X48421Y413284D01*
Y429969D01*
X48422Y5729969D01*
Y8079969D01*
X48421Y8096655D01*
X54932Y8129386D01*
X67703Y8160217D01*
X86243Y8187965D01*
X109840Y8211561D01*
X137588Y8230102D01*
X168419Y8242873D01*
X201149Y8249383D01*
X2141514D01*
X2148749Y8238056D01*
X2148700Y8236683D01*
X2128680Y8221321D01*
X2112651Y8200431D01*
X2102574Y8176105D01*
X2099138Y8150000D01*
X2102574Y8123895D01*
X2112651Y8099569D01*
X2128680Y8078679D01*
X2149569Y8062650D01*
X2173895Y8052574D01*
X2200000Y8049137D01*
X2226105Y8052574D01*
X2250432Y8062650D01*
X2271321Y8078679D01*
X2287350Y8099569D01*
X2297426Y8123895D01*
X2300863Y8150000D01*
X2297426Y8176105D01*
X2287350Y8200431D01*
X2271321Y8221321D01*
X2251300Y8236683D01*
X2251252Y8238056D01*
X2258486Y8249383D01*
X2395514D01*
X2402749Y8238056D01*
X2402700Y8236683D01*
X2382680Y8221321D01*
X2366651Y8200431D01*
X2356574Y8176105D01*
X2353138Y8150000D01*
X2356574Y8123895D01*
X2366651Y8099569D01*
X2382680Y8078679D01*
X2403569Y8062650D01*
X2427895Y8052574D01*
X2454000Y8049137D01*
X2480105Y8052574D01*
X2504432Y8062650D01*
X2525321Y8078679D01*
X2541350Y8099569D01*
X2551426Y8123895D01*
X2554863Y8150000D01*
X2551426Y8176105D01*
X2541350Y8200431D01*
X2525321Y8221321D01*
X2505300Y8236683D01*
X2505252Y8238056D01*
X2512486Y8249383D01*
X2649514D01*
X2656749Y8238056D01*
X2656700Y8236683D01*
X2636680Y8221321D01*
X2620651Y8200431D01*
X2610574Y8176105D01*
X2607138Y8150000D01*
X2610574Y8123895D01*
X2620651Y8099569D01*
X2636680Y8078679D01*
X2650625Y8067979D01*
Y7934888D01*
X1929799Y7214061D01*
X1917645Y7217748D01*
X1916519Y7223411D01*
X1903258Y7243258D01*
X1883411Y7256519D01*
X1860000Y7261175D01*
X1836589Y7256519D01*
X1816743Y7243258D01*
X1815090Y7240784D01*
X750000D01*
X734393Y7237679D01*
X721162Y7228838D01*
X721161Y7228838D01*
X696162Y7203838D01*
X696161Y7203838D01*
X691162Y7198838D01*
X682321Y7185607D01*
X681621Y7182088D01*
X419533Y6920000D01*
X307500D01*
Y6760000D01*
X472500D01*
Y6872033D01*
X677581Y7077114D01*
X689314Y7072254D01*
Y5441339D01*
X677288Y5437257D01*
X675321Y5439821D01*
X654432Y5455850D01*
X630105Y5465926D01*
X604000Y5469363D01*
X577895Y5465926D01*
X553569Y5455850D01*
X532679Y5439821D01*
X516650Y5418931D01*
X506574Y5394605D01*
X503137Y5368500D01*
X506574Y5342395D01*
X516650Y5318069D01*
X532679Y5297179D01*
X553569Y5281150D01*
X577895Y5271074D01*
X604000Y5267637D01*
X630105Y5271074D01*
X654432Y5281150D01*
X675321Y5297179D01*
X677288Y5299744D01*
X689314Y5295661D01*
Y5187339D01*
X677288Y5183257D01*
X675321Y5185821D01*
X654432Y5201850D01*
X630105Y5211926D01*
X604000Y5215363D01*
X577895Y5211926D01*
X553569Y5201850D01*
X532679Y5185821D01*
X516650Y5164931D01*
X506574Y5140605D01*
X503137Y5114500D01*
X506574Y5088395D01*
X516650Y5064069D01*
X532679Y5043179D01*
X540949Y5036834D01*
X537783Y5023255D01*
X536344Y5022969D01*
X524766Y5015234D01*
X454766Y4945234D01*
X447031Y4933656D01*
X444744Y4922158D01*
X438790Y4919307D01*
X431614Y4918406D01*
X421321Y4931821D01*
X400432Y4947850D01*
X376105Y4957926D01*
X350000Y4961363D01*
X323895Y4957926D01*
X299569Y4947850D01*
X278679Y4931821D01*
X262650Y4910931D01*
X252574Y4886605D01*
X249137Y4860500D01*
X252574Y4834395D01*
X262650Y4810069D01*
X278679Y4789179D01*
X299569Y4773150D01*
X323895Y4763074D01*
X350000Y4759637D01*
X376105Y4763074D01*
X395949Y4771294D01*
X429412Y4737831D01*
Y4687272D01*
X416712Y4681357D01*
X400432Y4693850D01*
X376105Y4703926D01*
X350000Y4707363D01*
X323895Y4703926D01*
X299569Y4693850D01*
X278679Y4677821D01*
X262650Y4656931D01*
X252574Y4632605D01*
X249137Y4606500D01*
X252574Y4580395D01*
X262650Y4556069D01*
X278679Y4535179D01*
X299569Y4519150D01*
X323895Y4509074D01*
X350000Y4505637D01*
X376105Y4509074D01*
X400432Y4519150D01*
X421321Y4535179D01*
X427695Y4543486D01*
X443509Y4543234D01*
X528372Y4458371D01*
X538295Y4451741D01*
X539641Y4451473D01*
X542807Y4437894D01*
X529113Y4427387D01*
X512283Y4405453D01*
X501703Y4379910D01*
X499740Y4365004D01*
X604001D01*
X708260D01*
X706297Y4379910D01*
X695717Y4405453D01*
X678887Y4427387D01*
X666734Y4436712D01*
X671045Y4449412D01*
X679999D01*
X680000Y4449412D01*
X691705Y4451741D01*
X701629Y4458371D01*
X772670Y4529413D01*
X814999D01*
X815000Y4529412D01*
X815396Y4529491D01*
X899000D01*
X909145Y4531509D01*
X917745Y4537255D01*
X923491Y4545856D01*
X925509Y4556000D01*
Y4569412D01*
X1089999D01*
X1090000Y4569412D01*
X1101705Y4571741D01*
X1111629Y4578371D01*
X1277581Y4744323D01*
X1289314Y4739463D01*
Y4399781D01*
X1195219Y4305686D01*
X828002D01*
X814346Y4302969D01*
X802769Y4295234D01*
X693766Y4186231D01*
X689704Y4180152D01*
X687875Y4179008D01*
X675573Y4176945D01*
X673721Y4177351D01*
X656953Y4190217D01*
X631410Y4200797D01*
X616500Y4202760D01*
Y4098504D01*
Y3994240D01*
X631410Y3996203D01*
X656953Y4006783D01*
X670614Y4017266D01*
X683314Y4011002D01*
Y3974282D01*
X644851Y3935818D01*
X630105Y3941926D01*
X604000Y3945363D01*
X577895Y3941926D01*
X553569Y3931850D01*
X532679Y3915821D01*
X516650Y3894931D01*
X506574Y3870605D01*
X503137Y3844500D01*
X506574Y3818395D01*
X508459Y3813845D01*
X446557Y3751943D01*
X436611Y3737058D01*
X433119Y3719500D01*
Y3665826D01*
X426852Y3663699D01*
X420419Y3662513D01*
X400432Y3677850D01*
X376105Y3687926D01*
X350000Y3691363D01*
X323895Y3687926D01*
X299569Y3677850D01*
X278679Y3661821D01*
X262650Y3640931D01*
X252574Y3616605D01*
X249137Y3590500D01*
X252574Y3564395D01*
X262650Y3540069D01*
X278679Y3519179D01*
X299569Y3503150D01*
X323895Y3493074D01*
X350000Y3489637D01*
X376105Y3493074D01*
X400432Y3503150D01*
X420419Y3518487D01*
X426852Y3517302D01*
X433119Y3515175D01*
Y3461500D01*
X436611Y3443942D01*
X446557Y3429057D01*
X508459Y3367155D01*
X506574Y3362605D01*
X503137Y3336500D01*
X506574Y3310395D01*
X508459Y3305845D01*
X459995Y3257382D01*
X431281D01*
X425082Y3270082D01*
X437350Y3286069D01*
X447426Y3310395D01*
X450863Y3336500D01*
X447426Y3362605D01*
X437350Y3386931D01*
X421321Y3407821D01*
X400432Y3423850D01*
X376105Y3433926D01*
X350000Y3437363D01*
X323895Y3433926D01*
X299569Y3423850D01*
X278679Y3407821D01*
X262650Y3386931D01*
X252574Y3362605D01*
X249137Y3336500D01*
X252574Y3310395D01*
X262650Y3286069D01*
X278679Y3265179D01*
X279215Y3264768D01*
X278179Y3249555D01*
X269780Y3243943D01*
X117557Y3091720D01*
X107611Y3076835D01*
X104118Y3059277D01*
Y2010000D01*
X107611Y1992442D01*
X117557Y1977557D01*
X174119Y1920995D01*
Y1510001D01*
X177611Y1492442D01*
X187557Y1477557D01*
X264057Y1401057D01*
X278302Y1391539D01*
X279567Y1390580D01*
X282351Y1378638D01*
X278679Y1375821D01*
X262650Y1354931D01*
X252574Y1330605D01*
X249137Y1304500D01*
X252574Y1278395D01*
X262650Y1254069D01*
X278679Y1233179D01*
X299569Y1217150D01*
X323895Y1207074D01*
X350000Y1203637D01*
X376105Y1207074D01*
X400432Y1217150D01*
X421321Y1233179D01*
X437350Y1254069D01*
X447426Y1278395D01*
X450863Y1304500D01*
X447426Y1330605D01*
X437350Y1354931D01*
X422013Y1374919D01*
X423199Y1381352D01*
X425326Y1387619D01*
X528674D01*
X530802Y1381352D01*
X531987Y1374919D01*
X516650Y1354931D01*
X506574Y1330605D01*
X503137Y1304500D01*
X506574Y1278395D01*
X516650Y1254069D01*
X532679Y1233179D01*
X545570Y1223288D01*
X541259Y1210588D01*
X540000D01*
X528295Y1208259D01*
X518371Y1201629D01*
X448371Y1131629D01*
X441741Y1121705D01*
X440851Y1117231D01*
X427272Y1114065D01*
X421321Y1121821D01*
X400432Y1137850D01*
X376105Y1147926D01*
X350000Y1151363D01*
X323895Y1147926D01*
X299569Y1137850D01*
X278679Y1121821D01*
X262650Y1100931D01*
X252574Y1076605D01*
X249137Y1050500D01*
X252574Y1024395D01*
X262650Y1000069D01*
X278679Y979179D01*
X299569Y963150D01*
X323895Y953074D01*
X350000Y949637D01*
X376105Y953074D01*
X400432Y963150D01*
X421321Y979179D01*
X426712Y986206D01*
X439412Y981895D01*
Y929170D01*
X395949Y885706D01*
X376105Y893926D01*
X350000Y897363D01*
X323895Y893926D01*
X299569Y883850D01*
X278679Y867821D01*
X262650Y846931D01*
X252574Y822605D01*
X249137Y796500D01*
X252574Y770395D01*
X262650Y746069D01*
X278679Y725179D01*
X299569Y709150D01*
X323895Y699074D01*
X350000Y695637D01*
X376105Y699074D01*
X400432Y709150D01*
X421321Y725179D01*
X437350Y746069D01*
X447426Y770395D01*
X450863Y796500D01*
X447426Y822605D01*
X439206Y842449D01*
X491628Y894871D01*
X491629Y894871D01*
X498259Y904794D01*
X500588Y916500D01*
Y1005661D01*
X513288Y1008187D01*
X516650Y1000069D01*
X532679Y979179D01*
X553569Y963150D01*
X577895Y953074D01*
X604000Y949637D01*
X630105Y953074D01*
X654432Y963150D01*
X675321Y979179D01*
X691350Y1000069D01*
X701426Y1024395D01*
X704863Y1050500D01*
X701426Y1076605D01*
X691350Y1100931D01*
X675321Y1121821D01*
X655914Y1136712D01*
X655984Y1137983D01*
X660000Y1149412D01*
X671705Y1151741D01*
X681629Y1158371D01*
X752670Y1229412D01*
X770801D01*
X771509Y1225855D01*
X777255Y1217255D01*
X785855Y1211509D01*
X796000Y1209491D01*
X829028D01*
X839412Y1203911D01*
X841741Y1192206D01*
X848371Y1182282D01*
X1093411Y937242D01*
X1088551Y925509D01*
X996000D01*
X985855Y923491D01*
X977255Y917745D01*
X971509Y909144D01*
X970801Y905587D01*
X950436D01*
X949618Y907700D01*
X948324Y918287D01*
X956350Y923650D01*
X963201Y933904D01*
X965607Y946000D01*
Y957501D01*
X869996D01*
X774393D01*
Y946000D01*
X776799Y933904D01*
X783650Y923650D01*
X791676Y918287D01*
X790382Y907700D01*
X789564Y905587D01*
X720384D01*
X708678Y903259D01*
X698755Y896629D01*
X698754Y896628D01*
X672280Y870154D01*
X654432Y883850D01*
X630105Y893926D01*
X604000Y897363D01*
X577895Y893926D01*
X553569Y883850D01*
X532679Y867821D01*
X516650Y846931D01*
X506574Y822605D01*
X503137Y796500D01*
X506574Y770395D01*
X516650Y746069D01*
X532679Y725179D01*
X553569Y709150D01*
X577895Y699074D01*
X604000Y695637D01*
X630105Y699074D01*
X654432Y709150D01*
X675321Y725179D01*
X691350Y746069D01*
X701426Y770395D01*
X704863Y796500D01*
X702568Y813927D01*
X733053Y844412D01*
X970801D01*
X971509Y840855D01*
X977255Y832255D01*
X985855Y826508D01*
X996000Y824491D01*
X1107252D01*
X1199915Y731827D01*
Y428004D01*
X1199915Y428003D01*
X1202243Y416297D01*
X1208874Y406374D01*
X1319376Y295872D01*
X1319376Y295871D01*
X1329300Y289241D01*
X1341005Y286913D01*
X1907061D01*
X1911922Y275179D01*
X1887330Y250588D01*
X1322670D01*
X1221629Y351629D01*
X1211705Y358259D01*
X1200000Y360588D01*
X1199999Y360588D01*
X1151756D01*
X1144073Y373288D01*
X1145607Y381000D01*
Y392501D01*
X1049999D01*
Y405001D01*
X1037499D01*
Y460607D01*
X986000D01*
X977442Y458905D01*
X976544Y463421D01*
X969913Y473344D01*
X969913Y473345D01*
X950509Y492749D01*
Y524000D01*
X948491Y534145D01*
X942745Y542745D01*
X934145Y548491D01*
X924000Y550509D01*
X796000D01*
X785855Y548491D01*
X777255Y542745D01*
X771509Y534145D01*
X769491Y524000D01*
Y522377D01*
X768371Y521629D01*
X768371Y521628D01*
X709830Y463088D01*
X684772D01*
X678857Y475788D01*
X691350Y492069D01*
X701426Y516395D01*
X704863Y542500D01*
X701426Y568605D01*
X691350Y592931D01*
X675321Y613821D01*
X654432Y629850D01*
X630105Y639926D01*
X604000Y643363D01*
X577895Y639926D01*
X553569Y629850D01*
X532679Y613821D01*
X516650Y592931D01*
X506574Y568605D01*
X503137Y542500D01*
X506574Y516395D01*
X516650Y492069D01*
X529143Y475788D01*
X523228Y463088D01*
X472670D01*
X439206Y496551D01*
X447426Y516395D01*
X450863Y542500D01*
X447426Y568605D01*
X437350Y592931D01*
X421321Y613821D01*
X400432Y629850D01*
X376105Y639926D01*
X350000Y643363D01*
X323895Y639926D01*
X299569Y629850D01*
X278679Y613821D01*
X262650Y592931D01*
X252574Y568605D01*
X249137Y542500D01*
X252574Y516395D01*
X262650Y492069D01*
X278679Y471179D01*
X299569Y455150D01*
X323895Y445074D01*
X350000Y441637D01*
X376105Y445074D01*
X395949Y453294D01*
X438371Y410871D01*
X448295Y404241D01*
X460000Y401912D01*
X460001Y401912D01*
X722499D01*
X722500Y401912D01*
X734206Y404241D01*
X744129Y410871D01*
X785203Y451945D01*
X785855Y451509D01*
X796000Y449491D01*
X907252D01*
X917697Y439046D01*
Y367805D01*
X917697Y367804D01*
X920025Y356098D01*
X926656Y346175D01*
X964459Y308372D01*
X964459Y308371D01*
X974383Y301741D01*
X986088Y299412D01*
X986089Y299412D01*
X1187330D01*
X1288371Y198371D01*
X1298295Y191741D01*
X1310000Y189412D01*
X1310001Y189412D01*
X1899999D01*
X1900000Y189412D01*
X1911705Y191741D01*
X1921629Y198371D01*
X2086892Y363635D01*
X2099845Y358627D01*
X2102574Y337895D01*
X2112651Y313569D01*
X2128680Y292679D01*
X2149569Y276650D01*
X2173895Y266574D01*
X2200000Y263137D01*
X2226105Y266574D01*
X2250431Y276650D01*
X2271321Y292679D01*
X2287350Y313569D01*
X2297426Y337895D01*
X2300863Y364000D01*
X2297426Y390105D01*
X2287350Y414431D01*
X2271321Y435321D01*
X2250431Y451350D01*
X2226105Y461426D01*
X2205374Y464155D01*
X2200365Y477108D01*
X2412670Y689413D01*
X2869995D01*
X2869996Y689412D01*
X2881701Y691741D01*
X2891625Y698371D01*
X2986703Y793450D01*
X2999925Y788711D01*
X3003481Y770835D01*
X3016743Y750989D01*
X3036589Y737728D01*
X3060000Y733071D01*
X3083411Y737728D01*
X3103257Y750989D01*
X3108317Y758561D01*
X3375973D01*
X3559767Y574766D01*
X3565000Y571269D01*
Y515000D01*
X3594315D01*
Y458000D01*
X3597031Y444344D01*
X3604767Y432766D01*
X3632682Y404851D01*
X3626574Y390105D01*
X3623138Y364000D01*
X3626574Y337895D01*
X3636651Y313569D01*
X3652680Y292679D01*
X3673569Y276650D01*
X3697895Y266574D01*
X3724000Y263137D01*
X3750105Y266574D01*
X3774431Y276650D01*
X3795321Y292679D01*
X3811350Y313569D01*
X3821426Y337895D01*
X3824863Y364000D01*
X3821426Y390105D01*
X3811350Y414431D01*
X3795321Y435321D01*
X3774431Y451350D01*
X3750105Y461426D01*
X3724000Y464863D01*
X3697895Y461426D01*
X3683150Y455318D01*
X3665686Y472781D01*
Y515000D01*
X3695000D01*
Y685000D01*
X3565001D01*
Y685000D01*
X3554724Y680744D01*
X3415988Y819480D01*
X3404411Y827216D01*
X3390754Y829932D01*
X3108317D01*
X3103257Y837504D01*
X3083411Y850765D01*
X3065535Y854321D01*
X3060797Y867543D01*
X4325046Y2131793D01*
X4339991Y2128820D01*
X4363402Y2133477D01*
X4383249Y2146738D01*
X4396510Y2166585D01*
X4401167Y2189996D01*
X4396510Y2213407D01*
X4383249Y2233253D01*
X4378792Y2236231D01*
X4377547Y2248870D01*
X4514247Y2385570D01*
X4523895Y2381574D01*
X4550000Y2378137D01*
X4576105Y2381574D01*
X4600431Y2391650D01*
X4621321Y2407679D01*
X4637350Y2428569D01*
X4642588Y2441216D01*
X4795000D01*
Y2420000D01*
X4965000D01*
Y2444216D01*
X5455089D01*
X5456742Y2441742D01*
X5476589Y2428481D01*
X5500000Y2423824D01*
X5523411Y2428481D01*
X5543257Y2441742D01*
X5544838Y2444107D01*
X5557538Y2440254D01*
Y1960686D01*
X5536589Y1956519D01*
X5516742Y1943257D01*
X5503481Y1923411D01*
X5498824Y1900000D01*
X5503481Y1876589D01*
X5516742Y1856743D01*
X5536589Y1843481D01*
X5560000Y1838825D01*
X5583411Y1843481D01*
X5588212Y1846689D01*
X5599412Y1840702D01*
Y1751865D01*
X5599412Y1751864D01*
X5601741Y1740159D01*
X5608371Y1730235D01*
X5608603Y1730003D01*
X5603342Y1717303D01*
X4631717D01*
X4631715Y1717304D01*
X4620010Y1714975D01*
X4610087Y1708345D01*
X4610086Y1708344D01*
X4478371Y1576629D01*
X4471741Y1566706D01*
X4469412Y1555000D01*
X4461982Y1545000D01*
X4440000D01*
Y1425000D01*
X4560000D01*
Y1545000D01*
X4549851D01*
X4544991Y1556733D01*
X4644385Y1656128D01*
X4791277D01*
X4796137Y1644395D01*
X4728371Y1576629D01*
X4721741Y1566706D01*
X4719412Y1555000D01*
X4711982Y1545000D01*
X4690000D01*
Y1425000D01*
X4810000D01*
Y1545000D01*
X4799851D01*
X4794991Y1556733D01*
X4854385Y1616128D01*
X5006277D01*
X5011137Y1604395D01*
X4978371Y1571629D01*
X4971741Y1561705D01*
X4969412Y1550000D01*
X4958641Y1545000D01*
X4940000D01*
Y1425000D01*
X5060000D01*
Y1545000D01*
X5054851D01*
X5049991Y1556733D01*
X5069386Y1576128D01*
X5213925D01*
X5221089Y1563428D01*
X5219412Y1555000D01*
X5211982Y1545000D01*
X5190000D01*
Y1425000D01*
X5310000D01*
Y1536128D01*
X5440000D01*
Y1425000D01*
X5560000D01*
Y1432025D01*
X5571849Y1437203D01*
X5579413Y1431095D01*
Y1180000D01*
X5530588D01*
Y1265000D01*
X5560000D01*
Y1385000D01*
X5440000D01*
Y1265000D01*
X5469412D01*
Y1180000D01*
X5417500D01*
Y1020000D01*
X5579413D01*
Y945000D01*
X5512500D01*
Y859997D01*
Y775000D01*
X5579413D01*
Y708875D01*
X5579413Y708874D01*
X5581741Y697168D01*
X5588372Y687245D01*
X5969807Y305809D01*
X5979731Y299178D01*
X5991436Y296850D01*
X6753636D01*
X6753638Y296850D01*
X6765343Y299178D01*
X6775267Y305809D01*
X6918793Y449336D01*
X6925424Y459259D01*
X6927752Y470965D01*
X6927752Y470966D01*
Y1516899D01*
X6925424Y1528605D01*
X6918793Y1538528D01*
X6918793Y1538528D01*
X6767192Y1690129D01*
X6757269Y1696759D01*
X6745563Y1699088D01*
X6745562Y1699088D01*
X6701975D01*
X6701143Y1711788D01*
X6710816Y1713061D01*
X6726105Y1715074D01*
X6750432Y1725150D01*
X6771321Y1741179D01*
X6787350Y1762069D01*
X6797426Y1786395D01*
X6800863Y1812500D01*
X6797426Y1838605D01*
X6787350Y1862931D01*
X6771321Y1883821D01*
X6750432Y1899850D01*
X6726105Y1909926D01*
X6700000Y1913363D01*
X6673895Y1909926D01*
X6649569Y1899850D01*
X6628679Y1883821D01*
X6612650Y1862931D01*
X6602574Y1838605D01*
X6599137Y1812500D01*
X6602574Y1786395D01*
X6612650Y1762069D01*
X6628679Y1741179D01*
X6649569Y1725150D01*
X6673895Y1715074D01*
X6689184Y1713061D01*
X6698857Y1711788D01*
X6698025Y1699088D01*
X6634170D01*
X6543826Y1789432D01*
X6546863Y1812500D01*
X6543426Y1838605D01*
X6533350Y1862931D01*
X6517321Y1883821D01*
X6496432Y1899850D01*
X6472105Y1909926D01*
X6446000Y1913363D01*
X6419895Y1909926D01*
X6395569Y1899850D01*
X6374679Y1883821D01*
X6358650Y1862931D01*
X6348574Y1838605D01*
X6345137Y1812500D01*
X6348574Y1786395D01*
X6358650Y1762069D01*
X6374679Y1741179D01*
X6395569Y1725150D01*
X6419895Y1715074D01*
X6444858Y1711788D01*
X6444025Y1699088D01*
X6383980D01*
X6372275Y1696759D01*
X6362351Y1690129D01*
X6362351Y1690128D01*
X6307242Y1635020D01*
X6295509Y1639880D01*
Y1652432D01*
X6293491Y1662576D01*
X6287745Y1671176D01*
X6279145Y1676923D01*
X6269000Y1678941D01*
X6230588D01*
Y1707271D01*
X6243258Y1715737D01*
X6256519Y1735584D01*
X6261175Y1758995D01*
X6256519Y1782406D01*
X6243258Y1802252D01*
X6223411Y1815514D01*
X6200000Y1820170D01*
X6185055Y1817198D01*
X6175624Y1826629D01*
X6165700Y1833259D01*
X6153995Y1835588D01*
X6153994Y1835588D01*
X6114199D01*
X6113491Y1839145D01*
X6107745Y1847745D01*
X6099145Y1853491D01*
X6089000Y1855509D01*
X5961000D01*
X5950856Y1853491D01*
X5942255Y1847745D01*
X5936509Y1839145D01*
X5934491Y1829000D01*
Y1781000D01*
X5936509Y1770855D01*
X5942255Y1762255D01*
X5950856Y1756509D01*
X5961000Y1754491D01*
X6089000D01*
X6099145Y1756509D01*
X6107745Y1762255D01*
X6113491Y1770855D01*
X6114199Y1774412D01*
X6128942D01*
X6139365Y1761712D01*
X6138825Y1758995D01*
X6143481Y1735584D01*
X6156743Y1715737D01*
X6169412Y1707271D01*
Y1678941D01*
X6141000D01*
X6130855Y1676923D01*
X6122255Y1671176D01*
X6116509Y1662576D01*
X6114491Y1652432D01*
Y1604432D01*
X6116509Y1594287D01*
X6122255Y1585687D01*
X6130855Y1579940D01*
X6141000Y1577922D01*
X6219579D01*
X6226367Y1565222D01*
X6225564Y1564019D01*
X6104199D01*
X6103491Y1567576D01*
X6097745Y1576177D01*
X6089145Y1581923D01*
X6079000Y1583941D01*
X5967748D01*
X5740587Y1811102D01*
Y1845569D01*
X5753287Y1852358D01*
X5766577Y1843477D01*
X5789988Y1838821D01*
X5813399Y1843477D01*
X5833246Y1856739D01*
X5843331Y1871832D01*
X6125320D01*
X6126509Y1865855D01*
X6132255Y1857255D01*
X6140855Y1851508D01*
X6151000Y1849491D01*
X6279000D01*
X6289145Y1851508D01*
X6297745Y1857255D01*
X6303491Y1865855D01*
X6305509Y1876000D01*
Y1907251D01*
X6385293Y1987035D01*
X6395569Y1979150D01*
X6419895Y1969074D01*
X6446000Y1965637D01*
X6472105Y1969074D01*
X6496432Y1979150D01*
X6517321Y1995179D01*
X6533350Y2016069D01*
X6543426Y2040395D01*
X6546863Y2066500D01*
X6543426Y2092605D01*
X6533350Y2116931D01*
X6517321Y2137821D01*
X6496432Y2153850D01*
X6472105Y2163926D01*
X6446000Y2167363D01*
X6419895Y2163926D01*
X6395569Y2153850D01*
X6374679Y2137821D01*
X6358650Y2116931D01*
X6348574Y2092605D01*
X6345137Y2066500D01*
X6348574Y2040395D01*
X6349618Y2037875D01*
X6262252Y1950509D01*
X6151000D01*
X6140855Y1948491D01*
X6132255Y1942745D01*
X6126509Y1934144D01*
X6126282Y1933007D01*
X6110798D01*
X6106945Y1945707D01*
X6111350Y1948650D01*
X6118201Y1958904D01*
X6120607Y1971000D01*
Y1982498D01*
X6025003D01*
X5929393D01*
Y1971000D01*
X5931799Y1958904D01*
X5938651Y1948650D01*
X5943055Y1945707D01*
X5939202Y1933007D01*
X5840093D01*
X5833246Y1943254D01*
X5813399Y1956515D01*
X5789988Y1961172D01*
X5766577Y1956515D01*
X5753287Y1947635D01*
X5740587Y1954423D01*
Y2420703D01*
X5751788Y2426689D01*
X5756589Y2423481D01*
X5780000Y2418825D01*
X5803411Y2423481D01*
X5823258Y2436743D01*
X5836519Y2456589D01*
X5841176Y2480000D01*
X5840595Y2482918D01*
X5921893Y2564216D01*
X5960945D01*
X5962255Y2562255D01*
X5970855Y2556508D01*
X5981000Y2554491D01*
X6109000D01*
X6119145Y2556508D01*
X6127745Y2562255D01*
X6139602Y2557140D01*
X6146797Y2549945D01*
X6143825Y2535000D01*
X6148481Y2511589D01*
X6161743Y2491743D01*
X6167030Y2488209D01*
X6166446Y2481005D01*
X6163825Y2475077D01*
X6155855Y2473491D01*
X6147255Y2467745D01*
X6141509Y2459145D01*
X6139491Y2449000D01*
Y2401000D01*
X6141509Y2390855D01*
X6147255Y2382255D01*
X6155855Y2376509D01*
X6166000Y2374491D01*
X6294000D01*
X6304145Y2376509D01*
X6312745Y2382255D01*
X6318491Y2390855D01*
X6320509Y2401000D01*
Y2449000D01*
X6318491Y2459145D01*
X6312745Y2467745D01*
X6304145Y2473491D01*
X6294000Y2475509D01*
X6246822D01*
X6242970Y2488209D01*
X6248258Y2491743D01*
X6261519Y2511589D01*
X6266175Y2535000D01*
X6261519Y2558411D01*
X6248258Y2578257D01*
X6228411Y2591519D01*
X6205000Y2596175D01*
X6190055Y2593203D01*
X6166629Y2616629D01*
X6156705Y2623259D01*
X6145000Y2625588D01*
X6134744Y2632847D01*
X6133491Y2639145D01*
X6127745Y2647745D01*
X6119145Y2653491D01*
X6109000Y2655509D01*
X5981000D01*
X5970855Y2653491D01*
X5962255Y2647745D01*
X5960945Y2645783D01*
X5905001D01*
X5905000Y2645784D01*
X5889393Y2642679D01*
X5876161Y2633838D01*
X5876161Y2633838D01*
X5782918Y2540595D01*
X5780000Y2541176D01*
X5756589Y2536519D01*
X5751788Y2533311D01*
X5740587Y2539297D01*
Y2900650D01*
X5752321Y2905510D01*
X5979459Y2678372D01*
X5979460Y2678371D01*
X5989383Y2671740D01*
X6001089Y2669412D01*
X6145801D01*
X6146509Y2665855D01*
X6152255Y2657255D01*
X6160855Y2651508D01*
X6171000Y2649491D01*
X6299000D01*
X6309145Y2651508D01*
X6317745Y2657255D01*
X6319787Y2657456D01*
X6356794Y2620449D01*
X6348574Y2600605D01*
X6345137Y2574500D01*
X6348574Y2548395D01*
X6358650Y2524069D01*
X6374679Y2503179D01*
X6395569Y2487150D01*
X6419895Y2477074D01*
X6446000Y2473637D01*
X6472105Y2477074D01*
X6496432Y2487150D01*
X6517321Y2503179D01*
X6533350Y2524069D01*
X6543426Y2548395D01*
X6546863Y2574500D01*
X6543426Y2600605D01*
X6533350Y2624931D01*
X6517321Y2645821D01*
X6496432Y2661850D01*
X6472105Y2671926D01*
X6446000Y2675363D01*
X6419895Y2671926D01*
X6400051Y2663706D01*
X6344913Y2718845D01*
X6334990Y2725475D01*
X6324813Y2727500D01*
X6323491Y2734144D01*
X6317745Y2742745D01*
X6309145Y2748491D01*
X6299000Y2750509D01*
X6171000D01*
X6160855Y2748491D01*
X6152255Y2742745D01*
X6146509Y2734144D01*
X6145801Y2730587D01*
X6125436D01*
X6124618Y2732700D01*
X6123324Y2743287D01*
X6131350Y2748650D01*
X6138201Y2758904D01*
X6140607Y2771000D01*
Y2782501D01*
X6044996D01*
Y2795001D01*
X6032496D01*
Y2850607D01*
X5981000D01*
X5968905Y2848201D01*
X5958651Y2841349D01*
X5951799Y2831095D01*
X5949393Y2819000D01*
Y2811546D01*
X5937660Y2806686D01*
X5827065Y2917281D01*
X5831245Y2931061D01*
X5843411Y2933481D01*
X5863257Y2946742D01*
X5876519Y2966589D01*
X5881175Y2990000D01*
X5878203Y3004945D01*
X5922669Y3049412D01*
X5940801D01*
X5941509Y3045855D01*
X5947255Y3037255D01*
X5955855Y3031508D01*
X5966000Y3029491D01*
X6094000D01*
X6104145Y3031508D01*
X6112745Y3037255D01*
X6118491Y3045855D01*
X6119448Y3050662D01*
X6141453D01*
X6143904Y3038201D01*
X6133650Y3031349D01*
X6126799Y3021095D01*
X6124393Y3009000D01*
Y2997500D01*
X6220002D01*
X6315607D01*
Y3009000D01*
X6313201Y3021095D01*
X6306350Y3031349D01*
X6296096Y3038201D01*
X6298547Y3050662D01*
X6350949D01*
X6358650Y3032069D01*
X6374679Y3011179D01*
X6395569Y2995150D01*
X6419895Y2985074D01*
X6446000Y2981637D01*
X6472105Y2985074D01*
X6496432Y2995150D01*
X6517321Y3011179D01*
X6533350Y3032069D01*
X6543426Y3056395D01*
X6546863Y3082500D01*
X6543426Y3108605D01*
X6533350Y3132931D01*
X6517321Y3153821D01*
X6496432Y3169850D01*
X6472105Y3179926D01*
X6446000Y3183363D01*
X6419895Y3179926D01*
X6395569Y3169850D01*
X6374679Y3153821D01*
X6358650Y3132931D01*
X6349913Y3111838D01*
X6284114D01*
X6284000Y3124490D01*
X6294145Y3126508D01*
X6302745Y3132255D01*
X6308491Y3140855D01*
X6310509Y3151000D01*
Y3198999D01*
X6308491Y3209144D01*
X6302745Y3217744D01*
X6294145Y3223491D01*
X6284000Y3225509D01*
X6235587D01*
Y3258277D01*
X6248257Y3266743D01*
X6261519Y3286589D01*
X6266175Y3310000D01*
X6261519Y3333411D01*
X6248257Y3353257D01*
X6228411Y3366519D01*
X6205000Y3371175D01*
X6190055Y3368203D01*
X6171629Y3386629D01*
X6161705Y3393259D01*
X6150000Y3395588D01*
X6149999Y3395588D01*
X6134199D01*
X6133491Y3399145D01*
X6127745Y3407745D01*
X6119145Y3413491D01*
X6109000Y3415509D01*
X5981000D01*
X5970855Y3413491D01*
X5962255Y3407745D01*
X5956509Y3399145D01*
X5954491Y3389000D01*
Y3341000D01*
X5956509Y3330855D01*
X5962255Y3322255D01*
X5970855Y3316508D01*
X5981000Y3314491D01*
X6109000D01*
X6119145Y3316508D01*
X6127745Y3322255D01*
X6140101Y3318881D01*
X6144654Y3314170D01*
X6143824Y3310000D01*
X6148481Y3286589D01*
X6161742Y3266743D01*
X6174412Y3258277D01*
Y3225509D01*
X6156000D01*
X6145855Y3223491D01*
X6137255Y3217744D01*
X6131509Y3209144D01*
X6129491Y3198999D01*
Y3151000D01*
X6131509Y3140855D01*
X6137255Y3132255D01*
X6145855Y3126508D01*
X6156000Y3124490D01*
X6155886Y3111838D01*
X6118950D01*
X6118491Y3114144D01*
X6112745Y3122745D01*
X6104145Y3128491D01*
X6094000Y3130509D01*
X5966000D01*
X5955855Y3128491D01*
X5947255Y3122745D01*
X5941509Y3114144D01*
X5940801Y3110587D01*
X5910001D01*
X5909999Y3110587D01*
X5898294Y3108259D01*
X5888370Y3101628D01*
X5834945Y3048203D01*
X5820000Y3051175D01*
X5796589Y3046519D01*
X5791788Y3043311D01*
X5780587Y3049297D01*
Y3504561D01*
X5792321Y3509422D01*
X5860871Y3440872D01*
X5860871Y3440871D01*
X5870795Y3434241D01*
X5882500Y3431912D01*
X5882502Y3431912D01*
X6145304D01*
X6146509Y3425855D01*
X6152255Y3417255D01*
X6160855Y3411508D01*
X6171000Y3409491D01*
X6299000D01*
X6309145Y3411508D01*
X6309797Y3411944D01*
X6351668Y3370074D01*
X6348574Y3362605D01*
X6345137Y3336500D01*
X6348574Y3310395D01*
X6358650Y3286069D01*
X6374679Y3265179D01*
X6395569Y3249150D01*
X6419895Y3239074D01*
X6446000Y3235637D01*
X6472105Y3239074D01*
X6496432Y3249150D01*
X6517321Y3265179D01*
X6533350Y3286069D01*
X6543426Y3310395D01*
X6546863Y3336500D01*
X6543426Y3362605D01*
X6533350Y3386931D01*
X6517321Y3407821D01*
X6496432Y3423850D01*
X6472105Y3433926D01*
X6446000Y3437363D01*
X6419895Y3433926D01*
X6395569Y3423850D01*
X6389253Y3419004D01*
X6326629Y3481629D01*
X6325509Y3482377D01*
Y3484000D01*
X6323491Y3494144D01*
X6317745Y3502745D01*
X6309145Y3508491D01*
X6299000Y3510509D01*
X6171000D01*
X6160855Y3508491D01*
X6152255Y3502745D01*
X6146509Y3494144D01*
X6146298Y3493088D01*
X6130918D01*
X6127066Y3505788D01*
X6131350Y3508650D01*
X6138201Y3518904D01*
X6140607Y3531000D01*
Y3542502D01*
X6044997D01*
X5949393D01*
Y3531000D01*
X5951799Y3518904D01*
X5958651Y3508650D01*
X5962934Y3505788D01*
X5959082Y3493088D01*
X5895170D01*
X5820587Y3567671D01*
Y3872698D01*
X5832321Y3877558D01*
X5891508Y3818371D01*
X5901431Y3811741D01*
X5913137Y3809412D01*
X5913138Y3809412D01*
X6140801D01*
X6141509Y3805855D01*
X6147255Y3797255D01*
X6155855Y3791509D01*
X6166000Y3789491D01*
X6248139D01*
X6250025Y3780010D01*
X6256655Y3770087D01*
X6370443Y3656300D01*
X6358650Y3640931D01*
X6348574Y3616605D01*
X6345137Y3590500D01*
X6348574Y3564395D01*
X6358650Y3540069D01*
X6374679Y3519179D01*
X6395569Y3503150D01*
X6419895Y3493074D01*
X6446000Y3489637D01*
X6472105Y3493074D01*
X6496432Y3503150D01*
X6517321Y3519179D01*
X6533350Y3540069D01*
X6543426Y3564395D01*
X6546863Y3590500D01*
X6543426Y3616605D01*
X6533350Y3640931D01*
X6517321Y3661821D01*
X6496432Y3677850D01*
X6472105Y3687926D01*
X6446000Y3691363D01*
X6424699Y3688558D01*
X6314050Y3799208D01*
X6318491Y3805855D01*
X6320509Y3816000D01*
Y3864000D01*
X6318491Y3874145D01*
X6312745Y3882745D01*
X6304145Y3888491D01*
X6294000Y3890509D01*
X6166000D01*
X6155855Y3888491D01*
X6147255Y3882745D01*
X6141509Y3874145D01*
X6140801Y3870588D01*
X6120436D01*
X6119618Y3872701D01*
X6118324Y3883288D01*
X6126350Y3888650D01*
X6133201Y3898905D01*
X6135607Y3911000D01*
Y3922501D01*
X6039998D01*
X5944393D01*
Y3911000D01*
X5946799Y3898905D01*
X5953651Y3888650D01*
X5961676Y3883288D01*
X5960382Y3872701D01*
X5959564Y3870588D01*
X5925807D01*
X5781193Y4015201D01*
X5784880Y4027354D01*
X5790543Y4028481D01*
X5810389Y4041742D01*
X5823651Y4061589D01*
X5828307Y4085000D01*
X5823651Y4108411D01*
X5820443Y4113211D01*
X5826430Y4124412D01*
X6012331D01*
X6183372Y3953371D01*
X6193295Y3946741D01*
X6205001Y3944412D01*
X6205002Y3944412D01*
X6392711D01*
X6395468Y3932290D01*
X6395390Y3931712D01*
X6374679Y3915821D01*
X6358650Y3894931D01*
X6348574Y3870605D01*
X6345137Y3844500D01*
X6348574Y3818395D01*
X6358650Y3794069D01*
X6374679Y3773179D01*
X6395569Y3757150D01*
X6419895Y3747074D01*
X6446000Y3743637D01*
X6472105Y3747074D01*
X6496432Y3757150D01*
X6517321Y3773179D01*
X6533350Y3794069D01*
X6543426Y3818395D01*
X6546863Y3844500D01*
X6543426Y3870605D01*
X6533350Y3894931D01*
X6517321Y3915821D01*
X6496611Y3931712D01*
X6496532Y3932290D01*
X6499290Y3944412D01*
X6646711D01*
X6649468Y3932290D01*
X6649390Y3931712D01*
X6628679Y3915821D01*
X6612650Y3894931D01*
X6602574Y3870605D01*
X6599137Y3844500D01*
X6602574Y3818395D01*
X6612650Y3794069D01*
X6628679Y3773179D01*
X6649569Y3757150D01*
X6673895Y3747074D01*
X6700000Y3743637D01*
X6726105Y3747074D01*
X6750432Y3757150D01*
X6771321Y3773179D01*
X6787350Y3794069D01*
X6797426Y3818395D01*
X6800105Y3838741D01*
X6813268Y3843538D01*
X6868138Y3788668D01*
Y2536396D01*
X6792830Y2461088D01*
X6701975D01*
X6701143Y2473788D01*
X6710816Y2475061D01*
X6726105Y2477074D01*
X6750432Y2487150D01*
X6771321Y2503179D01*
X6787350Y2524069D01*
X6797426Y2548395D01*
X6800863Y2574500D01*
X6797426Y2600605D01*
X6787350Y2624931D01*
X6771321Y2645821D01*
X6750432Y2661850D01*
X6726105Y2671926D01*
X6700000Y2675363D01*
X6673895Y2671926D01*
X6649569Y2661850D01*
X6628679Y2645821D01*
X6612650Y2624931D01*
X6602574Y2600605D01*
X6599137Y2574500D01*
X6602574Y2548395D01*
X6612650Y2524069D01*
X6628679Y2503179D01*
X6649569Y2487150D01*
X6673895Y2477074D01*
X6689184Y2475061D01*
X6698857Y2473788D01*
X6698025Y2461088D01*
X6654438D01*
X6654437Y2461088D01*
X6642731Y2458759D01*
X6632808Y2452129D01*
X6546780Y2366101D01*
X6534324Y2368579D01*
X6533350Y2370931D01*
X6517321Y2391821D01*
X6496432Y2407850D01*
X6472105Y2417926D01*
X6446000Y2421363D01*
X6419895Y2417926D01*
X6395569Y2407850D01*
X6374679Y2391821D01*
X6358650Y2370931D01*
X6352399Y2355838D01*
X6130144D01*
X6128491Y2364145D01*
X6122745Y2372745D01*
X6114145Y2378492D01*
X6104000Y2380509D01*
X5976000D01*
X5965855Y2378492D01*
X5957255Y2372745D01*
X5951509Y2364145D01*
X5949491Y2354000D01*
Y2306000D01*
X5951509Y2295855D01*
X5957255Y2287255D01*
X5965855Y2281509D01*
X5976000Y2279491D01*
X6104000D01*
X6114145Y2281509D01*
X6122745Y2287255D01*
X6127694Y2294662D01*
X6140715D01*
X6144567Y2281962D01*
X6143650Y2281350D01*
X6136799Y2271096D01*
X6134393Y2259000D01*
Y2247498D01*
X6229999D01*
X6325607D01*
Y2259000D01*
X6323201Y2271096D01*
X6316350Y2281350D01*
X6315433Y2281962D01*
X6319285Y2294662D01*
X6348539D01*
X6348574Y2294395D01*
X6358650Y2270069D01*
X6374679Y2249179D01*
X6395569Y2233150D01*
X6419895Y2223074D01*
X6446000Y2219637D01*
X6472105Y2223074D01*
X6496432Y2233150D01*
X6517321Y2249179D01*
X6533350Y2270069D01*
X6541569Y2289912D01*
X6544435D01*
X6544437Y2289912D01*
X6556142Y2292241D01*
X6566066Y2298871D01*
X6586732Y2319538D01*
X6599896Y2314741D01*
X6602574Y2294395D01*
X6612650Y2270069D01*
X6628679Y2249179D01*
X6649569Y2233150D01*
X6673895Y2223074D01*
X6700000Y2219637D01*
X6726105Y2223074D01*
X6750432Y2233150D01*
X6771321Y2249179D01*
X6787350Y2270069D01*
X6797426Y2294395D01*
X6800863Y2320500D01*
X6797426Y2346605D01*
X6787350Y2370931D01*
X6774857Y2387212D01*
X6780772Y2399912D01*
X6805499D01*
X6805500Y2399912D01*
X6817205Y2402241D01*
X6827129Y2408871D01*
X6920354Y2502097D01*
X6920355Y2502097D01*
X6926985Y2512021D01*
X6929314Y2523726D01*
X6929314Y2523727D01*
Y3801337D01*
X6926985Y3813043D01*
X6920355Y3822966D01*
X6920354Y3822967D01*
X6746692Y3996629D01*
X6748818Y4010482D01*
X6750432Y4011150D01*
X6771321Y4027179D01*
X6787350Y4048069D01*
X6797426Y4072395D01*
X6800863Y4098500D01*
X6797426Y4124605D01*
X6787350Y4148931D01*
X6771321Y4169821D01*
X6750432Y4185850D01*
X6726105Y4195926D01*
X6700000Y4199363D01*
X6673895Y4195926D01*
X6664247Y4191930D01*
X6597339Y4258838D01*
X6584107Y4267679D01*
X6568500Y4270784D01*
X6568499Y4270783D01*
X6522781D01*
X6519089Y4283483D01*
X6533350Y4302069D01*
X6543426Y4326395D01*
X6546863Y4352500D01*
X6543426Y4378605D01*
X6533350Y4402931D01*
X6517321Y4423821D01*
X6496432Y4439850D01*
X6472105Y4449926D01*
X6446000Y4453363D01*
X6419895Y4449926D01*
X6395569Y4439850D01*
X6374679Y4423821D01*
X6358650Y4402931D01*
X6348574Y4378605D01*
X6345137Y4352500D01*
X6348574Y4326395D01*
X6358650Y4302069D01*
X6372911Y4283483D01*
X6369219Y4270783D01*
X5954911D01*
X5953258Y4273257D01*
X5933411Y4286519D01*
X5910000Y4291175D01*
X5886589Y4286519D01*
X5866743Y4273257D01*
X5853481Y4253411D01*
X5848825Y4230000D01*
X5853481Y4206589D01*
X5859028Y4198288D01*
X5852240Y4185588D01*
X5723943D01*
X5300588Y4608944D01*
Y5119706D01*
X5298259Y5131411D01*
X5291629Y5141334D01*
X4680588Y5752375D01*
Y6447330D01*
X6091629Y7858371D01*
X6098259Y7868295D01*
X6100588Y7880000D01*
Y8054431D01*
X6120431Y8062650D01*
X6141321Y8078679D01*
X6157350Y8099569D01*
X6167426Y8123895D01*
X6170863Y8150000D01*
X6167426Y8176105D01*
X6157350Y8200431D01*
X6141321Y8221321D01*
X6121300Y8236683D01*
X6121252Y8238056D01*
X6128486Y8249383D01*
X6265514D01*
X6272748Y8238056D01*
X6272700Y8236683D01*
X6252679Y8221321D01*
X6236650Y8200431D01*
X6226574Y8176105D01*
X6223137Y8150000D01*
X6226574Y8123895D01*
X6236650Y8099569D01*
X6252679Y8078679D01*
X6273569Y8062650D01*
X6297895Y8052574D01*
X6324000Y8049137D01*
X6350105Y8052574D01*
X6374431Y8062650D01*
X6395321Y8078679D01*
X6411350Y8099569D01*
X6421426Y8123895D01*
X6424863Y8150000D01*
X6421426Y8176105D01*
X6411350Y8200431D01*
X6395321Y8221321D01*
X6375300Y8236683D01*
X6375252Y8238056D01*
X6382486Y8249383D01*
X6519514D01*
X6526748Y8238056D01*
X6526700Y8236683D01*
X6506679Y8221321D01*
X6490650Y8200431D01*
X6480574Y8176105D01*
X6477137Y8150000D01*
X6480574Y8123895D01*
X6490650Y8099569D01*
X6506679Y8078679D01*
X6527569Y8062650D01*
X6551895Y8052574D01*
X6578000Y8049137D01*
X6604105Y8052574D01*
X6628431Y8062650D01*
X6649321Y8078679D01*
X6665350Y8099569D01*
X6675426Y8123895D01*
X6678863Y8150000D01*
X6675426Y8176105D01*
X6665350Y8200431D01*
X6649321Y8221321D01*
X6629300Y8236683D01*
X6629252Y8238056D01*
X6636486Y8249383D01*
X6817834D01*
X6834521Y8249383D01*
D02*
G37*
G36*
X5256748Y8238056D02*
X5256700Y8236683D01*
X5236679Y8221321D01*
X5220650Y8200431D01*
X5210574Y8176105D01*
X5207137Y8150000D01*
X5210574Y8123895D01*
X5220650Y8099569D01*
X5236679Y8078679D01*
X5257569Y8062650D01*
X5277412Y8054431D01*
Y7302728D01*
X4508371Y6533687D01*
X4501741Y6523763D01*
X4499412Y6512058D01*
X4499412Y6512057D01*
Y5690001D01*
X4499412Y5690000D01*
X4501741Y5678295D01*
X4508371Y5668371D01*
X5119412Y5057330D01*
Y4569997D01*
X5107679Y4565137D01*
X5026299Y4646517D01*
X5016375Y4653148D01*
X5004670Y4655476D01*
X5004668Y4655476D01*
X4643151D01*
X4640625Y4668176D01*
X4652953Y4673283D01*
X4674887Y4690113D01*
X4691717Y4712047D01*
X4702297Y4737589D01*
X4704260Y4752497D01*
X4600000D01*
Y4764997D01*
X4587500D01*
Y4869260D01*
X4572590Y4867297D01*
X4547047Y4856717D01*
X4525113Y4839887D01*
X4508283Y4817953D01*
X4497703Y4792410D01*
X4495439Y4775216D01*
X4482030Y4770664D01*
X4471066Y4781629D01*
X4461142Y4788259D01*
X4449437Y4790588D01*
X4449436Y4790588D01*
X4436566D01*
X4434587Y4793043D01*
X4437187Y4810055D01*
X4438829Y4811152D01*
X4556469Y4928792D01*
X4573895Y4921574D01*
X4600000Y4918137D01*
X4626105Y4921574D01*
X4650432Y4931650D01*
X4671321Y4947679D01*
X4685545Y4966216D01*
X4865000D01*
Y4930000D01*
X5035000D01*
Y5060000D01*
X4865000D01*
Y5047783D01*
X4696316D01*
X4687350Y5069431D01*
X4671321Y5090321D01*
X4650432Y5106349D01*
X4626105Y5116426D01*
X4600000Y5119863D01*
X4573895Y5116426D01*
X4549569Y5106349D01*
X4528680Y5090321D01*
X4512651Y5069431D01*
X4502574Y5045105D01*
X4499138Y5019000D01*
X4502574Y4992895D01*
X4503349Y4991025D01*
X4393097Y4880774D01*
X4304902D01*
X4303249Y4883248D01*
X4283402Y4896509D01*
X4259991Y4901166D01*
X4236581Y4896509D01*
X4216734Y4883248D01*
X4203473Y4863401D01*
X4198816Y4839990D01*
X4203473Y4816579D01*
X4212354Y4803288D01*
X4205566Y4790588D01*
X3614670D01*
X3051206Y5354051D01*
X3059426Y5373895D01*
X3062863Y5400000D01*
X3059426Y5426105D01*
X3049350Y5450431D01*
X3033321Y5471321D01*
X3012432Y5487349D01*
X2988105Y5497426D01*
X2962000Y5500863D01*
X2935895Y5497426D01*
X2911569Y5487349D01*
X2890680Y5471321D01*
X2874651Y5450431D01*
X2864574Y5426105D01*
X2861896Y5405759D01*
X2848732Y5400962D01*
X2828066Y5421629D01*
X2818142Y5428259D01*
X2806437Y5430588D01*
X2806436Y5430588D01*
X2803569D01*
X2795350Y5450431D01*
X2779321Y5471321D01*
X2758432Y5487349D01*
X2734105Y5497426D01*
X2708000Y5500863D01*
X2681895Y5497426D01*
X2657569Y5487349D01*
X2636680Y5471321D01*
X2620651Y5450431D01*
X2610574Y5426105D01*
X2607138Y5400000D01*
X2610574Y5373895D01*
X2620651Y5349569D01*
X2636680Y5328679D01*
X2657569Y5312650D01*
X2681895Y5302574D01*
X2708000Y5299137D01*
X2734105Y5302574D01*
X2758432Y5312650D01*
X2779321Y5328679D01*
X2795350Y5349569D01*
X2796324Y5351921D01*
X2808780Y5354399D01*
X2894808Y5268371D01*
X2904732Y5261741D01*
X2916437Y5259412D01*
X2916438Y5259412D01*
X3002762D01*
X3545441Y4716733D01*
X3540581Y4705000D01*
X3400000D01*
Y4602496D01*
X3550000D01*
X3700000D01*
Y4689412D01*
X4110421D01*
X4116407Y4678212D01*
X4113199Y4673411D01*
X4108543Y4650000D01*
X4113199Y4626589D01*
X4126461Y4606742D01*
X4129217Y4604901D01*
Y3979428D01*
X4118016Y3973442D01*
X4113411Y3976519D01*
X4090000Y3981175D01*
X4066589Y3976519D01*
X4046742Y3963258D01*
X4045089Y3960784D01*
X3812894D01*
Y4112501D01*
X3812894Y4112502D01*
X3811342Y4120305D01*
X3806921Y4126921D01*
X3806921Y4126921D01*
X3756918Y4176920D01*
X3750303Y4181340D01*
X3742500Y4182892D01*
X3260954Y4182893D01*
X3072890Y4370946D01*
X3072899Y4737489D01*
X3072899Y4737491D01*
X3072900Y4737494D01*
X3072025Y4741886D01*
X3071347Y4745293D01*
X3071346Y4745295D01*
X3071345Y4745298D01*
X3069191Y4748520D01*
X3066927Y4751909D01*
X3066925Y4751910D01*
X3066923Y4751912D01*
X3044407Y4774417D01*
X3044407Y4774418D01*
X3044406Y4774418D01*
X3044403Y4774421D01*
X3041369Y4776448D01*
X3037791Y4778838D01*
X3037789Y4778839D01*
X3037786Y4778840D01*
X3033770Y4779638D01*
X3029988Y4780391D01*
X2840007Y4780394D01*
X2840005Y4780394D01*
X2832202Y4778843D01*
X2832201Y4778842D01*
X2832200Y4778842D01*
X2825586Y4774423D01*
X2825584Y4774422D01*
X2825584Y4774421D01*
X2795581Y4744424D01*
X2795579Y4744423D01*
X2792497Y4739809D01*
X2791160Y4737808D01*
Y4737808D01*
X2791159Y4737807D01*
X2790610Y4735047D01*
X2780002Y4730001D01*
X2777642Y4730000D01*
X2620000D01*
Y4595604D01*
X2500000D01*
X2481727Y4593198D01*
X2464698Y4586145D01*
X2463206Y4585000D01*
X2440000D01*
Y4564849D01*
X2132973Y4257822D01*
X2038104D01*
Y6473255D01*
X2534245Y6969396D01*
X3225464D01*
X3231727Y6966802D01*
X3250000Y6964396D01*
X3268274Y6966802D01*
X3274537Y6969396D01*
X3312201D01*
X3314831Y6965090D01*
X3315441Y6962196D01*
X3308097Y6950965D01*
X3305310Y6950198D01*
X3303822Y6950000D01*
X3303037Y6950000D01*
X3262497D01*
Y6897502D01*
X3315000D01*
Y6937779D01*
X3315000Y6944576D01*
X3316546Y6951349D01*
X3317276Y6953491D01*
X3317692Y6954129D01*
X3321993Y6957684D01*
X3329690Y6959802D01*
X3331179Y6960000D01*
X3580000D01*
Y7119999D01*
X3587469Y7129606D01*
X3661553Y7129608D01*
X3849606Y6941544D01*
X3849612Y6608448D01*
X3575583Y6334420D01*
X3575582Y6334420D01*
X3571162Y6327804D01*
X3569609Y6320001D01*
X3569608Y5919583D01*
X3558199Y5914906D01*
X3556908Y5915006D01*
X3541321Y5935321D01*
X3520432Y5951350D01*
X3496105Y5961426D01*
X3470000Y5964863D01*
X3443895Y5961426D01*
X3419569Y5951350D01*
X3398680Y5935321D01*
X3382651Y5914431D01*
X3372574Y5890105D01*
X3369138Y5864000D01*
X3372574Y5837895D01*
X3382651Y5813569D01*
X3398680Y5792679D01*
X3419569Y5776650D01*
X3443895Y5766574D01*
X3470000Y5763137D01*
X3496105Y5766574D01*
X3520432Y5776650D01*
X3541321Y5792679D01*
X3556908Y5812993D01*
X3558199Y5813094D01*
X3569608Y5808414D01*
Y5790000D01*
X3571160Y5782196D01*
X3575581Y5775581D01*
X3575581Y5775580D01*
X3625581Y5725581D01*
X3632196Y5721160D01*
X3640000Y5719608D01*
X3800000D01*
X3807803Y5721160D01*
X3814419Y5725581D01*
X3814420Y5725581D01*
X3864419Y5775581D01*
X3868840Y5782196D01*
X3870392Y5790000D01*
Y5816225D01*
X3883092Y5818751D01*
X3886283Y5811047D01*
X3903113Y5789113D01*
X3925047Y5772283D01*
X3950590Y5761703D01*
X3965500Y5759740D01*
Y5864003D01*
Y5968260D01*
X3950590Y5966297D01*
X3925047Y5955717D01*
X3903113Y5938887D01*
X3886283Y5916953D01*
X3883092Y5909249D01*
X3870392Y5911775D01*
Y5999999D01*
X3870392Y6000000D01*
X3868840Y6007804D01*
X3864419Y6014419D01*
X3864418Y6014420D01*
X3863075Y6015763D01*
X3867935Y6027497D01*
X3907494D01*
Y6117498D01*
X3919994D01*
D01*
X3907494D01*
Y6207496D01*
X3853090D01*
X3840390Y6214957D01*
X3840391Y6251552D01*
X3978447Y6389606D01*
X4269997Y6389604D01*
X4269998Y6389604D01*
X4277802Y6391157D01*
X4284417Y6395577D01*
X4354417Y6465577D01*
X4358838Y6472193D01*
X4360390Y6479996D01*
Y7419997D01*
X4358838Y7427800D01*
X4354417Y7434416D01*
X4354416Y7434416D01*
X4244417Y7544416D01*
X4237802Y7548836D01*
X4229998Y7550388D01*
X3819996Y7550385D01*
X3812193Y7548833D01*
X3805577Y7544413D01*
X3674054Y7412896D01*
X3302496Y7412892D01*
X3302495Y7412892D01*
X3298049Y7412007D01*
X3294693Y7411340D01*
X3294692Y7411339D01*
X3294691D01*
X3292690Y7410001D01*
X3288077Y7406919D01*
X3288076Y7406918D01*
X3258079Y7376914D01*
X3258078Y7376914D01*
X3258077Y7376913D01*
X3253657Y7370298D01*
X3253657Y7370297D01*
X3253657Y7370297D01*
X3253088Y7367433D01*
X3252106Y7362495D01*
X3252108Y7249764D01*
X3243127Y7240784D01*
X2164911D01*
X2163258Y7243258D01*
X2143411Y7256519D01*
X2134978Y7258196D01*
X2130798Y7271977D01*
X2918571Y8059750D01*
X2935895Y8052574D01*
X2962000Y8049137D01*
X2988105Y8052574D01*
X3012432Y8062650D01*
X3033321Y8078679D01*
X3049350Y8099569D01*
X3059426Y8123895D01*
X3062863Y8150000D01*
X3059426Y8176105D01*
X3049350Y8200431D01*
X3033321Y8221321D01*
X3013300Y8236683D01*
X3013252Y8238056D01*
X3020486Y8249383D01*
X3157514D01*
X3164749Y8238056D01*
X3164700Y8236683D01*
X3144680Y8221321D01*
X3128651Y8200431D01*
X3118574Y8176105D01*
X3115138Y8150000D01*
X3118574Y8123895D01*
X3128651Y8099569D01*
X3144680Y8078679D01*
X3165569Y8062650D01*
X3189895Y8052574D01*
X3216000Y8049137D01*
X3242105Y8052574D01*
X3266432Y8062650D01*
X3287321Y8078679D01*
X3303350Y8099569D01*
X3313426Y8123895D01*
X3316863Y8150000D01*
X3313426Y8176105D01*
X3303350Y8200431D01*
X3287321Y8221321D01*
X3267300Y8236683D01*
X3267252Y8238056D01*
X3274486Y8249383D01*
X3411514D01*
X3418749Y8238056D01*
X3418700Y8236683D01*
X3398680Y8221321D01*
X3382651Y8200431D01*
X3372574Y8176105D01*
X3369138Y8150000D01*
X3372574Y8123895D01*
X3382651Y8099569D01*
X3398680Y8078679D01*
X3419569Y8062650D01*
X3443895Y8052574D01*
X3470000Y8049137D01*
X3496105Y8052574D01*
X3520432Y8062650D01*
X3541321Y8078679D01*
X3557350Y8099569D01*
X3567426Y8123895D01*
X3570863Y8150000D01*
X3567426Y8176105D01*
X3557350Y8200431D01*
X3541321Y8221321D01*
X3521300Y8236683D01*
X3521252Y8238056D01*
X3528486Y8249383D01*
X3665514D01*
X3672749Y8238056D01*
X3672700Y8236683D01*
X3652680Y8221321D01*
X3636651Y8200431D01*
X3626574Y8176105D01*
X3623138Y8150000D01*
X3626574Y8123895D01*
X3636651Y8099569D01*
X3652680Y8078679D01*
X3673569Y8062650D01*
X3697895Y8052574D01*
X3724000Y8049137D01*
X3750105Y8052574D01*
X3774432Y8062650D01*
X3795321Y8078679D01*
X3811350Y8099569D01*
X3821426Y8123895D01*
X3824863Y8150000D01*
X3821426Y8176105D01*
X3811350Y8200431D01*
X3795321Y8221321D01*
X3775300Y8236683D01*
X3775252Y8238056D01*
X3782486Y8249383D01*
X3914176D01*
X3918487Y8236683D01*
X3903113Y8224887D01*
X3886283Y8202953D01*
X3875703Y8177410D01*
X3873740Y8162503D01*
X3977999D01*
X4082260D01*
X4080297Y8177410D01*
X4069717Y8202953D01*
X4052887Y8224887D01*
X4037513Y8236683D01*
X4041825Y8249383D01*
X4736176D01*
X4740487Y8236683D01*
X4725113Y8224887D01*
X4708283Y8202953D01*
X4697703Y8177410D01*
X4695740Y8162500D01*
X4799998D01*
X4904260D01*
X4902297Y8177410D01*
X4891717Y8202953D01*
X4874887Y8224887D01*
X4859513Y8236683D01*
X4863824Y8249383D01*
X4995514D01*
X5002748Y8238056D01*
X5002700Y8236683D01*
X4982679Y8221321D01*
X4966650Y8200431D01*
X4956574Y8176105D01*
X4953137Y8150000D01*
X4956574Y8123895D01*
X4966650Y8099569D01*
X4982679Y8078679D01*
X5003569Y8062650D01*
X5027895Y8052574D01*
X5054000Y8049137D01*
X5080105Y8052574D01*
X5094851Y8058682D01*
X5109314Y8044219D01*
Y7935000D01*
X5080000D01*
Y7765000D01*
X5210000D01*
Y7935000D01*
X5180686D01*
Y8059000D01*
X5177969Y8072656D01*
X5170233Y8084234D01*
X5145318Y8109149D01*
X5151426Y8123895D01*
X5154863Y8150000D01*
X5151426Y8176105D01*
X5141350Y8200431D01*
X5125321Y8221321D01*
X5105300Y8236683D01*
X5105252Y8238056D01*
X5112486Y8249383D01*
X5249514D01*
X5256748Y8238056D01*
D02*
G37*
G36*
X4339998Y7419997D02*
Y6479996D01*
X4269998Y6409996D01*
X3970001Y6409998D01*
X3819999Y6259998D01*
X3819996Y6030003D01*
X3850000Y6000000D01*
Y5790000D01*
X3800000Y5740000D01*
X3640000D01*
X3590000Y5790000D01*
X3590001Y6320001D01*
X3870004Y6600001D01*
X3869998Y6949990D01*
X3670000Y7150000D01*
X3295010Y7149991D01*
X3272501Y7172511D01*
X3272497Y7362495D01*
X3302497Y7392500D01*
X3682500Y7392504D01*
X3819996Y7529994D01*
X4229998Y7529996D01*
X4339998Y7419997D01*
D02*
G37*
G36*
X1816743Y7156743D02*
X1836589Y7143481D01*
X1842252Y7142355D01*
X1845939Y7130202D01*
X1788371Y7072634D01*
X1781741Y7062711D01*
X1779412Y7051005D01*
X1779412Y7051004D01*
Y5662670D01*
X1128209Y5011467D01*
X1115509Y5016727D01*
Y5059000D01*
X1113491Y5069145D01*
X1107745Y5077745D01*
X1099145Y5083491D01*
X1089000Y5085509D01*
X961000D01*
X950855Y5083491D01*
X942255Y5077745D01*
X937538Y5070686D01*
X777647D01*
X760686Y5087647D01*
Y7153009D01*
X766893Y7159217D01*
X1815090D01*
X1816743Y7156743D01*
D02*
G37*
G36*
X2061804Y7185022D02*
X2063481Y7176589D01*
X2076743Y7156743D01*
X2096589Y7143481D01*
X2120000Y7138825D01*
X2143411Y7143481D01*
X2163258Y7156743D01*
X2164911Y7159217D01*
X3257329D01*
X3258078Y7158095D01*
X3280587Y7135575D01*
X3280589Y7135574D01*
X3280591Y7135571D01*
X3283980Y7133307D01*
X3287202Y7131153D01*
X3287204Y7131152D01*
X3287207Y7131151D01*
X3291030Y7130390D01*
X3295005Y7129599D01*
X3295008Y7129599D01*
X3295010Y7129599D01*
X3305195Y7129599D01*
X3312581Y7116927D01*
X3308969Y7110604D01*
X2505000D01*
X2486727Y7108198D01*
X2469698Y7101145D01*
X2455076Y7089924D01*
X1917576Y6552424D01*
X1906355Y6537802D01*
X1899302Y6520773D01*
X1896896Y6502500D01*
Y4202500D01*
X1897050Y4201335D01*
X1719795Y4024080D01*
X1707641Y4027767D01*
X1706519Y4033411D01*
X1693257Y4053258D01*
X1673411Y4066519D01*
X1650000Y4071175D01*
X1632048Y4067605D01*
X1483039Y4216614D01*
Y4889491D01*
X1519000D01*
X1529145Y4891509D01*
X1537745Y4897255D01*
X1543491Y4905856D01*
X1545509Y4916000D01*
Y4964000D01*
X1543491Y4974145D01*
X1537745Y4982745D01*
X1529145Y4988492D01*
X1519000Y4990509D01*
X1481823D01*
X1477970Y5003209D01*
X1483257Y5006743D01*
X1496519Y5026589D01*
X1501175Y5050000D01*
X1496519Y5073411D01*
X1493211Y5078361D01*
X1503076Y5086457D01*
X1554491Y5035042D01*
Y5011000D01*
X1556509Y5000855D01*
X1562255Y4992255D01*
X1570855Y4986509D01*
X1581000Y4984491D01*
X1709000D01*
X1719145Y4986509D01*
X1727745Y4992255D01*
X1733491Y5000855D01*
X1735509Y5011000D01*
Y5059000D01*
X1733491Y5069145D01*
X1727745Y5077745D01*
X1719145Y5083491D01*
X1709000Y5085509D01*
X1604958D01*
X1535234Y5155234D01*
X1523656Y5162969D01*
X1510000Y5165686D01*
X1442105D01*
X1437245Y5177419D01*
X1871628Y5611802D01*
X1871629Y5611803D01*
X1878259Y5621726D01*
X1880588Y5633432D01*
X1880588Y5633433D01*
Y7021767D01*
X2048024Y7189203D01*
X2061804Y7185022D01*
D02*
G37*
G36*
X1249412Y5029561D02*
Y4802670D01*
X1127242Y4680500D01*
X1115509Y4685360D01*
Y4699000D01*
X1113491Y4709145D01*
X1107745Y4717745D01*
X1099145Y4723491D01*
X1089000Y4725509D01*
X961000D01*
X950855Y4723491D01*
X942255Y4717745D01*
X940879Y4715686D01*
X874782D01*
X819734Y4770734D01*
X808156Y4778469D01*
X794500Y4781186D01*
X684942D01*
X678932Y4793886D01*
X691350Y4810069D01*
X701426Y4834395D01*
X704863Y4860500D01*
X702415Y4879094D01*
X732733Y4909413D01*
X745801D01*
X746509Y4905856D01*
X752255Y4897255D01*
X760855Y4891509D01*
X771000Y4889491D01*
X899000D01*
X909145Y4891509D01*
X917745Y4897255D01*
X923491Y4905856D01*
X925509Y4916000D01*
Y4929412D01*
X1119999D01*
X1120000Y4929412D01*
X1131705Y4931741D01*
X1141629Y4938371D01*
X1237679Y5034421D01*
X1249412Y5029561D01*
D02*
G37*
G36*
X5499412Y3957330D02*
Y3845001D01*
X5499412Y3845000D01*
X5501741Y3833295D01*
X5508371Y3823371D01*
X5599412Y3732330D01*
Y2799434D01*
X5587679Y2794574D01*
X5373624Y3008629D01*
X5363700Y3015259D01*
X5351995Y3017588D01*
X5351994Y3017588D01*
X4645569D01*
X4637350Y3037431D01*
X4621321Y3058321D01*
X4600431Y3074349D01*
X4576105Y3084426D01*
X4550000Y3087863D01*
X4523895Y3084426D01*
X4499569Y3074349D01*
X4478679Y3058321D01*
X4462650Y3037431D01*
X4452574Y3013105D01*
X4449137Y2987000D01*
X4452574Y2960895D01*
X4462650Y2936569D01*
X4478679Y2915679D01*
X4499569Y2899650D01*
X4523895Y2889574D01*
X4550000Y2886137D01*
X4576105Y2889574D01*
X4600431Y2899650D01*
X4621321Y2915679D01*
X4637350Y2936569D01*
X4645569Y2956412D01*
X5339325D01*
X5504496Y2791241D01*
X5498240Y2779536D01*
X5490000Y2781175D01*
X5466590Y2776519D01*
X5446743Y2763257D01*
X5433482Y2743411D01*
X5428825Y2720000D01*
X5433457Y2696714D01*
X5385330Y2648588D01*
X4624014D01*
X4619932Y2660614D01*
X4621321Y2661679D01*
X4637350Y2682569D01*
X4647426Y2706895D01*
X4650863Y2733000D01*
X4647426Y2759105D01*
X4637350Y2783431D01*
X4621321Y2804321D01*
X4600431Y2820349D01*
X4576105Y2830426D01*
X4550000Y2833863D01*
X4523895Y2830426D01*
X4499569Y2820349D01*
X4478679Y2804321D01*
X4462650Y2783431D01*
X4452574Y2759105D01*
X4449137Y2733000D01*
X4451740Y2713233D01*
X4443549Y2701727D01*
X4441463Y2700533D01*
X4409256D01*
X4403269Y2711734D01*
X4406510Y2716584D01*
X4411167Y2739995D01*
X4406510Y2763405D01*
X4393249Y2783252D01*
X4380579Y2791718D01*
Y3486321D01*
X4381628Y3487370D01*
X4381629Y3487371D01*
X4410201Y3515943D01*
X4422354Y3512256D01*
X4423481Y3506589D01*
X4436742Y3486743D01*
X4456589Y3473481D01*
X4480000Y3468825D01*
X4482918Y3469405D01*
X4511980Y3440344D01*
X4511980Y3440343D01*
X4525211Y3431502D01*
X4540818Y3428398D01*
X4540820Y3428398D01*
X4879180D01*
X4879182Y3428398D01*
X4894789Y3431502D01*
X4908020Y3440343D01*
X5347082Y3879405D01*
X5350000Y3878825D01*
X5373411Y3883481D01*
X5393257Y3896743D01*
X5406519Y3916589D01*
X5411175Y3940000D01*
X5406519Y3963411D01*
X5393257Y3983257D01*
X5373411Y3996519D01*
X5350000Y4001175D01*
X5326589Y3996519D01*
X5306742Y3983257D01*
X5293481Y3963411D01*
X5288825Y3940000D01*
X5289405Y3937082D01*
X4862288Y3509965D01*
X4557711D01*
X4540595Y3527082D01*
X4541175Y3530000D01*
X4536519Y3553411D01*
X4523257Y3573258D01*
X4503411Y3586519D01*
X4497744Y3587646D01*
X4494057Y3599799D01*
X4554051Y3659794D01*
X4573895Y3651574D01*
X4600000Y3648137D01*
X4626105Y3651574D01*
X4650432Y3661650D01*
X4671321Y3677679D01*
X4687350Y3698568D01*
X4697426Y3722895D01*
X4700863Y3749000D01*
X4697426Y3775105D01*
X4687350Y3799431D01*
X4671321Y3820321D01*
X4650432Y3836349D01*
X4626105Y3846426D01*
X4600000Y3849863D01*
X4573895Y3846426D01*
X4549569Y3836349D01*
X4528680Y3820321D01*
X4512651Y3799431D01*
X4502574Y3775105D01*
X4499138Y3749000D01*
X4502574Y3722895D01*
X4510794Y3703051D01*
X4343279Y3535536D01*
X4330579Y3540797D01*
Y3690321D01*
X4554052Y3913794D01*
X4573895Y3905574D01*
X4600000Y3902137D01*
X4626105Y3905574D01*
X4650432Y3915650D01*
X4671321Y3931679D01*
X4687350Y3952568D01*
X4697426Y3976895D01*
X4700863Y4003000D01*
X4697426Y4029105D01*
X4687350Y4053431D01*
X4671321Y4074321D01*
X4650432Y4090349D01*
X4626105Y4100426D01*
X4600000Y4103863D01*
X4573895Y4100426D01*
X4549569Y4090349D01*
X4528680Y4074321D01*
X4512651Y4053431D01*
X4502574Y4029105D01*
X4499138Y4003000D01*
X4502574Y3976895D01*
X4510794Y3957051D01*
X4301307Y3747565D01*
X4289574Y3752425D01*
Y3886317D01*
X4566072Y4162814D01*
X4573895Y4159574D01*
X4600000Y4156137D01*
X4626105Y4159574D01*
X4650432Y4169650D01*
X4671321Y4185679D01*
X4687350Y4206568D01*
X4697426Y4230895D01*
X4700863Y4257000D01*
X4697426Y4283105D01*
X4687350Y4307431D01*
X4671321Y4328321D01*
X4660385Y4336712D01*
X4664696Y4349412D01*
X5107330D01*
X5499412Y3957330D01*
D02*
G37*
G36*
X6376070Y4177190D02*
X6371113Y4173387D01*
X6354283Y4151453D01*
X6343703Y4125910D01*
X6341740Y4111004D01*
X6446001D01*
Y4086004D01*
X6341739D01*
X6343703Y4071090D01*
X6354283Y4045547D01*
X6371113Y4023613D01*
X6378054Y4018288D01*
X6373743Y4005588D01*
X6217671D01*
X6046742Y4176516D01*
X6046748Y4176999D01*
X6050650Y4189216D01*
X6371988D01*
X6376070Y4177190D01*
D02*
G37*
G36*
X2789604Y4462525D02*
X2789603Y4358445D01*
X2658086Y4226923D01*
X2658085Y4226922D01*
X2653665Y4220307D01*
X2652113Y4212503D01*
X2652110Y3855686D01*
X1883934D01*
X1870278Y3852969D01*
X1858700Y3845234D01*
X1849145Y3835678D01*
X1818313D01*
X1813254Y3843250D01*
X1793407Y3856511D01*
X1773787Y3860414D01*
X1768183Y3872770D01*
X2012027Y4116614D01*
X2162218D01*
X2180492Y4119020D01*
X2197520Y4126074D01*
X2212143Y4137294D01*
X2529245Y4454396D01*
X2665000D01*
X2683274Y4456802D01*
X2700302Y4463855D01*
X2708310Y4470000D01*
X2776904D01*
X2789604Y4462525D01*
D02*
G37*
G36*
X1380856Y4891509D02*
X1391000Y4889491D01*
X1426962D01*
Y4205000D01*
X1429096Y4194270D01*
X1435174Y4185174D01*
X1592395Y4027952D01*
X1588825Y4010000D01*
X1593481Y3986589D01*
X1606743Y3966743D01*
X1626589Y3953481D01*
X1632233Y3952359D01*
X1635920Y3940205D01*
X1501246Y3805532D01*
X1489542Y3811788D01*
X1491175Y3820000D01*
X1486519Y3843411D01*
X1473257Y3863257D01*
X1453411Y3876519D01*
X1430000Y3881175D01*
X1406589Y3876519D01*
X1386742Y3863257D01*
X1381683Y3855686D01*
X1235000D01*
Y3887498D01*
X1170002D01*
X1105000D01*
Y3855686D01*
X1072500D01*
Y3940000D01*
X907500D01*
Y3780000D01*
X1072500D01*
Y3784314D01*
X1381683D01*
X1386742Y3776743D01*
X1406589Y3763481D01*
X1430000Y3758825D01*
X1438212Y3760458D01*
X1444468Y3748753D01*
X1404928Y3709213D01*
X1393609D01*
X1375336Y3706807D01*
X1358307Y3699754D01*
X1343685Y3688534D01*
X809505Y3154354D01*
X674626D01*
X654432Y3169850D01*
X630105Y3179926D01*
X604000Y3183363D01*
X577895Y3179926D01*
X553569Y3169850D01*
X532679Y3153821D01*
X516650Y3132931D01*
X506574Y3108605D01*
X503137Y3082500D01*
X506574Y3056395D01*
X508459Y3051845D01*
X455995Y2999382D01*
X425326D01*
X423199Y3005648D01*
X422013Y3012082D01*
X437350Y3032069D01*
X447426Y3056395D01*
X450863Y3082500D01*
X447426Y3108605D01*
X437350Y3132931D01*
X422013Y3152919D01*
X423199Y3159352D01*
X425326Y3165619D01*
X479000D01*
X496558Y3169111D01*
X511443Y3179057D01*
X573345Y3240959D01*
X577895Y3239074D01*
X604000Y3235637D01*
X630105Y3239074D01*
X654432Y3249150D01*
X675321Y3265179D01*
X691350Y3286069D01*
X701426Y3310395D01*
X704863Y3336500D01*
X701617Y3361150D01*
X720467Y3380000D01*
X885000D01*
Y3510000D01*
X715000D01*
Y3473731D01*
X709766Y3470234D01*
X659496Y3419963D01*
X654432Y3423850D01*
X630105Y3433926D01*
X604000Y3437363D01*
X577895Y3433926D01*
X573345Y3432041D01*
X524882Y3480505D01*
Y3509219D01*
X537582Y3515418D01*
X553569Y3503150D01*
X577895Y3493074D01*
X604000Y3489637D01*
X630105Y3493074D01*
X654432Y3503150D01*
X675321Y3519179D01*
X691350Y3540069D01*
X699488Y3559717D01*
X709639Y3564819D01*
X713156Y3565000D01*
X714315Y3565000D01*
X787500D01*
Y3634998D01*
Y3705000D01*
X710000D01*
Y3629092D01*
X697300Y3626566D01*
X691350Y3640931D01*
X675321Y3661821D01*
X654432Y3677850D01*
X630105Y3687926D01*
X604000Y3691363D01*
X577895Y3687926D01*
X553569Y3677850D01*
X537582Y3665582D01*
X524882Y3671781D01*
Y3700495D01*
X573345Y3748959D01*
X577895Y3747074D01*
X604000Y3743637D01*
X630105Y3747074D01*
X654432Y3757150D01*
X675321Y3773179D01*
X691350Y3794069D01*
X701426Y3818395D01*
X704863Y3844500D01*
X701426Y3870605D01*
X695318Y3885351D01*
X744234Y3934266D01*
X751969Y3945844D01*
X754686Y3959500D01*
Y4146216D01*
X842784Y4234314D01*
X1210000D01*
X1223656Y4237031D01*
X1235234Y4244766D01*
X1350234Y4359766D01*
X1357969Y4371344D01*
X1360686Y4385000D01*
Y4891711D01*
X1367962Y4895198D01*
X1373386Y4896500D01*
X1380856Y4891509D01*
D02*
G37*
G36*
X3029987Y4759999D02*
X3052507Y4737490D01*
X3052498Y4362500D01*
X3252508Y4162501D01*
X3742500Y4162500D01*
X3792502Y4112501D01*
Y3762501D01*
X3722502Y3692502D01*
X2782502D01*
X2672502Y3802501D01*
X2672505Y4212503D01*
X2809995Y4349999D01*
X2809998Y4730003D01*
X2840003Y4760002D01*
X3029987Y4759999D01*
D02*
G37*
G36*
X4046742Y3876743D02*
X4066589Y3863481D01*
X4090000Y3858825D01*
X4113411Y3863481D01*
X4118016Y3866558D01*
X4129217Y3860572D01*
Y3054911D01*
X4126743Y3053258D01*
X4113481Y3033411D01*
X4108825Y3010000D01*
X4113481Y2986589D01*
X4126743Y2966743D01*
X4146589Y2953481D01*
X4170000Y2948825D01*
X4193411Y2953481D01*
X4213258Y2966743D01*
X4215699Y2970396D01*
X4228399Y2966543D01*
Y2941668D01*
X4227792Y2941170D01*
X4204381Y2936513D01*
X4184534Y2923252D01*
X4180242Y2916828D01*
X4167542D01*
X4163249Y2923252D01*
X4143403Y2936513D01*
X4119992Y2941170D01*
X4096581Y2936513D01*
X4076734Y2923252D01*
X4063473Y2903405D01*
X4059121Y2881525D01*
X4047886Y2874799D01*
X4021178Y2901508D01*
X4012081Y2907586D01*
X4001351Y2909720D01*
X2284963D01*
X2192717Y3001966D01*
X2198334Y3013357D01*
X2200000Y3013137D01*
X2226105Y3016574D01*
X2250432Y3026650D01*
X2271321Y3042679D01*
X2287350Y3063569D01*
X2297426Y3087895D01*
X2300863Y3114000D01*
X2297426Y3140105D01*
X2287350Y3164431D01*
X2271321Y3185321D01*
X2250432Y3201349D01*
X2226105Y3211426D01*
X2200000Y3214863D01*
X2173895Y3211426D01*
X2149569Y3201349D01*
X2128680Y3185321D01*
X2112651Y3164431D01*
X2102574Y3140105D01*
X2099138Y3114000D01*
X2099357Y3112334D01*
X2087967Y3106716D01*
X1938039Y3256644D01*
Y3686573D01*
X1953257Y3696742D01*
X1966519Y3716589D01*
X1971175Y3740000D01*
X1966519Y3763411D01*
X1961037Y3771614D01*
X1967826Y3784314D01*
X2661851D01*
X2768082Y3678082D01*
X2774698Y3673662D01*
X2782502Y3672110D01*
X3609217D01*
Y3435000D01*
X3590000D01*
Y3265000D01*
X3609217D01*
Y3216777D01*
X3609216Y3216776D01*
X3612321Y3201169D01*
X3621162Y3187938D01*
X3640132Y3168968D01*
X3636651Y3164431D01*
X3626574Y3140105D01*
X3623138Y3114000D01*
X3626574Y3087895D01*
X3636651Y3063569D01*
X3652680Y3042679D01*
X3673569Y3026650D01*
X3697895Y3016574D01*
X3724000Y3013137D01*
X3750105Y3016574D01*
X3774432Y3026650D01*
X3795321Y3042679D01*
X3811350Y3063569D01*
X3821426Y3087895D01*
X3824863Y3114000D01*
X3821426Y3140105D01*
X3811350Y3164431D01*
X3795321Y3185321D01*
X3774432Y3201349D01*
X3750105Y3211426D01*
X3724000Y3214863D01*
X3711267Y3213186D01*
X3690784Y3233669D01*
Y3265000D01*
X3720000D01*
Y3435000D01*
X3690784D01*
Y3672110D01*
X3722501D01*
X3722502Y3672109D01*
X3730305Y3673662D01*
X3736921Y3678082D01*
X3736922Y3678083D01*
X3806921Y3748082D01*
X3811342Y3754698D01*
X3812894Y3762501D01*
Y3879217D01*
X4045089D01*
X4046742Y3876743D01*
D02*
G37*
G36*
X4429412Y4556049D02*
Y4495438D01*
X4429412Y4495437D01*
X4431741Y4483731D01*
X4438371Y4473808D01*
X4552761Y4359418D01*
X4552959Y4354276D01*
X4551028Y4344954D01*
X4549569Y4344349D01*
X4528680Y4328321D01*
X4512651Y4307431D01*
X4502574Y4283105D01*
X4499138Y4257000D01*
X4502574Y4230895D01*
X4512651Y4206568D01*
X4517279Y4200537D01*
X4237358Y3920615D01*
X4230727Y3910692D01*
X4228398Y3898987D01*
X4228399Y3898985D01*
Y3062783D01*
X4215699Y3056747D01*
X4210784Y3060749D01*
Y4605278D01*
X4212976Y4606742D01*
X4226237Y4626589D01*
X4230893Y4650000D01*
X4226237Y4673411D01*
X4223029Y4678212D01*
X4229016Y4689412D01*
X4296048D01*
X4429412Y4556049D01*
D02*
G37*
G36*
X1709575Y3796202D02*
X1713478Y3776581D01*
X1726739Y3756735D01*
X1746586Y3743474D01*
X1769996Y3738817D01*
X1793407Y3743474D01*
X1813254Y3756735D01*
X1818313Y3764307D01*
X1840710D01*
X1851133Y3751606D01*
X1848825Y3740000D01*
X1853481Y3716589D01*
X1866743Y3696742D01*
X1881961Y3686573D01*
Y3245031D01*
X1884096Y3234301D01*
X1890174Y3225204D01*
X2253523Y2861855D01*
X2262619Y2855777D01*
X2273349Y2853643D01*
X3989738D01*
X4018560Y2824821D01*
X4013699Y2813088D01*
X3348501D01*
X3348500Y2813088D01*
X3336795Y2810759D01*
X3326871Y2804129D01*
X3326871Y2804128D01*
X3261949Y2739206D01*
X3242105Y2747426D01*
X3216000Y2750863D01*
X3189895Y2747426D01*
X3165569Y2737350D01*
X3144680Y2721321D01*
X3128651Y2700431D01*
X3118574Y2676105D01*
X3115138Y2650000D01*
X3118574Y2623895D01*
X3128651Y2599569D01*
X3144680Y2578679D01*
X3165569Y2562650D01*
X3185412Y2554431D01*
Y2480000D01*
X3156000D01*
Y2370588D01*
X1247670D01*
X1170509Y2447749D01*
Y2479000D01*
X1168491Y2489145D01*
X1162745Y2497745D01*
X1154145Y2503491D01*
X1144000Y2505509D01*
X1016000D01*
X1005855Y2503491D01*
X997255Y2497745D01*
X991509Y2489145D01*
X990801Y2485588D01*
X970436D01*
X969618Y2487701D01*
X968324Y2498288D01*
X976350Y2503650D01*
X983201Y2513905D01*
X985607Y2526000D01*
Y2537500D01*
X890001D01*
X794393D01*
Y2526000D01*
X796799Y2513905D01*
X803650Y2503650D01*
X811676Y2498288D01*
X810382Y2487701D01*
X809564Y2485588D01*
X680363D01*
X676281Y2497614D01*
X678887Y2499613D01*
X695717Y2521547D01*
X706297Y2547090D01*
X708261Y2562004D01*
X604001D01*
X499739D01*
X501703Y2547090D01*
X512283Y2521547D01*
X529113Y2499613D01*
X531719Y2497614D01*
X527637Y2485588D01*
X482170D01*
X439206Y2528551D01*
X447426Y2548395D01*
X450863Y2574500D01*
X447426Y2600605D01*
X437350Y2624931D01*
X421321Y2645821D01*
X400432Y2661850D01*
X376105Y2671926D01*
X350000Y2675363D01*
X323895Y2671926D01*
X299569Y2661850D01*
X283582Y2649582D01*
X270882Y2655781D01*
Y2740852D01*
X283582Y2747115D01*
X297047Y2736783D01*
X322590Y2726203D01*
X337501Y2724240D01*
Y2828504D01*
X350001D01*
Y2841004D01*
X454260D01*
X452297Y2855910D01*
X441717Y2881453D01*
X431385Y2894919D01*
X437648Y2907619D01*
X475000D01*
X492558Y2911111D01*
X507443Y2921057D01*
X573345Y2986959D01*
X577895Y2985074D01*
X604000Y2981637D01*
X630105Y2985074D01*
X654432Y2995150D01*
X675321Y3011179D01*
X676830Y3013146D01*
X828750D01*
X847024Y3015552D01*
X857762Y3020000D01*
X915000D01*
Y3060151D01*
X1422854Y3568005D01*
X1434173D01*
X1452446Y3570411D01*
X1469475Y3577465D01*
X1484097Y3588685D01*
X1697219Y3801806D01*
X1709575Y3796202D01*
D02*
G37*
G36*
X3921783Y2739212D02*
X3903113Y2724887D01*
X3886283Y2702953D01*
X3875703Y2677410D01*
X3873740Y2662501D01*
X3977997D01*
X4082260D01*
X4080297Y2677410D01*
X4072467Y2696315D01*
X4083233Y2703509D01*
X4190371Y2596372D01*
X4190371Y2596371D01*
X4200295Y2589741D01*
X4212000Y2587412D01*
X4517232D01*
X4519758Y2574712D01*
X4499569Y2566349D01*
X4478679Y2550321D01*
X4462650Y2529431D01*
X4452574Y2505105D01*
X4449137Y2479000D01*
X4452574Y2452895D01*
X4456570Y2443247D01*
X4324107Y2310784D01*
X3520000D01*
Y2320000D01*
X3419851D01*
X3414991Y2331733D01*
X3443258Y2360000D01*
X3520000D01*
Y2480000D01*
X3490588D01*
Y2551848D01*
X3496105Y2552574D01*
X3520431Y2562650D01*
X3541321Y2578679D01*
X3557350Y2599569D01*
X3567426Y2623895D01*
X3570863Y2650000D01*
X3567426Y2676105D01*
X3557350Y2700431D01*
X3541321Y2721321D01*
X3520431Y2737350D01*
X3515935Y2739212D01*
X3518461Y2751912D01*
X3675539D01*
X3678066Y2739212D01*
X3673569Y2737350D01*
X3652680Y2721321D01*
X3636651Y2700431D01*
X3626574Y2676105D01*
X3623138Y2650000D01*
X3626574Y2623895D01*
X3636651Y2599569D01*
X3652680Y2578679D01*
X3673569Y2562650D01*
X3697895Y2552574D01*
X3724000Y2549137D01*
X3750105Y2552574D01*
X3774431Y2562650D01*
X3795321Y2578679D01*
X3811350Y2599569D01*
X3821426Y2623895D01*
X3824863Y2650000D01*
X3821426Y2676105D01*
X3811350Y2700431D01*
X3795321Y2721321D01*
X3774431Y2737350D01*
X3769935Y2739212D01*
X3772461Y2751912D01*
X3917762D01*
X3921783Y2739212D01*
D02*
G37*
G36*
X1588061Y1645915D02*
X1746904D01*
X1759604Y1643123D01*
X1759603Y1558444D01*
X1615584Y1414421D01*
X1615584Y1414421D01*
X1611163Y1407805D01*
X1609786Y1400881D01*
X1128051D01*
X1124145Y1403491D01*
X1114000Y1405509D01*
X986000D01*
X975855Y1403491D01*
X971949Y1400881D01*
X894005D01*
X828943Y1465943D01*
X814058Y1475889D01*
X796500Y1479382D01*
X685281D01*
X679082Y1492082D01*
X691350Y1508069D01*
X701426Y1532395D01*
X704863Y1558500D01*
X701426Y1584605D01*
X691350Y1608931D01*
X676013Y1628919D01*
X677199Y1635352D01*
X679326Y1641619D01*
X760000D01*
Y1628412D01*
X930000D01*
Y1641619D01*
X1012206D01*
X1029765Y1645111D01*
X1044649Y1655057D01*
X1119626Y1730034D01*
X1410000D01*
Y1715000D01*
X1530000D01*
Y1730034D01*
X1588061D01*
Y1645915D01*
D02*
G37*
G36*
X278679Y1741179D02*
X299569Y1725150D01*
X323895Y1715074D01*
X350000Y1711637D01*
X376105Y1715074D01*
X380655Y1716959D01*
X442557Y1655057D01*
X457442Y1645111D01*
X475000Y1641619D01*
X528674D01*
X530802Y1635352D01*
X531987Y1628919D01*
X516650Y1608931D01*
X506574Y1584605D01*
X503137Y1558500D01*
X506574Y1532395D01*
X516650Y1508069D01*
X528918Y1492082D01*
X522719Y1479382D01*
X437648D01*
X431385Y1492082D01*
X441717Y1505547D01*
X452297Y1531090D01*
X454261Y1546004D01*
X350001D01*
Y1558504D01*
X337501D01*
Y1662760D01*
X322590Y1660797D01*
X297047Y1650217D01*
X278582Y1636048D01*
X265882Y1640864D01*
Y1738103D01*
X277908Y1742185D01*
X278679Y1741179D01*
D02*
G37*
G36*
X6346644Y1569946D02*
X6345137Y1558500D01*
X6348574Y1532395D01*
X6358650Y1508069D01*
X6374679Y1487179D01*
X6395569Y1471150D01*
X6419895Y1461074D01*
X6446000Y1457637D01*
X6472105Y1461074D01*
X6491949Y1469294D01*
X6565565Y1395678D01*
X6565565Y1395677D01*
X6575489Y1389046D01*
X6587194Y1386718D01*
X6624088D01*
X6627296Y1374018D01*
X6612650Y1354931D01*
X6602574Y1330605D01*
X6599137Y1304500D01*
X6602574Y1278395D01*
X6612650Y1254069D01*
X6628679Y1233179D01*
X6649569Y1217150D01*
X6673895Y1207074D01*
X6700000Y1203637D01*
X6726105Y1207074D01*
X6750432Y1217150D01*
X6771321Y1233179D01*
X6787350Y1254069D01*
X6797426Y1278395D01*
X6800105Y1298741D01*
X6813268Y1303538D01*
X6826577Y1290229D01*
Y983775D01*
X6814844Y978914D01*
X6789206Y1004551D01*
X6797426Y1024395D01*
X6800863Y1050500D01*
X6797426Y1076605D01*
X6787350Y1100931D01*
X6771321Y1121821D01*
X6750432Y1137850D01*
X6726105Y1147926D01*
X6700000Y1151363D01*
X6673895Y1147926D01*
X6649569Y1137850D01*
X6628679Y1121821D01*
X6612650Y1100931D01*
X6602574Y1076605D01*
X6599137Y1050500D01*
X6602574Y1024395D01*
X6612650Y1000069D01*
X6628679Y979179D01*
X6649569Y963150D01*
X6673895Y953074D01*
X6700000Y949637D01*
X6726105Y953074D01*
X6745949Y961294D01*
X6779412Y927830D01*
Y883923D01*
X6766712Y877659D01*
X6752953Y888217D01*
X6727410Y898797D01*
X6712500Y900760D01*
Y796504D01*
Y692240D01*
X6727410Y694203D01*
X6752953Y704783D01*
X6766712Y715341D01*
X6779412Y709078D01*
Y629923D01*
X6766712Y623659D01*
X6752953Y634217D01*
X6727410Y644797D01*
X6712500Y646760D01*
Y542504D01*
X6700001D01*
Y530004D01*
X6595739D01*
X6597703Y515090D01*
X6608283Y489547D01*
X6625113Y467613D01*
X6647047Y450783D01*
X6647186Y450725D01*
X6644660Y438025D01*
X6488274D01*
X6485748Y450725D01*
X6496432Y455150D01*
X6517321Y471179D01*
X6533350Y492069D01*
X6543426Y516395D01*
X6546863Y542500D01*
X6543426Y568605D01*
X6533350Y592931D01*
X6517321Y613821D01*
X6496432Y629850D01*
X6472105Y639926D01*
X6446000Y643363D01*
X6419895Y639926D01*
X6395569Y629850D01*
X6374679Y613821D01*
X6358650Y592931D01*
X6348574Y568605D01*
X6345137Y542500D01*
X6348574Y516395D01*
X6358650Y492069D01*
X6374679Y471179D01*
X6395569Y455150D01*
X6406252Y450725D01*
X6403726Y438025D01*
X6344259D01*
X6338272Y449226D01*
X6341480Y454027D01*
X6346136Y477438D01*
X6341480Y500849D01*
X6328218Y520695D01*
X6308372Y533957D01*
X6284961Y538613D01*
X6261550Y533957D01*
X6253420Y528524D01*
X6251493Y528756D01*
X6240178Y534950D01*
X6236506Y553410D01*
X6223245Y573256D01*
X6203399Y586518D01*
X6179988Y591174D01*
X6156577Y586518D01*
X6136730Y573256D01*
X6123469Y553410D01*
X6122907Y550588D01*
X6037817D01*
X5800588Y787817D01*
Y819561D01*
X5812321Y824421D01*
X5868371Y768372D01*
X5868371Y768371D01*
X5878295Y761741D01*
X5890000Y759412D01*
X5890001Y759413D01*
X5935801D01*
X5936509Y755855D01*
X5942255Y747255D01*
X5950856Y741509D01*
X5961000Y739491D01*
X6089000D01*
X6099145Y741509D01*
X6107745Y747255D01*
X6113491Y755855D01*
X6114199Y759413D01*
X6134564D01*
X6135382Y757299D01*
X6136676Y746713D01*
X6128650Y741350D01*
X6121799Y731096D01*
X6119393Y719000D01*
Y707502D01*
X6215003D01*
X6310607D01*
Y719000D01*
X6308201Y731096D01*
X6301350Y741350D01*
X6291095Y748201D01*
X6279000Y750607D01*
X6275074D01*
X6274628Y751723D01*
X6272962Y763307D01*
X6280541Y768371D01*
X6335915Y823745D01*
X6347943Y817813D01*
X6345137Y796500D01*
X6348574Y770395D01*
X6358650Y746069D01*
X6374679Y725179D01*
X6395569Y709150D01*
X6419895Y699074D01*
X6446000Y695637D01*
X6472105Y699074D01*
X6496432Y709150D01*
X6517321Y725179D01*
X6533350Y746069D01*
X6543426Y770395D01*
X6546863Y796500D01*
X6543426Y822605D01*
X6533350Y846931D01*
X6517321Y867821D01*
X6496432Y883850D01*
X6472105Y893926D01*
X6446000Y897363D01*
X6419895Y893926D01*
X6395569Y883850D01*
X6382350Y873706D01*
X6369650Y879970D01*
Y930892D01*
X6400051Y961294D01*
X6419895Y953074D01*
X6446000Y949637D01*
X6472105Y953074D01*
X6496432Y963150D01*
X6517321Y979179D01*
X6533350Y1000069D01*
X6543426Y1024395D01*
X6546863Y1050500D01*
X6543426Y1076605D01*
X6533350Y1100931D01*
X6517321Y1121821D01*
X6496432Y1137850D01*
X6472105Y1147926D01*
X6446000Y1151363D01*
X6419895Y1147926D01*
X6395569Y1137850D01*
X6374679Y1121821D01*
X6358650Y1100931D01*
X6348574Y1076605D01*
X6345137Y1050500D01*
X6348574Y1024395D01*
X6356794Y1004551D01*
X6317433Y965191D01*
X6310803Y955267D01*
X6308474Y943562D01*
X6308474Y943561D01*
Y934547D01*
X6303342Y931293D01*
X6295774Y929062D01*
X6289145Y933491D01*
X6279000Y935509D01*
X6230588D01*
Y978276D01*
X6243258Y986742D01*
X6256519Y1006589D01*
X6261175Y1030000D01*
X6256519Y1053411D01*
X6243258Y1073257D01*
X6223411Y1086519D01*
X6200000Y1091175D01*
X6176589Y1086519D01*
X6170685Y1082573D01*
X6156629Y1096629D01*
X6146706Y1103259D01*
X6135000Y1105588D01*
X6123617Y1108512D01*
X6123491Y1109145D01*
X6117745Y1117745D01*
X6109145Y1123491D01*
X6099000Y1125509D01*
X5971000D01*
X5960855Y1123491D01*
X5952255Y1117745D01*
X5946509Y1109145D01*
X5944491Y1099000D01*
Y1051000D01*
X5946509Y1040855D01*
X5952255Y1032255D01*
X5960855Y1026508D01*
X5971000Y1024491D01*
X6099000D01*
X6109145Y1026508D01*
X6117745Y1032255D01*
X6133607Y1033135D01*
X6139342Y1027401D01*
X6143481Y1006589D01*
X6156743Y986742D01*
X6169412Y978276D01*
Y935509D01*
X6151000D01*
X6140855Y933491D01*
X6132255Y927745D01*
X6126509Y919145D01*
X6124491Y909000D01*
Y861000D01*
X6126509Y850855D01*
X6132255Y842255D01*
X6140855Y836509D01*
X6151000Y834491D01*
X6229579D01*
X6236367Y821791D01*
X6235563Y820588D01*
X6114199D01*
X6113491Y824145D01*
X6107745Y832745D01*
X6099145Y838492D01*
X6089000Y840509D01*
X5961000D01*
X5950856Y838492D01*
X5942255Y832745D01*
X5936509Y824145D01*
X5935801Y820588D01*
X5902670D01*
X5840588Y882670D01*
Y1179561D01*
X5852321Y1184421D01*
X5888370Y1148372D01*
X5888371Y1148371D01*
X5898295Y1141741D01*
X5910000Y1139412D01*
X5910001Y1139412D01*
X6135801D01*
X6136509Y1135855D01*
X6142255Y1127255D01*
X6150855Y1121508D01*
X6161000Y1119491D01*
X6289000D01*
X6299145Y1121508D01*
X6307745Y1127255D01*
X6313491Y1135855D01*
X6314310Y1139971D01*
X6323205Y1141740D01*
X6333129Y1148371D01*
X6400051Y1215294D01*
X6419895Y1207074D01*
X6446000Y1203637D01*
X6472105Y1207074D01*
X6496432Y1217150D01*
X6517321Y1233179D01*
X6533350Y1254069D01*
X6543426Y1278395D01*
X6546863Y1304500D01*
X6543426Y1330605D01*
X6533350Y1354931D01*
X6517321Y1375821D01*
X6496432Y1391850D01*
X6472105Y1401926D01*
X6446000Y1405363D01*
X6419895Y1401926D01*
X6395569Y1391850D01*
X6374679Y1375821D01*
X6358650Y1354931D01*
X6348574Y1330605D01*
X6345137Y1304500D01*
X6348574Y1278395D01*
X6356794Y1258551D01*
X6310696Y1212454D01*
X6307745Y1212745D01*
X6299145Y1218491D01*
X6289000Y1220509D01*
X6161000D01*
X6150855Y1218491D01*
X6142255Y1212745D01*
X6136509Y1204144D01*
X6135801Y1200588D01*
X6115437D01*
X6114620Y1202697D01*
X6113324Y1213288D01*
X6121350Y1218650D01*
X6128201Y1228904D01*
X6130607Y1241000D01*
Y1252500D01*
X6035000D01*
X5939393D01*
Y1241000D01*
X5941799Y1228904D01*
X5948651Y1218650D01*
X5956676Y1213288D01*
X5955381Y1202697D01*
X5954563Y1200588D01*
X5922670D01*
X5880588Y1242670D01*
Y1567993D01*
X5892321Y1572853D01*
X5924491Y1540683D01*
Y1509432D01*
X5926509Y1499287D01*
X5932255Y1490687D01*
X5940856Y1484940D01*
X5951000Y1482923D01*
X6079000D01*
X6089145Y1484940D01*
X6097745Y1490687D01*
X6103491Y1499287D01*
X6104199Y1502844D01*
X6124564D01*
X6125382Y1500731D01*
X6126676Y1490144D01*
X6118650Y1484781D01*
X6111799Y1474527D01*
X6109393Y1462432D01*
Y1450928D01*
X6204997D01*
X6300607D01*
Y1462432D01*
X6298201Y1474527D01*
X6291350Y1484781D01*
X6281095Y1491633D01*
X6269000Y1494039D01*
X6265074D01*
X6264628Y1495155D01*
X6262962Y1506739D01*
X6270541Y1511803D01*
X6334616Y1575878D01*
X6346644Y1569946D01*
D02*
G37*
G36*
X1609610Y1300138D02*
X1609608Y990000D01*
X1611160Y982196D01*
X1615581Y975580D01*
X1615581Y975580D01*
X1653742Y937419D01*
X1648882Y925686D01*
X1338317D01*
X1333257Y933257D01*
X1313411Y946519D01*
X1290000Y951175D01*
X1266589Y946519D01*
X1246742Y933257D01*
X1233481Y913411D01*
X1231530Y903600D01*
X1217749Y899420D01*
X1019510Y1097659D01*
X1024370Y1109393D01*
X1037499D01*
Y1165001D01*
Y1220607D01*
X986000D01*
X973905Y1218201D01*
X963650Y1211350D01*
X956799Y1201095D01*
X954393Y1189000D01*
Y1179370D01*
X942660Y1174509D01*
X919219Y1197950D01*
X921465Y1203370D01*
X925367Y1209763D01*
X934145Y1211509D01*
X942745Y1217255D01*
X948491Y1225855D01*
X950509Y1236000D01*
Y1284000D01*
X948491Y1294145D01*
X946972Y1296418D01*
X953761Y1309118D01*
X971949D01*
X975855Y1306508D01*
X986000Y1304491D01*
X1114000D01*
X1124145Y1306508D01*
X1128051Y1309118D01*
X1600630D01*
X1609610Y1300138D01*
D02*
G37*
G36*
X1031161Y2231162D02*
X1031162Y2231161D01*
X1044393Y2222320D01*
X1060000Y2219216D01*
X1060001Y2219216D01*
X3156000D01*
Y2200000D01*
X3276000D01*
Y2219216D01*
X3400000D01*
Y2200000D01*
X3520000D01*
Y2229217D01*
X4060566D01*
X4066553Y2218016D01*
X4063473Y2213407D01*
X4058816Y2189996D01*
X4061789Y2175051D01*
X2827326Y940588D01*
X2781469D01*
X2770392Y950000D01*
Y1299999D01*
X2770392Y1300000D01*
X2768840Y1307803D01*
X2764419Y1314419D01*
X2764419Y1314420D01*
X2714416Y1364419D01*
X2707801Y1368839D01*
X2699998Y1370391D01*
X2218453Y1370392D01*
X2030388Y1558445D01*
X2030393Y1920000D01*
X2028841Y1927803D01*
X2024421Y1934419D01*
X2024420Y1934420D01*
X1994423Y1964420D01*
X1994422Y1964421D01*
X1991378Y1966455D01*
X1987808Y1968841D01*
X1980004Y1970393D01*
X1820000Y1970392D01*
X1812196Y1968840D01*
X1805580Y1964419D01*
X1805580Y1964418D01*
X1765581Y1924420D01*
X1761160Y1917804D01*
X1759608Y1910000D01*
Y1908699D01*
X1748061Y1905916D01*
Y1905915D01*
X1588061D01*
Y1821797D01*
X1530000D01*
Y1835000D01*
X1410000D01*
Y1821797D01*
X1100622D01*
X1083064Y1818304D01*
X1068178Y1808359D01*
X993201Y1733382D01*
X930000D01*
Y1758412D01*
X760000D01*
Y1733382D01*
X685281D01*
X679082Y1746082D01*
X691350Y1762069D01*
X701426Y1786395D01*
X704863Y1812500D01*
X701426Y1838605D01*
X691350Y1862931D01*
X675321Y1883821D01*
X667576Y1889764D01*
X667033Y1893227D01*
X669063Y1904630D01*
X678838Y1911162D01*
X1015000Y2247323D01*
X1031161Y2231162D01*
D02*
G37*
G36*
X2010001Y1920000D02*
X2009996Y1549998D01*
X2210006Y1350000D01*
X2699998Y1349999D01*
X2750000Y1300000D01*
Y950000D01*
X2740588Y940588D01*
X2476864D01*
X2476863Y940588D01*
X2465158Y938259D01*
X2455234Y931629D01*
X2455234Y931628D01*
X2403606Y880000D01*
X1740000D01*
X1630000Y990000D01*
X1630003Y1400002D01*
X1779995Y1549997D01*
X1780000Y1910000D01*
X1820000Y1950000D01*
X1980003Y1950001D01*
X2010001Y1920000D01*
D02*
G37*
G36*
X1656897Y842581D02*
X1538371Y724055D01*
X1532321Y715000D01*
X1482500D01*
Y650000D01*
X1470000D01*
Y637500D01*
X1405000D01*
Y585000D01*
X1467575D01*
X1472435Y573267D01*
X1458371Y559203D01*
X1453893Y552500D01*
X1350000D01*
Y424925D01*
X1338267Y420065D01*
X1301090Y457241D01*
Y803409D01*
X1298762Y815114D01*
X1297285Y817325D01*
X1298325Y822988D01*
X1303130Y831436D01*
X1313411Y833481D01*
X1333257Y846743D01*
X1338317Y854314D01*
X1652037D01*
X1656897Y842581D01*
D02*
G37*
%LPC*%
G36*
X6712500Y8012760D02*
Y7921004D01*
X6804260D01*
X6802297Y7935910D01*
X6791717Y7961453D01*
X6774887Y7983387D01*
X6752953Y8000217D01*
X6727410Y8010797D01*
X6712500Y8012760D01*
D02*
G37*
G36*
X362500D02*
Y7921004D01*
X454260D01*
X452297Y7935910D01*
X441717Y7961453D01*
X424887Y7983387D01*
X402953Y8000217D01*
X377410Y8010797D01*
X362500Y8012760D01*
D02*
G37*
G36*
X6687501Y8012760D02*
X6672590Y8010797D01*
X6647047Y8000217D01*
X6625113Y7983387D01*
X6608283Y7961453D01*
X6597703Y7935910D01*
X6595740Y7921004D01*
X6687501D01*
Y8012760D01*
D02*
G37*
G36*
X337501D02*
X322590Y8010797D01*
X297047Y8000217D01*
X275113Y7983387D01*
X258283Y7961453D01*
X247703Y7935910D01*
X245740Y7921004D01*
X337501D01*
Y8012760D01*
D02*
G37*
G36*
X6804261Y7896004D02*
X6712500D01*
Y7804240D01*
X6727410Y7806203D01*
X6752953Y7816783D01*
X6774887Y7833613D01*
X6791717Y7855547D01*
X6802297Y7881090D01*
X6804261Y7896004D01*
D02*
G37*
G36*
X454261D02*
X362500D01*
Y7804240D01*
X377410Y7806203D01*
X402953Y7816783D01*
X424887Y7833613D01*
X441717Y7855547D01*
X452297Y7881090D01*
X454261Y7896004D01*
D02*
G37*
G36*
X6687501D02*
X6595739D01*
X6597703Y7881090D01*
X6608283Y7855547D01*
X6625113Y7833613D01*
X6647047Y7816783D01*
X6672590Y7806203D01*
X6687501Y7804240D01*
Y7896004D01*
D02*
G37*
G36*
X337501D02*
X245739D01*
X247703Y7881090D01*
X258283Y7855547D01*
X275113Y7833613D01*
X297047Y7816783D01*
X322590Y7806203D01*
X337501Y7804240D01*
Y7896004D01*
D02*
G37*
G36*
X6712500Y7758760D02*
Y7667004D01*
X6804260D01*
X6802297Y7681910D01*
X6791717Y7707453D01*
X6774887Y7729387D01*
X6752953Y7746217D01*
X6727410Y7756797D01*
X6712500Y7758760D01*
D02*
G37*
G36*
X362500D02*
Y7667004D01*
X454260D01*
X452297Y7681910D01*
X441717Y7707453D01*
X424887Y7729387D01*
X402953Y7746217D01*
X377410Y7756797D01*
X362500Y7758760D01*
D02*
G37*
G36*
X6687501Y7758760D02*
X6672590Y7756797D01*
X6647047Y7746217D01*
X6625113Y7729387D01*
X6608283Y7707453D01*
X6597703Y7681910D01*
X6595740Y7667004D01*
X6687501D01*
Y7758760D01*
D02*
G37*
G36*
X337501D02*
X322590Y7756797D01*
X297047Y7746217D01*
X275113Y7729387D01*
X258283Y7707453D01*
X247703Y7681910D01*
X245740Y7667004D01*
X337501D01*
Y7758760D01*
D02*
G37*
G36*
X6804261Y7642004D02*
X6712500D01*
Y7550240D01*
X6727410Y7552203D01*
X6752953Y7562783D01*
X6774887Y7579613D01*
X6791717Y7601547D01*
X6802297Y7627090D01*
X6804261Y7642004D01*
D02*
G37*
G36*
X454261D02*
X362500D01*
Y7550240D01*
X377410Y7552203D01*
X402953Y7562783D01*
X424887Y7579613D01*
X441717Y7601547D01*
X452297Y7627090D01*
X454261Y7642004D01*
D02*
G37*
G36*
X6687501D02*
X6595739D01*
X6597703Y7627090D01*
X6608283Y7601547D01*
X6625113Y7579613D01*
X6647047Y7562783D01*
X6672590Y7552203D01*
X6687501Y7550240D01*
Y7642004D01*
D02*
G37*
G36*
X337501D02*
X245739D01*
X247703Y7627090D01*
X258283Y7601547D01*
X275113Y7579613D01*
X297047Y7562783D01*
X322590Y7552203D01*
X337501Y7550240D01*
Y7642004D01*
D02*
G37*
G36*
X472500Y6680000D02*
X307500D01*
Y6520000D01*
X354314D01*
Y6480000D01*
X330000D01*
Y6360000D01*
X450000D01*
Y6480000D01*
X425686D01*
Y6520000D01*
X472500D01*
Y6680000D01*
D02*
G37*
G36*
X455000Y6325000D02*
X402500D01*
Y6272503D01*
X455000D01*
Y6325000D01*
D02*
G37*
G36*
X377500D02*
X325000D01*
Y6272503D01*
X377500D01*
Y6325000D01*
D02*
G37*
G36*
X455000Y6247503D02*
X402500D01*
Y6195000D01*
X455000D01*
Y6247503D01*
D02*
G37*
G36*
X377500D02*
X325000D01*
Y6195000D01*
X377500D01*
Y6247503D01*
D02*
G37*
G36*
X4812498Y5968260D02*
Y5876500D01*
X4904260D01*
X4902297Y5891410D01*
X4891717Y5916953D01*
X4874887Y5938887D01*
X4852953Y5955717D01*
X4827410Y5966297D01*
X4812498Y5968260D01*
D02*
G37*
G36*
X4787498Y5968260D02*
X4772590Y5966297D01*
X4747047Y5955717D01*
X4725113Y5938887D01*
X4708283Y5916953D01*
X4697703Y5891410D01*
X4695740Y5876500D01*
X4787498D01*
Y5968260D01*
D02*
G37*
G36*
X6578000Y5964863D02*
X6551895Y5961426D01*
X6527569Y5951350D01*
X6506679Y5935321D01*
X6490650Y5914431D01*
X6480574Y5890105D01*
X6477137Y5864000D01*
X6480574Y5837895D01*
X6490650Y5813569D01*
X6506679Y5792679D01*
X6527569Y5776650D01*
X6551895Y5766574D01*
X6578000Y5763137D01*
X6604105Y5766574D01*
X6628431Y5776650D01*
X6649321Y5792679D01*
X6665350Y5813569D01*
X6675426Y5837895D01*
X6678863Y5864000D01*
X6675426Y5890105D01*
X6665350Y5914431D01*
X6649321Y5935321D01*
X6628431Y5951350D01*
X6604105Y5961426D01*
X6578000Y5964863D01*
D02*
G37*
G36*
X6324000D02*
X6297895Y5961426D01*
X6273569Y5951350D01*
X6252679Y5935321D01*
X6236650Y5914431D01*
X6226574Y5890105D01*
X6223137Y5864000D01*
X6226574Y5837895D01*
X6236650Y5813569D01*
X6252679Y5792679D01*
X6273569Y5776650D01*
X6297895Y5766574D01*
X6324000Y5763137D01*
X6350105Y5766574D01*
X6374431Y5776650D01*
X6395321Y5792679D01*
X6411350Y5813569D01*
X6421426Y5837895D01*
X6424863Y5864000D01*
X6421426Y5890105D01*
X6411350Y5914431D01*
X6395321Y5935321D01*
X6374431Y5951350D01*
X6350105Y5961426D01*
X6324000Y5964863D01*
D02*
G37*
G36*
X6070000D02*
X6043895Y5961426D01*
X6019569Y5951350D01*
X5998679Y5935321D01*
X5982650Y5914431D01*
X5972574Y5890105D01*
X5969137Y5864000D01*
X5972574Y5837895D01*
X5982650Y5813569D01*
X5998679Y5792679D01*
X6019569Y5776650D01*
X6043895Y5766574D01*
X6070000Y5763137D01*
X6096105Y5766574D01*
X6120431Y5776650D01*
X6141321Y5792679D01*
X6157350Y5813569D01*
X6167426Y5837895D01*
X6170863Y5864000D01*
X6167426Y5890105D01*
X6157350Y5914431D01*
X6141321Y5935321D01*
X6120431Y5951350D01*
X6096105Y5961426D01*
X6070000Y5964863D01*
D02*
G37*
G36*
X5816000D02*
X5789895Y5961426D01*
X5765569Y5951350D01*
X5744679Y5935321D01*
X5728650Y5914431D01*
X5718574Y5890105D01*
X5715137Y5864000D01*
X5718574Y5837895D01*
X5728650Y5813569D01*
X5744679Y5792679D01*
X5765569Y5776650D01*
X5789895Y5766574D01*
X5816000Y5763137D01*
X5842105Y5766574D01*
X5866431Y5776650D01*
X5887321Y5792679D01*
X5903350Y5813569D01*
X5913426Y5837895D01*
X5916863Y5864000D01*
X5913426Y5890105D01*
X5903350Y5914431D01*
X5887321Y5935321D01*
X5866431Y5951350D01*
X5842105Y5961426D01*
X5816000Y5964863D01*
D02*
G37*
G36*
X5562000D02*
X5535895Y5961426D01*
X5511569Y5951350D01*
X5490679Y5935321D01*
X5474650Y5914431D01*
X5464574Y5890105D01*
X5461137Y5864000D01*
X5464574Y5837895D01*
X5474650Y5813569D01*
X5490679Y5792679D01*
X5511569Y5776650D01*
X5535895Y5766574D01*
X5562000Y5763137D01*
X5588105Y5766574D01*
X5612431Y5776650D01*
X5633321Y5792679D01*
X5649350Y5813569D01*
X5659426Y5837895D01*
X5662863Y5864000D01*
X5659426Y5890105D01*
X5649350Y5914431D01*
X5633321Y5935321D01*
X5612431Y5951350D01*
X5588105Y5961426D01*
X5562000Y5964863D01*
D02*
G37*
G36*
X5308000D02*
X5281895Y5961426D01*
X5257569Y5951350D01*
X5236679Y5935321D01*
X5220650Y5914431D01*
X5210574Y5890105D01*
X5207137Y5864000D01*
X5210574Y5837895D01*
X5220650Y5813569D01*
X5236679Y5792679D01*
X5257569Y5776650D01*
X5281895Y5766574D01*
X5308000Y5763137D01*
X5334105Y5766574D01*
X5358431Y5776650D01*
X5379321Y5792679D01*
X5395350Y5813569D01*
X5405426Y5837895D01*
X5408863Y5864000D01*
X5405426Y5890105D01*
X5395350Y5914431D01*
X5379321Y5935321D01*
X5358431Y5951350D01*
X5334105Y5961426D01*
X5308000Y5964863D01*
D02*
G37*
G36*
X5054000D02*
X5027895Y5961426D01*
X5003569Y5951350D01*
X4982679Y5935321D01*
X4966650Y5914431D01*
X4956574Y5890105D01*
X4953137Y5864000D01*
X4956574Y5837895D01*
X4966650Y5813569D01*
X4982679Y5792679D01*
X5003569Y5776650D01*
X5027895Y5766574D01*
X5054000Y5763137D01*
X5080105Y5766574D01*
X5104431Y5776650D01*
X5125321Y5792679D01*
X5141350Y5813569D01*
X5151426Y5837895D01*
X5154863Y5864000D01*
X5151426Y5890105D01*
X5141350Y5914431D01*
X5125321Y5935321D01*
X5104431Y5951350D01*
X5080105Y5961426D01*
X5054000Y5964863D01*
D02*
G37*
G36*
X4787498Y5851500D02*
X4695740D01*
X4697703Y5836590D01*
X4708283Y5811047D01*
X4725113Y5789113D01*
X4747047Y5772283D01*
X4772590Y5761703D01*
X4787498Y5759740D01*
Y5851500D01*
D02*
G37*
G36*
X4904260D02*
X4812498D01*
Y5759740D01*
X4827410Y5761703D01*
X4852953Y5772283D01*
X4874887Y5789113D01*
X4891717Y5811047D01*
X4902297Y5836590D01*
X4904260Y5851500D01*
D02*
G37*
G36*
X6700000Y5469363D02*
X6673895Y5465926D01*
X6649569Y5455850D01*
X6628679Y5439821D01*
X6612650Y5418931D01*
X6602574Y5394605D01*
X6599137Y5368500D01*
X6602574Y5342395D01*
X6612650Y5318069D01*
X6628679Y5297179D01*
X6649569Y5281150D01*
X6673895Y5271074D01*
X6700000Y5267637D01*
X6726105Y5271074D01*
X6750432Y5281150D01*
X6771321Y5297179D01*
X6787350Y5318069D01*
X6797426Y5342395D01*
X6800863Y5368500D01*
X6797426Y5394605D01*
X6787350Y5418931D01*
X6771321Y5439821D01*
X6750432Y5455850D01*
X6726105Y5465926D01*
X6700000Y5469363D01*
D02*
G37*
G36*
X6446000D02*
X6419895Y5465926D01*
X6395569Y5455850D01*
X6374679Y5439821D01*
X6358650Y5418931D01*
X6348574Y5394605D01*
X6345137Y5368500D01*
X6348574Y5342395D01*
X6358650Y5318069D01*
X6374679Y5297179D01*
X6395569Y5281150D01*
X6419895Y5271074D01*
X6446000Y5267637D01*
X6472105Y5271074D01*
X6496432Y5281150D01*
X6517321Y5297179D01*
X6533350Y5318069D01*
X6543426Y5342395D01*
X6546863Y5368500D01*
X6543426Y5394605D01*
X6533350Y5418931D01*
X6517321Y5439821D01*
X6496432Y5455850D01*
X6472105Y5465926D01*
X6446000Y5469363D01*
D02*
G37*
G36*
X350000D02*
X323895Y5465926D01*
X299569Y5455850D01*
X278679Y5439821D01*
X262650Y5418931D01*
X252574Y5394605D01*
X249137Y5368500D01*
X252574Y5342395D01*
X262650Y5318069D01*
X278679Y5297179D01*
X299569Y5281150D01*
X323895Y5271074D01*
X350000Y5267637D01*
X376105Y5271074D01*
X400432Y5281150D01*
X421321Y5297179D01*
X437350Y5318069D01*
X447426Y5342395D01*
X450863Y5368500D01*
X447426Y5394605D01*
X437350Y5418931D01*
X421321Y5439821D01*
X400432Y5455850D01*
X376105Y5465926D01*
X350000Y5469363D01*
D02*
G37*
G36*
X5930835Y5540841D02*
X5895549Y5537365D01*
X5861619Y5527073D01*
X5830349Y5510358D01*
X5802940Y5487865D01*
X5780446Y5460456D01*
X5763732Y5429186D01*
X5753440Y5395256D01*
X5749964Y5359970D01*
X5753440Y5324684D01*
X5763732Y5290753D01*
X5780446Y5259483D01*
X5802940Y5232075D01*
X5830349Y5209581D01*
X5861619Y5192867D01*
X5895549Y5182574D01*
X5930835Y5179099D01*
X5966121Y5182574D01*
X6000051Y5192867D01*
X6031321Y5209581D01*
X6058730Y5232075D01*
X6081224Y5259483D01*
X6097938Y5290753D01*
X6108230Y5324684D01*
X6111706Y5359970D01*
X6108230Y5395256D01*
X6097938Y5429186D01*
X6081224Y5460456D01*
X6058730Y5487865D01*
X6031321Y5510358D01*
X6000051Y5527073D01*
X5966121Y5537365D01*
X5930835Y5540841D01*
D02*
G37*
G36*
X6700000Y5215363D02*
X6673895Y5211926D01*
X6649569Y5201850D01*
X6628679Y5185821D01*
X6612650Y5164931D01*
X6602574Y5140605D01*
X6599137Y5114500D01*
X6602574Y5088395D01*
X6612650Y5064069D01*
X6628679Y5043179D01*
X6649569Y5027150D01*
X6673895Y5017074D01*
X6700000Y5013637D01*
X6726105Y5017074D01*
X6750432Y5027150D01*
X6771321Y5043179D01*
X6787350Y5064069D01*
X6797426Y5088395D01*
X6800863Y5114500D01*
X6797426Y5140605D01*
X6787350Y5164931D01*
X6771321Y5185821D01*
X6750432Y5201850D01*
X6726105Y5211926D01*
X6700000Y5215363D01*
D02*
G37*
G36*
X6446000D02*
X6419895Y5211926D01*
X6395569Y5201850D01*
X6374679Y5185821D01*
X6358650Y5164931D01*
X6348574Y5140605D01*
X6345137Y5114500D01*
X6348574Y5088395D01*
X6358650Y5064069D01*
X6374679Y5043179D01*
X6395569Y5027150D01*
X6419895Y5017074D01*
X6446000Y5013637D01*
X6472105Y5017074D01*
X6496432Y5027150D01*
X6517321Y5043179D01*
X6533350Y5064069D01*
X6543426Y5088395D01*
X6546863Y5114500D01*
X6543426Y5140605D01*
X6533350Y5164931D01*
X6517321Y5185821D01*
X6496432Y5201850D01*
X6472105Y5211926D01*
X6446000Y5215363D01*
D02*
G37*
G36*
X350000D02*
X323895Y5211926D01*
X299569Y5201850D01*
X278679Y5185821D01*
X262650Y5164931D01*
X252574Y5140605D01*
X249137Y5114500D01*
X252574Y5088395D01*
X262650Y5064069D01*
X278679Y5043179D01*
X299569Y5027150D01*
X323895Y5017074D01*
X350000Y5013637D01*
X376105Y5017074D01*
X400432Y5027150D01*
X421321Y5043179D01*
X437350Y5064069D01*
X447426Y5088395D01*
X450863Y5114500D01*
X447426Y5140605D01*
X437350Y5164931D01*
X421321Y5185821D01*
X400432Y5201850D01*
X376105Y5211926D01*
X350000Y5215363D01*
D02*
G37*
G36*
X6700000Y4961363D02*
X6673895Y4957926D01*
X6649569Y4947850D01*
X6628679Y4931821D01*
X6612650Y4910931D01*
X6602574Y4886605D01*
X6599137Y4860500D01*
X6602574Y4834395D01*
X6612650Y4810069D01*
X6628679Y4789179D01*
X6649569Y4773150D01*
X6673895Y4763074D01*
X6700000Y4759637D01*
X6726105Y4763074D01*
X6750432Y4773150D01*
X6771321Y4789179D01*
X6787350Y4810069D01*
X6797426Y4834395D01*
X6800863Y4860500D01*
X6797426Y4886605D01*
X6787350Y4910931D01*
X6771321Y4931821D01*
X6750432Y4947850D01*
X6726105Y4957926D01*
X6700000Y4961363D01*
D02*
G37*
G36*
X6446000D02*
X6419895Y4957926D01*
X6395569Y4947850D01*
X6374679Y4931821D01*
X6358650Y4910931D01*
X6348574Y4886605D01*
X6345137Y4860500D01*
X6348574Y4834395D01*
X6358650Y4810069D01*
X6374679Y4789179D01*
X6395569Y4773150D01*
X6419895Y4763074D01*
X6446000Y4759637D01*
X6472105Y4763074D01*
X6496432Y4773150D01*
X6517321Y4789179D01*
X6533350Y4810069D01*
X6543426Y4834395D01*
X6546863Y4860500D01*
X6543426Y4886605D01*
X6533350Y4910931D01*
X6517321Y4931821D01*
X6496432Y4947850D01*
X6472105Y4957926D01*
X6446000Y4961363D01*
D02*
G37*
G36*
X6700000Y4707363D02*
X6673895Y4703926D01*
X6649569Y4693850D01*
X6628679Y4677821D01*
X6612650Y4656931D01*
X6602574Y4632605D01*
X6599137Y4606500D01*
X6602574Y4580395D01*
X6612650Y4556069D01*
X6628679Y4535179D01*
X6649569Y4519150D01*
X6673895Y4509074D01*
X6700000Y4505637D01*
X6726105Y4509074D01*
X6750432Y4519150D01*
X6771321Y4535179D01*
X6787350Y4556069D01*
X6797426Y4580395D01*
X6800863Y4606500D01*
X6797426Y4632605D01*
X6787350Y4656931D01*
X6771321Y4677821D01*
X6750432Y4693850D01*
X6726105Y4703926D01*
X6700000Y4707363D01*
D02*
G37*
G36*
X6446000D02*
X6419895Y4703926D01*
X6395569Y4693850D01*
X6374679Y4677821D01*
X6358650Y4656931D01*
X6348574Y4632605D01*
X6345137Y4606500D01*
X6348574Y4580395D01*
X6358650Y4556069D01*
X6374679Y4535179D01*
X6395569Y4519150D01*
X6419895Y4509074D01*
X6446000Y4505637D01*
X6472105Y4509074D01*
X6496432Y4519150D01*
X6517321Y4535179D01*
X6533350Y4556069D01*
X6543426Y4580395D01*
X6546863Y4606500D01*
X6543426Y4632605D01*
X6533350Y4656931D01*
X6517321Y4677821D01*
X6496432Y4693850D01*
X6472105Y4703926D01*
X6446000Y4707363D01*
D02*
G37*
G36*
X1089000Y4540607D02*
X1037498D01*
Y4497499D01*
X1120607D01*
Y4509000D01*
X1118201Y4521096D01*
X1111350Y4531350D01*
X1101095Y4538201D01*
X1089000Y4540607D01*
D02*
G37*
G36*
X1012498D02*
X961000D01*
X948905Y4538201D01*
X938650Y4531350D01*
X931799Y4521096D01*
X929393Y4509000D01*
Y4497499D01*
X1012498D01*
Y4540607D01*
D02*
G37*
G36*
X1120607Y4472499D02*
X1037498D01*
Y4429393D01*
X1089000D01*
X1101095Y4431799D01*
X1111350Y4438651D01*
X1118201Y4448905D01*
X1120607Y4461000D01*
Y4472499D01*
D02*
G37*
G36*
X1012498D02*
X929393D01*
Y4461000D01*
X931799Y4448905D01*
X938650Y4438651D01*
X948905Y4431799D01*
X961000Y4429393D01*
X1012498D01*
Y4472499D01*
D02*
G37*
G36*
X6199565Y4637714D02*
X6166934Y4633418D01*
X6136526Y4620822D01*
X6110414Y4600786D01*
X6090378Y4574674D01*
X6077782Y4544267D01*
X6073486Y4511635D01*
X6077782Y4479003D01*
X6090378Y4448595D01*
X6110414Y4422484D01*
X6136526Y4402447D01*
X6166934Y4389852D01*
X6199565Y4385556D01*
X6232197Y4389852D01*
X6262605Y4402447D01*
X6288716Y4422484D01*
X6308753Y4448595D01*
X6321348Y4479003D01*
X6325644Y4511635D01*
X6321348Y4544267D01*
X6308753Y4574674D01*
X6288716Y4600786D01*
X6262605Y4620822D01*
X6232197Y4633418D01*
X6199565Y4637714D01*
D02*
G37*
G36*
X6700000Y4453363D02*
X6673895Y4449926D01*
X6649569Y4439850D01*
X6628679Y4423821D01*
X6612650Y4402931D01*
X6602574Y4378605D01*
X6599137Y4352500D01*
X6602574Y4326395D01*
X6612650Y4302069D01*
X6628679Y4281179D01*
X6649569Y4265150D01*
X6673895Y4255074D01*
X6700000Y4251637D01*
X6726105Y4255074D01*
X6750432Y4265150D01*
X6771321Y4281179D01*
X6787350Y4302069D01*
X6797426Y4326395D01*
X6800863Y4352500D01*
X6797426Y4378605D01*
X6787350Y4402931D01*
X6771321Y4423821D01*
X6750432Y4439850D01*
X6726105Y4449926D01*
X6700000Y4453363D01*
D02*
G37*
G36*
X350000D02*
X323895Y4449926D01*
X299569Y4439850D01*
X278679Y4423821D01*
X262650Y4402931D01*
X252574Y4378605D01*
X249137Y4352500D01*
X252574Y4326395D01*
X262650Y4302069D01*
X278679Y4281179D01*
X299569Y4265150D01*
X323895Y4255074D01*
X350000Y4251637D01*
X376105Y4255074D01*
X400432Y4265150D01*
X421321Y4281179D01*
X437350Y4302069D01*
X447426Y4326395D01*
X450863Y4352500D01*
X447426Y4378605D01*
X437350Y4402931D01*
X421321Y4423821D01*
X400432Y4439850D01*
X376105Y4449926D01*
X350000Y4453363D01*
D02*
G37*
G36*
X708261Y4340004D02*
X616500D01*
Y4248240D01*
X631410Y4250203D01*
X656953Y4260783D01*
X678887Y4277613D01*
X695717Y4299547D01*
X706297Y4325090D01*
X708261Y4340004D01*
D02*
G37*
G36*
X591501D02*
X499739D01*
X501703Y4325090D01*
X512283Y4299547D01*
X529113Y4277613D01*
X551047Y4260783D01*
X576590Y4250203D01*
X591501Y4248240D01*
Y4340004D01*
D02*
G37*
G36*
Y4202760D02*
X576590Y4200797D01*
X551047Y4190217D01*
X529113Y4173387D01*
X512283Y4151453D01*
X501703Y4125910D01*
X499740Y4111004D01*
X591501D01*
Y4202760D01*
D02*
G37*
G36*
X350000Y4199363D02*
X323895Y4195926D01*
X299569Y4185850D01*
X278679Y4169821D01*
X262650Y4148931D01*
X252574Y4124605D01*
X249137Y4098500D01*
X252574Y4072395D01*
X262650Y4048069D01*
X278679Y4027179D01*
X299569Y4011150D01*
X323895Y4001074D01*
X350000Y3997637D01*
X376105Y4001074D01*
X400432Y4011150D01*
X421321Y4027179D01*
X437350Y4048069D01*
X447426Y4072395D01*
X450863Y4098500D01*
X447426Y4124605D01*
X437350Y4148931D01*
X421321Y4169821D01*
X400432Y4185850D01*
X376105Y4195926D01*
X350000Y4199363D01*
D02*
G37*
G36*
X591501Y4086004D02*
X499739D01*
X501703Y4071090D01*
X512283Y4045547D01*
X529113Y4023613D01*
X551047Y4006783D01*
X576590Y3996203D01*
X591501Y3994240D01*
Y4086004D01*
D02*
G37*
G36*
X6104000Y3990607D02*
X6052498D01*
Y3947501D01*
X6135607D01*
Y3959000D01*
X6133201Y3971095D01*
X6126350Y3981350D01*
X6116095Y3988201D01*
X6104000Y3990607D01*
D02*
G37*
G36*
X6027498D02*
X5976000D01*
X5963905Y3988201D01*
X5953651Y3981350D01*
X5946799Y3971095D01*
X5944393Y3959000D01*
Y3947501D01*
X6027498D01*
Y3990607D01*
D02*
G37*
G36*
X350000Y3945363D02*
X323895Y3941926D01*
X299569Y3931850D01*
X278679Y3915821D01*
X262650Y3894931D01*
X252574Y3870605D01*
X249137Y3844500D01*
X252574Y3818395D01*
X262650Y3794069D01*
X278679Y3773179D01*
X299569Y3757150D01*
X323895Y3747074D01*
X350000Y3743637D01*
X376105Y3747074D01*
X400432Y3757150D01*
X421321Y3773179D01*
X437350Y3794069D01*
X447426Y3818395D01*
X450863Y3844500D01*
X447426Y3870605D01*
X437350Y3894931D01*
X421321Y3915821D01*
X400432Y3931850D01*
X376105Y3941926D01*
X350000Y3945363D01*
D02*
G37*
G36*
X6104000Y3795509D02*
X5976000D01*
X5965855Y3793492D01*
X5957255Y3787745D01*
X5951509Y3779145D01*
X5949491Y3769000D01*
Y3721000D01*
X5951509Y3710855D01*
X5957255Y3702255D01*
X5965855Y3696509D01*
X5976000Y3694491D01*
X6104000D01*
X6114145Y3696509D01*
X6122745Y3702255D01*
X6125310Y3706094D01*
X6134511Y3708046D01*
X6138886Y3708175D01*
X6145714Y3699499D01*
X6143825Y3690000D01*
X6148481Y3666589D01*
X6161743Y3646743D01*
X6181589Y3633481D01*
X6205000Y3628825D01*
X6228411Y3633481D01*
X6248258Y3646743D01*
X6261519Y3666589D01*
X6266175Y3690000D01*
X6261519Y3713411D01*
X6248258Y3733257D01*
X6228411Y3746519D01*
X6205000Y3751175D01*
X6190055Y3748203D01*
X6171629Y3766629D01*
X6161705Y3773259D01*
X6150000Y3775588D01*
X6149999Y3775588D01*
X6129199D01*
X6128491Y3779145D01*
X6122745Y3787745D01*
X6114145Y3793492D01*
X6104000Y3795509D01*
D02*
G37*
G36*
X6109000Y3610607D02*
X6057496D01*
Y3567502D01*
X6140607D01*
Y3579000D01*
X6138201Y3591095D01*
X6131350Y3601349D01*
X6121095Y3608201D01*
X6109000Y3610607D01*
D02*
G37*
G36*
X6032497D02*
X5981000D01*
X5968905Y3608201D01*
X5958651Y3601349D01*
X5951799Y3591095D01*
X5949393Y3579000D01*
Y3567502D01*
X6032497D01*
Y3610607D01*
D02*
G37*
G36*
X6700000Y3691363D02*
X6673895Y3687926D01*
X6649569Y3677850D01*
X6628679Y3661821D01*
X6612650Y3640931D01*
X6602574Y3616605D01*
X6599137Y3590500D01*
X6602574Y3564395D01*
X6612650Y3540069D01*
X6628679Y3519179D01*
X6649569Y3503150D01*
X6673895Y3493074D01*
X6700000Y3489637D01*
X6726105Y3493074D01*
X6750432Y3503150D01*
X6771321Y3519179D01*
X6787350Y3540069D01*
X6797426Y3564395D01*
X6800863Y3590500D01*
X6797426Y3616605D01*
X6787350Y3640931D01*
X6771321Y3661821D01*
X6750432Y3677850D01*
X6726105Y3687926D01*
X6700000Y3691363D01*
D02*
G37*
G36*
Y3437363D02*
X6673895Y3433926D01*
X6649569Y3423850D01*
X6628679Y3407821D01*
X6612650Y3386931D01*
X6602574Y3362605D01*
X6599137Y3336500D01*
X6602574Y3310395D01*
X6612650Y3286069D01*
X6628679Y3265179D01*
X6649569Y3249150D01*
X6673895Y3239074D01*
X6700000Y3235637D01*
X6726105Y3239074D01*
X6750432Y3249150D01*
X6771321Y3265179D01*
X6787350Y3286069D01*
X6797426Y3310395D01*
X6800863Y3336500D01*
X6797426Y3362605D01*
X6787350Y3386931D01*
X6771321Y3407821D01*
X6750432Y3423850D01*
X6726105Y3433926D01*
X6700000Y3437363D01*
D02*
G37*
G36*
Y3183363D02*
X6673895Y3179926D01*
X6649569Y3169850D01*
X6628679Y3153821D01*
X6612650Y3132931D01*
X6602574Y3108605D01*
X6599137Y3082500D01*
X6602574Y3056395D01*
X6612650Y3032069D01*
X6628679Y3011179D01*
X6649569Y2995150D01*
X6673895Y2985074D01*
X6700000Y2981637D01*
X6726105Y2985074D01*
X6750432Y2995150D01*
X6771321Y3011179D01*
X6787350Y3032069D01*
X6797426Y3056395D01*
X6800863Y3082500D01*
X6797426Y3108605D01*
X6787350Y3132931D01*
X6771321Y3153821D01*
X6750432Y3169850D01*
X6726105Y3179926D01*
X6700000Y3183363D01*
D02*
G37*
G36*
X6315607Y2972500D02*
X6232502D01*
Y2929392D01*
X6284000D01*
X6296095Y2931798D01*
X6306350Y2938650D01*
X6313201Y2948904D01*
X6315607Y2961000D01*
Y2972500D01*
D02*
G37*
G36*
X6207502D02*
X6124393D01*
Y2961000D01*
X6126799Y2948904D01*
X6133650Y2938650D01*
X6143905Y2931798D01*
X6156000Y2929392D01*
X6207502D01*
Y2972500D01*
D02*
G37*
G36*
X6712500Y2932760D02*
Y2841004D01*
X6804260D01*
X6802297Y2855910D01*
X6791717Y2881453D01*
X6774887Y2903387D01*
X6752953Y2920217D01*
X6727410Y2930797D01*
X6712500Y2932760D01*
D02*
G37*
G36*
X6687501Y2932760D02*
X6672590Y2930797D01*
X6647047Y2920217D01*
X6625113Y2903387D01*
X6608283Y2881453D01*
X6597703Y2855910D01*
X6595740Y2841004D01*
X6687501D01*
Y2932760D01*
D02*
G37*
G36*
X6109000Y2850607D02*
X6057496D01*
Y2807501D01*
X6140607D01*
Y2819000D01*
X6138201Y2831095D01*
X6131350Y2841349D01*
X6121095Y2848201D01*
X6109000Y2850607D01*
D02*
G37*
G36*
X6446000Y2929363D02*
X6419895Y2925926D01*
X6395569Y2915850D01*
X6374679Y2899821D01*
X6358650Y2878931D01*
X6348574Y2854605D01*
X6345137Y2828500D01*
X6348574Y2802395D01*
X6358650Y2778069D01*
X6374679Y2757179D01*
X6395569Y2741150D01*
X6419895Y2731074D01*
X6446000Y2727637D01*
X6472105Y2731074D01*
X6496432Y2741150D01*
X6517321Y2757179D01*
X6533350Y2778069D01*
X6543426Y2802395D01*
X6546863Y2828500D01*
X6543426Y2854605D01*
X6533350Y2878931D01*
X6517321Y2899821D01*
X6496432Y2915850D01*
X6472105Y2925926D01*
X6446000Y2929363D01*
D02*
G37*
G36*
X6804261Y2816004D02*
X6712500D01*
Y2724240D01*
X6727410Y2726203D01*
X6752953Y2736783D01*
X6774887Y2753613D01*
X6791717Y2775547D01*
X6802297Y2801090D01*
X6804261Y2816004D01*
D02*
G37*
G36*
X6687501D02*
X6595739D01*
X6597703Y2801090D01*
X6608283Y2775547D01*
X6625113Y2753613D01*
X6647047Y2736783D01*
X6672590Y2726203D01*
X6687501Y2724240D01*
Y2816004D01*
D02*
G37*
G36*
X4970000Y2365000D02*
X4892503D01*
Y2307497D01*
X4970000D01*
Y2365000D01*
D02*
G37*
G36*
X4867504D02*
X4790000D01*
Y2307497D01*
X4867504D01*
Y2365000D01*
D02*
G37*
G36*
X4562496Y2329261D02*
Y2237500D01*
X4654260D01*
X4652297Y2252410D01*
X4641717Y2277953D01*
X4624887Y2299887D01*
X4602953Y2316717D01*
X4577410Y2327297D01*
X4562496Y2329261D01*
D02*
G37*
G36*
X4537496Y2329260D02*
X4522590Y2327297D01*
X4497047Y2316717D01*
X4475113Y2299887D01*
X4458283Y2277953D01*
X4447703Y2252410D01*
X4445740Y2237500D01*
X4537496D01*
Y2329260D01*
D02*
G37*
G36*
X4970000Y2282498D02*
X4892503D01*
Y2225000D01*
X4970000D01*
Y2282498D01*
D02*
G37*
G36*
X4867504D02*
X4790000D01*
Y2225000D01*
X4867504D01*
Y2282498D01*
D02*
G37*
G36*
X6325607Y2222498D02*
X6242499D01*
Y2179393D01*
X6294000D01*
X6306095Y2181799D01*
X6316350Y2188650D01*
X6323201Y2198905D01*
X6325607Y2211000D01*
Y2222498D01*
D02*
G37*
G36*
X6217499D02*
X6134393D01*
Y2211000D01*
X6136799Y2198905D01*
X6143650Y2188650D01*
X6153905Y2181799D01*
X6166000Y2179393D01*
X6217499D01*
Y2222498D01*
D02*
G37*
G36*
X4537496Y2212500D02*
X4445740D01*
X4447703Y2197589D01*
X4458283Y2172047D01*
X4475113Y2150113D01*
X4497047Y2133283D01*
X4522590Y2122703D01*
X4537496Y2120740D01*
Y2212500D01*
D02*
G37*
G36*
X4654260D02*
X4562496D01*
Y2120739D01*
X4577410Y2122703D01*
X4602953Y2133283D01*
X4624887Y2150113D01*
X4641717Y2172047D01*
X4652297Y2197589D01*
X4654260Y2212500D01*
D02*
G37*
G36*
X6089000Y2050607D02*
X6037503D01*
Y2007498D01*
X6120607D01*
Y2019000D01*
X6118201Y2031095D01*
X6111350Y2041349D01*
X6101095Y2048201D01*
X6089000Y2050607D01*
D02*
G37*
G36*
X6012503D02*
X5961000D01*
X5948905Y2048201D01*
X5938651Y2041349D01*
X5931799Y2031095D01*
X5929393Y2019000D01*
Y2007498D01*
X6012503D01*
Y2050607D01*
D02*
G37*
G36*
X4562496Y2075261D02*
Y1983500D01*
X4654260D01*
X4652297Y1998410D01*
X4641717Y2023953D01*
X4624887Y2045887D01*
X4602953Y2062717D01*
X4577410Y2073297D01*
X4562496Y2075261D01*
D02*
G37*
G36*
X4537496Y2075260D02*
X4522590Y2073297D01*
X4497047Y2062717D01*
X4475113Y2045887D01*
X4458283Y2023953D01*
X4447703Y1998410D01*
X4445740Y1983500D01*
X4537496D01*
Y2075260D01*
D02*
G37*
G36*
X6700000Y2167363D02*
X6673895Y2163926D01*
X6649569Y2153850D01*
X6628679Y2137821D01*
X6612650Y2116931D01*
X6602574Y2092605D01*
X6599137Y2066500D01*
X6602574Y2040395D01*
X6612650Y2016069D01*
X6628679Y1995179D01*
X6649569Y1979150D01*
X6673895Y1969074D01*
X6700000Y1965637D01*
X6726105Y1969074D01*
X6750432Y1979150D01*
X6771321Y1995179D01*
X6787350Y2016069D01*
X6797426Y2040395D01*
X6800863Y2066500D01*
X6797426Y2092605D01*
X6787350Y2116931D01*
X6771321Y2137821D01*
X6750432Y2153850D01*
X6726105Y2163926D01*
X6700000Y2167363D01*
D02*
G37*
G36*
X4537496Y1958500D02*
X4445740D01*
X4447703Y1943589D01*
X4458283Y1918047D01*
X4475113Y1896113D01*
X4497047Y1879283D01*
X4522590Y1868703D01*
X4537496Y1866740D01*
Y1958500D01*
D02*
G37*
G36*
X4654260D02*
X4562496D01*
Y1866739D01*
X4577410Y1868703D01*
X4602953Y1879283D01*
X4624887Y1896113D01*
X4641717Y1918047D01*
X4652297Y1943589D01*
X4654260Y1958500D01*
D02*
G37*
G36*
X5310000Y1385000D02*
X5190000D01*
Y1265000D01*
X5219412D01*
Y1180000D01*
X5167500D01*
Y1020000D01*
X5332500D01*
Y1180000D01*
X5280588D01*
Y1265000D01*
X5310000D01*
Y1385000D01*
D02*
G37*
G36*
X5060000D02*
X4940000D01*
Y1265000D01*
X4969412D01*
Y1180000D01*
X4917500D01*
Y1020000D01*
X5082500D01*
Y1180000D01*
X5030588D01*
Y1265000D01*
X5060000D01*
Y1385000D01*
D02*
G37*
G36*
X4810000D02*
X4690000D01*
Y1265000D01*
X4719412D01*
Y1180000D01*
X4667500D01*
Y1020000D01*
X4832500D01*
Y1180000D01*
X4780588D01*
Y1265000D01*
X4810000D01*
Y1385000D01*
D02*
G37*
G36*
X4560000D02*
X4440000D01*
Y1265000D01*
X4469412D01*
Y1180000D01*
X4417500D01*
Y1020000D01*
X4582500D01*
Y1180000D01*
X4530588D01*
Y1265000D01*
X4560000D01*
Y1385000D01*
D02*
G37*
G36*
X934000Y1025607D02*
X882496D01*
Y982501D01*
X965607D01*
Y994000D01*
X963201Y1006095D01*
X956350Y1016350D01*
X946095Y1023201D01*
X934000Y1025607D01*
D02*
G37*
G36*
X857496D02*
X806000D01*
X793905Y1023201D01*
X783650Y1016350D01*
X776799Y1006095D01*
X774393Y994000D01*
Y982501D01*
X857496D01*
Y1025607D01*
D02*
G37*
G36*
X4837500Y945000D02*
X4762505D01*
Y872502D01*
X4837500D01*
Y945000D01*
D02*
G37*
G36*
X4737506D02*
X4662500D01*
Y872502D01*
X4737506D01*
Y945000D01*
D02*
G37*
G36*
X4587500D02*
X4512504D01*
Y872501D01*
X4587500D01*
Y945000D01*
D02*
G37*
G36*
X4487505D02*
X4412500D01*
Y872501D01*
X4487505D01*
Y945000D01*
D02*
G37*
G36*
X5487501D02*
X5412500D01*
Y872497D01*
X5487501D01*
Y945000D01*
D02*
G37*
G36*
X5337500D02*
X5262499D01*
Y872496D01*
X5337500D01*
Y945000D01*
D02*
G37*
G36*
X5237500D02*
X5162500D01*
Y872496D01*
X5237500D01*
Y945000D01*
D02*
G37*
G36*
X5087500D02*
X5012498D01*
Y872495D01*
X5087500D01*
Y945000D01*
D02*
G37*
G36*
X4987499D02*
X4912500D01*
Y872495D01*
X4987499D01*
Y945000D01*
D02*
G37*
G36*
X5487501Y847497D02*
X5412500D01*
Y775000D01*
X5487501D01*
Y847497D01*
D02*
G37*
G36*
X5337500Y847496D02*
X5262499D01*
Y775000D01*
X5337500D01*
Y847496D01*
D02*
G37*
G36*
X5237500D02*
X5162500D01*
Y775000D01*
X5237500D01*
Y847496D01*
D02*
G37*
G36*
X5087500Y847495D02*
X5012498D01*
Y775000D01*
X5087500D01*
Y847495D01*
D02*
G37*
G36*
X4987499D02*
X4912500D01*
Y775000D01*
X4987499D01*
Y847495D01*
D02*
G37*
G36*
X4837500Y847502D02*
X4762505D01*
Y775000D01*
X4837500D01*
Y847502D01*
D02*
G37*
G36*
X4737506D02*
X4662500D01*
Y775000D01*
X4737506D01*
Y847502D01*
D02*
G37*
G36*
X4587500Y847501D02*
X4512504D01*
Y775000D01*
X4587500D01*
Y847501D01*
D02*
G37*
G36*
X4487505D02*
X4412500D01*
Y775000D01*
X4487505D01*
Y847501D01*
D02*
G37*
G36*
X3890000Y690000D02*
X3832496D01*
Y612499D01*
X3890000D01*
Y690000D01*
D02*
G37*
G36*
X3807496D02*
X3750000D01*
Y612499D01*
X3807496D01*
Y690000D01*
D02*
G37*
G36*
X934000Y830509D02*
X806000D01*
X795855Y828491D01*
X787255Y822745D01*
X781509Y814145D01*
X779491Y804000D01*
Y756000D01*
X781509Y745855D01*
X787255Y737255D01*
X795855Y731509D01*
X806000Y729491D01*
X885614D01*
Y698700D01*
X885936Y697084D01*
X883481Y693411D01*
X878825Y670000D01*
X883481Y646589D01*
X896742Y626742D01*
X916589Y613481D01*
X940000Y608825D01*
X957032Y612212D01*
X959491Y599849D01*
Y571000D01*
X961509Y560855D01*
X967255Y552255D01*
X975855Y546508D01*
X986000Y544491D01*
X1114000D01*
X1124145Y546508D01*
X1132745Y552255D01*
X1138491Y560855D01*
X1140509Y571000D01*
Y619000D01*
X1138491Y629145D01*
X1132745Y637745D01*
X1124145Y643491D01*
X1114000Y645509D01*
X1022627D01*
X1017933Y652534D01*
X1001058Y669409D01*
X1001175Y670000D01*
X996519Y693411D01*
X983257Y713257D01*
X963411Y726519D01*
X956986Y727797D01*
Y743602D01*
X958491Y745855D01*
X960509Y756000D01*
Y804000D01*
X958491Y814145D01*
X952745Y822745D01*
X944145Y828491D01*
X934000Y830509D01*
D02*
G37*
G36*
X3890000Y587499D02*
X3832496D01*
Y510000D01*
X3890000D01*
Y587499D01*
D02*
G37*
G36*
X3807496D02*
X3750000D01*
Y510000D01*
X3807496D01*
Y587499D01*
D02*
G37*
G36*
X1114000Y460607D02*
X1062499D01*
Y417501D01*
X1145607D01*
Y429000D01*
X1143201Y441095D01*
X1136350Y451350D01*
X1126095Y458201D01*
X1114000Y460607D01*
D02*
G37*
G36*
X3990497Y468261D02*
Y376501D01*
X4082260D01*
X4080297Y391410D01*
X4069717Y416953D01*
X4052887Y438887D01*
X4030953Y455717D01*
X4005411Y466297D01*
X3990497Y468261D01*
D02*
G37*
G36*
X3965497Y468260D02*
X3950590Y466297D01*
X3925047Y455717D01*
X3903113Y438887D01*
X3886283Y416953D01*
X3875703Y391410D01*
X3873740Y376501D01*
X3965497D01*
Y468260D01*
D02*
G37*
G36*
X3470000Y464863D02*
X3443895Y461426D01*
X3419569Y451350D01*
X3398680Y435321D01*
X3382651Y414431D01*
X3372574Y390105D01*
X3369138Y364000D01*
X3372574Y337895D01*
X3382651Y313569D01*
X3398680Y292679D01*
X3419569Y276650D01*
X3443895Y266574D01*
X3470000Y263137D01*
X3496105Y266574D01*
X3520431Y276650D01*
X3541321Y292679D01*
X3557350Y313569D01*
X3567426Y337895D01*
X3570863Y364000D01*
X3567426Y390105D01*
X3557350Y414431D01*
X3541321Y435321D01*
X3520431Y451350D01*
X3496105Y461426D01*
X3470000Y464863D01*
D02*
G37*
G36*
X3216000D02*
X3189895Y461426D01*
X3165569Y451350D01*
X3144680Y435321D01*
X3128651Y414431D01*
X3118574Y390105D01*
X3115138Y364000D01*
X3118574Y337895D01*
X3128651Y313569D01*
X3144680Y292679D01*
X3165569Y276650D01*
X3189895Y266574D01*
X3216000Y263137D01*
X3242105Y266574D01*
X3266431Y276650D01*
X3287321Y292679D01*
X3303350Y313569D01*
X3313426Y337895D01*
X3316863Y364000D01*
X3313426Y390105D01*
X3303350Y414431D01*
X3287321Y435321D01*
X3266431Y451350D01*
X3242105Y461426D01*
X3216000Y464863D01*
D02*
G37*
G36*
X2962000D02*
X2935895Y461426D01*
X2911569Y451350D01*
X2890680Y435321D01*
X2874651Y414431D01*
X2864574Y390105D01*
X2861138Y364000D01*
X2864574Y337895D01*
X2874651Y313569D01*
X2890680Y292679D01*
X2911569Y276650D01*
X2935895Y266574D01*
X2962000Y263137D01*
X2988105Y266574D01*
X3012431Y276650D01*
X3033321Y292679D01*
X3049350Y313569D01*
X3059426Y337895D01*
X3062863Y364000D01*
X3059426Y390105D01*
X3049350Y414431D01*
X3033321Y435321D01*
X3012431Y451350D01*
X2988105Y461426D01*
X2962000Y464863D01*
D02*
G37*
G36*
X2708000D02*
X2681895Y461426D01*
X2657569Y451350D01*
X2636680Y435321D01*
X2620651Y414431D01*
X2610574Y390105D01*
X2607138Y364000D01*
X2610574Y337895D01*
X2620651Y313569D01*
X2636680Y292679D01*
X2657569Y276650D01*
X2681895Y266574D01*
X2708000Y263137D01*
X2734105Y266574D01*
X2758431Y276650D01*
X2779321Y292679D01*
X2795350Y313569D01*
X2805426Y337895D01*
X2808863Y364000D01*
X2805426Y390105D01*
X2795350Y414431D01*
X2779321Y435321D01*
X2758431Y451350D01*
X2734105Y461426D01*
X2708000Y464863D01*
D02*
G37*
G36*
X2454000D02*
X2427895Y461426D01*
X2403569Y451350D01*
X2382680Y435321D01*
X2366651Y414431D01*
X2356574Y390105D01*
X2353138Y364000D01*
X2356574Y337895D01*
X2366651Y313569D01*
X2382680Y292679D01*
X2403569Y276650D01*
X2427895Y266574D01*
X2454000Y263137D01*
X2480105Y266574D01*
X2504431Y276650D01*
X2525321Y292679D01*
X2541350Y313569D01*
X2551426Y337895D01*
X2554863Y364000D01*
X2551426Y390105D01*
X2541350Y414431D01*
X2525321Y435321D01*
X2504431Y451350D01*
X2480105Y461426D01*
X2454000Y464863D01*
D02*
G37*
G36*
X3965497Y351501D02*
X3873740D01*
X3875703Y336590D01*
X3886283Y311047D01*
X3903113Y289113D01*
X3925047Y272283D01*
X3950590Y261703D01*
X3965497Y259740D01*
Y351501D01*
D02*
G37*
G36*
X4082261D02*
X3990497D01*
Y259739D01*
X4005411Y261703D01*
X4030953Y272283D01*
X4052887Y289113D01*
X4069717Y311047D01*
X4080297Y336590D01*
X4082261Y351501D01*
D02*
G37*
G36*
X4407135Y461006D02*
X4371849Y457530D01*
X4337919Y447238D01*
X4306648Y430523D01*
X4279240Y408030D01*
X4256746Y380621D01*
X4240032Y349351D01*
X4229740Y315421D01*
X4226264Y280135D01*
X4229740Y244849D01*
X4240032Y210919D01*
X4256746Y179648D01*
X4279240Y152240D01*
X4306648Y129746D01*
X4337919Y113032D01*
X4371849Y102739D01*
X4407135Y99264D01*
X4442421Y102739D01*
X4476351Y113032D01*
X4507621Y129746D01*
X4535030Y152240D01*
X4557524Y179648D01*
X4574238Y210919D01*
X4584530Y244849D01*
X4588006Y280135D01*
X4584530Y315421D01*
X4574238Y349351D01*
X4557524Y380621D01*
X4535030Y408030D01*
X4507621Y430523D01*
X4476351Y447238D01*
X4442421Y457530D01*
X4407135Y461006D01*
D02*
G37*
G36*
X4787498Y8137500D02*
X4695740D01*
X4697703Y8122590D01*
X4708283Y8097047D01*
X4725113Y8075113D01*
X4747047Y8058283D01*
X4772590Y8047703D01*
X4787498Y8045740D01*
Y8137500D01*
D02*
G37*
G36*
X3965500Y8137503D02*
X3873740D01*
X3875703Y8122590D01*
X3886283Y8097047D01*
X3903113Y8075113D01*
X3925047Y8058283D01*
X3950590Y8047703D01*
X3965500Y8045740D01*
Y8137503D01*
D02*
G37*
G36*
X4082261D02*
X3990499D01*
Y8045740D01*
X4005411Y8047703D01*
X4030953Y8058283D01*
X4052887Y8075113D01*
X4069717Y8097047D01*
X4080297Y8122590D01*
X4082261Y8137503D01*
D02*
G37*
G36*
X4904260Y8137500D02*
X4812498D01*
Y8045740D01*
X4827410Y8047703D01*
X4852953Y8058283D01*
X4874887Y8075113D01*
X4891717Y8097047D01*
X4902297Y8122590D01*
X4904260Y8137500D01*
D02*
G37*
G36*
X5025000Y7940000D02*
X4967500D01*
Y7862500D01*
X5025000D01*
Y7940000D01*
D02*
G37*
G36*
X4942500D02*
X4885000D01*
Y7862500D01*
X4942500D01*
Y7940000D01*
D02*
G37*
G36*
X5025000Y7837500D02*
X4967500D01*
Y7760000D01*
X5025000D01*
Y7837500D01*
D02*
G37*
G36*
X4942500D02*
X4885000D01*
Y7760000D01*
X4942500D01*
Y7837500D01*
D02*
G37*
G36*
X3237498Y6950000D02*
X3185000D01*
Y6897502D01*
X3237498D01*
Y6950000D01*
D02*
G37*
G36*
X3315000Y6872503D02*
X3262497D01*
Y6820000D01*
X3315000D01*
Y6872503D01*
D02*
G37*
G36*
X3237498D02*
X3185000D01*
Y6820000D01*
X3237498D01*
Y6872503D01*
D02*
G37*
G36*
X3565000Y6850000D02*
X3462506D01*
Y6712497D01*
X3565000D01*
Y6850000D01*
D02*
G37*
G36*
X3437506D02*
X3335000D01*
Y6712497D01*
X3437506D01*
Y6850000D01*
D02*
G37*
G36*
X3565000Y6687497D02*
X3462506D01*
Y6550000D01*
X3565000D01*
Y6687497D01*
D02*
G37*
G36*
X3437506D02*
X3335000D01*
Y6550000D01*
X3437506D01*
Y6687497D01*
D02*
G37*
G36*
X3990000Y6207496D02*
X3932494D01*
Y6129998D01*
X3990000D01*
Y6207496D01*
D02*
G37*
G36*
Y6104998D02*
X3932494D01*
Y6027497D01*
X3990000D01*
Y6104998D01*
D02*
G37*
G36*
X3990499Y5968260D02*
Y5876503D01*
X4082260D01*
X4080297Y5891410D01*
X4069717Y5916953D01*
X4052887Y5938887D01*
X4030953Y5955717D01*
X4005411Y5966297D01*
X3990499Y5968260D01*
D02*
G37*
G36*
X3216000Y5964863D02*
X3189895Y5961426D01*
X3165569Y5951350D01*
X3144680Y5935321D01*
X3128651Y5914431D01*
X3118574Y5890105D01*
X3115138Y5864000D01*
X3118574Y5837895D01*
X3128651Y5813569D01*
X3144680Y5792679D01*
X3165569Y5776650D01*
X3189895Y5766574D01*
X3216000Y5763137D01*
X3242105Y5766574D01*
X3266432Y5776650D01*
X3287321Y5792679D01*
X3303350Y5813569D01*
X3313426Y5837895D01*
X3316863Y5864000D01*
X3313426Y5890105D01*
X3303350Y5914431D01*
X3287321Y5935321D01*
X3266432Y5951350D01*
X3242105Y5961426D01*
X3216000Y5964863D01*
D02*
G37*
G36*
X2962000D02*
X2935895Y5961426D01*
X2911569Y5951350D01*
X2890680Y5935321D01*
X2874651Y5914431D01*
X2864574Y5890105D01*
X2861138Y5864000D01*
X2864574Y5837895D01*
X2874651Y5813569D01*
X2890680Y5792679D01*
X2911569Y5776650D01*
X2935895Y5766574D01*
X2962000Y5763137D01*
X2988105Y5766574D01*
X3012432Y5776650D01*
X3033321Y5792679D01*
X3049350Y5813569D01*
X3059426Y5837895D01*
X3062863Y5864000D01*
X3059426Y5890105D01*
X3049350Y5914431D01*
X3033321Y5935321D01*
X3012432Y5951350D01*
X2988105Y5961426D01*
X2962000Y5964863D01*
D02*
G37*
G36*
X2708000D02*
X2681895Y5961426D01*
X2657569Y5951350D01*
X2636680Y5935321D01*
X2620651Y5914431D01*
X2610574Y5890105D01*
X2607138Y5864000D01*
X2610574Y5837895D01*
X2620651Y5813569D01*
X2636680Y5792679D01*
X2657569Y5776650D01*
X2681895Y5766574D01*
X2708000Y5763137D01*
X2734105Y5766574D01*
X2758432Y5776650D01*
X2779321Y5792679D01*
X2795350Y5813569D01*
X2805426Y5837895D01*
X2808863Y5864000D01*
X2805426Y5890105D01*
X2795350Y5914431D01*
X2779321Y5935321D01*
X2758432Y5951350D01*
X2734105Y5961426D01*
X2708000Y5964863D01*
D02*
G37*
G36*
X2454000D02*
X2427895Y5961426D01*
X2403569Y5951350D01*
X2382680Y5935321D01*
X2366651Y5914431D01*
X2356574Y5890105D01*
X2353138Y5864000D01*
X2356574Y5837895D01*
X2366651Y5813569D01*
X2382680Y5792679D01*
X2403569Y5776650D01*
X2427895Y5766574D01*
X2454000Y5763137D01*
X2480105Y5766574D01*
X2504432Y5776650D01*
X2525321Y5792679D01*
X2541350Y5813569D01*
X2551426Y5837895D01*
X2554863Y5864000D01*
X2551426Y5890105D01*
X2541350Y5914431D01*
X2525321Y5935321D01*
X2504432Y5951350D01*
X2480105Y5961426D01*
X2454000Y5964863D01*
D02*
G37*
G36*
X2200000D02*
X2173895Y5961426D01*
X2149569Y5951350D01*
X2128680Y5935321D01*
X2112651Y5914431D01*
X2102574Y5890105D01*
X2099138Y5864000D01*
X2102574Y5837895D01*
X2112651Y5813569D01*
X2128680Y5792679D01*
X2149569Y5776650D01*
X2173895Y5766574D01*
X2200000Y5763137D01*
X2226105Y5766574D01*
X2250432Y5776650D01*
X2271321Y5792679D01*
X2287350Y5813569D01*
X2297426Y5837895D01*
X2300863Y5864000D01*
X2297426Y5890105D01*
X2287350Y5914431D01*
X2271321Y5935321D01*
X2250432Y5951350D01*
X2226105Y5961426D01*
X2200000Y5964863D01*
D02*
G37*
G36*
X4082261Y5851503D02*
X3990499D01*
Y5759740D01*
X4005411Y5761703D01*
X4030953Y5772283D01*
X4052887Y5789113D01*
X4069717Y5811047D01*
X4080297Y5836590D01*
X4082261Y5851503D01*
D02*
G37*
G36*
X3990496Y5504261D02*
Y5412500D01*
X4082260D01*
X4080297Y5427410D01*
X4069717Y5452953D01*
X4052887Y5474887D01*
X4030953Y5491717D01*
X4005411Y5502297D01*
X3990496Y5504261D01*
D02*
G37*
G36*
X3965497Y5504260D02*
X3950590Y5502297D01*
X3925047Y5491717D01*
X3903113Y5474887D01*
X3886283Y5452953D01*
X3875703Y5427410D01*
X3873740Y5412500D01*
X3965497D01*
Y5504260D01*
D02*
G37*
G36*
X3724000Y5500863D02*
X3697895Y5497426D01*
X3673569Y5487349D01*
X3652680Y5471321D01*
X3636651Y5450431D01*
X3626574Y5426105D01*
X3623138Y5400000D01*
X3626574Y5373895D01*
X3636651Y5349569D01*
X3652680Y5328679D01*
X3673569Y5312650D01*
X3697895Y5302574D01*
X3724000Y5299137D01*
X3750105Y5302574D01*
X3774432Y5312650D01*
X3795321Y5328679D01*
X3811350Y5349569D01*
X3821426Y5373895D01*
X3824863Y5400000D01*
X3821426Y5426105D01*
X3811350Y5450431D01*
X3795321Y5471321D01*
X3774432Y5487349D01*
X3750105Y5497426D01*
X3724000Y5500863D01*
D02*
G37*
G36*
X3470000D02*
X3443895Y5497426D01*
X3419569Y5487349D01*
X3398680Y5471321D01*
X3382651Y5450431D01*
X3372574Y5426105D01*
X3369138Y5400000D01*
X3372574Y5373895D01*
X3382651Y5349569D01*
X3398680Y5328679D01*
X3419569Y5312650D01*
X3443895Y5302574D01*
X3470000Y5299137D01*
X3496105Y5302574D01*
X3520432Y5312650D01*
X3541321Y5328679D01*
X3557350Y5349569D01*
X3567426Y5373895D01*
X3570863Y5400000D01*
X3567426Y5426105D01*
X3557350Y5450431D01*
X3541321Y5471321D01*
X3520432Y5487349D01*
X3496105Y5497426D01*
X3470000Y5500863D01*
D02*
G37*
G36*
X3216000D02*
X3189895Y5497426D01*
X3165569Y5487349D01*
X3144680Y5471321D01*
X3128651Y5450431D01*
X3118574Y5426105D01*
X3115138Y5400000D01*
X3118574Y5373895D01*
X3128651Y5349569D01*
X3144680Y5328679D01*
X3165569Y5312650D01*
X3189895Y5302574D01*
X3216000Y5299137D01*
X3242105Y5302574D01*
X3266432Y5312650D01*
X3287321Y5328679D01*
X3303350Y5349569D01*
X3313426Y5373895D01*
X3316863Y5400000D01*
X3313426Y5426105D01*
X3303350Y5450431D01*
X3287321Y5471321D01*
X3266432Y5487349D01*
X3242105Y5497426D01*
X3216000Y5500863D01*
D02*
G37*
G36*
X2454000D02*
X2427895Y5497426D01*
X2403569Y5487349D01*
X2382680Y5471321D01*
X2366651Y5450431D01*
X2356574Y5426105D01*
X2353138Y5400000D01*
X2356574Y5373895D01*
X2366651Y5349569D01*
X2382680Y5328679D01*
X2403569Y5312650D01*
X2427895Y5302574D01*
X2454000Y5299137D01*
X2480105Y5302574D01*
X2504432Y5312650D01*
X2525321Y5328679D01*
X2541350Y5349569D01*
X2551426Y5373895D01*
X2554863Y5400000D01*
X2551426Y5426105D01*
X2541350Y5450431D01*
X2525321Y5471321D01*
X2504432Y5487349D01*
X2480105Y5497426D01*
X2454000Y5500863D01*
D02*
G37*
G36*
X2200000D02*
X2173895Y5497426D01*
X2149569Y5487349D01*
X2128680Y5471321D01*
X2112651Y5450431D01*
X2102574Y5426105D01*
X2099138Y5400000D01*
X2102574Y5373895D01*
X2112651Y5349569D01*
X2128680Y5328679D01*
X2149569Y5312650D01*
X2173895Y5302574D01*
X2200000Y5299137D01*
X2226105Y5302574D01*
X2250432Y5312650D01*
X2271321Y5328679D01*
X2287350Y5349569D01*
X2297426Y5373895D01*
X2300863Y5400000D01*
X2297426Y5426105D01*
X2287350Y5450431D01*
X2271321Y5471321D01*
X2250432Y5487349D01*
X2226105Y5497426D01*
X2200000Y5500863D01*
D02*
G37*
G36*
X3965497Y5387500D02*
X3873740D01*
X3875703Y5372589D01*
X3886283Y5347047D01*
X3903113Y5325113D01*
X3925047Y5308283D01*
X3950590Y5297703D01*
X3965497Y5295740D01*
Y5387500D01*
D02*
G37*
G36*
X4082260D02*
X3990496D01*
Y5295739D01*
X4005411Y5297703D01*
X4030953Y5308283D01*
X4052887Y5325113D01*
X4069717Y5347047D01*
X4080297Y5372589D01*
X4082260Y5387500D01*
D02*
G37*
G36*
X4612500Y5377260D02*
Y5285497D01*
X4704261D01*
X4702297Y5300410D01*
X4691717Y5325953D01*
X4674887Y5347887D01*
X4652953Y5364717D01*
X4627411Y5375297D01*
X4612500Y5377260D01*
D02*
G37*
G36*
X4587500Y5377260D02*
X4572590Y5375297D01*
X4547047Y5364717D01*
X4525113Y5347887D01*
X4508283Y5325953D01*
X4497703Y5300410D01*
X4495740Y5285497D01*
X4587500D01*
Y5377260D01*
D02*
G37*
G36*
Y5260497D02*
X4495740D01*
X4497703Y5245589D01*
X4508283Y5220047D01*
X4525113Y5198113D01*
X4547047Y5181283D01*
X4572590Y5170703D01*
X4587500Y5168740D01*
Y5260497D01*
D02*
G37*
G36*
X4704260D02*
X4612500D01*
Y5168739D01*
X4627411Y5170703D01*
X4652953Y5181283D01*
X4674887Y5198113D01*
X4691717Y5220047D01*
X4702297Y5245589D01*
X4704260Y5260497D01*
D02*
G37*
G36*
X5040000Y4875000D02*
X4962501D01*
Y4817499D01*
X5040000D01*
Y4875000D01*
D02*
G37*
G36*
X4937501D02*
X4860000D01*
Y4817499D01*
X4937501D01*
Y4875000D01*
D02*
G37*
G36*
X4612500Y4869260D02*
Y4777497D01*
X4704261D01*
X4702297Y4792410D01*
X4691717Y4817953D01*
X4674887Y4839887D01*
X4652953Y4856717D01*
X4627411Y4867297D01*
X4612500Y4869260D01*
D02*
G37*
G36*
X5040000Y4792499D02*
X4962501D01*
Y4735000D01*
X5040000D01*
Y4792499D01*
D02*
G37*
G36*
X4937501D02*
X4860000D01*
Y4735000D01*
X4937501D01*
Y4792499D01*
D02*
G37*
G36*
X2565000Y4740000D02*
X2512502D01*
Y4687503D01*
X2565000D01*
Y4740000D01*
D02*
G37*
G36*
X2487502D02*
X2435000D01*
Y4687503D01*
X2487502D01*
Y4740000D01*
D02*
G37*
G36*
X2565000Y4662504D02*
X2512502D01*
Y4610000D01*
X2565000D01*
Y4662504D01*
D02*
G37*
G36*
X2487502D02*
X2435000D01*
Y4610000D01*
X2487502D01*
Y4662504D01*
D02*
G37*
G36*
X3700000Y4577496D02*
X3562500D01*
Y4475000D01*
X3700000D01*
Y4577496D01*
D02*
G37*
G36*
X3537500D02*
X3400000D01*
Y4475000D01*
X3537500D01*
Y4577496D01*
D02*
G37*
G36*
X4196411Y6849992D02*
X4093910D01*
Y6712489D01*
X4196411D01*
Y6849992D01*
D02*
G37*
G36*
X4068910D02*
X3966412D01*
Y6712489D01*
X4068910D01*
Y6849992D01*
D02*
G37*
G36*
X4196411Y6687489D02*
X4093910D01*
Y6549992D01*
X4196411D01*
Y6687489D01*
D02*
G37*
G36*
X4068910D02*
X3966412D01*
Y6549992D01*
X4068910D01*
Y6687489D01*
D02*
G37*
G36*
X3800000Y6207496D02*
X3742493D01*
Y6129998D01*
X3800000D01*
Y6207496D01*
D02*
G37*
G36*
X3717493D02*
X3660000D01*
Y6129998D01*
X3717493D01*
Y6207496D01*
D02*
G37*
G36*
X3800000Y6104998D02*
X3742493D01*
Y6027497D01*
X3800000D01*
Y6104998D01*
D02*
G37*
G36*
X3717493D02*
X3660000D01*
Y6027497D01*
X3717493D01*
Y6104998D01*
D02*
G37*
G36*
X3736499Y5968260D02*
Y5876503D01*
X3828260D01*
X3826297Y5891410D01*
X3815717Y5916953D01*
X3798887Y5938887D01*
X3776953Y5955717D01*
X3751411Y5966297D01*
X3736499Y5968260D01*
D02*
G37*
G36*
X3711500Y5968260D02*
X3696590Y5966297D01*
X3671047Y5955717D01*
X3649113Y5938887D01*
X3632283Y5916953D01*
X3621703Y5891410D01*
X3619740Y5876503D01*
X3711500D01*
Y5968260D01*
D02*
G37*
G36*
Y5851503D02*
X3619740D01*
X3621703Y5836590D01*
X3632283Y5811047D01*
X3649113Y5789113D01*
X3671047Y5772283D01*
X3696590Y5761703D01*
X3711500Y5759740D01*
Y5851503D01*
D02*
G37*
G36*
X3828261D02*
X3736499D01*
Y5759740D01*
X3751411Y5761703D01*
X3776953Y5772283D01*
X3798887Y5789113D01*
X3815717Y5811047D01*
X3826297Y5836590D01*
X3828261Y5851503D01*
D02*
G37*
G36*
X1104835Y5667841D02*
X1069549Y5664365D01*
X1035619Y5654073D01*
X1004349Y5637359D01*
X976940Y5614865D01*
X954446Y5587456D01*
X937732Y5556186D01*
X927440Y5522256D01*
X923964Y5486970D01*
X927440Y5451684D01*
X937732Y5417754D01*
X954446Y5386484D01*
X976940Y5359075D01*
X1004349Y5336581D01*
X1035619Y5319867D01*
X1069549Y5309575D01*
X1104835Y5306099D01*
X1140121Y5309575D01*
X1174051Y5319867D01*
X1205321Y5336581D01*
X1232730Y5359075D01*
X1255224Y5386484D01*
X1271938Y5417754D01*
X1282230Y5451684D01*
X1285706Y5486970D01*
X1282230Y5522256D01*
X1271938Y5556186D01*
X1255224Y5587456D01*
X1232730Y5614865D01*
X1205321Y5637359D01*
X1174051Y5654073D01*
X1140121Y5664365D01*
X1104835Y5667841D01*
D02*
G37*
G36*
X1709000Y4900607D02*
X1657500D01*
Y4857504D01*
X1740607D01*
Y4869000D01*
X1738201Y4881096D01*
X1731350Y4891350D01*
X1721095Y4898202D01*
X1709000Y4900607D01*
D02*
G37*
G36*
X1632500D02*
X1581000D01*
X1568905Y4898202D01*
X1558650Y4891350D01*
X1551799Y4881096D01*
X1549393Y4869000D01*
Y4857504D01*
X1632500D01*
Y4900607D01*
D02*
G37*
G36*
X1740607Y4832504D02*
X1657500D01*
Y4789393D01*
X1709000D01*
X1721095Y4791799D01*
X1731350Y4798651D01*
X1738201Y4808905D01*
X1740607Y4821000D01*
Y4832504D01*
D02*
G37*
G36*
X1632500D02*
X1549393D01*
Y4821000D01*
X1551799Y4808905D01*
X1558650Y4798651D01*
X1568905Y4791799D01*
X1581000Y4789393D01*
X1632500D01*
Y4832504D01*
D02*
G37*
G36*
X1089000Y4900607D02*
X1037496D01*
Y4857500D01*
X1120607D01*
Y4869000D01*
X1118201Y4881096D01*
X1111350Y4891350D01*
X1101095Y4898202D01*
X1089000Y4900607D01*
D02*
G37*
G36*
X1012497D02*
X961000D01*
X948905Y4898202D01*
X938650Y4891350D01*
X931799Y4881096D01*
X929393Y4869000D01*
Y4857500D01*
X1012497D01*
Y4900607D01*
D02*
G37*
G36*
X1120607Y4832500D02*
X1037496D01*
Y4789393D01*
X1089000D01*
X1101095Y4791799D01*
X1111350Y4798651D01*
X1118201Y4808905D01*
X1120607Y4821000D01*
Y4832500D01*
D02*
G37*
G36*
X1012497D02*
X929393D01*
Y4821000D01*
X931799Y4808905D01*
X938650Y4798651D01*
X948905Y4791799D01*
X961000Y4789393D01*
X1012497D01*
Y4832500D01*
D02*
G37*
G36*
X4562496Y3345261D02*
Y3253500D01*
X4654260D01*
X4652297Y3268410D01*
X4641717Y3293953D01*
X4624887Y3315887D01*
X4602953Y3332717D01*
X4577410Y3343297D01*
X4562496Y3345261D01*
D02*
G37*
G36*
X4537496Y3345260D02*
X4522590Y3343297D01*
X4497047Y3332717D01*
X4475113Y3315887D01*
X4458283Y3293953D01*
X4447703Y3268410D01*
X4445740Y3253500D01*
X4537496D01*
Y3345260D01*
D02*
G37*
G36*
Y3228500D02*
X4445740D01*
X4447703Y3213589D01*
X4458283Y3188047D01*
X4475113Y3166113D01*
X4497047Y3149283D01*
X4522590Y3138703D01*
X4537496Y3136740D01*
Y3228500D01*
D02*
G37*
G36*
X4654260D02*
X4562496D01*
Y3136739D01*
X4577410Y3138703D01*
X4602953Y3149283D01*
X4624887Y3166113D01*
X4641717Y3188047D01*
X4652297Y3213589D01*
X4654260Y3228500D01*
D02*
G37*
G36*
X1072500Y4180000D02*
X907500D01*
Y4020000D01*
X1072500D01*
Y4024314D01*
X1110000D01*
Y4000000D01*
X1230000D01*
Y4120000D01*
X1110000D01*
Y4095686D01*
X1072500D01*
Y4180000D01*
D02*
G37*
G36*
X1235000Y3965000D02*
X1182502D01*
Y3912498D01*
X1235000D01*
Y3965000D01*
D02*
G37*
G36*
X1157502D02*
X1105000D01*
Y3912498D01*
X1157502D01*
Y3965000D01*
D02*
G37*
G36*
X890000Y3705000D02*
X812500D01*
Y3647498D01*
X890000D01*
Y3705000D01*
D02*
G37*
G36*
Y3622498D02*
X812500D01*
Y3565000D01*
X890000D01*
Y3622498D01*
D02*
G37*
G36*
X3699992Y4073588D02*
X3562492D01*
Y3971085D01*
X3699992D01*
Y4073588D01*
D02*
G37*
G36*
X3537492D02*
X3399992D01*
Y3971085D01*
X3537492D01*
Y4073588D01*
D02*
G37*
G36*
X3699992Y3946085D02*
X3562492D01*
Y3843589D01*
X3699992D01*
Y3946085D01*
D02*
G37*
G36*
X3537492D02*
X3399992D01*
Y3843589D01*
X3537492D01*
Y3946085D01*
D02*
G37*
G36*
X3915000Y3440000D02*
X3857499D01*
Y3362497D01*
X3915000D01*
Y3440000D01*
D02*
G37*
G36*
X3832499D02*
X3775000D01*
Y3362497D01*
X3832499D01*
Y3440000D01*
D02*
G37*
G36*
X3915000Y3337498D02*
X3857499D01*
Y3260000D01*
X3915000D01*
Y3337498D01*
D02*
G37*
G36*
X3832499D02*
X3775000D01*
Y3260000D01*
X3832499D01*
Y3337498D01*
D02*
G37*
G36*
X3990496Y3218261D02*
Y3126500D01*
X4082260D01*
X4080297Y3141410D01*
X4069717Y3166953D01*
X4052887Y3188887D01*
X4030953Y3205717D01*
X4005411Y3216297D01*
X3990496Y3218261D01*
D02*
G37*
G36*
X3965497Y3218260D02*
X3950590Y3216297D01*
X3925047Y3205717D01*
X3903113Y3188887D01*
X3886283Y3166953D01*
X3875703Y3141410D01*
X3873740Y3126500D01*
X3965497D01*
Y3218260D01*
D02*
G37*
G36*
X3470000Y3214863D02*
X3443895Y3211426D01*
X3419569Y3201349D01*
X3398680Y3185321D01*
X3382651Y3164431D01*
X3372574Y3140105D01*
X3369138Y3114000D01*
X3372574Y3087895D01*
X3382651Y3063569D01*
X3398680Y3042679D01*
X3419569Y3026650D01*
X3443895Y3016574D01*
X3470000Y3013137D01*
X3496105Y3016574D01*
X3520432Y3026650D01*
X3541321Y3042679D01*
X3557350Y3063569D01*
X3567426Y3087895D01*
X3570863Y3114000D01*
X3567426Y3140105D01*
X3557350Y3164431D01*
X3541321Y3185321D01*
X3520432Y3201349D01*
X3496105Y3211426D01*
X3470000Y3214863D01*
D02*
G37*
G36*
X3216000D02*
X3189895Y3211426D01*
X3165569Y3201349D01*
X3144680Y3185321D01*
X3128651Y3164431D01*
X3118574Y3140105D01*
X3115138Y3114000D01*
X3118574Y3087895D01*
X3128651Y3063569D01*
X3144680Y3042679D01*
X3165569Y3026650D01*
X3189895Y3016574D01*
X3216000Y3013137D01*
X3242105Y3016574D01*
X3266432Y3026650D01*
X3287321Y3042679D01*
X3303350Y3063569D01*
X3313426Y3087895D01*
X3316863Y3114000D01*
X3313426Y3140105D01*
X3303350Y3164431D01*
X3287321Y3185321D01*
X3266432Y3201349D01*
X3242105Y3211426D01*
X3216000Y3214863D01*
D02*
G37*
G36*
X2962000D02*
X2935895Y3211426D01*
X2911569Y3201349D01*
X2890680Y3185321D01*
X2874651Y3164431D01*
X2864574Y3140105D01*
X2861138Y3114000D01*
X2864574Y3087895D01*
X2874651Y3063569D01*
X2890680Y3042679D01*
X2911569Y3026650D01*
X2935895Y3016574D01*
X2962000Y3013137D01*
X2988105Y3016574D01*
X3012432Y3026650D01*
X3033321Y3042679D01*
X3049350Y3063569D01*
X3059426Y3087895D01*
X3062863Y3114000D01*
X3059426Y3140105D01*
X3049350Y3164431D01*
X3033321Y3185321D01*
X3012432Y3201349D01*
X2988105Y3211426D01*
X2962000Y3214863D01*
D02*
G37*
G36*
X2708000D02*
X2681895Y3211426D01*
X2657569Y3201349D01*
X2636680Y3185321D01*
X2620651Y3164431D01*
X2610574Y3140105D01*
X2607138Y3114000D01*
X2610574Y3087895D01*
X2620651Y3063569D01*
X2636680Y3042679D01*
X2657569Y3026650D01*
X2681895Y3016574D01*
X2708000Y3013137D01*
X2734105Y3016574D01*
X2758432Y3026650D01*
X2779321Y3042679D01*
X2795350Y3063569D01*
X2805426Y3087895D01*
X2808863Y3114000D01*
X2805426Y3140105D01*
X2795350Y3164431D01*
X2779321Y3185321D01*
X2758432Y3201349D01*
X2734105Y3211426D01*
X2708000Y3214863D01*
D02*
G37*
G36*
X2454000D02*
X2427895Y3211426D01*
X2403569Y3201349D01*
X2382680Y3185321D01*
X2366651Y3164431D01*
X2356574Y3140105D01*
X2353138Y3114000D01*
X2356574Y3087895D01*
X2366651Y3063569D01*
X2382680Y3042679D01*
X2403569Y3026650D01*
X2427895Y3016574D01*
X2454000Y3013137D01*
X2480105Y3016574D01*
X2504432Y3026650D01*
X2525321Y3042679D01*
X2541350Y3063569D01*
X2551426Y3087895D01*
X2554863Y3114000D01*
X2551426Y3140105D01*
X2541350Y3164431D01*
X2525321Y3185321D01*
X2504432Y3201349D01*
X2480105Y3211426D01*
X2454000Y3214863D01*
D02*
G37*
G36*
X3965497Y3101500D02*
X3873740D01*
X3875703Y3086589D01*
X3886283Y3061047D01*
X3903113Y3039113D01*
X3925047Y3022283D01*
X3950590Y3011703D01*
X3965497Y3009740D01*
Y3101500D01*
D02*
G37*
G36*
X4082260D02*
X3990496D01*
Y3009739D01*
X4005411Y3011703D01*
X4030953Y3022283D01*
X4052887Y3039113D01*
X4069717Y3061047D01*
X4080297Y3086589D01*
X4082260Y3101500D01*
D02*
G37*
G36*
X920000Y2965000D02*
X842500D01*
Y2907502D01*
X920000D01*
Y2965000D01*
D02*
G37*
G36*
X817501D02*
X740000D01*
Y2907502D01*
X817501D01*
Y2965000D01*
D02*
G37*
G36*
X616500Y2932760D02*
Y2841004D01*
X708260D01*
X706297Y2855910D01*
X695717Y2881453D01*
X678887Y2903387D01*
X656953Y2920217D01*
X631410Y2930797D01*
X616500Y2932760D01*
D02*
G37*
G36*
X591501Y2932760D02*
X576590Y2930797D01*
X551047Y2920217D01*
X529113Y2903387D01*
X512283Y2881453D01*
X501703Y2855910D01*
X499740Y2841004D01*
X591501D01*
Y2932760D01*
D02*
G37*
G36*
X920000Y2882502D02*
X842500D01*
Y2825000D01*
X920000D01*
Y2882502D01*
D02*
G37*
G36*
X817501D02*
X740000D01*
Y2825000D01*
X817501D01*
Y2882502D01*
D02*
G37*
G36*
X708261Y2816004D02*
X616500D01*
Y2724240D01*
X631410Y2726203D01*
X656953Y2736783D01*
X678887Y2753613D01*
X695717Y2775547D01*
X706297Y2801090D01*
X708261Y2816004D01*
D02*
G37*
G36*
X454261D02*
X362500D01*
Y2724240D01*
X377410Y2726203D01*
X402953Y2736783D01*
X424887Y2753613D01*
X441717Y2775547D01*
X452297Y2801090D01*
X454261Y2816004D01*
D02*
G37*
G36*
X591501D02*
X499739D01*
X501703Y2801090D01*
X512283Y2775547D01*
X529113Y2753613D01*
X551047Y2736783D01*
X576590Y2726203D01*
X591501Y2724240D01*
Y2816004D01*
D02*
G37*
G36*
X616500Y2678760D02*
Y2587004D01*
X708260D01*
X706297Y2601910D01*
X695717Y2627453D01*
X678887Y2649387D01*
X656953Y2666217D01*
X631410Y2676797D01*
X616500Y2678760D01*
D02*
G37*
G36*
X591501Y2678760D02*
X576590Y2676797D01*
X551047Y2666217D01*
X529113Y2649387D01*
X512283Y2627453D01*
X501703Y2601910D01*
X499740Y2587004D01*
X591501D01*
Y2678760D01*
D02*
G37*
G36*
X954000Y2605607D02*
X902500D01*
Y2562500D01*
X985607D01*
Y2574000D01*
X983201Y2586095D01*
X976350Y2596350D01*
X966095Y2603201D01*
X954000Y2605607D01*
D02*
G37*
G36*
X877501D02*
X826000D01*
X813905Y2603201D01*
X803650Y2596350D01*
X796799Y2586095D01*
X794393Y2574000D01*
Y2562500D01*
X877501D01*
Y2605607D01*
D02*
G37*
G36*
X2962000Y2750863D02*
X2935895Y2747426D01*
X2911569Y2737350D01*
X2890680Y2721321D01*
X2874651Y2700431D01*
X2864574Y2676105D01*
X2861138Y2650000D01*
X2864574Y2623895D01*
X2874651Y2599569D01*
X2890680Y2578679D01*
X2911569Y2562650D01*
X2935895Y2552574D01*
X2962000Y2549137D01*
X2988105Y2552574D01*
X3012431Y2562650D01*
X3033321Y2578679D01*
X3049350Y2599569D01*
X3059426Y2623895D01*
X3062863Y2650000D01*
X3059426Y2676105D01*
X3049350Y2700431D01*
X3033321Y2721321D01*
X3012431Y2737350D01*
X2988105Y2747426D01*
X2962000Y2750863D01*
D02*
G37*
G36*
X2708000D02*
X2681895Y2747426D01*
X2657569Y2737350D01*
X2636680Y2721321D01*
X2620651Y2700431D01*
X2610574Y2676105D01*
X2607138Y2650000D01*
X2610574Y2623895D01*
X2620651Y2599569D01*
X2636680Y2578679D01*
X2657569Y2562650D01*
X2681895Y2552574D01*
X2708000Y2549137D01*
X2734105Y2552574D01*
X2758431Y2562650D01*
X2779321Y2578679D01*
X2795350Y2599569D01*
X2805426Y2623895D01*
X2808863Y2650000D01*
X2805426Y2676105D01*
X2795350Y2700431D01*
X2779321Y2721321D01*
X2758431Y2737350D01*
X2734105Y2747426D01*
X2708000Y2750863D01*
D02*
G37*
G36*
X2454000D02*
X2427895Y2747426D01*
X2403569Y2737350D01*
X2382680Y2721321D01*
X2366651Y2700431D01*
X2356574Y2676105D01*
X2353138Y2650000D01*
X2356574Y2623895D01*
X2366651Y2599569D01*
X2382680Y2578679D01*
X2403569Y2562650D01*
X2427895Y2552574D01*
X2454000Y2549137D01*
X2480105Y2552574D01*
X2504431Y2562650D01*
X2525321Y2578679D01*
X2541350Y2599569D01*
X2551426Y2623895D01*
X2554863Y2650000D01*
X2551426Y2676105D01*
X2541350Y2700431D01*
X2525321Y2721321D01*
X2504431Y2737350D01*
X2480105Y2747426D01*
X2454000Y2750863D01*
D02*
G37*
G36*
X2200000D02*
X2173895Y2747426D01*
X2149569Y2737350D01*
X2128680Y2721321D01*
X2112651Y2700431D01*
X2102574Y2676105D01*
X2099138Y2650000D01*
X2102574Y2623895D01*
X2112651Y2599569D01*
X2128680Y2578679D01*
X2149569Y2562650D01*
X2173895Y2552574D01*
X2200000Y2549137D01*
X2226105Y2552574D01*
X2250431Y2562650D01*
X2271321Y2578679D01*
X2287350Y2599569D01*
X2297426Y2623895D01*
X2300863Y2650000D01*
X2297426Y2676105D01*
X2287350Y2700431D01*
X2271321Y2721321D01*
X2250431Y2737350D01*
X2226105Y2747426D01*
X2200000Y2750863D01*
D02*
G37*
G36*
X3965497Y2637501D02*
X3873740D01*
X3875703Y2622590D01*
X3886283Y2597047D01*
X3903113Y2575113D01*
X3925047Y2558283D01*
X3950590Y2547703D01*
X3965497Y2545740D01*
Y2637501D01*
D02*
G37*
G36*
X4082261D02*
X3990497D01*
Y2545739D01*
X4005411Y2547703D01*
X4030953Y2558283D01*
X4052887Y2575113D01*
X4069717Y2597047D01*
X4080297Y2622590D01*
X4082261Y2637501D01*
D02*
G37*
G36*
X1535000Y1690000D02*
X1482499D01*
Y1637503D01*
X1535000D01*
Y1690000D01*
D02*
G37*
G36*
X1457500D02*
X1405000D01*
Y1637503D01*
X1457500D01*
Y1690000D01*
D02*
G37*
G36*
X1535000Y1612504D02*
X1482499D01*
Y1560000D01*
X1535000D01*
Y1612504D01*
D02*
G37*
G36*
X1457500D02*
X1405000D01*
Y1560000D01*
X1457500D01*
Y1612504D01*
D02*
G37*
G36*
X362500Y1662760D02*
Y1571004D01*
X454260D01*
X452297Y1585910D01*
X441717Y1611453D01*
X424887Y1633387D01*
X402953Y1650217D01*
X377410Y1660797D01*
X362500Y1662760D01*
D02*
G37*
G36*
X6300607Y1425928D02*
X6217497D01*
Y1382825D01*
X6269000D01*
X6281095Y1385230D01*
X6291350Y1392082D01*
X6298201Y1402336D01*
X6300607Y1414432D01*
Y1425928D01*
D02*
G37*
G36*
X6192498D02*
X6109393D01*
Y1414432D01*
X6111799Y1402336D01*
X6118650Y1392082D01*
X6128905Y1385230D01*
X6141000Y1382825D01*
X6192498D01*
Y1425928D01*
D02*
G37*
G36*
X6099000Y1320607D02*
X6047500D01*
Y1277500D01*
X6130607D01*
Y1289000D01*
X6128201Y1301095D01*
X6121350Y1311349D01*
X6111095Y1318201D01*
X6099000Y1320607D01*
D02*
G37*
G36*
X6022500D02*
X5971000D01*
X5958905Y1318201D01*
X5948651Y1311349D01*
X5941799Y1301095D01*
X5939393Y1289000D01*
Y1277500D01*
X6022500D01*
Y1320607D01*
D02*
G37*
G36*
X6687501Y900760D02*
X6672590Y898797D01*
X6647047Y888217D01*
X6625113Y871387D01*
X6608283Y849453D01*
X6597703Y823910D01*
X6595740Y809004D01*
X6687501D01*
Y900760D01*
D02*
G37*
G36*
Y784004D02*
X6595739D01*
X6597703Y769090D01*
X6608283Y743547D01*
X6625113Y721613D01*
X6647047Y704783D01*
X6672590Y694203D01*
X6687501Y692240D01*
Y784004D01*
D02*
G37*
G36*
X6310607Y682502D02*
X6227503D01*
Y639393D01*
X6279000D01*
X6291095Y641799D01*
X6301350Y648650D01*
X6308201Y658905D01*
X6310607Y671000D01*
Y682502D01*
D02*
G37*
G36*
X6202503D02*
X6119393D01*
Y671000D01*
X6121799Y658905D01*
X6128650Y648650D01*
X6138905Y641799D01*
X6151000Y639393D01*
X6202503D01*
Y682502D01*
D02*
G37*
G36*
X6687501Y646760D02*
X6672590Y644797D01*
X6647047Y634217D01*
X6625113Y617387D01*
X6608283Y595453D01*
X6597703Y569910D01*
X6595740Y555004D01*
X6687501D01*
Y646760D01*
D02*
G37*
G36*
X1114000Y1220607D02*
X1062499D01*
Y1177501D01*
X1145607D01*
Y1189000D01*
X1143201Y1201095D01*
X1136350Y1211350D01*
X1126095Y1218201D01*
X1114000Y1220607D01*
D02*
G37*
G36*
X1145607Y1152501D02*
X1062499D01*
Y1109393D01*
X1114000D01*
X1126095Y1111799D01*
X1136350Y1118650D01*
X1143201Y1128905D01*
X1145607Y1141000D01*
Y1152501D01*
D02*
G37*
G36*
X935000Y1953412D02*
X857505D01*
Y1895914D01*
X935000D01*
Y1953412D01*
D02*
G37*
G36*
X832505D02*
X755000D01*
Y1895914D01*
X832505D01*
Y1953412D01*
D02*
G37*
G36*
X935000Y1870914D02*
X857505D01*
Y1813412D01*
X935000D01*
Y1870914D01*
D02*
G37*
G36*
X832505D02*
X755000D01*
Y1813412D01*
X832505D01*
Y1870914D01*
D02*
G37*
G36*
X2625008Y1911411D02*
X2487510D01*
Y1808912D01*
X2625008D01*
Y1911411D01*
D02*
G37*
G36*
X2462510D02*
X2325008D01*
Y1808912D01*
X2462510D01*
Y1911411D01*
D02*
G37*
G36*
X2625008Y1783912D02*
X2487510D01*
Y1681412D01*
X2625008D01*
Y1783912D01*
D02*
G37*
G36*
X2462510D02*
X2325008D01*
Y1681412D01*
X2462510D01*
Y1783912D01*
D02*
G37*
G36*
X2625000Y1280000D02*
X2487502D01*
Y1177500D01*
X2625000D01*
Y1280000D01*
D02*
G37*
G36*
X2462502D02*
X2325000D01*
Y1177500D01*
X2462502D01*
Y1280000D01*
D02*
G37*
G36*
X2625000Y1152500D02*
X2487502D01*
Y1050000D01*
X2625000D01*
Y1152500D01*
D02*
G37*
G36*
X2462502D02*
X2325000D01*
Y1050000D01*
X2462502D01*
Y1152500D01*
D02*
G37*
G36*
X1457500Y715000D02*
X1405000D01*
Y662500D01*
X1457500D01*
Y715000D01*
D02*
G37*
%LPD*%
D10*
X800000Y3635000D02*
D03*
Y3445000D02*
D03*
X830000Y3085000D02*
D03*
Y2895000D02*
D03*
X845000Y1693412D02*
D03*
Y1883412D02*
D03*
X4880000Y2485000D02*
D03*
Y2295000D02*
D03*
X4950000Y4995000D02*
D03*
Y4805000D02*
D03*
D11*
X1050000Y1165000D02*
D03*
Y1355000D02*
D03*
X860000Y1260000D02*
D03*
X1050000Y405000D02*
D03*
Y595000D02*
D03*
X860000Y500000D02*
D03*
X6220000Y2985000D02*
D03*
Y3174999D02*
D03*
X6030000Y3080000D02*
D03*
X890000Y2550000D02*
D03*
Y2360000D02*
D03*
X1080000Y2455000D02*
D03*
X870000Y970000D02*
D03*
Y780000D02*
D03*
X1060000Y875000D02*
D03*
X6205000Y1438432D02*
D03*
Y1628432D02*
D03*
X6015000Y1533432D02*
D03*
X1645000Y4845000D02*
D03*
Y5035000D02*
D03*
X1455000Y4940000D02*
D03*
X6025000Y1995000D02*
D03*
Y1805000D02*
D03*
X6215000Y1900000D02*
D03*
X6035000Y1265000D02*
D03*
Y1075000D02*
D03*
X6225000Y1170000D02*
D03*
X6230000Y2235000D02*
D03*
Y2425000D02*
D03*
X6040000Y2330000D02*
D03*
Y3935000D02*
D03*
Y3745000D02*
D03*
X6230000Y3840000D02*
D03*
X6045000Y3555000D02*
D03*
Y3365000D02*
D03*
X6235000Y3460000D02*
D03*
X6215000Y695000D02*
D03*
Y885000D02*
D03*
X6025000Y790000D02*
D03*
X6045000Y2795000D02*
D03*
Y2605000D02*
D03*
X6235000Y2700000D02*
D03*
X1025000Y4845000D02*
D03*
Y5035000D02*
D03*
X835000Y4940000D02*
D03*
X1025000Y4485000D02*
D03*
Y4675000D02*
D03*
X835000Y4580000D02*
D03*
D12*
X5500000Y1485000D02*
D03*
Y1325000D02*
D03*
X5250000Y1485000D02*
D03*
Y1325000D02*
D03*
X5000000Y1485000D02*
D03*
Y1325000D02*
D03*
X4750000Y1485000D02*
D03*
Y1325000D02*
D03*
X4500000Y1485000D02*
D03*
Y1325000D02*
D03*
X1170000Y4060000D02*
D03*
Y3900000D02*
D03*
X390000Y6420000D02*
D03*
Y6260000D02*
D03*
X2500000Y4525000D02*
D03*
Y4675000D02*
D03*
X3250000Y7035000D02*
D03*
Y6885000D02*
D03*
X1470000Y1775000D02*
D03*
Y1625000D02*
D03*
X3216000Y2260000D02*
D03*
Y2420000D02*
D03*
X3460000Y2260000D02*
D03*
Y2420000D02*
D03*
D13*
X5500000Y1100000D02*
D03*
Y860000D02*
D03*
X5250000D02*
D03*
Y1100000D02*
D03*
X5000000D02*
D03*
Y860000D02*
D03*
X4750000D02*
D03*
Y1100000D02*
D03*
X4500000D02*
D03*
Y860000D02*
D03*
X990000Y4100000D02*
D03*
Y3860000D02*
D03*
X390000Y6600000D02*
D03*
Y6840000D02*
D03*
D14*
X5145000Y7850000D02*
D03*
X4955000D02*
D03*
X3730000Y6117497D02*
D03*
X3920000D02*
D03*
X3630000Y600000D02*
D03*
X3820000D02*
D03*
X3655000Y3350000D02*
D03*
X3845000D02*
D03*
D15*
X1630000Y650000D02*
D03*
X1470000D02*
D03*
D16*
X2930000Y3980000D02*
D03*
X1898061Y1155916D02*
D03*
D17*
X2700000Y4600000D02*
D03*
X3160000D02*
D03*
X2930000D02*
D03*
X1668061Y1775915D02*
D03*
X2128061D02*
D03*
X1898061D02*
D03*
D18*
X4070000Y7270000D02*
D03*
D19*
X3450000Y7040000D02*
D03*
Y7500000D02*
D03*
Y7270000D02*
D03*
D20*
X1670000Y470000D02*
D03*
X1430000D02*
D03*
D21*
X3550000Y4590000D02*
D03*
X3549992Y3958588D02*
D03*
X2475008Y1796412D02*
D03*
X2475000Y1165000D02*
D03*
D22*
X3450000Y6700000D02*
D03*
X4081412Y6699992D02*
D03*
D23*
X630000Y3360000D02*
X650000D01*
X735000Y3445000D01*
X800000D01*
X1030000Y3820000D02*
X1430000D01*
X990000Y3860000D02*
X1030000Y3820000D01*
X990000Y4100000D02*
X1030000Y4060000D01*
X1170000D01*
X1883934Y3820000D02*
X2720000D01*
X1863926Y3799992D02*
X1883934Y3820000D01*
X1769996Y3799992D02*
X1863926D01*
X1605000Y5035000D02*
X1645000D01*
X1410208Y5130000D02*
X1510000D01*
X1605000Y5035000D01*
X1325000Y5044792D02*
X1410208Y5130000D01*
X619500Y3860000D02*
X719000Y3959500D01*
Y4160998D01*
X828002Y4270000D01*
X1210000D01*
X1325000Y4385000D01*
Y5044792D01*
X437500Y6887500D02*
X725000Y7175000D01*
Y7175000D02*
Y7175000D01*
Y5072866D02*
Y7175000D01*
X390000Y6840000D02*
X392500D01*
X437500Y6885000D02*
Y6887500D01*
X392500Y6840000D02*
X437500Y6885000D01*
X390000Y6420000D02*
Y6600000D01*
X1720000Y890000D02*
X1770000Y940000D01*
X762866Y5035000D02*
X1025000D01*
X725000Y5072866D02*
X762866Y5035000D01*
X642134Y4990000D02*
X725000Y5072866D01*
X5145000Y7850000D02*
Y8059000D01*
X5054000Y8150000D02*
X5145000Y8059000D01*
X1290000Y890000D02*
X1720000D01*
X3060000Y794246D02*
X3390754D01*
X3585000Y600000D01*
X3630000D01*
Y458000D02*
X3724000Y364000D01*
X3630000Y458000D02*
Y600000D01*
X940000Y680000D02*
X992700Y627300D01*
X921300Y698700D02*
X940000Y680000D01*
Y670000D02*
Y680000D01*
X1010000Y595000D02*
X1050000D01*
X992700Y612300D02*
X1010000Y595000D01*
X992700Y612300D02*
Y627300D01*
X921300Y698700D02*
Y762700D01*
X904000Y780000D02*
X921300Y762700D01*
X870000Y780000D02*
X904000D01*
X480000Y4800000D02*
X534500Y4745500D01*
X955000Y4675000D02*
X1025000D01*
X950000Y4680000D02*
X955000Y4675000D01*
X860000Y4680000D02*
X950000D01*
X794500Y4745500D02*
X860000Y4680000D01*
X480000Y4800000D02*
Y4920000D01*
X534500Y4745500D02*
X794500D01*
X550000Y4990000D02*
X642134D01*
X480000Y4920000D02*
X550000Y4990000D01*
X3400000Y7270000D02*
X3450000D01*
D24*
X1910000Y3245031D02*
Y3740000D01*
Y3245031D02*
X2273349Y2881682D01*
X4001351D01*
X4210538Y2672495D01*
X4465549D01*
X4526054Y2733000D01*
X4550000D01*
X1440000Y4955001D02*
X1455000Y4940000D01*
X1440000Y4955001D02*
Y5050000D01*
X1455000Y4205000D02*
Y4940000D01*
Y4205000D02*
X1650000Y4010000D01*
D25*
X845000Y3090000D02*
X1393609Y3638609D01*
X1982782Y4187218D02*
X2162218D01*
X2500000Y4525000D01*
X1434173Y3638609D02*
X1982782Y4187218D01*
X1393609Y3638609D02*
X1434173D01*
X828750Y3083750D02*
X830000Y3085000D01*
X605250Y3083750D02*
X828750D01*
X604000Y3082500D02*
X605250Y3083750D01*
X3250000Y7035000D02*
Y7040000D01*
X2505000D02*
X3250000D01*
X3450000D01*
X2500000Y4525000D02*
X2665000D01*
X1967500Y6502500D02*
X2505000Y7040000D01*
X1967500Y4202500D02*
Y6502500D01*
X2665000Y4525000D02*
X2700000Y4560000D01*
Y4600000D01*
D26*
X3216000Y2650000D02*
X3348500Y2782500D01*
X4047500D01*
X4212000Y2618000D01*
X5398000D01*
X4360000Y3509000D02*
X4600000Y3749000D01*
X4349991Y2739995D02*
Y3498991D01*
X4360000Y3509000D01*
X4297792Y2848800D02*
Y2908989D01*
X4258986Y2809994D02*
X4297792Y2848800D01*
X4227792Y2879994D02*
Y2890516D01*
X4297792Y2908989D02*
X4299991Y2911188D01*
X4227792Y2890516D02*
X4258986Y2921710D01*
X4189992Y2809994D02*
X4258986D01*
X4299991Y2911188D02*
Y3702991D01*
X4258986Y2921710D02*
Y3898987D01*
X4620000Y4260000D01*
X4119992Y2879994D02*
X4189992Y2809994D01*
X1090000Y4600000D02*
X1280000Y4790000D01*
Y5063432D01*
X1850000Y5633432D02*
Y7034437D01*
X1280000Y5063432D02*
X1850000Y5633432D01*
Y7034437D02*
X2962000Y8146437D01*
X855000Y4600000D02*
X1090000D01*
X855000Y4960000D02*
X1120000D01*
X1810000Y5650000D02*
Y7051005D01*
X1120000Y4960000D02*
X1810000Y5650000D01*
X835000Y4940000D02*
X855000Y4960000D01*
X815000Y4560000D02*
X855000Y4600000D01*
X6745563Y1668500D02*
X6897165Y1516899D01*
Y470965D02*
Y1516899D01*
X6753638Y327438D02*
X6897165Y470965D01*
X5991436Y327438D02*
X6753638D01*
X5610000Y708874D02*
X5991436Y327438D01*
X5610000Y708874D02*
Y1445000D01*
X5570000Y1485000D02*
X5610000Y1445000D01*
X6446000Y1558500D02*
X6587194Y1417306D01*
X6742758D01*
X6857165Y1302899D01*
Y487533D02*
Y1302899D01*
X6737069Y367438D02*
X6857165Y487533D01*
X6008005Y367438D02*
X6737069D01*
X5650000Y725442D02*
X6008005Y367438D01*
X5650000Y725442D02*
Y1461568D01*
X5544853Y1566716D02*
X5650000Y1461568D01*
X5261716Y1566716D02*
X5544853D01*
X6024573Y407438D02*
X6720501D01*
X5690000Y742010D02*
X6024573Y407438D01*
X5690000Y742010D02*
Y1496421D01*
X5579706Y1606716D02*
X5690000Y1496421D01*
X6028580Y459999D02*
X6251286D01*
X5730000Y758579D02*
X6028580Y459999D01*
X5730000Y758579D02*
Y1512990D01*
X5596274Y1646716D02*
X5730000Y1512990D01*
X6025147Y520000D02*
X6169989D01*
X5770000Y775147D02*
X6025147Y520000D01*
X5770000Y775147D02*
Y1529558D01*
X5612842Y1686716D02*
X5770000Y1529558D01*
X4631715Y1686716D02*
X5612842D01*
X4500000Y1555000D02*
X4631715Y1686716D01*
X4500000Y1485000D02*
Y1555000D01*
X6268725Y477438D02*
X6284961D01*
X6251286Y459999D02*
X6268725Y477438D01*
X4841715Y1646716D02*
X5596274D01*
X4750000Y1555000D02*
X4841715Y1646716D01*
X4750000Y1485000D02*
Y1555000D01*
X6700000Y1050500D02*
X6810000Y940500D01*
Y496937D02*
Y940500D01*
X6720501Y407438D02*
X6810000Y496937D01*
X5056716Y1606716D02*
X5579706D01*
X5000000Y1550000D02*
X5056716Y1606716D01*
X6477500Y1812500D02*
X6621500Y1668500D01*
X6745563D01*
X5500000Y1485000D02*
X5570000D01*
X5250000Y1555000D02*
X5261716Y1566716D01*
X5250000Y1485000D02*
Y1555000D01*
X6169989Y520000D02*
X6179988Y529999D01*
X1630000Y510000D02*
Y650000D01*
Y510000D02*
X1670000Y470000D01*
X1725000Y867427D02*
Y885000D01*
X1560000Y702426D02*
X1725000Y867427D01*
X1560000Y617574D02*
Y702426D01*
X1480000Y537574D02*
X1560000Y617574D01*
X1480000Y520000D02*
Y537574D01*
X1430000Y470000D02*
X1480000Y520000D01*
X5711274Y4155000D02*
X6025001D01*
X6205001Y3975000D01*
X6725064D01*
X6898726Y2523726D02*
Y3801337D01*
X6725064Y3975000D02*
X6898726Y3801337D01*
X6446000Y2320500D02*
X6544437D01*
X6654437Y2430500D01*
X6805500D01*
X6898726Y2523726D01*
X5913137Y3840000D02*
X6258284D01*
X2681213Y7922218D02*
Y8123212D01*
X1810000Y7051005D02*
X2681213Y7922218D01*
X2962000Y8146437D02*
Y8150000D01*
X5490000Y2710000D02*
Y2720000D01*
X5398000Y2618000D02*
X5490000Y2710000D01*
X5630000Y1751864D02*
X5810000Y1571864D01*
X5630000Y1751864D02*
Y3745000D01*
X4308718Y4720000D02*
X4460000Y4568718D01*
Y4495437D02*
X4575437Y4380000D01*
X4460000Y4495437D02*
Y4568718D01*
X3015432Y5290000D02*
X3585432Y4720000D01*
X2962000Y5400000D02*
X3602000Y4760000D01*
X4449437D01*
X3585432Y4720000D02*
X4308718D01*
X4449437Y4760000D02*
X4584548Y4624888D01*
X5120000Y4380000D02*
X5530000Y3970000D01*
X4575437Y4380000D02*
X5120000D01*
X4600000Y4511000D02*
X5061990D01*
X5710000Y3862990D01*
X4584548Y4624888D02*
X5004670D01*
X5750000Y3879558D01*
X5710000Y1798432D02*
Y3862990D01*
X5605711Y3865290D02*
X5670000Y3801001D01*
X5530000Y3845000D02*
Y3970000D01*
Y3845000D02*
X5630000Y3745000D01*
X5750000Y2951089D02*
Y3879558D01*
X5605711Y3865290D02*
Y3868284D01*
X5588125Y1901875D02*
Y2750870D01*
X5351995Y2987000D02*
X5588125Y2750870D01*
X5560000Y1900000D02*
X5588125D01*
X5670000Y1781864D02*
Y3801001D01*
X5710000Y1798432D02*
X5975000Y1533432D01*
X5750000Y2951089D02*
X6001089Y2700000D01*
X5670000Y1781864D02*
X5850000Y1601863D01*
X5789988Y1899996D02*
X5792412Y1902419D01*
X6212580D01*
X6215000Y1900000D01*
X5850000Y1230000D02*
Y1601863D01*
X5810000Y870000D02*
Y1571864D01*
X5850000Y1230000D02*
X5910000Y1170000D01*
X6225000D01*
X5890000Y790000D02*
X6025000D01*
X5810000Y870000D02*
X5890000Y790000D01*
X6200000Y900000D02*
X6215000Y885000D01*
X6200000Y900000D02*
Y1030000D01*
X6180000D02*
X6200000D01*
X6135000Y1075000D02*
X6180000Y1030000D01*
X6200000Y1633432D02*
X6205000Y1628432D01*
X6200000Y1633432D02*
Y1758995D01*
X6153995Y1805000D02*
X6200000Y1758995D01*
X6025000Y1805000D02*
X6153995D01*
X6225000Y2425000D02*
X6230000D01*
X6205000Y2445000D02*
X6225000Y2425000D01*
X6205000Y2445000D02*
Y2535000D01*
X6205000Y3190000D02*
X6220000Y3174999D01*
X6205000Y3190000D02*
Y3310000D01*
X6150000Y3745000D02*
X6205000Y3690000D01*
X6040000Y3745000D02*
X6150000D01*
Y3365000D02*
X6205000Y3310000D01*
X6145000Y2595000D02*
X6205000Y2535000D01*
X6045000Y3365000D02*
X6150000D01*
X6045000Y2605000D02*
X6055000Y2595000D01*
X6145000D01*
X6035000Y1075000D02*
X6135000D01*
X6248912Y1533432D02*
X6383980Y1668500D01*
X5975000Y1533432D02*
X6248912D01*
X6446000Y3590500D02*
Y3624000D01*
X6278284Y3791716D02*
X6446000Y3624000D01*
X6258284Y3840000D02*
X6278284Y3820000D01*
Y3791716D02*
Y3820000D01*
X5790000Y3555001D02*
Y3906569D01*
X5882500Y3462500D02*
X6232500D01*
X5790000Y3555001D02*
X5882500Y3462500D01*
X6030000Y3079999D02*
X6031250Y3081250D01*
X5820000Y2990000D02*
X5909999Y3079999D01*
X6030000D01*
X6031250Y3081250D02*
X6444750D01*
X6446000Y3082500D01*
X6040000Y2330000D02*
X6045000D01*
X6400000Y2330000D02*
X6417616D01*
X6049750Y2325250D02*
X6400000D01*
X6045000Y2330000D02*
X6049750Y2325250D01*
X6417616D02*
X6441250D01*
X6070000Y7880000D02*
Y8150000D01*
X4650000Y5739705D02*
Y6460000D01*
Y5739705D02*
X5270000Y5119706D01*
Y4596274D02*
Y5119706D01*
X6441250Y2325250D02*
X6446000Y2320500D01*
X6383980Y1668500D02*
X6564932D01*
X6674932Y1558500D01*
X6700000D01*
X2916437Y5290000D02*
X3015432D01*
X2806437Y5400000D02*
X2916437Y5290000D01*
X2708000Y5400000D02*
X2806437D01*
X6025000Y790000D02*
X6258912D01*
X6339062Y870150D01*
Y943562D01*
X6446000Y1050500D01*
X4550000Y2987000D02*
X5351995D01*
X6001089Y2700000D02*
X6235000D01*
X5000000Y1485000D02*
Y1550000D01*
X5760000Y3936568D02*
X5790000Y3906569D01*
X6446000Y1812500D02*
X6477500D01*
X4500000Y1100000D02*
Y1325000D01*
X4750000Y1100000D02*
Y1325000D01*
X5000000Y1100000D02*
Y1325000D01*
X5250000Y1100000D02*
Y1325000D01*
X5500000Y1100000D02*
Y1325000D01*
X6444500Y542500D02*
X6446000D01*
X6311500Y1170000D02*
X6446000Y1304500D01*
X6225000Y1170000D02*
X6311500D01*
X720384Y875000D02*
X1100000D01*
X1270503Y444571D02*
X1357574Y357500D01*
X1270503Y444571D02*
Y803409D01*
X870000Y1203911D02*
X1270503Y803409D01*
X2909992Y870000D02*
X4229992Y2190000D01*
X2493432Y870000D02*
X2909992D01*
X1940932Y317500D02*
X2493432Y870000D01*
X1341005Y317500D02*
X1940932D01*
X1230503Y428003D02*
X1341005Y317500D01*
X1230503Y428003D02*
Y744497D01*
X1100000Y875000D02*
X1230503Y744497D01*
X2839996Y910000D02*
X4119992Y2189996D01*
X2476863Y910000D02*
X2839996D01*
X1924363Y357500D02*
X2476863Y910000D01*
X1357574Y357500D02*
X1924363D01*
X2400000Y720000D02*
X2869996D01*
X4339991Y2189996D01*
X460000Y4570000D02*
Y4750500D01*
X350000Y4860500D02*
X350000D01*
X460000Y4750500D01*
X1120000Y2455000D02*
X1235000Y2340000D01*
X3380000D02*
X3460000Y2420000D01*
X1235000Y2340000D02*
X3380000D01*
X4299991Y3702991D02*
X4600000Y4003000D01*
X6225000Y1170000D02*
X6225000Y1170000D01*
X6235000Y2700000D02*
X6237784Y2697216D01*
X6323284D01*
X6446000Y2574500D01*
X5699705Y4110000D02*
X5699705D01*
X5716421Y4093284D02*
X5758848D01*
X5767132Y4085000D01*
X5699705Y4110000D02*
X5716421Y4093284D01*
X4753137Y5580000D02*
X5230000Y5103137D01*
X5150000Y4546568D02*
Y5070000D01*
X5190000Y4563137D02*
Y5086568D01*
X4570000Y5706568D02*
X5190000Y5086568D01*
X5230000Y4579705D02*
Y5103137D01*
X4530000Y5690000D02*
X5150000Y5070000D01*
X4753137Y5580000D02*
X4753137D01*
X4610000Y5723137D02*
X4753137Y5580000D01*
X870000Y1203911D02*
Y1250000D01*
X860000Y1260000D02*
X870000Y1250000D01*
X740000Y1260000D02*
X860000D01*
X1200000Y330000D02*
X1310000Y220000D01*
X1900000D01*
X2400000Y720000D01*
X660000Y1180000D02*
X740000Y1260000D01*
X540000Y1180000D02*
X660000D01*
X470000Y1110000D02*
X540000Y1180000D01*
X470000Y916500D02*
Y1110000D01*
X350000Y796500D02*
X470000Y916500D01*
X641884Y796500D02*
X720384Y875000D01*
X604000Y796500D02*
X641884D01*
X948285Y367804D02*
Y451716D01*
X986088Y330000D02*
X1200000D01*
X900000Y500000D02*
X948285Y451716D01*
X860000Y500000D02*
X900000D01*
X790000D02*
X860000D01*
X722500Y432500D02*
X790000Y500000D01*
X948285Y367804D02*
X986088Y330000D01*
X350000Y542500D02*
X460000Y432500D01*
X722500D01*
X1080000Y2455000D02*
X1120000D01*
X5308000Y7290058D02*
Y8150000D01*
X4530000Y5690000D02*
Y6512058D01*
X469500Y2455000D02*
X1080000D01*
X350000Y2574500D02*
X469500Y2455000D01*
X3216000Y2420000D02*
Y2650000D01*
X550000Y4480000D02*
X680000D01*
X460000Y4570000D02*
X550000Y4480000D01*
X760000Y4560000D02*
X815000D01*
X680000Y4480000D02*
X760000Y4560000D01*
X604000Y4860500D02*
X640563D01*
X720063Y4940000D01*
X835000D01*
X6446000Y2574500D02*
Y2574500D01*
X3460000Y2640000D02*
X3470000Y2650000D01*
X3460000Y2420000D02*
Y2640000D01*
X5562000Y7485137D02*
Y8150000D01*
X5816000Y7682569D02*
Y8150000D01*
X4570000Y5706568D02*
Y6493137D01*
X4610000Y5723137D02*
Y6476568D01*
X6235000Y3460000D02*
X6305000D01*
X2681213Y8123212D02*
X2708000Y8150000D01*
X6428499Y3336500D02*
X6446000D01*
X6305000Y3460000D02*
X6428499Y3336500D01*
X6421500Y2066500D02*
X6446000D01*
X6255000Y1900000D02*
X6421500Y2066500D01*
X6215000Y1900000D02*
X6255000D01*
X5230000Y4579705D02*
X5699705Y4110000D01*
X5150000Y4546568D02*
X5760000Y3936568D01*
X4530000Y6512058D02*
X5308000Y7290058D01*
X4610000Y6476568D02*
X5816000Y7682569D01*
X4650000Y6460000D02*
X6070000Y7880000D01*
X5270000Y4596274D02*
X5711274Y4155000D01*
X5560000Y1900000D02*
X5580000D01*
X5590000D01*
X4570000Y6493137D02*
X5562000Y7485137D01*
X5190000Y4563137D02*
X5913137Y3840000D01*
D27*
X725000Y7175000D02*
X750000Y7200000D01*
X720000Y7170000D02*
X725000Y7175000D01*
X750000Y7200000D02*
X1860000D01*
X3650000Y3350000D02*
Y3740000D01*
X3750000Y3920000D02*
X4090000D01*
X3549992Y3958588D02*
X3550140Y3958440D01*
X4169718Y4650000D02*
X4170000Y4649718D01*
Y3010000D02*
Y4649718D01*
X4480000Y3530000D02*
X4540818Y3469182D01*
X4879182D01*
X5352518Y3942518D01*
X6568500Y4230000D02*
X6660803Y4137697D01*
X5910000Y4230000D02*
X6568500D01*
X6660803Y4137697D02*
X6697697D01*
X220000Y1940000D02*
X650000D01*
X1015000Y2305000D01*
X960000Y2360000D02*
X1015000Y2305000D01*
X1060000Y2260000D01*
X5780000Y2480000D02*
X5905000Y2605000D01*
X6045000D01*
X4880000Y2485000D02*
X5500000D01*
X4259991Y4839990D02*
X4409990D01*
X4589000Y5019000D02*
X4600000D01*
X4409990Y4839990D02*
X4589000Y5019000D01*
X4550000Y2479000D02*
X4553000Y2482000D01*
X4341000Y2270000D02*
X4553000Y2482000D01*
X3470000Y2270000D02*
X4341000D01*
X3460000Y2260000D02*
X3470000Y2270000D01*
X1060000Y2260000D02*
X3216000D01*
X3460000D01*
X2120000Y7200000D02*
X3295010D01*
X4600000Y5019000D02*
X4612000Y5007000D01*
X4938000D01*
X4950000Y4995000D01*
X4553000Y2482000D02*
X4877000D01*
X4880000Y2485000D01*
X890000Y2360000D02*
X960000D01*
X3650000Y3216776D02*
Y3350000D01*
X3724000Y3114000D02*
Y3142776D01*
X3650000Y3216776D02*
X3724000Y3142776D01*
D28*
X479000Y3461500D02*
X604000Y3336500D01*
X479000Y3461500D02*
Y3719500D01*
X604000Y3844500D01*
X296501Y1433500D02*
X796500D01*
X220000Y1510001D02*
Y1940000D01*
Y1510001D02*
X296501Y1433500D01*
X150000Y2010000D02*
Y3059277D01*
Y2010000D02*
X220000Y1940000D01*
X150000Y3059277D02*
X302223Y3211500D01*
X475000Y2953500D02*
X604000Y3082500D01*
X225000Y2880277D02*
X298223Y2953500D01*
X475000D01*
X225000Y2191500D02*
Y2880277D01*
X1050000Y1355000D02*
X1681681D01*
X875000D02*
X1050000D01*
X796500Y1433500D02*
X875000Y1355000D01*
X475000Y1687500D02*
X1012206D01*
X350000Y1812500D02*
X475000Y1687500D01*
X1012206D02*
X1100622Y1775915D01*
X225000Y2191500D02*
X350000Y2066500D01*
X302223Y3211500D02*
X479000D01*
X1100622Y1775915D02*
X1668061D01*
X479000Y3211500D02*
X604000Y3336500D01*
D29*
X4550000Y2733000D02*
D03*
X350000Y7654500D02*
D03*
Y7908500D02*
D03*
X6700000Y7654500D02*
D03*
Y7908500D02*
D03*
X6446000Y542500D02*
D03*
X6700000Y5114500D02*
D03*
Y4860500D02*
D03*
Y4606500D02*
D03*
Y4352500D02*
D03*
Y4098500D02*
D03*
Y3844500D02*
D03*
Y3590500D02*
D03*
Y3336500D02*
D03*
Y3082500D02*
D03*
Y2828500D02*
D03*
Y2574500D02*
D03*
Y2320500D02*
D03*
Y2066500D02*
D03*
Y1812500D02*
D03*
Y1558500D02*
D03*
Y1304500D02*
D03*
Y1050500D02*
D03*
Y796500D02*
D03*
Y542500D02*
D03*
X6446000Y5114500D02*
D03*
Y4860500D02*
D03*
Y4606500D02*
D03*
Y4352500D02*
D03*
Y4098500D02*
D03*
Y3844500D02*
D03*
Y3590500D02*
D03*
Y3336500D02*
D03*
Y3082500D02*
D03*
Y2828500D02*
D03*
Y2574500D02*
D03*
Y2320500D02*
D03*
Y2066500D02*
D03*
Y1812500D02*
D03*
Y1558500D02*
D03*
Y1304500D02*
D03*
Y1050500D02*
D03*
Y796500D02*
D03*
X604000Y5114500D02*
D03*
Y4860500D02*
D03*
Y4606500D02*
D03*
Y4352500D02*
D03*
Y4098500D02*
D03*
Y3844500D02*
D03*
Y3590500D02*
D03*
Y3336500D02*
D03*
Y3082500D02*
D03*
Y2828500D02*
D03*
Y2574500D02*
D03*
Y2320500D02*
D03*
Y2066500D02*
D03*
Y1812500D02*
D03*
Y1558500D02*
D03*
Y1304500D02*
D03*
Y1050500D02*
D03*
Y796500D02*
D03*
Y542500D02*
D03*
X350000Y5114500D02*
D03*
Y4860500D02*
D03*
Y4606500D02*
D03*
Y4352500D02*
D03*
Y4098500D02*
D03*
Y3844500D02*
D03*
Y3590500D02*
D03*
Y3336500D02*
D03*
Y3082500D02*
D03*
Y2828500D02*
D03*
Y2574500D02*
D03*
Y2320500D02*
D03*
Y2066500D02*
D03*
Y1812500D02*
D03*
Y1558500D02*
D03*
Y1304500D02*
D03*
Y1050500D02*
D03*
Y796500D02*
D03*
Y542500D02*
D03*
X6578000Y5864000D02*
D03*
X6324000D02*
D03*
X6070000D02*
D03*
X5816000D02*
D03*
X5562000D02*
D03*
X5308000D02*
D03*
X5054000D02*
D03*
X4800000D02*
D03*
Y8150000D02*
D03*
X5054000D02*
D03*
X5308000D02*
D03*
X5562000D02*
D03*
X5816000D02*
D03*
X6070000D02*
D03*
X6578000D02*
D03*
X6324000D02*
D03*
X2200000Y2650000D02*
D03*
X2454000D02*
D03*
X2708000D02*
D03*
X2962000D02*
D03*
X3216000D02*
D03*
X3470000D02*
D03*
X3724000D02*
D03*
X3978000D02*
D03*
Y364000D02*
D03*
X3724000D02*
D03*
X3470000D02*
D03*
X3216000D02*
D03*
X2962000D02*
D03*
X2708000D02*
D03*
X2200000D02*
D03*
X2454000D02*
D03*
X2200000Y5400000D02*
D03*
X2454000D02*
D03*
X2708000D02*
D03*
X2962000D02*
D03*
X3216000D02*
D03*
X3470000D02*
D03*
X3724000D02*
D03*
X3978000D02*
D03*
Y3114000D02*
D03*
X3724000D02*
D03*
X3470000D02*
D03*
X3216000D02*
D03*
X2962000D02*
D03*
X2708000D02*
D03*
X2200000D02*
D03*
X2454000D02*
D03*
Y5864000D02*
D03*
X2200000D02*
D03*
X2708000D02*
D03*
X2962000D02*
D03*
X3216000D02*
D03*
X3470000D02*
D03*
X3724000D02*
D03*
X3978000D02*
D03*
Y8150000D02*
D03*
X3724000D02*
D03*
X3470000D02*
D03*
X3216000D02*
D03*
X2962000D02*
D03*
X2708000D02*
D03*
X2454000D02*
D03*
X2200000D02*
D03*
X4550000Y3241000D02*
D03*
Y2479000D02*
D03*
Y2225000D02*
D03*
Y1971000D02*
D03*
Y2987000D02*
D03*
X4600000Y3749000D02*
D03*
Y4003000D02*
D03*
Y4257000D02*
D03*
Y4511000D02*
D03*
Y4765000D02*
D03*
Y5019000D02*
D03*
Y5273000D02*
D03*
D30*
X6199565Y4511635D02*
D03*
D31*
X4407135Y280135D02*
D03*
X5930835Y5359970D02*
D03*
X1104835Y5486970D02*
D03*
D32*
X927167Y3639181D02*
D03*
X797167Y3749181D02*
D03*
X647167Y8039180D02*
D03*
X947167D02*
D03*
X154485Y4724169D02*
D03*
X157167Y4249181D02*
D03*
Y3739181D02*
D03*
X147167Y3439181D02*
D03*
X797167Y3329181D02*
D03*
X907167Y3529181D02*
D03*
X3852854Y7438011D02*
D03*
X4287261Y7369234D02*
D03*
X4277261Y6669234D02*
D03*
X4307166Y4369181D02*
D03*
X5797165Y309181D02*
D03*
X6297165Y1079181D02*
D03*
X5897165Y899181D02*
D03*
X5377165Y1219181D02*
D03*
X5127165D02*
D03*
X4877165D02*
D03*
X4617165Y1229181D02*
D03*
X5787165Y2019181D02*
D03*
Y2339181D02*
D03*
X5507165Y2359181D02*
D03*
X5037165Y2409181D02*
D03*
X5127165Y3059181D02*
D03*
X5377165Y3069181D02*
D03*
X5537165Y2929181D02*
D03*
X5057165Y3449181D02*
D03*
X4927165Y3649181D02*
D03*
X5546005Y3526082D02*
D03*
X5877165Y3769181D02*
D03*
X5587165Y4379181D02*
D03*
X5417165Y4549181D02*
D03*
X5227165Y4169181D02*
D03*
X5097165Y4299181D02*
D03*
X1470000Y990000D02*
D03*
X1450000Y750000D02*
D03*
X1370000Y630000D02*
D03*
X5030000Y2290000D02*
D03*
X4880000Y2180000D02*
D03*
X5080000Y4810000D02*
D03*
X5070000Y4690000D02*
D03*
X4950000D02*
D03*
Y7990000D02*
D03*
Y7710000D02*
D03*
X3460000Y6450000D02*
D03*
X3200000Y6700000D02*
D03*
X3650000D02*
D03*
X3660000Y7500000D02*
D03*
X3450000Y7650000D02*
D03*
X3260000Y7490000D02*
D03*
X2700000Y1610000D02*
D03*
X2390000D02*
D03*
X2250000D02*
D03*
X2140000Y1600000D02*
D03*
X3550000Y4390000D02*
D03*
X3160000Y4400000D02*
D03*
X3260000Y4420000D02*
D03*
X3300000Y4580000D02*
D03*
Y4710000D02*
D03*
X3170000Y4770000D02*
D03*
X1210000Y4840000D02*
D03*
X850000D02*
D03*
X1030000Y4360000D02*
D03*
X990000Y2790000D02*
D03*
X980000Y1880000D02*
D03*
X1240000Y1170000D02*
D03*
X750000Y660000D02*
D03*
X1130000Y700000D02*
D03*
X5940000Y690000D02*
D03*
X6100000Y580000D02*
D03*
X6110000Y2110000D02*
D03*
X6290000D02*
D03*
X6570000Y2960000D02*
D03*
X6000000Y2920000D02*
D03*
X5870000Y4010000D02*
D03*
X2247260Y1239231D02*
D03*
X2147260Y1039231D02*
D03*
X1947260Y1439231D02*
D03*
X1747259D02*
D03*
X4147261Y7039234D02*
D03*
X3947261D02*
D03*
X3847261Y7239234D02*
D03*
Y6439234D02*
D03*
X3747260Y6239234D02*
D03*
X3647260Y7239234D02*
D03*
X3347260Y3839233D02*
D03*
X3247260Y4039233D02*
D03*
X3147260Y3839233D02*
D03*
X2947260Y4239233D02*
D03*
X2847260Y4439233D02*
D03*
X6647165Y7439180D02*
D03*
X6797165Y7139180D02*
D03*
X6647165Y6839180D02*
D03*
X6797165Y6539180D02*
D03*
X6647165Y6239181D02*
D03*
X6797165Y5939181D02*
D03*
X6647165Y5639181D02*
D03*
X6797165Y4739181D02*
D03*
Y2939182D02*
D03*
Y1139182D02*
D03*
X6497165Y7739180D02*
D03*
X6347165Y7439180D02*
D03*
X6497165Y7139180D02*
D03*
X6347165Y6839180D02*
D03*
X6497165Y6539180D02*
D03*
X6347165Y6239181D02*
D03*
Y5639181D02*
D03*
Y4439181D02*
D03*
Y3239181D02*
D03*
Y1439182D02*
D03*
X6197165Y7739180D02*
D03*
X6047165Y7439180D02*
D03*
X6197165Y7139180D02*
D03*
X6047165Y6839180D02*
D03*
X6197165Y6539180D02*
D03*
X6047165Y6239181D02*
D03*
X6197165Y5939181D02*
D03*
Y5339181D02*
D03*
X6047165Y4439181D02*
D03*
X6197165Y4139181D02*
D03*
X6047165Y3239181D02*
D03*
Y1439182D02*
D03*
X5747165Y7439180D02*
D03*
X5897165Y7139180D02*
D03*
X5747165Y6839180D02*
D03*
X5897165Y6539180D02*
D03*
X5747165Y6239181D02*
D03*
Y4439181D02*
D03*
X5897165Y3539181D02*
D03*
Y2939182D02*
D03*
Y2339182D02*
D03*
Y1739182D02*
D03*
X5597165Y7139180D02*
D03*
X5447165Y6839180D02*
D03*
X5597165Y6539180D02*
D03*
X5447165Y6239181D02*
D03*
Y5639181D02*
D03*
Y5039181D02*
D03*
X5597165Y4739181D02*
D03*
X5447165Y3839181D02*
D03*
Y3239181D02*
D03*
Y2039182D02*
D03*
X5597165Y539182D02*
D03*
X5147165Y7439180D02*
D03*
Y6839180D02*
D03*
X5297165Y6539180D02*
D03*
X5147165Y6239181D02*
D03*
Y5639181D02*
D03*
X5297165Y5339181D02*
D03*
X5147165Y3839181D02*
D03*
X5297165Y3539181D02*
D03*
X5147165Y3239181D02*
D03*
X5297165Y2339182D02*
D03*
X5147165Y2039182D02*
D03*
Y1439182D02*
D03*
X5297165Y539182D02*
D03*
X4847165Y7439180D02*
D03*
X4997165Y7139180D02*
D03*
Y6539180D02*
D03*
X4847165Y6239181D02*
D03*
Y5639181D02*
D03*
X4997165Y4139181D02*
D03*
X4847165Y3839181D02*
D03*
Y3239181D02*
D03*
Y2039182D02*
D03*
Y1439182D02*
D03*
X4997165Y539182D02*
D03*
X4547165Y8039180D02*
D03*
X4697165Y7739180D02*
D03*
X4547165Y7439180D02*
D03*
X4697165Y7139180D02*
D03*
X4547165Y6839180D02*
D03*
X4697165Y4139181D02*
D03*
Y3539181D02*
D03*
Y2339182D02*
D03*
Y539182D02*
D03*
X4247165Y8039180D02*
D03*
X4397165Y7739180D02*
D03*
Y7139180D02*
D03*
Y6539180D02*
D03*
X4247165Y6239181D02*
D03*
X4397165Y5939181D02*
D03*
X4247165Y5639181D02*
D03*
X4397165Y5339181D02*
D03*
X4247165Y5039181D02*
D03*
X4397165Y4139181D02*
D03*
Y1739182D02*
D03*
X4247165Y1439182D02*
D03*
Y839182D02*
D03*
X4397165Y539182D02*
D03*
X4097166Y7739180D02*
D03*
X3947166Y6239181D02*
D03*
X4097166Y5939181D02*
D03*
X3947166Y5639181D02*
D03*
Y5039181D02*
D03*
Y4439181D02*
D03*
X4097166Y4139181D02*
D03*
X3947166Y3839181D02*
D03*
X4097166Y3539181D02*
D03*
Y1739182D02*
D03*
X3947166Y1439182D02*
D03*
X4097166Y1139182D02*
D03*
X3947166Y839182D02*
D03*
X4097166Y539182D02*
D03*
X3647166Y8039180D02*
D03*
X3797166Y7739180D02*
D03*
X3647166Y6839180D02*
D03*
Y5639181D02*
D03*
Y5039181D02*
D03*
Y4439181D02*
D03*
X3797166Y3539181D02*
D03*
Y2939182D02*
D03*
X3647166Y2039182D02*
D03*
X3797166Y1139182D02*
D03*
X3647166Y839182D02*
D03*
Y239182D02*
D03*
X3347166Y8039180D02*
D03*
X3497166Y7739180D02*
D03*
X3347166Y6239181D02*
D03*
Y5639181D02*
D03*
Y4439181D02*
D03*
X3497166Y3539181D02*
D03*
X3347166Y3239181D02*
D03*
X3497166Y2939182D02*
D03*
X3347166Y2039182D02*
D03*
X3497166Y1739182D02*
D03*
Y1139182D02*
D03*
Y539182D02*
D03*
X3347166Y239182D02*
D03*
X3047166Y8039180D02*
D03*
X3197166Y7739180D02*
D03*
X3047166Y7439180D02*
D03*
Y6839180D02*
D03*
X3197166Y6539180D02*
D03*
X3047166Y6239181D02*
D03*
Y5639181D02*
D03*
Y5039181D02*
D03*
X3197166Y3539181D02*
D03*
X3047166Y3239181D02*
D03*
X3197166Y2939182D02*
D03*
X3047166Y2039182D02*
D03*
X3197166Y1739182D02*
D03*
X3047166Y1439182D02*
D03*
X3197166Y539182D02*
D03*
X3047166Y239182D02*
D03*
X2897166Y7739180D02*
D03*
X2747166Y7439180D02*
D03*
Y6839180D02*
D03*
X2897166Y6539180D02*
D03*
X2747166Y6239181D02*
D03*
Y5639181D02*
D03*
Y5039181D02*
D03*
Y4439181D02*
D03*
X2897166Y3539181D02*
D03*
X2747166Y3239181D02*
D03*
X2897166Y2939182D02*
D03*
X2747166Y2039182D02*
D03*
X2897166Y1739182D02*
D03*
X2747166Y1439182D02*
D03*
X2897166Y1139182D02*
D03*
Y539182D02*
D03*
X2447166Y7439180D02*
D03*
X2597166Y6539180D02*
D03*
X2447166Y6239181D02*
D03*
X2597166Y5939181D02*
D03*
X2447166Y5639181D02*
D03*
Y5039181D02*
D03*
X2597166Y4139181D02*
D03*
Y3539181D02*
D03*
Y2939182D02*
D03*
X2447166Y2039182D02*
D03*
Y1439182D02*
D03*
X2597166Y539182D02*
D03*
X2297166Y7739180D02*
D03*
X2147166Y6839180D02*
D03*
X2297166Y6539180D02*
D03*
X2147166Y6239181D02*
D03*
Y5639181D02*
D03*
Y5039181D02*
D03*
X2297166Y4739181D02*
D03*
Y4139181D02*
D03*
Y3539181D02*
D03*
X2147166Y3239181D02*
D03*
X2297166Y2939182D02*
D03*
X2147166Y2039182D02*
D03*
Y239182D02*
D03*
X1847166Y8039180D02*
D03*
X1997166Y7739180D02*
D03*
X1847166Y7439180D02*
D03*
Y4439181D02*
D03*
X1997166Y3539181D02*
D03*
X1847166Y3239181D02*
D03*
X1997166Y2939182D02*
D03*
X1847166Y2639182D02*
D03*
Y2039182D02*
D03*
X1547166Y8039180D02*
D03*
Y6839180D02*
D03*
X1697166Y6539180D02*
D03*
X1547166Y6239181D02*
D03*
X1697166Y5939181D02*
D03*
X1547166Y5639181D02*
D03*
Y4439181D02*
D03*
X1697166Y4139181D02*
D03*
Y3539181D02*
D03*
X1547166Y3239181D02*
D03*
X1697166Y2939182D02*
D03*
X1547166Y2639182D02*
D03*
Y2039182D02*
D03*
Y1439182D02*
D03*
X1247166Y8039180D02*
D03*
Y6839180D02*
D03*
X1397166Y6539180D02*
D03*
X1247166Y6239181D02*
D03*
X1397166Y5939181D02*
D03*
Y5339181D02*
D03*
X1247166Y4439181D02*
D03*
X1397166Y4139181D02*
D03*
X1247166Y3239181D02*
D03*
X1397166Y2939182D02*
D03*
X1247166Y2639182D02*
D03*
Y2039182D02*
D03*
Y1439182D02*
D03*
X1397166Y1139182D02*
D03*
X947167Y6839180D02*
D03*
X1097166Y6539180D02*
D03*
X947167Y6239181D02*
D03*
X1097166Y5939181D02*
D03*
X947167Y5639181D02*
D03*
X1097166Y3539181D02*
D03*
Y2939182D02*
D03*
X947167Y2639182D02*
D03*
Y2039182D02*
D03*
Y1439182D02*
D03*
X647167Y6839180D02*
D03*
X797167Y6539180D02*
D03*
X647167Y6239181D02*
D03*
X797167Y5939181D02*
D03*
X647167Y5639181D02*
D03*
X797167Y5339181D02*
D03*
Y1139182D02*
D03*
X497167Y7739180D02*
D03*
Y5939181D02*
D03*
X347167Y5639181D02*
D03*
D33*
X1440000Y5050000D02*
D03*
X1769996Y3799992D02*
D03*
X1650000Y4010000D02*
D03*
X1910000Y3740000D02*
D03*
X4349991Y2739995D02*
D03*
X4227792Y2879994D02*
D03*
X6284961Y477438D02*
D03*
X6179988Y529999D02*
D03*
X4090000Y3920000D02*
D03*
X5350000Y3940000D02*
D03*
X5910000Y4230000D02*
D03*
X4480000Y3530000D02*
D03*
X1860000Y7200000D02*
D03*
X5780000Y2480000D02*
D03*
X5500000Y2485000D02*
D03*
X4169718Y4650000D02*
D03*
X5605711Y3868284D02*
D03*
X5490000Y2720000D02*
D03*
X5789988Y1899996D02*
D03*
X6200000Y1030000D02*
D03*
Y1758995D02*
D03*
X6205000Y3690000D02*
D03*
Y2535000D02*
D03*
X6205000Y3310000D02*
D03*
X4259991Y4839990D02*
D03*
X1430000Y3820000D02*
D03*
X4170000Y3010000D02*
D03*
X4119992Y2879994D02*
D03*
X5820000Y2990000D02*
D03*
X2120000Y7200000D02*
D03*
X4339991Y2189996D02*
D03*
X1290000Y890000D02*
D03*
X5560000Y1900000D02*
D03*
X2700000Y980000D02*
D03*
X3060000Y794246D02*
D03*
X5767132Y4085000D02*
D03*
X940000Y670000D02*
D03*
X4119992Y2189996D02*
D03*
X4229992Y2190000D02*
D03*
D34*
X6700000Y5368500D02*
D03*
X6446000D02*
D03*
X604000D02*
D03*
X350000D02*
D03*
%TF.MD5,93bbe89284401c0ca069c82cd4695951*%
M02*
