M48
;Layer_Color=13421619
;FILE_FORMAT=4:4
METRIC
;TYPE=NON_PLATED
T5F00S00C1.0200
T6F00S00C3.0000
T7F00S00C3.2000
%
T05
X-00000400Y00000000
X00025000
Y00025400
Y00050800
Y00076200
Y00101600
Y00127000
Y00152400
Y00177800
Y00203200
Y00228600
Y00254000
Y00279400
X-00000400
Y00254000
Y00228600
Y00203200
Y00177800
Y00152400
Y00127000
Y00101600
Y00076200
Y00050800
Y00025400
X00609200
Y00000000
X00634600
Y00025400
Y00050800
Y00076200
Y00101600
Y00127000
Y00152400
Y00177800
Y00203200
Y00228600
Y00254000
Y00279400
X00609200
Y00254000
Y00228600
Y00203200
Y00177800
Y00152400
Y00127000
Y00101600
Y00076200
Y00050800
Y00304800
X00634600
Y00330200
Y00355600
Y00381000
Y00406400
Y00431800
Y00457200
X00609200
Y00431800
Y00406400
Y00381000
Y00355600
Y00330200
X00492500Y00487200
Y00512600
Y00538000
Y00563400
Y00588800
Y00614200
Y00639600
Y00665000
X00263900
Y00639600
Y00614200
Y00588800
Y00563400
Y00538000
Y00512600
Y00487200
X00025000Y00457200
Y00431800
Y00406400
Y00381000
Y00355600
Y00330200
Y00304800
X-00000400
Y00330200
Y00355600
Y00381000
Y00406400
Y00431800
Y00457200
Y00711200
Y00736600
X00634600
Y00711200
T06
X00255000Y00287000
X00388833
X00522667
X00164999Y00731203
T07
X00097500Y00025000
X00405313Y-00026186
X00537500Y00035000
X00557500Y00482500
X00587500Y00650000
X00075114Y00494514
X00154510Y00325000
X00050000Y00650000
M30
