%TF.GenerationSoftware,Altium Limited,Altium Designer,20.1.14 (287)*%
G04 Layer_Color=10079487*
%FSLAX44Y44*%
%MOMM*%
%TF.SameCoordinates,63771276-D6CB-4F8E-99AF-54020A414098*%
%TF.FilePolarity,Positive*%
%TF.FileFunction,Legend,Bot*%
%TF.Part,Single*%
G01*
G75*
%TA.AperFunction,NonConductor*%
%ADD39C,0.2540*%
G36*
X240449Y-11853D02*
X240921Y-12297D01*
X241337Y-12685D01*
X241670Y-13018D01*
X241976Y-13296D01*
X242198Y-13518D01*
X242420Y-13713D01*
X242559Y-13879D01*
X242698Y-14018D01*
X242781Y-14101D01*
X242892Y-14212D01*
X242948Y-14268D01*
Y-14296D01*
X242670D01*
X242031Y-14351D01*
X241726Y-14379D01*
X241448Y-14434D01*
X241226Y-14490D01*
X241060Y-14518D01*
X240921Y-14573D01*
X240893D01*
X240865Y-14545D01*
X240810Y-14518D01*
X240588Y-14351D01*
X240338Y-14101D01*
X240033Y-13824D01*
X239727Y-13574D01*
X239477Y-13324D01*
X239366Y-13241D01*
X239283Y-13157D01*
X239255Y-13130D01*
X239227Y-13102D01*
X210743Y-13102D01*
X210382Y-13074D01*
X210105Y-12963D01*
X209911Y-12852D01*
X209799Y-12685D01*
X209716Y-12547D01*
X209688Y-12408D01*
X209661Y-12325D01*
Y-12297D01*
Y-12158D01*
Y-12019D01*
X209716Y-11880D01*
X209855Y-11686D01*
X210049Y-11547D01*
X210244Y-11464D01*
X210466Y-11381D01*
X210660Y-11353D01*
X239921Y-11353D01*
X240449Y-11853D01*
D02*
G37*
G36*
X258078Y-14934D02*
X258411Y-14962D01*
X258717Y-15045D01*
X258994Y-15101D01*
X259244Y-15184D01*
X259410Y-15267D01*
X259522Y-15295D01*
X259577Y-15323D01*
X260077Y-15628D01*
X260521Y-15961D01*
X260910Y-16350D01*
X261243Y-16794D01*
X261521Y-17238D01*
X261770Y-17683D01*
X261937Y-18154D01*
X262104Y-18627D01*
X262215Y-19071D01*
X262298Y-19459D01*
X262381Y-19848D01*
X262409Y-20181D01*
X262437Y-20459D01*
X262464Y-20681D01*
Y-20792D01*
Y-20847D01*
X262409Y-21625D01*
X262381Y-21986D01*
X262326Y-22291D01*
X262270Y-22569D01*
X262242Y-22791D01*
X262187Y-22930D01*
Y-22985D01*
X261937Y-23624D01*
X261632Y-24207D01*
X261326Y-24706D01*
X260965Y-25123D01*
X260632Y-25484D01*
X260271Y-25761D01*
X259883Y-26011D01*
X259549Y-26206D01*
X259188Y-26372D01*
X258883Y-26483D01*
X258578Y-26567D01*
X258328Y-26622D01*
X258134Y-26650D01*
X257967Y-26677D01*
X257551D01*
X257217Y-26650D01*
X256884Y-26594D01*
X256579Y-26511D01*
X256273Y-26400D01*
X255718Y-26122D01*
X255218Y-25789D01*
X254802Y-25456D01*
X254635Y-25317D01*
X254497Y-25178D01*
X254386Y-25067D01*
X254302Y-24984D01*
X254275Y-24929D01*
X254247Y-24901D01*
Y-27038D01*
X254275Y-27399D01*
X254358Y-27705D01*
X254469Y-27955D01*
X254635Y-28204D01*
X254830Y-28399D01*
X255052Y-28538D01*
X255274Y-28676D01*
X255524Y-28787D01*
X255996Y-28926D01*
X256218Y-28982D01*
X256412Y-29009D01*
X256551D01*
X256690Y-29037D01*
X256801D01*
X256968Y-29009D01*
X257217D01*
X257439Y-28982D01*
X257661Y-28926D01*
X257995Y-28760D01*
X258217Y-28593D01*
X258383Y-28399D01*
X258467Y-28232D01*
X258522Y-28066D01*
X258550Y-27955D01*
Y-27927D01*
X258578Y-27899D01*
X258689Y-27871D01*
X258855Y-27843D01*
X259077Y-27788D01*
X259327Y-27760D01*
X259633Y-27733D01*
X260243Y-27621D01*
X260882Y-27566D01*
X261159Y-27510D01*
X261437Y-27483D01*
X261659Y-27455D01*
X261826D01*
X261937Y-27427D01*
X261965D01*
X262020Y-27455D01*
X262048Y-27483D01*
X262076Y-27510D01*
Y-27538D01*
Y-27705D01*
X262048Y-28010D01*
X262020Y-28288D01*
X261965Y-28538D01*
X261909Y-28787D01*
X261854Y-28982D01*
X261798Y-29121D01*
X261743Y-29232D01*
Y-29259D01*
X261493Y-29620D01*
X261215Y-29953D01*
X260882Y-30231D01*
X260521Y-30481D01*
X260160Y-30675D01*
X259744Y-30842D01*
X259355Y-30981D01*
X258966Y-31092D01*
X258578Y-31203D01*
X258244Y-31258D01*
X257911Y-31314D01*
X257634Y-31342D01*
X257384D01*
X257217Y-31369D01*
X256273D01*
X255801Y-31342D01*
X255357Y-31314D01*
X254913Y-31230D01*
X254524Y-31147D01*
X254163Y-31036D01*
X253858Y-30897D01*
X253553Y-30759D01*
X253275Y-30620D01*
X253053Y-30509D01*
X252831Y-30370D01*
X252664Y-30231D01*
X252526Y-30120D01*
X252414Y-30037D01*
X252331Y-29953D01*
X252303Y-29926D01*
X252276Y-29898D01*
X252081Y-29676D01*
X251915Y-29398D01*
X251776Y-29093D01*
X251637Y-28732D01*
X251554Y-28343D01*
X251443Y-27927D01*
X251332Y-27094D01*
X251276Y-26677D01*
X251248Y-26289D01*
X251221Y-25956D01*
Y-25650D01*
X251193Y-25373D01*
Y-25178D01*
Y-25067D01*
Y-25012D01*
Y-15212D01*
Y-15184D01*
X251221D01*
X251248Y-15156D01*
X253997D01*
X254080Y-15184D01*
X254108Y-15212D01*
Y-16683D01*
X254386Y-16378D01*
X254663Y-16100D01*
X254941Y-15850D01*
X255218Y-15656D01*
X255524Y-15489D01*
X255774Y-15351D01*
X256301Y-15128D01*
X256745Y-14990D01*
X256940Y-14962D01*
X257106Y-14934D01*
X257217Y-14906D01*
X257745D01*
X258078Y-14934D01*
D02*
G37*
G36*
X238145Y-16239D02*
X237673Y-16822D01*
X237478Y-17100D01*
X237284Y-17377D01*
X237145Y-17599D01*
X237034Y-17794D01*
X236951Y-17905D01*
X236923Y-17960D01*
X210605Y-17960D01*
X210271Y-17877D01*
X210049Y-17766D01*
X209883Y-17627D01*
X209744Y-17488D01*
X209688Y-17349D01*
X209661Y-17211D01*
X209633Y-17127D01*
Y-17100D01*
Y-17072D01*
X209661Y-16794D01*
X209772Y-16572D01*
X209938Y-16433D01*
X210105Y-16322D01*
X210299Y-16267D01*
X210438Y-16211D01*
X238145Y-16211D01*
Y-16239D01*
D02*
G37*
G36*
X270543Y-14934D02*
X271210Y-15045D01*
X271765Y-15184D01*
X272237Y-15323D01*
X272625Y-15489D01*
X272903Y-15628D01*
X272986Y-15684D01*
X273069Y-15739D01*
X273097Y-15767D01*
X273125D01*
X273486Y-16156D01*
X273819Y-16544D01*
X274069Y-16933D01*
X274263Y-17322D01*
X274402Y-17627D01*
X274513Y-17905D01*
X274569Y-18071D01*
X274597Y-18099D01*
Y-18127D01*
Y-18182D01*
X274513Y-18210D01*
X274374Y-18238D01*
X274208Y-18266D01*
X274013Y-18293D01*
X273569Y-18377D01*
X273097Y-18488D01*
X272653Y-18571D01*
X272431Y-18599D01*
X272237Y-18627D01*
X272098Y-18654D01*
X271987Y-18682D01*
X271903Y-18710D01*
X271876D01*
X271765Y-18460D01*
X271654Y-18238D01*
X271515Y-18044D01*
X271376Y-17877D01*
X271071Y-17627D01*
X270765Y-17461D01*
X270515Y-17377D01*
X270266Y-17322D01*
X270127Y-17294D01*
X269460D01*
X269155Y-17322D01*
X268905Y-17349D01*
X268683Y-17433D01*
X268489Y-17516D01*
X268322Y-17627D01*
X268183Y-17766D01*
X267989Y-18044D01*
X267850Y-18321D01*
X267795Y-18571D01*
X267767Y-18737D01*
Y-18765D01*
Y-18793D01*
Y-19210D01*
X268322Y-19376D01*
X268850Y-19515D01*
X269349Y-19626D01*
X269794Y-19709D01*
X270154Y-19792D01*
X270460Y-19848D01*
X270571Y-19876D01*
X270654Y-19904D01*
X270710D01*
X271459Y-20042D01*
X272098Y-20237D01*
X272653Y-20459D01*
X273125Y-20709D01*
X273542Y-20986D01*
X273875Y-21292D01*
X274152Y-21597D01*
X274374Y-21902D01*
X274541Y-22180D01*
X274680Y-22485D01*
X274763Y-22735D01*
X274846Y-22957D01*
X274874Y-23152D01*
X274902Y-23291D01*
Y-23402D01*
Y-23429D01*
Y-23790D01*
X274874Y-24096D01*
X274791Y-24401D01*
X274763Y-24512D01*
X274735Y-24623D01*
X274708Y-24679D01*
Y-24706D01*
X274513Y-25095D01*
X274291Y-25428D01*
X274013Y-25734D01*
X273764Y-25984D01*
X273458Y-26206D01*
X273181Y-26372D01*
X272903Y-26539D01*
X272598Y-26650D01*
X272070Y-26816D01*
X271848Y-26872D01*
X271654Y-26900D01*
X271487D01*
X271348Y-26927D01*
X270960D01*
X270599Y-26900D01*
X270266Y-26872D01*
X269627Y-26705D01*
X269044Y-26455D01*
X268517Y-26178D01*
X268100Y-25928D01*
X267906Y-25789D01*
X267767Y-25678D01*
X267656Y-25595D01*
X267573Y-25512D01*
X267517Y-25484D01*
X267489Y-25456D01*
X267434Y-25678D01*
X267378Y-25845D01*
X267295Y-26150D01*
X267239Y-26372D01*
X267156Y-26511D01*
X267101Y-26622D01*
X267073Y-26650D01*
X267045Y-26677D01*
X264102D01*
X264324Y-26122D01*
X264491Y-25567D01*
X264630Y-25012D01*
X264713Y-24512D01*
X264769Y-24040D01*
Y-23846D01*
X264796Y-23707D01*
Y-23568D01*
Y-23457D01*
Y-23402D01*
Y-23374D01*
Y-22680D01*
Y-21930D01*
X264769Y-21181D01*
Y-20487D01*
Y-20153D01*
Y-19848D01*
X264741Y-19598D01*
Y-19348D01*
Y-19154D01*
Y-19015D01*
Y-18932D01*
Y-18904D01*
X264769Y-18515D01*
X264796Y-18182D01*
X264824Y-17877D01*
X264852Y-17599D01*
X264880Y-17405D01*
X264907Y-17238D01*
X264935Y-17155D01*
Y-17127D01*
X265102Y-16739D01*
X265324Y-16406D01*
X265602Y-16100D01*
X265907Y-15850D01*
X266240Y-15628D01*
X266601Y-15434D01*
X266962Y-15295D01*
X267351Y-15184D01*
X268072Y-15017D01*
X268378Y-14962D01*
X268655Y-14934D01*
X268905Y-14906D01*
X269821D01*
X270543Y-14934D01*
D02*
G37*
G36*
X210688Y-21042D02*
X210910Y-21070D01*
X236368Y-21070D01*
X236396Y-21097D01*
X236423Y-21125D01*
Y-21153D01*
Y-21264D01*
X236451Y-21791D01*
X236479Y-22041D01*
Y-22236D01*
X236507Y-22430D01*
X236535Y-22569D01*
X236562Y-22652D01*
Y-22680D01*
X236535Y-22763D01*
X233897D01*
X232620Y-22735D01*
X223625Y-22735D01*
X222653Y-22708D01*
X210910D01*
X210382Y-22763D01*
X210160Y-22735D01*
X209994Y-22624D01*
X209855Y-22513D01*
X209744Y-22347D01*
X209661Y-22208D01*
X209605Y-22069D01*
X209577Y-21986D01*
Y-21958D01*
Y-21819D01*
X209605Y-21597D01*
X209688Y-21430D01*
X209827Y-21292D01*
X209966Y-21181D01*
X210133Y-21097D01*
X210244Y-21042D01*
X210355Y-21014D01*
X210382D01*
X210688Y-21042D01*
D02*
G37*
G36*
X249916Y-20875D02*
X250138Y-21125D01*
X250305Y-21292D01*
X250443Y-21403D01*
X250499Y-21486D01*
X250527Y-21542D01*
X250554Y-21569D01*
Y-23735D01*
X250527Y-23818D01*
X250166Y-23457D01*
X249888Y-23207D01*
X249694Y-23013D01*
X249527Y-22902D01*
X249444Y-22819D01*
X249388Y-22791D01*
X249361Y-22763D01*
X249416Y-22402D01*
X249444Y-22069D01*
X249499Y-21764D01*
Y-21514D01*
X249527Y-21292D01*
Y-21153D01*
Y-21042D01*
Y-21014D01*
Y-20681D01*
X249583Y-20570D01*
X249916Y-20875D01*
D02*
G37*
G36*
X297500Y-10797D02*
X297528Y-10825D01*
Y-10853D01*
Y-10881D01*
Y-26594D01*
X297500Y-26650D01*
X297472Y-26677D01*
X294391D01*
X294335Y-26650D01*
X294308Y-26622D01*
Y-26594D01*
Y-20709D01*
X292225D01*
X291698Y-20681D01*
X291226D01*
X290810Y-20653D01*
X290421Y-20625D01*
X290088Y-20598D01*
X289782Y-20570D01*
X289505Y-20542D01*
X289283Y-20514D01*
X289088Y-20487D01*
X288950D01*
X288811Y-20459D01*
X288727Y-20431D01*
X288672Y-20403D01*
X288616D01*
X288033Y-20153D01*
X287534Y-19876D01*
X287089Y-19543D01*
X286701Y-19182D01*
X286395Y-18793D01*
X286118Y-18404D01*
X285896Y-17988D01*
X285729Y-17599D01*
X285590Y-17238D01*
X285479Y-16877D01*
X285424Y-16544D01*
X285368Y-16267D01*
X285340Y-16017D01*
X285313Y-15850D01*
Y-15711D01*
Y-15684D01*
X285340Y-15184D01*
X285396Y-14712D01*
X285507Y-14268D01*
X285646Y-13879D01*
X285785Y-13491D01*
X285951Y-13157D01*
X286145Y-12852D01*
X286340Y-12574D01*
X286534Y-12325D01*
X286728Y-12102D01*
X286895Y-11936D01*
X287034Y-11769D01*
X287173Y-11658D01*
X287284Y-11575D01*
X287339Y-11547D01*
X287367Y-11519D01*
X287534Y-11380D01*
X287784Y-11270D01*
X288089Y-11158D01*
X288450Y-11075D01*
X288866Y-11020D01*
X289283Y-10964D01*
X290171Y-10853D01*
X290588Y-10825D01*
X291004Y-10797D01*
X291393D01*
X291726Y-10770D01*
X297445D01*
X297500Y-10797D01*
D02*
G37*
G36*
X277817Y-14934D02*
X278067Y-14990D01*
X278289Y-15073D01*
X278539Y-15184D01*
X278955Y-15489D01*
X279316Y-15822D01*
X279621Y-16156D01*
X279871Y-16461D01*
X279955Y-16572D01*
X280010Y-16655D01*
X280038Y-16711D01*
X280066Y-16739D01*
Y-15212D01*
Y-15184D01*
X280093D01*
X280121Y-15156D01*
X282786D01*
X282842Y-15184D01*
X282870Y-15212D01*
Y-26594D01*
X282842Y-26650D01*
X282814Y-26677D01*
X279927D01*
X279871Y-26650D01*
X279816Y-26622D01*
Y-26594D01*
Y-24318D01*
Y-23651D01*
Y-23041D01*
X279788Y-22485D01*
Y-21986D01*
X279760Y-21542D01*
Y-21153D01*
X279732Y-20820D01*
X279705Y-20514D01*
Y-20264D01*
X279677Y-20070D01*
Y-19876D01*
X279649Y-19765D01*
Y-19654D01*
X279621Y-19598D01*
Y-19543D01*
X279538Y-19210D01*
X279427Y-18932D01*
X279344Y-18682D01*
X279205Y-18460D01*
X279094Y-18293D01*
X278955Y-18127D01*
X278678Y-17905D01*
X278428Y-17794D01*
X278233Y-17710D01*
X278095Y-17683D01*
X277650D01*
X277428Y-17710D01*
X277206Y-17738D01*
X276817Y-17905D01*
X276651Y-17988D01*
X276512Y-18044D01*
X276429Y-18099D01*
X276401Y-18127D01*
X276373Y-18071D01*
X276318Y-17960D01*
X276262Y-17821D01*
X276179Y-17627D01*
X276040Y-17238D01*
X275874Y-16766D01*
X275707Y-16350D01*
X275624Y-16128D01*
X275568Y-15961D01*
X275513Y-15822D01*
X275457Y-15711D01*
X275429Y-15628D01*
Y-15600D01*
X275457Y-15517D01*
X275513Y-15434D01*
X275596Y-15378D01*
X275707Y-15295D01*
X276012Y-15184D01*
X276346Y-15073D01*
X276706Y-15017D01*
X276984Y-14962D01*
X277123Y-14934D01*
X277206Y-14906D01*
X277567D01*
X277817Y-14934D01*
D02*
G37*
G36*
X243586D02*
X243975Y-14962D01*
X244724Y-15128D01*
X245363Y-15351D01*
X245946Y-15628D01*
X246196Y-15767D01*
X246418Y-15906D01*
X246612Y-16017D01*
X246751Y-16128D01*
X246890Y-16211D01*
X246973Y-16294D01*
X247029Y-16322D01*
X247056Y-16350D01*
X247390Y-16711D01*
X247667Y-17072D01*
X247917Y-17461D01*
X248139Y-17821D01*
X248306Y-18182D01*
X248472Y-18515D01*
X248694Y-19154D01*
X248750Y-19459D01*
X248805Y-19709D01*
X248861Y-19959D01*
X248889Y-20153D01*
X248916Y-20320D01*
Y-20431D01*
Y-20514D01*
Y-20542D01*
Y-21014D01*
X248889Y-21680D01*
X248778Y-22291D01*
X248639Y-22874D01*
X248500Y-23374D01*
X248333Y-23790D01*
X248278Y-23957D01*
X248222Y-24096D01*
X248167Y-24207D01*
X248111Y-24290D01*
X248084Y-24346D01*
Y-24373D01*
X247723Y-24818D01*
X247334Y-25206D01*
X246917Y-25567D01*
X246529Y-25845D01*
X246112Y-26095D01*
X245696Y-26317D01*
X245280Y-26483D01*
X244891Y-26594D01*
X244530Y-26705D01*
X244169Y-26789D01*
X243864Y-26844D01*
X243614Y-26900D01*
X243392D01*
X243225Y-26927D01*
X242809D01*
X242337Y-26900D01*
X241893Y-26844D01*
X241476Y-26761D01*
X241115Y-26650D01*
X240810Y-26567D01*
X240560Y-26483D01*
X240421Y-26428D01*
X240366Y-26400D01*
X239783Y-26039D01*
X239255Y-25623D01*
X238811Y-25206D01*
X238422Y-24762D01*
X238089Y-24318D01*
X237839Y-23846D01*
X237617Y-23402D01*
X237423Y-22957D01*
X237284Y-22541D01*
X237173Y-22152D01*
X237118Y-21791D01*
X237062Y-21486D01*
X237034Y-21236D01*
X237006Y-21042D01*
Y-20903D01*
Y-20875D01*
X237034Y-20375D01*
X237090Y-19904D01*
X237173Y-19459D01*
X237284Y-19071D01*
X237395Y-18737D01*
X237478Y-18488D01*
X237534Y-18321D01*
X237562Y-18266D01*
X237895Y-17683D01*
X238284Y-17155D01*
X238672Y-16711D01*
X239116Y-16322D01*
X239533Y-15989D01*
X239977Y-15739D01*
X240421Y-15517D01*
X240838Y-15323D01*
X241226Y-15184D01*
X241615Y-15073D01*
X241948Y-15017D01*
X242226Y-14962D01*
X242476Y-14934D01*
X242642Y-14906D01*
X243170D01*
X243586Y-14934D01*
D02*
G37*
G36*
X255829Y-26983D02*
X255968D01*
X256107Y-27038D01*
X256385Y-27177D01*
X256662Y-27399D01*
X256940Y-27621D01*
X257190Y-27843D01*
X257384Y-28066D01*
X257495Y-28204D01*
X257551Y-28232D01*
Y-28260D01*
X257523Y-28288D01*
X257467Y-28315D01*
X257245Y-28343D01*
X257051Y-28371D01*
X256523D01*
X256246Y-28343D01*
X255996Y-28315D01*
X255829Y-28288D01*
X255774D01*
X255607Y-28260D01*
X255468Y-28204D01*
X255357Y-28121D01*
X255246Y-28010D01*
X255107Y-27733D01*
X254996Y-27399D01*
X254941Y-27094D01*
X254885Y-26816D01*
Y-26705D01*
Y-26622D01*
Y-26567D01*
Y-26539D01*
X254941Y-26455D01*
X255829Y-26983D01*
D02*
G37*
G36*
X248972Y-24818D02*
X249250Y-25067D01*
X249472Y-25262D01*
X249666Y-25456D01*
X249999Y-25761D01*
X250221Y-25956D01*
X250388Y-26095D01*
X250471Y-26178D01*
X250527Y-26233D01*
X250582Y-26927D01*
X250665Y-27510D01*
X250749Y-27982D01*
X250832Y-28371D01*
X250888Y-28676D01*
X250943Y-28871D01*
X250971Y-29009D01*
X250999Y-29037D01*
Y-29093D01*
X250471Y-28593D01*
X250027Y-28177D01*
X249611Y-27788D01*
X249250Y-27427D01*
X248944Y-27122D01*
X248667Y-26872D01*
X248444Y-26650D01*
X248250Y-26455D01*
X248084Y-26317D01*
X247945Y-26178D01*
X247861Y-26095D01*
X247778Y-26011D01*
X247695Y-25928D01*
X247667Y-25900D01*
X247917Y-25623D01*
X248111Y-25345D01*
X248306Y-25123D01*
X248444Y-24929D01*
X248556Y-24762D01*
X248639Y-24651D01*
X248667Y-24568D01*
X248694Y-24540D01*
X248972Y-24818D01*
D02*
G37*
G36*
X262548Y-29592D02*
X262492D01*
X262409Y-29620D01*
X262353Y-29648D01*
X262326Y-29676D01*
X262270D01*
Y-29592D01*
X262298Y-29537D01*
X262326Y-29509D01*
X262353Y-29481D01*
X262548D01*
Y-29592D01*
D02*
G37*
G36*
X297250Y-29509D02*
X297500Y-29592D01*
X297695Y-29731D01*
X297833Y-29870D01*
X297917Y-30037D01*
X297972Y-30148D01*
X298000Y-30259D01*
Y-30287D01*
X297945Y-30592D01*
X297861Y-30842D01*
X297722Y-31008D01*
X297584Y-31119D01*
X297445Y-31175D01*
X297306Y-31203D01*
X297223Y-31230D01*
X276762D01*
X276706Y-31203D01*
X276679Y-31175D01*
Y-31147D01*
Y-31119D01*
Y-29592D01*
Y-29537D01*
X276706Y-29509D01*
X276734Y-29481D01*
X296945D01*
X297250Y-29509D01*
D02*
G37*
G36*
X246140Y-26955D02*
X246251Y-27038D01*
X246501Y-27288D01*
X246862Y-27621D01*
X247306Y-28038D01*
X247806Y-28510D01*
X248333Y-29037D01*
X249499Y-30120D01*
X250055Y-30675D01*
X250610Y-31203D01*
X251137Y-31702D01*
X251582Y-32147D01*
X251970Y-32508D01*
X252276Y-32785D01*
X252387Y-32896D01*
X252470Y-32980D01*
X252498Y-33007D01*
X252526Y-33035D01*
Y-33091D01*
X252137Y-33035D01*
X251471Y-33063D01*
X251137Y-33091D01*
X250860Y-33118D01*
X250610Y-33174D01*
X250416Y-33202D01*
X250305Y-33229D01*
X250249D01*
X249749Y-32757D01*
X249277Y-32285D01*
X248833Y-31869D01*
X248417Y-31480D01*
X247639Y-30731D01*
X247001Y-30120D01*
X246418Y-29565D01*
X245946Y-29121D01*
X245557Y-28732D01*
X245224Y-28399D01*
X244946Y-28149D01*
X244752Y-27955D01*
X244585Y-27788D01*
X244475Y-27677D01*
X244419Y-27621D01*
X244363Y-27566D01*
X244336Y-27538D01*
Y-27483D01*
X244808Y-27344D01*
X245196Y-27233D01*
X245502Y-27150D01*
X245724Y-27066D01*
X245890Y-26983D01*
X246001Y-26927D01*
X246057Y-26900D01*
X246085D01*
X246140Y-26955D01*
D02*
G37*
G36*
X238644Y-26095D02*
X238950Y-26317D01*
X239561Y-26705D01*
X240088Y-26983D01*
X240588Y-27205D01*
X241004Y-27344D01*
X241171Y-27399D01*
X241310Y-27427D01*
X241421Y-27455D01*
X241504Y-27483D01*
X241587D01*
X241670Y-27538D01*
X241782Y-27649D01*
X242087Y-27927D01*
X242476Y-28288D01*
X242948Y-28732D01*
X243475Y-29232D01*
X244058Y-29759D01*
X245252Y-30897D01*
X245835Y-31480D01*
X246390Y-32008D01*
X246917Y-32535D01*
X247390Y-32980D01*
X247778Y-33340D01*
X248084Y-33646D01*
X248195Y-33757D01*
X248278Y-33840D01*
X248306Y-33868D01*
X248333Y-33896D01*
X248056Y-34090D01*
X247778Y-34284D01*
X247556Y-34451D01*
X247362Y-34618D01*
X247223Y-34756D01*
X247084Y-34840D01*
X247029Y-34895D01*
X247001Y-34923D01*
X239227Y-27566D01*
X210660Y-27566D01*
X210299Y-27538D01*
X210022Y-27455D01*
X209827Y-27316D01*
X209716Y-27177D01*
X209633Y-27039D01*
X209605Y-26900D01*
X209577Y-26816D01*
Y-26789D01*
Y-26650D01*
Y-26511D01*
X209633Y-26372D01*
X209772Y-26178D01*
X209966Y-26039D01*
X210160Y-25956D01*
X210382Y-25872D01*
X210577Y-25845D01*
X238339Y-25845D01*
X238644Y-26095D01*
D02*
G37*
G36*
X297362Y-34395D02*
X297611Y-34506D01*
X297778Y-34673D01*
X297889Y-34812D01*
X297945Y-34951D01*
X297972Y-35089D01*
X298000Y-35173D01*
Y-35201D01*
Y-35256D01*
X297972Y-35534D01*
X297861Y-35728D01*
X297695Y-35895D01*
X297528Y-35978D01*
X297362Y-36033D01*
X297195Y-36061D01*
X297084Y-36089D01*
X276762D01*
X276706Y-36061D01*
X276679Y-36033D01*
Y-36006D01*
Y-34423D01*
Y-34368D01*
X276706Y-34340D01*
X297056D01*
X297362Y-34395D01*
D02*
G37*
G36*
X254247Y-31758D02*
X254802Y-31841D01*
X255274Y-31925D01*
X255690Y-31952D01*
X256024Y-31980D01*
X256301Y-32008D01*
X256523D01*
X258994Y-34340D01*
X259771D01*
X259938Y-34756D01*
X260077Y-35089D01*
X260216Y-35367D01*
X260354Y-35617D01*
X260438Y-35784D01*
X260521Y-35895D01*
X260576Y-35978D01*
X260604Y-36006D01*
Y-36089D01*
X258328D01*
X257523Y-35339D01*
X256829Y-34673D01*
X256218Y-34090D01*
X255690Y-33563D01*
X255246Y-33146D01*
X254858Y-32785D01*
X254552Y-32480D01*
X254302Y-32230D01*
X254108Y-32036D01*
X253969Y-31897D01*
X253858Y-31786D01*
X253775Y-31702D01*
X253719Y-31675D01*
X253692Y-31647D01*
Y-31619D01*
X254247Y-31758D01*
D02*
G37*
G36*
X239338Y-33757D02*
X239894Y-33840D01*
X240421Y-33923D01*
X240838Y-34035D01*
X241199Y-34173D01*
X241476Y-34257D01*
X241643Y-34340D01*
X241670Y-34368D01*
X241698D01*
X242170Y-34701D01*
X242559Y-35117D01*
X242892Y-35561D01*
X243142Y-36006D01*
X243364Y-36394D01*
X243503Y-36727D01*
X243558Y-36866D01*
X243586Y-36950D01*
X243614Y-37005D01*
Y-37033D01*
X243586Y-37061D01*
X243503Y-37088D01*
X243336Y-37116D01*
X243170Y-37144D01*
X242948Y-37199D01*
X242698Y-37227D01*
X242170Y-37338D01*
X241670Y-37422D01*
X241421Y-37449D01*
X241199Y-37477D01*
X241004Y-37505D01*
X240865Y-37532D01*
X240782Y-37560D01*
X240671D01*
X240560Y-37310D01*
X240449Y-37088D01*
X240310Y-36894D01*
X240144Y-36727D01*
X239838Y-36478D01*
X239533Y-36311D01*
X239227Y-36228D01*
X239005Y-36172D01*
X238839Y-36144D01*
X237950D01*
X237673Y-36172D01*
X237451Y-36228D01*
X237284Y-36256D01*
X237173Y-36311D01*
X237062Y-36367D01*
X237034Y-36394D01*
X237006D01*
X236895Y-36422D01*
X236812Y-36450D01*
X236729Y-36533D01*
X236673Y-36644D01*
X236562Y-36894D01*
X236479Y-37199D01*
X236423Y-37505D01*
X236396Y-37755D01*
X236368Y-37866D01*
Y-37921D01*
Y-37977D01*
Y-38005D01*
X236396Y-38032D01*
X236451Y-38088D01*
X236618Y-38171D01*
X236784Y-38227D01*
X236840Y-38254D01*
X236868D01*
X237451Y-38365D01*
X237978Y-38504D01*
X238450Y-38588D01*
X238867Y-38699D01*
X239255Y-38782D01*
X239616Y-38865D01*
X239921Y-38921D01*
X240199Y-38976D01*
X240421Y-39032D01*
X240616Y-39087D01*
X240782Y-39115D01*
X240893Y-39143D01*
X241004Y-39170D01*
X241060Y-39198D01*
X241115D01*
X241615Y-39365D01*
X242059Y-39587D01*
X242448Y-39809D01*
X242781Y-40059D01*
X243031Y-40336D01*
X243281Y-40614D01*
X243475Y-40892D01*
X243614Y-41169D01*
X243725Y-41419D01*
X243836Y-41669D01*
X243892Y-41891D01*
X243919Y-42113D01*
X243947Y-42280D01*
X243975Y-42391D01*
Y-42474D01*
Y-42502D01*
X243947Y-42780D01*
X243919Y-43002D01*
X243892Y-43196D01*
X243864Y-43335D01*
X243836Y-43446D01*
Y-43529D01*
X243808Y-43557D01*
Y-43585D01*
X243614Y-44001D01*
X243392Y-44390D01*
X243114Y-44695D01*
X242836Y-44973D01*
X242503Y-45223D01*
X242198Y-45417D01*
X241865Y-45556D01*
X241532Y-45695D01*
X241226Y-45806D01*
X240921Y-45861D01*
X240643Y-45917D01*
X240393Y-45972D01*
X240199D01*
X240060Y-46000D01*
X239921D01*
X239533Y-45972D01*
X239144Y-45944D01*
X238422Y-45778D01*
X237784Y-45528D01*
X237229Y-45250D01*
X236979Y-45112D01*
X236757Y-44973D01*
X236562Y-44834D01*
X236423Y-44723D01*
X236285Y-44640D01*
X236201Y-44556D01*
X236146Y-44529D01*
X236118Y-44501D01*
X236090D01*
X235979Y-44862D01*
X235896Y-45167D01*
X235840Y-45389D01*
X235757Y-45528D01*
X235702Y-45639D01*
X235674Y-45722D01*
X235646Y-45750D01*
X232537D01*
X232759Y-45139D01*
X232925Y-44529D01*
X233064Y-43918D01*
X233148Y-43363D01*
X233203Y-42863D01*
Y-42668D01*
X233231Y-42474D01*
Y-42335D01*
Y-42224D01*
Y-42169D01*
Y-42141D01*
X233203Y-41836D01*
Y-41530D01*
X233175Y-41280D01*
Y-41058D01*
Y-40864D01*
Y-40725D01*
Y-40642D01*
Y-40614D01*
Y-37949D01*
Y-37560D01*
X233203Y-37199D01*
X233231Y-36894D01*
X233258Y-36616D01*
X233314Y-36422D01*
X233342Y-36256D01*
X233370Y-36172D01*
Y-36144D01*
X233536Y-35728D01*
X233758Y-35339D01*
X234036Y-35034D01*
X234341Y-34756D01*
X234702Y-34506D01*
X235091Y-34312D01*
X235507Y-34146D01*
X235896Y-34035D01*
X236285Y-33923D01*
X236673Y-33868D01*
X237006Y-33812D01*
X237312Y-33757D01*
X237589D01*
X237784Y-33729D01*
X238728D01*
X239338Y-33757D01*
D02*
G37*
G36*
X258966Y-39170D02*
X259077Y-39198D01*
X259161D01*
X259077Y-39420D01*
X259022Y-39615D01*
X258994Y-39726D01*
X258966Y-39837D01*
X258939Y-39892D01*
Y-39920D01*
Y-39948D01*
X258827D01*
Y-39143D01*
X258966Y-39170D01*
D02*
G37*
G36*
X297195Y-39226D02*
X297500Y-39309D01*
X297695Y-39448D01*
X297861Y-39587D01*
X297945Y-39753D01*
X297972Y-39865D01*
X298000Y-39976D01*
Y-40003D01*
Y-40142D01*
X297945Y-40392D01*
X297833Y-40586D01*
X297667Y-40725D01*
X297472Y-40809D01*
X297278Y-40864D01*
X297112Y-40919D01*
X276706D01*
X276679Y-40892D01*
Y-40864D01*
Y-39282D01*
Y-39226D01*
X276706Y-39198D01*
X297028D01*
X297195Y-39226D01*
D02*
G37*
G36*
X297389Y-44084D02*
X297584Y-44195D01*
X297722Y-44334D01*
X297833Y-44473D01*
X297917Y-44640D01*
X297972Y-44778D01*
X298000Y-44889D01*
Y-44917D01*
X297972Y-45139D01*
X297861Y-45334D01*
X297722Y-45472D01*
X297584Y-45584D01*
X297417Y-45667D01*
X297306Y-45722D01*
X297195Y-45750D01*
X276762D01*
X276706Y-45722D01*
X276679Y-45695D01*
Y-45667D01*
Y-45639D01*
Y-44140D01*
Y-44112D01*
X276706Y-44084D01*
X276734Y-44057D01*
X297167D01*
X297389Y-44084D01*
D02*
G37*
G36*
X259022Y-44057D02*
X259827D01*
X260077Y-44307D01*
X260299Y-44529D01*
X260715Y-44889D01*
X261076Y-45167D01*
X261382Y-45389D01*
X261604Y-45500D01*
X261798Y-45584D01*
X261909Y-45639D01*
X261937D01*
Y-45750D01*
X258328D01*
X257939Y-45389D01*
X257661Y-45112D01*
X257439Y-44917D01*
X257301Y-44778D01*
X257217Y-44695D01*
X257190Y-44640D01*
X257162Y-44612D01*
X257523Y-44140D01*
X257689Y-43918D01*
X257828Y-43696D01*
X257967Y-43529D01*
X258050Y-43390D01*
X258106Y-43279D01*
X258134Y-43252D01*
X259022Y-44057D01*
D02*
G37*
G36*
X224847Y-33757D02*
X225096Y-33812D01*
X225346Y-33896D01*
X225568Y-34007D01*
X225985Y-34312D01*
X226346Y-34645D01*
X226651Y-35006D01*
X226873Y-35284D01*
X226957Y-35423D01*
X227012Y-35506D01*
X227068Y-35561D01*
Y-35589D01*
X227123D01*
Y-34062D01*
Y-34035D01*
X227151Y-34007D01*
X227179Y-33979D01*
X230121D01*
X230149Y-34007D01*
X230177Y-34035D01*
Y-34062D01*
Y-45639D01*
X230149Y-45695D01*
X230121Y-45722D01*
X230094Y-45750D01*
X227012D01*
X226957Y-45722D01*
X226901Y-45695D01*
Y-45667D01*
Y-45639D01*
Y-42085D01*
Y-41614D01*
Y-41169D01*
X226873Y-40753D01*
Y-40392D01*
X226845Y-40059D01*
X226818Y-39753D01*
Y-39476D01*
X226790Y-39226D01*
X226762Y-39032D01*
X226734Y-38837D01*
Y-38699D01*
X226707Y-38588D01*
Y-38477D01*
X226679Y-38421D01*
Y-38365D01*
X226596Y-38032D01*
X226485Y-37755D01*
X226346Y-37505D01*
X226207Y-37310D01*
X226068Y-37116D01*
X225902Y-36977D01*
X225568Y-36755D01*
X225291Y-36616D01*
X225013Y-36561D01*
X224847Y-36533D01*
X224736D01*
X224486Y-36561D01*
X224208Y-36616D01*
X223958Y-36700D01*
X223736Y-36783D01*
X223542Y-36866D01*
X223403Y-36950D01*
X223292Y-37005D01*
X223264Y-37033D01*
X223098Y-36589D01*
X222931Y-36200D01*
X222820Y-35867D01*
X222709Y-35561D01*
X222598Y-35284D01*
X222542Y-35062D01*
X222459Y-34895D01*
X222404Y-34729D01*
X222376Y-34618D01*
X222348Y-34506D01*
X222320Y-34395D01*
X222292Y-34312D01*
Y-34257D01*
X222681Y-34090D01*
X223042Y-33951D01*
X223375Y-33868D01*
X223653Y-33785D01*
X223903Y-33757D01*
X224069Y-33729D01*
X224597D01*
X224847Y-33757D01*
D02*
G37*
G36*
X276012Y-29481D02*
Y-29509D01*
Y-29537D01*
Y-45695D01*
X275985Y-45750D01*
X275957Y-45778D01*
X275929Y-45806D01*
X270266D01*
X269766Y-45778D01*
X268211D01*
X267934Y-45750D01*
X266573D01*
X265879Y-45722D01*
X265268Y-45695D01*
X264713Y-45639D01*
X264241Y-45584D01*
X263797Y-45528D01*
X263436Y-45472D01*
X263103Y-45389D01*
X262825Y-45334D01*
X262603Y-45278D01*
X262409Y-45223D01*
X262270Y-45167D01*
X262159Y-45112D01*
X262076Y-45084D01*
X262020Y-45056D01*
X261576Y-44751D01*
X261159Y-44445D01*
X260826Y-44112D01*
X260521Y-43779D01*
X260271Y-43446D01*
X260077Y-43113D01*
X259910Y-42807D01*
X259771Y-42502D01*
X259660Y-42224D01*
X259577Y-41947D01*
X259522Y-41725D01*
X259466Y-41502D01*
Y-41336D01*
X259438Y-41225D01*
Y-41142D01*
Y-41114D01*
Y-41031D01*
X259466Y-40586D01*
X259549Y-40170D01*
X259688Y-39809D01*
X259855Y-39448D01*
X260049Y-39115D01*
X260271Y-38837D01*
X260521Y-38560D01*
X260771Y-38310D01*
X261021Y-38115D01*
X261271Y-37921D01*
X261493Y-37782D01*
X261687Y-37644D01*
X261854Y-37560D01*
X261992Y-37477D01*
X262076Y-37422D01*
X262104D01*
X262437Y-37338D01*
X262659Y-37255D01*
X262825Y-37172D01*
X262964Y-37144D01*
X263020Y-37088D01*
X263047D01*
X263075Y-37061D01*
X262825Y-36977D01*
X262409Y-36727D01*
X262020Y-36478D01*
X261715Y-36200D01*
X261437Y-35950D01*
X261187Y-35673D01*
X260993Y-35395D01*
X260826Y-35145D01*
X260715Y-34895D01*
X260604Y-34673D01*
X260549Y-34451D01*
X260493Y-34257D01*
X260438Y-34090D01*
Y-33979D01*
X260410Y-33868D01*
Y-33812D01*
Y-33785D01*
Y-33368D01*
X260438Y-33035D01*
X260493Y-32702D01*
X260604Y-32397D01*
X260743Y-32119D01*
X261104Y-31591D01*
X261521Y-31119D01*
X261937Y-30759D01*
X262270Y-30453D01*
X262437Y-30370D01*
X262548Y-30287D01*
X262603Y-30259D01*
X262631Y-30231D01*
X262853Y-30092D01*
X263158Y-29981D01*
X263519Y-29870D01*
X263936Y-29787D01*
X264408Y-29704D01*
X264880Y-29648D01*
X265907Y-29537D01*
X266407Y-29509D01*
X266879Y-29481D01*
X267323D01*
X267711Y-29454D01*
X275985D01*
X276012Y-29481D01*
D02*
G37*
G36*
X252859Y-33785D02*
X253497Y-33896D01*
X254108Y-34062D01*
X254635Y-34257D01*
X255080Y-34479D01*
X255274Y-34562D01*
X255413Y-34645D01*
X255552Y-34701D01*
X255635Y-34756D01*
X255690Y-34812D01*
X255718D01*
X256162Y-35173D01*
X256551Y-35561D01*
X256884Y-35978D01*
X257190Y-36367D01*
X257412Y-36783D01*
X257634Y-37172D01*
X257800Y-37560D01*
X257939Y-37949D01*
X258022Y-38282D01*
X258106Y-38615D01*
X258161Y-38921D01*
X258217Y-39143D01*
Y-39365D01*
X258244Y-39504D01*
Y-39615D01*
Y-39643D01*
X258217Y-40142D01*
X258189Y-40614D01*
X258106Y-41058D01*
X258022Y-41475D01*
X257911Y-41863D01*
X257800Y-42197D01*
X257689Y-42530D01*
X257551Y-42835D01*
X257412Y-43085D01*
X257301Y-43307D01*
X257190Y-43529D01*
X257078Y-43668D01*
X256995Y-43807D01*
X256912Y-43890D01*
X256884Y-43946D01*
X256856Y-43973D01*
X256468Y-44334D01*
X256079Y-44640D01*
X255663Y-44917D01*
X255246Y-45139D01*
X254830Y-45334D01*
X254441Y-45500D01*
X254025Y-45639D01*
X253664Y-45750D01*
X253303Y-45833D01*
X252970Y-45889D01*
X252692Y-45944D01*
X252442Y-45972D01*
X252220D01*
X252081Y-46000D01*
X251943D01*
X251415Y-45972D01*
X250915Y-45917D01*
X250471Y-45861D01*
X250082Y-45750D01*
X249749Y-45667D01*
X249499Y-45611D01*
X249333Y-45556D01*
X249277Y-45528D01*
X248639Y-45167D01*
X248084Y-44751D01*
X247584Y-44334D01*
X247167Y-43890D01*
X246834Y-43418D01*
X246529Y-42974D01*
X246279Y-42502D01*
X246085Y-42058D01*
X245946Y-41641D01*
X245835Y-41253D01*
X245751Y-40919D01*
X245696Y-40614D01*
X245668Y-40364D01*
X245641Y-40170D01*
Y-40031D01*
Y-40003D01*
Y-39643D01*
X245668Y-39060D01*
X245751Y-38504D01*
X245890Y-38005D01*
X246029Y-37560D01*
X246168Y-37199D01*
X246307Y-36922D01*
X246334Y-36811D01*
X246390Y-36727D01*
X246418Y-36700D01*
Y-36672D01*
X246779Y-36144D01*
X247195Y-35700D01*
X247612Y-35312D01*
X248056Y-34978D01*
X248500Y-34673D01*
X248916Y-34451D01*
X249361Y-34257D01*
X249777Y-34090D01*
X250166Y-33979D01*
X250527Y-33896D01*
X250860Y-33812D01*
X251137Y-33785D01*
X251360Y-33757D01*
X251554Y-33729D01*
X252165D01*
X252859Y-33785D01*
D02*
G37*
G36*
X212881Y-29509D02*
X212909Y-29537D01*
X212937Y-29565D01*
Y-29593D01*
Y-35284D01*
X213242Y-35006D01*
X213520Y-34756D01*
X213825Y-34562D01*
X214103Y-34395D01*
X214658Y-34118D01*
X215158Y-33923D01*
X215574Y-33812D01*
X215768Y-33785D01*
X215907Y-33757D01*
X216046Y-33729D01*
X216657D01*
X217212Y-33757D01*
X217462Y-33812D01*
X217712Y-33840D01*
X217906Y-33896D01*
X218073Y-33951D01*
X218184Y-33979D01*
X218211D01*
X218794Y-34257D01*
X219322Y-34618D01*
X219794Y-35034D01*
X220155Y-35478D01*
X220488Y-35950D01*
X220765Y-36422D01*
X220988Y-36922D01*
X221182Y-37422D01*
X221321Y-37894D01*
X221432Y-38338D01*
X221487Y-38754D01*
X221543Y-39115D01*
X221571Y-39420D01*
X221598Y-39643D01*
Y-39781D01*
Y-39837D01*
X221571Y-40420D01*
X221515Y-40975D01*
X221404Y-41503D01*
X221293Y-41975D01*
X221210Y-42363D01*
X221099Y-42669D01*
X221071Y-42780D01*
X221043Y-42863D01*
X221015Y-42918D01*
Y-42946D01*
X220710Y-43474D01*
X220377Y-43946D01*
X220016Y-44362D01*
X219655Y-44723D01*
X219266Y-45001D01*
X218906Y-45251D01*
X218517Y-45445D01*
X218184Y-45611D01*
X217823Y-45750D01*
X217517Y-45834D01*
X217240Y-45917D01*
X216990Y-45944D01*
X216796Y-45972D01*
X216657Y-46000D01*
X216518D01*
X216101Y-45972D01*
X215713Y-45917D01*
X215324Y-45834D01*
X214963Y-45695D01*
X214325Y-45389D01*
X213742Y-45028D01*
X213492Y-44834D01*
X213270Y-44667D01*
X213075Y-44501D01*
X212937Y-44362D01*
X212798Y-44223D01*
X212715Y-44140D01*
X212659Y-44084D01*
X212631Y-44057D01*
Y-45639D01*
Y-45695D01*
X212603Y-45722D01*
X212576Y-45750D01*
X209772D01*
X209716Y-45722D01*
X209661Y-45695D01*
Y-45667D01*
Y-45639D01*
Y-29593D01*
X209688Y-29537D01*
X209716Y-29509D01*
X209744Y-29481D01*
X212826D01*
X212881Y-29509D01*
D02*
G37*
%LPC*%
G36*
X257162Y-17294D02*
X256579D01*
X256246Y-17322D01*
X255940Y-17405D01*
X255829Y-17461D01*
X255718Y-17516D01*
X255663Y-17544D01*
X255635D01*
X255385Y-17710D01*
X255163Y-17905D01*
X254969Y-18127D01*
X254802Y-18377D01*
X254552Y-18904D01*
X254386Y-19432D01*
X254302Y-19959D01*
X254275Y-20181D01*
X254247Y-20375D01*
X254219Y-20542D01*
Y-20653D01*
Y-20736D01*
Y-20764D01*
Y-20820D01*
X254275Y-21458D01*
X254302Y-21764D01*
X254358Y-22013D01*
X254413Y-22236D01*
X254441Y-22402D01*
X254497Y-22513D01*
Y-22541D01*
X254663Y-22819D01*
X254830Y-23068D01*
X254996Y-23291D01*
X255163Y-23485D01*
X255329Y-23651D01*
X255524Y-23790D01*
X255857Y-23985D01*
X256162Y-24096D01*
X256385Y-24151D01*
X256551Y-24179D01*
X257023D01*
X257245Y-24151D01*
X257384Y-24123D01*
X257467Y-24096D01*
X257495D01*
X257800Y-23957D01*
X258078Y-23790D01*
X258328Y-23596D01*
X258522Y-23346D01*
X258689Y-23096D01*
X258827Y-22819D01*
X259050Y-22236D01*
X259188Y-21708D01*
X259216Y-21458D01*
X259244Y-21264D01*
X259272Y-21070D01*
Y-20931D01*
Y-20847D01*
Y-20820D01*
Y-20625D01*
X259244Y-20098D01*
Y-19876D01*
X259216Y-19681D01*
X259188Y-19515D01*
Y-19404D01*
X259161Y-19320D01*
Y-19293D01*
X259022Y-18932D01*
X258883Y-18627D01*
X258717Y-18377D01*
X258550Y-18127D01*
X258383Y-17932D01*
X258189Y-17794D01*
X258022Y-17655D01*
X257856Y-17544D01*
X257523Y-17405D01*
X257273Y-17322D01*
X257162Y-17294D01*
D02*
G37*
G36*
X267795Y-21153D02*
X267767D01*
Y-22041D01*
Y-22458D01*
X267795Y-22846D01*
X267822Y-22985D01*
Y-23096D01*
X267850Y-23180D01*
Y-23207D01*
X267989Y-23485D01*
X268128Y-23707D01*
X268294Y-23929D01*
X268489Y-24096D01*
X268850Y-24373D01*
X269183Y-24568D01*
X269516Y-24679D01*
X269766Y-24734D01*
X269877Y-24762D01*
X270515D01*
X270765Y-24679D01*
X270960Y-24595D01*
X271154Y-24484D01*
X271293Y-24346D01*
X271543Y-24096D01*
X271709Y-23846D01*
X271793Y-23596D01*
X271848Y-23402D01*
X271876Y-23263D01*
Y-23207D01*
X271820Y-22902D01*
X271709Y-22652D01*
X271515Y-22430D01*
X271293Y-22236D01*
X271098Y-22097D01*
X270904Y-21986D01*
X270793Y-21930D01*
X270737Y-21902D01*
X270321Y-21819D01*
X269932Y-21708D01*
X269599Y-21625D01*
X269294Y-21569D01*
X269016Y-21486D01*
X268766Y-21430D01*
X268572Y-21375D01*
X268378Y-21319D01*
X268100Y-21264D01*
X267906Y-21208D01*
X267795Y-21153D01*
D02*
G37*
G36*
X294308Y-13491D02*
X291642D01*
X291226Y-13518D01*
X290865Y-13546D01*
X290615Y-13574D01*
X290421Y-13629D01*
X290282Y-13657D01*
X290199Y-13685D01*
X290171D01*
X289893Y-13796D01*
X289671Y-13935D01*
X289477Y-14073D01*
X289310Y-14240D01*
X289033Y-14573D01*
X288866Y-14879D01*
X288755Y-15184D01*
X288700Y-15462D01*
X288672Y-15628D01*
Y-15656D01*
Y-15684D01*
Y-15906D01*
X288727Y-16128D01*
X288755Y-16350D01*
X288811Y-16544D01*
X288866Y-16711D01*
X288922Y-16822D01*
X288950Y-16905D01*
X288977Y-16933D01*
X289116Y-17100D01*
X289283Y-17266D01*
X289671Y-17516D01*
X290143Y-17710D01*
X290615Y-17821D01*
X291059Y-17905D01*
X291254Y-17932D01*
X291420D01*
X291587Y-17960D01*
X294308D01*
Y-13491D01*
D02*
G37*
G36*
X243281Y-17433D02*
X242559D01*
X242337Y-17461D01*
X242170Y-17488D01*
X242115Y-17516D01*
X242087D01*
X241754Y-17683D01*
X241448Y-17905D01*
X241199Y-18127D01*
X240976Y-18377D01*
X240782Y-18654D01*
X240643Y-18932D01*
X240504Y-19210D01*
X240421Y-19487D01*
X240282Y-20015D01*
X240227Y-20237D01*
X240199Y-20431D01*
X240171Y-20598D01*
Y-20736D01*
Y-20820D01*
Y-20847D01*
Y-21208D01*
X240199Y-21542D01*
X240255Y-21819D01*
X240282Y-22041D01*
X240338Y-22236D01*
X240393Y-22347D01*
X240421Y-22430D01*
Y-22458D01*
X240560Y-22819D01*
X240727Y-23124D01*
X240921Y-23374D01*
X241115Y-23624D01*
X241310Y-23818D01*
X241532Y-23957D01*
X241726Y-24096D01*
X241948Y-24207D01*
X242337Y-24346D01*
X242642Y-24429D01*
X242781D01*
X242864Y-24457D01*
X242948D01*
X243281Y-24429D01*
X243558Y-24373D01*
X243669D01*
X243753Y-24346D01*
X243808Y-24318D01*
X243836D01*
X244169Y-24151D01*
X244475Y-23957D01*
X244724Y-23735D01*
X244946Y-23485D01*
X245141Y-23207D01*
X245307Y-22930D01*
X245446Y-22624D01*
X245529Y-22347D01*
X245668Y-21791D01*
X245724Y-21569D01*
X245751Y-21347D01*
X245779Y-21181D01*
Y-21042D01*
Y-20958D01*
Y-20931D01*
X245751Y-20598D01*
X245724Y-20264D01*
X245668Y-19987D01*
X245613Y-19709D01*
X245557Y-19487D01*
X245529Y-19293D01*
X245474Y-19182D01*
Y-19154D01*
X245307Y-18849D01*
X245141Y-18599D01*
X244974Y-18349D01*
X244780Y-18154D01*
X244585Y-17988D01*
X244419Y-17849D01*
X244058Y-17655D01*
X243725Y-17516D01*
X243475Y-17461D01*
X243281Y-17433D01*
D02*
G37*
%LPD*%
G36*
X242087Y-18293D02*
X242198Y-18377D01*
X242365Y-18515D01*
X242587Y-18710D01*
X242809Y-18932D01*
X243086Y-19182D01*
X243642Y-19681D01*
X244197Y-20209D01*
X244447Y-20459D01*
X244669Y-20681D01*
X244863Y-20847D01*
X245002Y-21014D01*
X245113Y-21097D01*
X245141Y-21125D01*
X245113Y-21542D01*
X245058Y-21902D01*
X244974Y-22208D01*
X244863Y-22458D01*
X244752Y-22652D01*
X244669Y-22819D01*
X244613Y-22902D01*
X244585Y-22930D01*
X244475Y-22846D01*
X244336Y-22708D01*
X244114Y-22513D01*
X243864Y-22291D01*
X243614Y-22013D01*
X243309Y-21736D01*
X242670Y-21125D01*
X242059Y-20542D01*
X241782Y-20264D01*
X241532Y-20042D01*
X241337Y-19820D01*
X241171Y-19681D01*
X241060Y-19570D01*
X241032Y-19543D01*
Y-19515D01*
X241087Y-19320D01*
X241199Y-19098D01*
X241337Y-18876D01*
X241532Y-18682D01*
X241726Y-18515D01*
X241865Y-18377D01*
X241976Y-18293D01*
X242031Y-18266D01*
X242087Y-18293D01*
D02*
G37*
G36*
X241143Y-22180D02*
X241421Y-22430D01*
X241726Y-22708D01*
X242031Y-23013D01*
X242337Y-23318D01*
X242587Y-23568D01*
X242753Y-23735D01*
X242781Y-23763D01*
X242809Y-23790D01*
Y-23818D01*
X242614Y-23790D01*
X242476Y-23763D01*
X242365Y-23735D01*
X242253Y-23707D01*
X242170Y-23651D01*
X242142D01*
X241920Y-23513D01*
X241754Y-23374D01*
X241448Y-23096D01*
X241226Y-22819D01*
X241087Y-22569D01*
X241004Y-22347D01*
X240976Y-22180D01*
X240949Y-22069D01*
Y-22041D01*
Y-22013D01*
X241143Y-22180D01*
D02*
G37*
%LPC*%
G36*
X236479Y-40142D02*
X236368D01*
Y-40475D01*
Y-40753D01*
X236396Y-41031D01*
Y-41280D01*
X236423Y-41669D01*
X236451Y-41975D01*
X236507Y-42197D01*
X236535Y-42335D01*
X236562Y-42419D01*
Y-42446D01*
X236729Y-42668D01*
X236895Y-42891D01*
X237284Y-43224D01*
X237645Y-43446D01*
X238006Y-43612D01*
X238311Y-43696D01*
X238561Y-43751D01*
X238728Y-43779D01*
X238978D01*
X239227Y-43751D01*
X239477Y-43724D01*
X239866Y-43529D01*
X240171Y-43307D01*
X240393Y-43002D01*
X240532Y-42724D01*
X240643Y-42502D01*
X240671Y-42308D01*
X240699Y-42280D01*
Y-42252D01*
X240643Y-41919D01*
X240560Y-41669D01*
X240504Y-41558D01*
X240477Y-41475D01*
X240421Y-41447D01*
Y-41419D01*
X240366Y-41336D01*
X240255Y-41225D01*
X240060Y-41114D01*
X239783Y-41031D01*
X239505Y-40919D01*
X239144Y-40809D01*
X238422Y-40614D01*
X237701Y-40420D01*
X237340Y-40336D01*
X237034Y-40281D01*
X236784Y-40226D01*
X236590Y-40170D01*
X236479Y-40142D01*
D02*
G37*
G36*
X271987Y-32202D02*
X266851D01*
X266712Y-32230D01*
X266462D01*
X266379Y-32258D01*
X266323D01*
X265962Y-32313D01*
X265657Y-32397D01*
X265379Y-32508D01*
X265157Y-32619D01*
X264963Y-32757D01*
X264796Y-32924D01*
X264658Y-33063D01*
X264547Y-33229D01*
X264408Y-33535D01*
X264324Y-33785D01*
X264297Y-33896D01*
Y-33979D01*
Y-34007D01*
Y-34035D01*
X264324Y-34395D01*
X264436Y-34673D01*
X264602Y-34951D01*
X264769Y-35145D01*
X264935Y-35312D01*
X265102Y-35423D01*
X265213Y-35478D01*
X265241Y-35506D01*
X265296Y-35589D01*
X265463Y-35645D01*
X265685Y-35700D01*
X265990Y-35756D01*
X266323Y-35811D01*
X266712Y-35839D01*
X267573Y-35895D01*
X268405Y-35922D01*
X268794D01*
X269127Y-35950D01*
X271987D01*
Y-32202D01*
D02*
G37*
G36*
Y-38671D02*
X267822D01*
X267406Y-38699D01*
X267017Y-38726D01*
X266684D01*
X266379Y-38754D01*
X266129Y-38782D01*
X265907Y-38810D01*
X265713Y-38837D01*
X265546Y-38865D01*
X265407Y-38893D01*
X265296D01*
X265157Y-38948D01*
X265130D01*
X264852Y-39060D01*
X264602Y-39170D01*
X264408Y-39309D01*
X264241Y-39448D01*
X263964Y-39781D01*
X263769Y-40087D01*
X263658Y-40364D01*
X263603Y-40586D01*
X263575Y-40753D01*
Y-40781D01*
Y-40809D01*
Y-40892D01*
Y-41058D01*
Y-41169D01*
X263603Y-41280D01*
Y-41308D01*
X263686Y-41614D01*
X263825Y-41863D01*
X263991Y-42085D01*
X264241Y-42280D01*
X264491Y-42419D01*
X264769Y-42558D01*
X265379Y-42752D01*
X265990Y-42891D01*
X266268Y-42918D01*
X266518Y-42946D01*
X266712Y-42974D01*
X271987D01*
Y-38671D01*
D02*
G37*
%LPD*%
G36*
X271376Y-34368D02*
Y-34395D01*
Y-34423D01*
Y-35201D01*
X271348Y-35256D01*
X271320Y-35284D01*
X266795D01*
X266518Y-35256D01*
X266073Y-35145D01*
X265713Y-35006D01*
X265407Y-34840D01*
X265213Y-34701D01*
X265074Y-34562D01*
X265019Y-34451D01*
X264991Y-34423D01*
X265019Y-34368D01*
X265046Y-34340D01*
X271348D01*
X271376Y-34368D01*
D02*
G37*
G36*
X271348Y-39309D02*
X271376Y-39337D01*
Y-39365D01*
Y-39393D01*
Y-40864D01*
X271348Y-40892D01*
X271320Y-40919D01*
X264297D01*
X264213Y-40892D01*
X264241Y-40614D01*
X264324Y-40392D01*
X264436Y-40198D01*
X264547Y-40031D01*
X264658Y-39920D01*
X264769Y-39837D01*
X264852Y-39809D01*
X264880Y-39781D01*
X264935Y-39698D01*
X265074Y-39615D01*
X265296Y-39559D01*
X265574Y-39504D01*
X265935Y-39448D01*
X266296Y-39393D01*
X267128Y-39337D01*
X267961Y-39309D01*
X268322D01*
X268683Y-39282D01*
X271293D01*
X271348Y-39309D01*
D02*
G37*
%LPC*%
G36*
X251998Y-36256D02*
X251887D01*
X251526Y-36283D01*
X251221Y-36339D01*
X251082Y-36394D01*
X250971Y-36422D01*
X250915Y-36450D01*
X250888D01*
X250554Y-36616D01*
X250249Y-36839D01*
X249999Y-37061D01*
X249777Y-37310D01*
X249583Y-37560D01*
X249444Y-37838D01*
X249305Y-38088D01*
X249222Y-38365D01*
X249083Y-38837D01*
X249028Y-39060D01*
X249000Y-39254D01*
X248972Y-39420D01*
Y-39531D01*
Y-39615D01*
Y-39643D01*
Y-39948D01*
X249000Y-40392D01*
X249028Y-40781D01*
X249111Y-41114D01*
X249194Y-41392D01*
X249277Y-41641D01*
X249333Y-41808D01*
X249388Y-41919D01*
X249416Y-41947D01*
X249583Y-42197D01*
X249777Y-42419D01*
X249971Y-42641D01*
X250166Y-42807D01*
X250527Y-43057D01*
X250888Y-43224D01*
X251193Y-43335D01*
X251415Y-43390D01*
X251582Y-43418D01*
X252137D01*
X252359Y-43390D01*
X252553Y-43363D01*
X252692Y-43335D01*
X252748D01*
X253136Y-43168D01*
X253442Y-42974D01*
X253747Y-42752D01*
X253969Y-42502D01*
X254191Y-42224D01*
X254358Y-41947D01*
X254497Y-41641D01*
X254608Y-41364D01*
X254774Y-40809D01*
X254830Y-40559D01*
X254858Y-40364D01*
Y-40170D01*
X254885Y-40031D01*
Y-39948D01*
Y-39920D01*
Y-39837D01*
X254858Y-39420D01*
Y-39254D01*
X254830Y-39115D01*
Y-39004D01*
X254802Y-38893D01*
Y-38865D01*
Y-38837D01*
X254663Y-38393D01*
X254497Y-37977D01*
X254302Y-37644D01*
X254080Y-37338D01*
X253830Y-37088D01*
X253608Y-36894D01*
X253358Y-36727D01*
X253109Y-36589D01*
X252859Y-36478D01*
X252637Y-36394D01*
X252442Y-36339D01*
X252248Y-36283D01*
X252109D01*
X251998Y-36256D01*
D02*
G37*
%LPD*%
G36*
X251554Y-36950D02*
X251637Y-37033D01*
X251804Y-37172D01*
X251970Y-37338D01*
X252192Y-37532D01*
X252414Y-37755D01*
X252914Y-38227D01*
X253414Y-38726D01*
X253636Y-38948D01*
X253830Y-39143D01*
X253997Y-39309D01*
X254136Y-39448D01*
X254219Y-39531D01*
X254247Y-39559D01*
X254219Y-40087D01*
X254191Y-40503D01*
X254136Y-40836D01*
X254080Y-41114D01*
X254025Y-41280D01*
X253969Y-41419D01*
X253914Y-41475D01*
Y-41502D01*
X253775Y-41392D01*
X253580Y-41225D01*
X253358Y-41003D01*
X253081Y-40753D01*
X252775Y-40448D01*
X252470Y-40142D01*
X251776Y-39504D01*
X251137Y-38893D01*
X250860Y-38615D01*
X250610Y-38365D01*
X250388Y-38171D01*
X250221Y-38005D01*
X250110Y-37893D01*
X250082Y-37866D01*
X250360Y-37560D01*
X250638Y-37310D01*
X250888Y-37144D01*
X251082Y-37033D01*
X251248Y-36977D01*
X251387Y-36922D01*
X251498D01*
X251554Y-36950D01*
D02*
G37*
%LPC*%
G36*
X215907Y-36144D02*
X215185D01*
X214991Y-36172D01*
X214852Y-36200D01*
X214797D01*
X214464Y-36339D01*
X214158Y-36533D01*
X213908Y-36783D01*
X213686Y-37061D01*
X213492Y-37338D01*
X213353Y-37644D01*
X213214Y-37977D01*
X213131Y-38310D01*
X212992Y-38921D01*
X212937Y-39198D01*
X212909Y-39420D01*
X212881Y-39643D01*
Y-39781D01*
Y-39892D01*
Y-39920D01*
X212909Y-40253D01*
X212937Y-40531D01*
X212964Y-40781D01*
X212992Y-41003D01*
X213020Y-41142D01*
X213048Y-41280D01*
X213075Y-41336D01*
Y-41364D01*
X213214Y-41752D01*
X213381Y-42086D01*
X213547Y-42363D01*
X213714Y-42613D01*
X213908Y-42835D01*
X214103Y-43002D01*
X214325Y-43141D01*
X214491Y-43252D01*
X214852Y-43418D01*
X215158Y-43501D01*
X215269D01*
X215352Y-43529D01*
X215685D01*
X215907Y-43501D01*
X216129Y-43474D01*
X216324Y-43418D01*
X216490Y-43363D01*
X216629Y-43307D01*
X216740Y-43279D01*
X216796Y-43224D01*
X216823D01*
X217073Y-43057D01*
X217295Y-42835D01*
X217490Y-42613D01*
X217656Y-42335D01*
X217906Y-41752D01*
X218073Y-41169D01*
X218184Y-40614D01*
X218211Y-40364D01*
X218239Y-40142D01*
X218267Y-39948D01*
Y-39809D01*
Y-39726D01*
Y-39698D01*
Y-39587D01*
X218239Y-39115D01*
X218211Y-38865D01*
X218184Y-38671D01*
Y-38477D01*
X218156Y-38338D01*
X218128Y-38254D01*
Y-38227D01*
X217989Y-37866D01*
X217823Y-37533D01*
X217628Y-37255D01*
X217462Y-37033D01*
X217267Y-36811D01*
X217045Y-36644D01*
X216851Y-36505D01*
X216657Y-36394D01*
X216296Y-36256D01*
X216018Y-36172D01*
X215907Y-36144D01*
D02*
G37*
%LPD*%
D39*
X192000Y699000D02*
Y719000D01*
X127000Y709000D02*
X147000D01*
X182000D02*
X202000D01*
%TF.MD5,134d30f41b0d711cae20a10db869e96e*%
M02*
