M48
;Layer_Color=13421619
;FILE_FORMAT=4:4
METRIC
;TYPE=PLATED
T1F00S00C0.2000
T2F00S00C0.4000
T3F00S00C1.0000
T4F00S00C1.0200
%
T01
X-00015281Y-00011080
Y00068919
Y00148919
Y00228919
X00044719Y00188919
Y00108919
Y00028919
X00064719Y00068919
X00104719
X00144719
X00184719
X00224719
X00264719
X00304719
X00344719
X00384719
X00424719
X00444719Y00108919
X00404719
X00364719
X00324719
X00284719
X00244719
X00204719
X00224719Y00148919
X00264719
X00304719
X00344719
X00384719
X00424719
X00444719Y00188919
X00404719
X00364719
X00324719
X00284719
Y00268919
X00324719
X00364719
X00444719
X00244719
X00204719
X00164719
X00124719
X00084719
X00064719Y00228919
X00104719
X00144719
X00184719
X00204719Y00188919
X00164719
X00124719
X00084719
X00064719Y00148919
X00104719
X00144719
X00124719Y00108919
X00084719
X00124719Y00028919
X00164719
X00204719
X00244719
X00284719
X00324719
X00364719
X00404719
X00444719
X00424719Y-00011080
X00384719
X00344719
X00304719
X00264719
X00224719
X00184719
X00144719
X00064719
X00464719
X00504719
X00544719
X00584719
X00624719
X00564719Y00028919
X00584719Y00068919
X00564719Y00108919
X00524719
X00484719
X00464719Y00148919
X00504719
X00544719
X00584719
X00564719Y00188919
X00524719
X00484719
Y00268919
X00564719
X00584719Y00228919
X00644719Y00188919
X00504719Y00068919
X00464719
X00484719Y00028919
X00464719Y00308919
X00504719
X00544719
X00584719
X00544719Y00388919
X00484719Y00428919
X00504719Y00468919
X00524719Y00508919
X00564719
X00604719
X00644719
X00624719Y00548919
X00584719
X00544719
X00504719
X00524719Y00588919
X00564719
X00604719
X00644719
X00624719Y00628919
X00584719
X00544719
X00504719
X00464719
X00524719Y00668919
X00604719
X00644719
X00624719Y00468919
X00584719
X00484719Y00348919
X00424719Y00308919
X00384719
X00344719
X00364719Y00348919
X00324719
X00244719
X00204719
X00164719
X00144719Y00388919
X00124719Y00428919
X00084719
X00064719Y00388919
X00104719Y00308919
X00224719
X00264719
X00260543Y00411000
X00230000
X00184000Y00412000
X00200509Y00519732
Y00540000
X00219000Y00524000
X00216232Y00505468
X00230780Y00493000
X00236442Y00536500
Y00560689
X00235806Y00571007
X00208500Y00587628
X00206000Y00601000
X00181933Y00618304
X00161186Y00618115
X00148068Y00628803
X00134000Y00619000
X00123611Y00605000
X00106000Y00597000
X00103000Y00572230
Y00563284
X00087903Y00560817
X00091824Y00574872
X00084719Y00588919
X00092853Y00544927
X00103000Y00536500
X00120000Y00525000
X00124000Y00505913
X00143609Y00506476
X00143000Y00527000
X00148468Y00548919
X00149520Y00563250
X00149129Y00571946
X00189341Y00565267
X00284719Y00588919
X00324719
X00364719
X00404719
X00444719
X00424719Y00548919
X00384719
X00344719
X00304719
X00303000Y00493000
X00304719Y00468919
X00288000Y00482000
X00264719Y00468919
X00344719
X00384719
X00424719
X00384719Y00628919
X00344719
X00304719
X00284719Y00668919
X00244719
X00142000Y00667739
X00124719Y00668919
X00119000Y00648000
X00064719Y00628919
Y00548919
X00108307Y00493689
X00404719Y00668919
X00444719
X00004719
X-00015281Y00628919
X-00017000Y00578000
X-00015281Y00548919
X00024719
X00044719Y00588919
X00004719
Y00508919
X00044719
Y00428919
Y00348919
X-00015281Y00388919
Y00468919
Y00308919
Y00708919
X00024719
X00044719Y00748919
X00084719
X00124719
X00104719Y00708919
X00144719
X00064719
X00204719Y00748919
X00244719
X00284719
X00324719
X00364719
X00404719
X00444719
X00424719Y00708919
X00384719
X00344719
X00304719
X00264719
X00464719
X00504719
X00544719
X00584719
X00604719Y00748919
X00644719
X00564719
X00524719
X00484719
T02
X00092000Y00329841
X00277500Y00410000
X00355000Y00412500
T03
X00492666Y00330203
X00522666
X00552666
X00418833
X00388833
X00358833
X00284999
X00254999
X00224999
X00180000Y00688000
X00150000
T04
X00609200Y00482600
X00634600
X00025000
X-00000400
M30
