%TF.GenerationSoftware,Altium Limited,Altium Designer,20.1.14 (287)*%
G04 Layer_Color=26163*
%FSLAX44Y44*%
%MOMM*%
%TF.SameCoordinates,63771276-D6CB-4F8E-99AF-54020A414098*%
%TF.FilePolarity,Negative*%
%TF.FileFunction,Soldermask,Bot*%
%TF.Part,Single*%
G01*
G75*
%TA.AperFunction,ComponentPad*%
%ADD40C,3.2000*%
%ADD41O,1.7000X2.7000*%
G04:AMPARAMS|DCode=42|XSize=2.7mm|YSize=1.7mm|CornerRadius=0.25mm|HoleSize=0mm|Usage=FLASHONLY|Rotation=270.000|XOffset=0mm|YOffset=0mm|HoleType=Round|Shape=RoundedRectangle|*
%AMROUNDEDRECTD42*
21,1,2.7000,1.2000,0,0,270.0*
21,1,2.2000,1.7000,0,0,270.0*
1,1,0.5000,-0.6000,-1.1000*
1,1,0.5000,-0.6000,1.1000*
1,1,0.5000,0.6000,1.1000*
1,1,0.5000,0.6000,-1.1000*
%
%ADD42ROUNDEDRECTD42*%
%ADD43C,1.8000*%
%TA.AperFunction,WasherPad*%
%ADD44C,3.4000*%
D40*
X255000Y287000D02*
D03*
X388833D02*
D03*
X522667D02*
D03*
X164999Y731203D02*
D03*
D41*
X224999Y330203D02*
D03*
X254999D02*
D03*
X358833D02*
D03*
X388833D02*
D03*
X492666D02*
D03*
X522666D02*
D03*
X180000Y688000D02*
D03*
D42*
X284999Y330203D02*
D03*
X418833D02*
D03*
X552666D02*
D03*
X150000Y688000D02*
D03*
D43*
X492500Y665000D02*
D03*
Y639600D02*
D03*
Y614200D02*
D03*
Y588800D02*
D03*
Y563400D02*
D03*
Y538000D02*
D03*
Y512600D02*
D03*
Y487200D02*
D03*
X263900D02*
D03*
Y512600D02*
D03*
Y538000D02*
D03*
Y563400D02*
D03*
Y588800D02*
D03*
Y614200D02*
D03*
Y665000D02*
D03*
Y639600D02*
D03*
X-400Y711200D02*
D03*
Y736600D02*
D03*
X634600Y711200D02*
D03*
Y736600D02*
D03*
X609200Y0D02*
D03*
X634600Y457200D02*
D03*
Y431800D02*
D03*
Y406400D02*
D03*
Y381000D02*
D03*
Y355600D02*
D03*
Y330200D02*
D03*
Y304800D02*
D03*
Y279400D02*
D03*
Y254000D02*
D03*
Y228600D02*
D03*
Y203200D02*
D03*
Y177800D02*
D03*
Y152400D02*
D03*
Y127000D02*
D03*
Y101600D02*
D03*
Y76200D02*
D03*
Y50800D02*
D03*
Y25400D02*
D03*
Y0D02*
D03*
X609200Y457200D02*
D03*
Y431800D02*
D03*
Y406400D02*
D03*
Y381000D02*
D03*
Y355600D02*
D03*
Y330200D02*
D03*
Y304800D02*
D03*
Y279400D02*
D03*
Y254000D02*
D03*
Y228600D02*
D03*
Y203200D02*
D03*
Y177800D02*
D03*
Y152400D02*
D03*
Y127000D02*
D03*
Y101600D02*
D03*
Y76200D02*
D03*
Y50800D02*
D03*
Y25400D02*
D03*
X25000Y457200D02*
D03*
Y431800D02*
D03*
Y406400D02*
D03*
Y381000D02*
D03*
Y355600D02*
D03*
Y330200D02*
D03*
Y304800D02*
D03*
Y279400D02*
D03*
Y254000D02*
D03*
Y228600D02*
D03*
Y203200D02*
D03*
Y177800D02*
D03*
Y152400D02*
D03*
Y127000D02*
D03*
Y101600D02*
D03*
Y76200D02*
D03*
Y50800D02*
D03*
Y25400D02*
D03*
Y0D02*
D03*
X-400Y457200D02*
D03*
Y431800D02*
D03*
Y406400D02*
D03*
Y381000D02*
D03*
Y355600D02*
D03*
Y330200D02*
D03*
Y304800D02*
D03*
Y279400D02*
D03*
Y254000D02*
D03*
Y228600D02*
D03*
Y203200D02*
D03*
Y177800D02*
D03*
Y152400D02*
D03*
Y127000D02*
D03*
Y101600D02*
D03*
Y76200D02*
D03*
Y50800D02*
D03*
Y25400D02*
D03*
Y0D02*
D03*
D44*
X154510Y325000D02*
D03*
X587500Y650000D02*
D03*
X50000D02*
D03*
X537500Y35000D02*
D03*
X75114Y494514D02*
D03*
X405313Y-26186D02*
D03*
X557500Y482500D02*
D03*
X97500Y25000D02*
D03*
%TF.MD5,33e1b96520034c370ad0f78451e5ee74*%
M02*
