%TF.GenerationSoftware,Altium Limited,Altium Designer,20.1.14 (287)*%
G04 Layer_Color=32768*
%FSLAX44Y44*%
%MOMM*%
%TF.SameCoordinates,63771276-D6CB-4F8E-99AF-54020A414098*%
%TF.FilePolarity,Negative*%
%TF.FileFunction,Soldermask,Top*%
%TF.Part,Single*%
G01*
G75*
%TA.AperFunction,ComponentPad*%
%ADD40C,3.2000*%
%ADD41O,1.7000X2.7000*%
G04:AMPARAMS|DCode=42|XSize=2.7mm|YSize=1.7mm|CornerRadius=0.25mm|HoleSize=0mm|Usage=FLASHONLY|Rotation=270.000|XOffset=0mm|YOffset=0mm|HoleType=Round|Shape=RoundedRectangle|*
%AMROUNDEDRECTD42*
21,1,2.7000,1.2000,0,0,270.0*
21,1,2.2000,1.7000,0,0,270.0*
1,1,0.5000,-0.6000,-1.1000*
1,1,0.5000,-0.6000,1.1000*
1,1,0.5000,0.6000,1.1000*
1,1,0.5000,0.6000,-1.1000*
%
%ADD42ROUNDEDRECTD42*%
%ADD43C,1.8000*%
%TA.AperFunction,WasherPad*%
%ADD44C,3.4000*%
%TA.AperFunction,SMDPad,CuDef*%
%ADD54R,1.0000X1.0000*%
%ADD55R,1.8000X1.1000*%
G04:AMPARAMS|DCode=56|XSize=0.45mm|YSize=0.8mm|CornerRadius=0.125mm|HoleSize=0mm|Usage=FLASHONLY|Rotation=270.000|XOffset=0mm|YOffset=0mm|HoleType=Round|Shape=RoundedRectangle|*
%AMROUNDEDRECTD56*
21,1,0.4500,0.5500,0,0,270.0*
21,1,0.2000,0.8000,0,0,270.0*
1,1,0.2500,-0.2750,-0.1000*
1,1,0.2500,-0.2750,0.1000*
1,1,0.2500,0.2750,0.1000*
1,1,0.2500,0.2750,-0.1000*
%
%ADD56ROUNDEDRECTD56*%
G04:AMPARAMS|DCode=57|XSize=0.45mm|YSize=2.025mm|CornerRadius=0.125mm|HoleSize=0mm|Usage=FLASHONLY|Rotation=180.000|XOffset=0mm|YOffset=0mm|HoleType=Round|Shape=RoundedRectangle|*
%AMROUNDEDRECTD57*
21,1,0.4500,1.7750,0,0,180.0*
21,1,0.2000,2.0250,0,0,180.0*
1,1,0.2500,-0.1000,0.8875*
1,1,0.2500,0.1000,0.8875*
1,1,0.2500,0.1000,-0.8875*
1,1,0.2500,-0.1000,-0.8875*
%
%ADD57ROUNDEDRECTD57*%
G04:AMPARAMS|DCode=58|XSize=0.45mm|YSize=0.8mm|CornerRadius=0.125mm|HoleSize=0mm|Usage=FLASHONLY|Rotation=180.000|XOffset=0mm|YOffset=0mm|HoleType=Round|Shape=RoundedRectangle|*
%AMROUNDEDRECTD58*
21,1,0.4500,0.5500,0,0,180.0*
21,1,0.2000,0.8000,0,0,180.0*
1,1,0.2500,-0.1000,0.2750*
1,1,0.2500,0.1000,0.2750*
1,1,0.2500,0.1000,-0.2750*
1,1,0.2500,-0.1000,-0.2750*
%
%ADD58ROUNDEDRECTD58*%
G04:AMPARAMS|DCode=59|XSize=1.5mm|YSize=1.1mm|CornerRadius=0.19mm|HoleSize=0mm|Usage=FLASHONLY|Rotation=0.000|XOffset=0mm|YOffset=0mm|HoleType=Round|Shape=RoundedRectangle|*
%AMROUNDEDRECTD59*
21,1,1.5000,0.7200,0,0,0.0*
21,1,1.1200,1.1000,0,0,0.0*
1,1,0.3800,0.5600,-0.3600*
1,1,0.3800,-0.5600,-0.3600*
1,1,0.3800,-0.5600,0.3600*
1,1,0.3800,0.5600,0.3600*
%
%ADD59ROUNDEDRECTD59*%
%ADD60R,1.5000X1.1000*%
G04:AMPARAMS|DCode=61|XSize=0.8mm|YSize=1.6mm|CornerRadius=0.16mm|HoleSize=0mm|Usage=FLASHONLY|Rotation=90.000|XOffset=0mm|YOffset=0mm|HoleType=Round|Shape=RoundedRectangle|*
%AMROUNDEDRECTD61*
21,1,0.8000,1.2800,0,0,90.0*
21,1,0.4800,1.6000,0,0,90.0*
1,1,0.3200,0.6400,0.2400*
1,1,0.3200,0.6400,-0.2400*
1,1,0.3200,-0.6400,-0.2400*
1,1,0.3200,-0.6400,0.2400*
%
%ADD61ROUNDEDRECTD61*%
G04:AMPARAMS|DCode=62|XSize=1.75mm|YSize=2.55mm|CornerRadius=0.255mm|HoleSize=0mm|Usage=FLASHONLY|Rotation=270.000|XOffset=0mm|YOffset=0mm|HoleType=Round|Shape=RoundedRectangle|*
%AMROUNDEDRECTD62*
21,1,1.7500,2.0400,0,0,270.0*
21,1,1.2400,2.5500,0,0,270.0*
1,1,0.5100,-1.0200,-0.6200*
1,1,0.5100,-1.0200,0.6200*
1,1,0.5100,1.0200,0.6200*
1,1,0.5100,1.0200,-0.6200*
%
%ADD62ROUNDEDRECTD62*%
%ADD63R,2.2000X1.5000*%
%ADD64R,1.0000X1.0000*%
%ADD65R,1.4000X1.4500*%
%ADD66R,3.7000X3.1500*%
D40*
X255000Y287000D02*
D03*
X388833D02*
D03*
X522667D02*
D03*
X164999Y731203D02*
D03*
D41*
X224999Y330203D02*
D03*
X254999D02*
D03*
X358833D02*
D03*
X388833D02*
D03*
X492666D02*
D03*
X522666D02*
D03*
X180000Y688000D02*
D03*
D42*
X284999Y330203D02*
D03*
X418833D02*
D03*
X552666D02*
D03*
X150000Y688000D02*
D03*
D43*
X492500Y665000D02*
D03*
Y639600D02*
D03*
Y614200D02*
D03*
Y588800D02*
D03*
Y563400D02*
D03*
Y538000D02*
D03*
Y512600D02*
D03*
Y487200D02*
D03*
X263900D02*
D03*
Y512600D02*
D03*
Y538000D02*
D03*
Y563400D02*
D03*
Y588800D02*
D03*
Y614200D02*
D03*
Y665000D02*
D03*
Y639600D02*
D03*
X-400Y711200D02*
D03*
Y736600D02*
D03*
X634600Y711200D02*
D03*
Y736600D02*
D03*
X609200Y0D02*
D03*
X634600Y457200D02*
D03*
Y431800D02*
D03*
Y406400D02*
D03*
Y381000D02*
D03*
Y355600D02*
D03*
Y330200D02*
D03*
Y304800D02*
D03*
Y279400D02*
D03*
Y254000D02*
D03*
Y228600D02*
D03*
Y203200D02*
D03*
Y177800D02*
D03*
Y152400D02*
D03*
Y127000D02*
D03*
Y101600D02*
D03*
Y76200D02*
D03*
Y50800D02*
D03*
Y25400D02*
D03*
Y0D02*
D03*
X609200Y457200D02*
D03*
Y431800D02*
D03*
Y406400D02*
D03*
Y381000D02*
D03*
Y355600D02*
D03*
Y330200D02*
D03*
Y304800D02*
D03*
Y279400D02*
D03*
Y254000D02*
D03*
Y228600D02*
D03*
Y203200D02*
D03*
Y177800D02*
D03*
Y152400D02*
D03*
Y127000D02*
D03*
Y101600D02*
D03*
Y76200D02*
D03*
Y50800D02*
D03*
Y25400D02*
D03*
X25000Y457200D02*
D03*
Y431800D02*
D03*
Y406400D02*
D03*
Y381000D02*
D03*
Y355600D02*
D03*
Y330200D02*
D03*
Y304800D02*
D03*
Y279400D02*
D03*
Y254000D02*
D03*
Y228600D02*
D03*
Y203200D02*
D03*
Y177800D02*
D03*
Y152400D02*
D03*
Y127000D02*
D03*
Y101600D02*
D03*
Y76200D02*
D03*
Y50800D02*
D03*
Y25400D02*
D03*
Y0D02*
D03*
X-400Y457200D02*
D03*
Y431800D02*
D03*
Y406400D02*
D03*
Y381000D02*
D03*
Y355600D02*
D03*
Y330200D02*
D03*
Y304800D02*
D03*
Y279400D02*
D03*
Y254000D02*
D03*
Y228600D02*
D03*
Y203200D02*
D03*
Y177800D02*
D03*
Y152400D02*
D03*
Y127000D02*
D03*
Y101600D02*
D03*
Y76200D02*
D03*
Y50800D02*
D03*
Y25400D02*
D03*
Y0D02*
D03*
D44*
X154510Y325000D02*
D03*
X587500Y650000D02*
D03*
X50000D02*
D03*
X537500Y35000D02*
D03*
X75114Y494514D02*
D03*
X405313Y-26186D02*
D03*
X557500Y482500D02*
D03*
X97500Y25000D02*
D03*
D54*
X200509Y567851D02*
D03*
Y552851D02*
D03*
X137000D02*
D03*
Y567851D02*
D03*
X148000Y601054D02*
D03*
Y617054D02*
D03*
X193000Y584500D02*
D03*
Y599500D02*
D03*
D55*
X119000Y536500D02*
D03*
Y567500D02*
D03*
X219000Y536500D02*
D03*
Y567500D02*
D03*
D56*
X161000Y565250D02*
D03*
Y571750D02*
D03*
Y558750D02*
D03*
Y576750D02*
D03*
X179000Y576750D02*
D03*
Y571750D02*
D03*
Y565250D02*
D03*
Y558750D02*
D03*
D57*
X170000Y562120D02*
D03*
D58*
X165000Y584000D02*
D03*
X170000D02*
D03*
X175000D02*
D03*
D59*
X316250Y671749D02*
D03*
Y692749D02*
D03*
X338750Y692500D02*
D03*
Y671500D02*
D03*
D60*
X361250Y673000D02*
D03*
Y692000D02*
D03*
X124000Y493750D02*
D03*
Y474750D02*
D03*
X216000Y474500D02*
D03*
Y493500D02*
D03*
X288000D02*
D03*
Y512500D02*
D03*
D61*
X285500Y374500D02*
D03*
Y355500D02*
D03*
X304500Y365000D02*
D03*
X420500Y374500D02*
D03*
Y355500D02*
D03*
X439500Y365000D02*
D03*
X553000Y374500D02*
D03*
Y355500D02*
D03*
X572000Y365000D02*
D03*
D62*
X184000Y648000D02*
D03*
X142000D02*
D03*
D63*
X315000Y428500D02*
D03*
Y396500D02*
D03*
Y412500D02*
D03*
X390000Y428500D02*
D03*
Y396500D02*
D03*
Y412500D02*
D03*
X465000Y428500D02*
D03*
Y396500D02*
D03*
Y412500D02*
D03*
D64*
X145611Y586000D02*
D03*
X129611D02*
D03*
X162500Y601000D02*
D03*
X177500D02*
D03*
X40178Y563000D02*
D03*
X24178D02*
D03*
D65*
X-17787D02*
D03*
X6213D02*
D03*
D66*
X170000Y474750D02*
D03*
Y529250D02*
D03*
%TF.MD5,9a6cb561f2e4ab9ca22d01e9a9f9246e*%
M02*
